<svg width="423" height="46" viewBox="0 0 423 46" fill="none" xmlns="http://www.w3.org/2000/svg">
<path d="M21.4498 37.2999C20.3498 38.0999 18.9498 38.5 17.5498 38.5H13.2498C12.7498 38.5 12.4497 38.2 12.3497 37.7999L11.3497 34.7C11.1497 34.1 11.3498 33.7 11.7498 33.7H15.3497C15.9497 33.7 16.5498 33 16.5498 32.2999V24.7999C16.5498 24.0999 16.1497 23.5 15.3497 23.4H10.3497C10.2497 30.9 9.94977 38 8.24977 44.9C8.04977 45.5 7.74977 45.7 7.24977 45.7H1.24977C0.649771 45.7 0.649771 45.2999 0.749771 44.7999C2.64977 38.8999 3.14976 32.4 3.14976 25.7V9.89995C3.14976 9.59995 3.54975 9.39995 3.84975 9.39995H9.64977C9.94977 9.39995 10.3497 9.59995 10.3497 9.99995V18.7H18.0498C19.6498 18.7 20.9498 19.3 21.9498 20.1C22.8498 21 23.3497 22.1999 23.3497 23.4V33.7C23.2497 35.2999 22.5498 36.5 21.4498 37.2999ZM43.1498 43.7999C41.9498 44.8999 40.3498 45.5 38.7498 45.5999C37.0498 45.7999 35.3498 45.4 33.9498 44.5C32.4498 43.4 31.4498 41.8999 30.7498 40.2999C28.8498 42.2 27.4498 43.5 25.4498 45.0999C24.7498 45.5999 24.2498 45.7 23.6498 45.7H14.8497C14.3497 45.7 14.2498 45 14.7498 44.7C19.5498 41.6 24.0498 38.4 28.0498 33.7C26.3498 27.4 25.1497 20.9 24.3497 14.2H15.1498C14.6498 14.2 14.3498 14.5 14.1498 14.8C13.8498 15.3 13.8497 16 14.3497 16.5C13.2497 16.3 12.2498 15.3 11.7498 14.2C11.2498 13.2 11.3497 11.8 11.8497 10.8C12.3497 9.99995 13.0498 9.39995 14.2498 9.39995H23.8497C23.7497 6.89995 23.4497 4.39995 23.3497 1.89995C23.3497 1.49995 23.5497 1.29995 23.8497 1.19995H29.7498C30.2498 1.29995 30.5498 1.49995 30.4498 1.99995C30.6498 4.59995 30.7498 7.69995 31.0498 9.39995H35.6498C35.3498 8.09995 34.9498 6.89995 34.2498 5.59995C33.9498 4.99995 33.6498 4.79995 33.2498 4.69995C32.8498 4.59995 32.4497 4.79995 31.8497 4.89995C32.3497 3.79995 33.2497 2.79995 34.3497 2.19995C35.4497 1.59995 36.6497 1.39995 37.8497 1.59995C39.3497 1.79995 40.0497 2.49995 40.8497 4.19995C41.6497 5.89995 42.2497 7.89995 42.8497 9.49995H44.2498C44.5498 9.49995 44.8497 9.69995 44.8497 10.1V13.7C44.8497 14.2 44.6498 14.3 44.2498 14.3H31.7498C32.0498 18.4 32.8498 22.5 33.7498 26.2999C35.2498 23.7999 36.2498 21.5 37.1498 18.7C37.3498 18.3 37.6498 18 38.2498 18H43.4498C43.9498 18 44.2498 18.6 44.0498 18.9C42.4498 24.4 39.4498 30.2 36.1498 34.5C37.0498 36.2 37.4498 38.2999 39.0498 39.5999C39.7498 40.1999 40.3498 40.2 40.7498 39.7999C41.1498 39.3999 41.4498 38.7999 41.4498 38.0999C41.5498 36 40.7498 34.5 40.2498 32.5C42.7498 34 44.6498 36.5 45.0498 39.2C45.0498 40.9 44.3498 42.5999 43.1498 43.7999Z" fill="#00C3BB"/>
<path d="M73.55 38.1999C67.65 40.1999 61.15 42.0999 55.25 43.0999C54.75 43.1999 54.45 42.9999 54.45 42.5999V38.3999C54.45 38.0999 54.85 37.8999 55.05 37.8999C56.45 37.6999 58.85 37.1999 60.75 36.5999V11.6999C60.75 10.9999 60.35 10.6999 59.85 10.5999C59.35 10.4999 58.85 10.6999 58.35 10.8999C58.95 9.79991 60.35 8.79991 61.45 8.39991H54.75C54.45 8.39991 54.25 8.09991 54.25 7.79991V3.89991C54.25 3.49991 54.55 3.39991 54.85 3.39991H72.35C72.65 3.39991 72.95 3.69991 72.95 3.99991V7.59991C72.95 7.99991 72.75 8.29991 72.35 8.29991H65.65C66.85 9.09991 67.85 10.4999 67.85 11.7999V34.5999C69.75 34.1999 71.95 33.6999 73.45 33.1999C73.75 33.0999 74.15 33.2999 74.15 33.4999V37.3999C74.25 37.7999 73.95 38.0999 73.55 38.1999ZM96.55 43.7999C95.25 44.8999 93.45 45.3999 91.55 45.3999H85.35C84.95 45.3999 84.65 44.9999 84.65 44.7999L83.85 40.8999C83.75 40.5999 84.15 40.3999 84.35 40.3999H89.75C90.85 40.3999 91.35 39.7999 91.35 38.7999V16.4999C91.35 15.4999 90.35 14.7999 89.55 14.7999H84.65C84.75 25.1999 84.05 35.6999 79.55 44.8999C79.35 45.1999 78.95 45.4999 78.45 45.4999H72.15C71.65 45.4999 71.35 44.9999 71.55 44.5999C76.55 37.0999 77.75 26.5999 77.65 14.8999H75.85C75.15 14.8999 74.65 15.1999 74.55 15.5999C74.35 16.0999 74.55 16.6999 75.05 17.4999C74.05 17.2999 73.25 16.4999 72.75 15.4999C72.05 14.1999 72.05 12.3999 72.95 11.1999C73.55 10.3999 74.65 9.89991 76.15 9.89991H77.55V4.99991C77.55 4.49991 77.15 3.99991 76.65 3.99991C76.15 3.89991 75.55 4.09991 74.95 4.69991C75.25 3.69991 75.85 2.69991 76.65 2.09991C77.65 1.29991 78.95 0.899911 80.25 0.899911C81.65 0.799911 82.95 1.39991 83.75 2.59991C84.35 3.39991 84.55 4.59991 84.55 5.59991V9.89991H92.55C94.15 9.89991 95.65 10.4999 96.75 11.5999C97.85 12.6999 98.55 14.1999 98.55 15.9999V38.7999C98.65 41.0999 97.75 42.6999 96.55 43.7999Z" fill="#00C3BB"/>
<path d="M118.15 12.7999V44.9999C118.15 45.2999 117.85 45.5999 117.55 45.5999H111.65C111.35 45.5999 111.15 45.2999 111.15 44.9999V20.9999H108.05C107.65 20.9999 107.65 20.3999 107.75 20.1999C110.55 14.3999 111.95 6.8999 112.75 1.9999C112.85 1.5999 113.15 1.3999 113.45 1.3999H119.55C119.95 1.3999 120.15 1.6999 120.05 2.0999C119.85 4.8999 119.05 8.9999 118.15 12.7999ZM151.05 43.9999C150.05 44.9999 148.45 45.4999 146.45 45.4999H126.15C124.75 45.4999 123.15 44.7999 122.15 43.3999C121.45 42.4999 121.05 41.2999 121.05 39.8999V2.1999C121.05 1.9999 121.25 1.6999 121.55 1.6999H127.15C127.45 1.6999 127.65 1.8999 127.65 2.2999V38.4999C127.65 39.6999 128.55 40.7999 129.75 40.7999H143.55C144.95 40.7999 145.75 40.0999 145.75 38.7999V8.5999C145.75 7.5999 144.85 6.5999 143.65 6.5999H132.15C131.35 6.5999 130.85 7.0999 130.75 7.6999C130.55 8.2999 130.65 8.9999 131.15 9.6999C129.75 9.0999 128.85 8.0999 128.45 6.8999C128.05 5.7999 128.15 4.5999 128.65 3.5999C129.15 2.4999 130.15 1.7999 131.55 1.7999H147.25C148.75 1.7999 150.05 2.2999 150.95 3.0999C151.95 3.9999 152.45 5.1999 152.45 6.6999V40.3999C152.55 41.7999 152.05 43.0999 151.05 43.9999ZM144.25 18.4999H139.75V22.4999H141.25C141.95 22.4999 142.65 22.8999 143.05 23.3999C143.65 23.9999 143.95 24.7999 143.95 25.4999V34.5999C143.95 35.4999 143.55 36.2999 142.95 36.9999C142.25 37.7999 141.25 38.2999 140.25 38.2999H132.75C131.85 38.2999 130.95 37.7999 130.35 37.1999C129.75 36.4999 129.35 35.5999 129.35 34.6999V23.0999C129.35 22.8999 129.65 22.5999 129.85 22.5999H133.65V18.5999H129.25C128.95 18.5999 128.65 18.2999 128.65 18.0999V14.6999C128.65 14.3999 128.95 14.1999 129.15 14.1999H133.65V11.7999C133.65 10.8999 132.55 10.3999 131.65 11.0999C132.25 10.0999 133.15 9.3999 134.15 8.9999C135.35 8.4999 136.75 8.4999 137.75 8.8999C138.85 9.3999 139.55 10.2999 139.55 11.6999V14.1999H144.05C144.35 14.1999 144.55 14.3999 144.55 14.6999V17.9999C144.85 18.2999 144.55 18.4999 144.25 18.4999ZM138.55 27.3999C138.55 26.8999 138.05 26.6999 137.55 26.7999C137.15 26.8999 136.95 27.3999 136.95 28.2999C136.15 27.4999 135.85 26.1999 135.95 24.9999C136.05 24.1999 136.35 23.2999 136.95 22.5999H135.35V32.7999C135.35 33.2999 135.75 33.6999 136.25 33.6999H137.65C138.25 33.6999 138.65 33.2999 138.65 32.8999V27.3999H138.55Z" fill="#00C3BB"/>
<path d="M205.849 34.8H187.949V44.3C187.949 44.9 187.649 45.3 187.149 45.3H181.549C181.249 45.3 180.849 45 180.849 44.3V34.8H162.849C162.449 34.8 162.149 34.4001 162.149 34V31.2001C162.149 30.8001 162.249 30.5 162.749 30.5H180.749C180.649 29.7001 179.449 29.4 178.949 29.6C179.849 28.6 181.149 28 182.449 27.7001C183.549 27.5 184.649 27.5 185.649 27.8C186.849 28.4 187.449 29.1 187.949 30.5H205.849C206.249 30.5 206.549 30.8 206.549 31.1V34.2001C206.549 34.4001 206.149 34.8 205.849 34.8ZM205.749 17.3H198.549C195.949 19.5 193.249 21.4 190.349 23.1C193.549 24.2001 201.149 26.4 204.749 27.4C205.449 27.6 205.449 28.4 204.249 28.5H191.549C191.049 28.4 190.549 28.3001 190.249 28.2001C188.149 27.6 186.049 27 183.949 26.2001C182.249 26.9001 180.349 27.6 178.949 28.2001C178.449 28.4001 177.849 28.5 177.049 28.5H163.349C162.549 28.5 162.549 27.6 163.249 27.4C167.649 26.5 172.149 25.1 176.149 23.6C173.949 22.9 172.149 22.3 170.549 21.5C169.949 21.2001 169.649 20.7001 169.649 20.2001C169.549 19.5 169.849 18.9 170.349 18.5C170.849 18.1 171.449 17.7 171.749 17.3H162.949C162.649 17.3 162.449 17 162.449 16.7V13.8C162.449 13.4 162.649 13.2 163.049 13.2H177.249C177.849 12.7 178.849 11.8 179.249 11.2C179.749 10.6 179.649 10.3 178.749 10C179.949 9.50005 181.449 9.30005 182.849 9.40005C184.049 9.50005 185.149 9.80005 186.049 10.4C186.749 11.1 186.849 12.5 186.349 13.1H205.849C206.349 13.1 206.449 13.4 206.449 13.7V16.6C206.349 17 205.949 17.3 205.749 17.3ZM169.049 12.2H163.349C163.049 12.2 162.749 11.7 162.749 11.5V4.90005C162.849 4.50005 163.049 4.40005 163.349 4.40005H169.249C169.549 4.40005 169.849 4.90005 169.849 5.20005V11.5C169.849 11.8 169.549 12.2 169.049 12.2ZM172.049 44.2001C171.749 44.6001 171.549 44.8 170.949 44.8H163.449C162.849 44.8 162.949 44.3 163.149 44.1C165.249 41.7 166.849 39.4 168.349 36.8C168.649 36.3 169.049 36.2001 169.549 36.2001H176.149C176.649 36.2001 176.749 36.7001 176.349 37.3C175.049 39.8 173.549 42.2001 172.049 44.2001ZM205.049 12H199.549C199.149 12 198.749 11.7 198.749 11.4V9.90005C198.749 9.10005 198.149 8.70005 197.549 8.70005H174.049C173.549 8.70005 173.249 9.00005 173.249 9.40005C173.149 9.80005 173.349 10.2 173.649 10.5C172.549 10.3 171.649 9.60005 171.249 8.80005C170.649 7.80005 170.649 6.50005 171.349 5.60005C171.849 4.90005 172.749 4.40005 174.049 4.40005H180.649C180.649 3.90005 180.449 3.60005 180.149 3.40005C179.749 3.10005 179.049 3.10005 178.549 3.20005C179.349 2.30005 180.349 1.60005 181.449 1.20005C182.549 0.800049 183.749 0.700049 184.949 0.900049C185.949 1.10005 186.549 1.60005 187.049 2.10005C187.649 2.80005 187.949 3.70005 188.049 4.40005H201.349C202.449 4.40005 203.549 4.90005 204.349 5.70005C205.249 6.60005 205.749 7.70005 205.749 8.90005V11.3C205.849 11.6 205.349 12 205.049 12ZM181.649 17.3C181.049 17.8 179.949 18.7 179.149 19.3C180.249 19.8 181.749 20.3001 183.149 20.7001C185.249 19.8001 187.149 18.5 189.049 17.3H181.649ZM204.649 44.5H197.449C196.949 44.5 196.549 44.2001 196.249 43.8C194.649 41.4 193.249 39.2001 191.849 36.8C191.549 36.3 191.849 36 192.349 36H199.249C199.649 36 199.949 36.2 200.149 36.6C201.749 39.2 203.349 41.3 205.249 43.8C205.449 44.2001 205.249 44.5 204.649 44.5Z" fill="#00C3BB"/>
<path d="M260.15 37.7H216.85C216.55 37.7 216.25 37.5 216.25 37.1V34.3C216.25 33.9 216.65 33.6 216.95 33.6H219.75V10.9C219.75 10.5 220.15 10.3 220.45 10.3H226.05C226.45 10.3 226.85 10.8 226.85 11.2V16.3H250.15V15.5C250.15 14.7 249.65 14.2 248.85 14.2H230.55C230.15 14.2 229.95 14.4 229.85 14.8C229.85 15.1 230.15 15.6 230.65 15.9C229.25 15.9 228.35 15.3 227.85 14.5C227.25 13.5 227.35 12.2 228.05 11.3C228.55 10.7 229.25 10.4 230.25 10.4H234.05C234.25 9.8 234.35 8.90001 234.35 8.30001H217.25C216.95 8.30001 216.55 8.00001 216.55 7.60001V4.80001C216.55 4.50001 216.85 4.20001 217.15 4.20001H234.95C235.05 3.50001 234.85 3.00001 234.45 2.70001C234.05 2.40001 233.55 2.30001 232.65 2.30001C233.55 1.40001 234.85 0.800005 236.25 0.600005C237.95 0.300005 239.75 0.500006 240.95 1.40001C241.85 2.00001 242.35 2.90001 242.35 4.20001H259.25C259.45 4.20001 259.85 4.50001 259.85 4.80001V7.60001C259.85 7.90001 259.45 8.20001 259.25 8.20001H241.75C241.65 8.7 241.45 9.60001 241.35 10.3H252.15C253.85 10.3 255.05 11 255.75 11.9C256.65 13 257.05 14.5 257.05 15.7V33.6H260.05C260.35 33.6 260.65 33.8 260.65 34.2V37.2C260.75 37.4 260.45 37.7 260.15 37.7ZM227.95 45.3C227.55 45.6 227.05 45.7 226.55 45.7H217.55C217.25 45.7 217.25 45.2 217.45 45.1C220.15 43.6 223.35 41.2 225.35 39.4C225.65 39.1 226.05 39 226.45 39H233.95C234.25 39 234.35 39.4 234.25 39.6C232.55 41.4 230.25 43.7 227.95 45.3ZM250.05 19.9H226.75V21.9H250.05V19.9ZM250.05 25.5H226.75V27.6H250.05V25.5ZM250.05 31.3H226.75V33.6H250.05V31.3ZM259.45 45.7H251.25C250.65 45.7 249.75 45.4 249.15 45C247.45 43.7 244.15 40.9 242.75 39.6C242.55 39.4 242.65 39 242.95 39H250.95C251.35 39 251.85 39.2 252.15 39.4C253.85 40.8 257.55 43.4 259.85 44.7C260.15 44.9 259.95 45.7 259.45 45.7Z" fill="#00C3BB"/>
<path d="M313.95 16.8001H310.45C310.15 18.1001 309.75 19.1001 309.05 19.7001C308.05 20.6001 306.75 21.0001 304.85 21.0001H278.45C277.05 21.0001 275.85 20.3001 275.15 19.3001C274.65 18.6001 274.45 17.7001 274.45 16.8001H270.85C270.45 16.8001 270.15 16.5001 270.15 16.1001V13.7001C270.15 13.3001 270.45 13.1001 270.75 13.1001H274.35V11.1001H270.65C270.25 11.1001 270.05 10.7001 270.05 10.3001V5.2001C270.05 4.8001 270.45 4.6001 270.75 4.6001H276.15C276.75 4.7001 276.95 5.1001 276.95 5.4001V9.5001H278.55C277.55 8.0001 277.45 6.9001 277.85 6.0001C278.25 5.1001 279.25 4.6001 280.45 4.6001H288.85C288.75 4.0001 288.15 3.5001 287.55 3.3001C287.05 3.2001 286.65 3.4001 286.25 3.7001C286.75 2.6001 287.95 1.7001 289.35 1.2001C290.85 0.600098 292.65 0.500098 293.85 1.3001C295.15 2.1001 296.05 3.6001 296.55 4.6001H310.45C311.55 4.6001 312.65 5.0001 313.45 5.6001C314.15 6.2001 314.55 7.0001 314.55 8.1001V10.5001C314.55 10.9001 314.25 11.3001 313.85 11.3001H309.55C310.05 11.8001 310.35 12.4001 310.35 13.3001H314.05C314.35 13.3001 314.65 13.6001 314.65 13.9001V16.4001C314.55 16.5001 314.25 16.8001 313.95 16.8001ZM312.65 45.8001H304.55C304.15 45.8001 303.45 45.5001 303.25 45.3001C301.05 43.7001 298.75 41.5001 297.25 39.7001H288.05C285.95 41.9001 283.45 44.1001 281.35 45.4001C281.15 45.6001 280.65 45.7001 280.25 45.7001H271.85C271.15 45.5001 271.05 44.9001 271.65 44.6001C274.05 43.3001 276.55 41.4001 278.55 39.7001C276.45 39.7001 275.05 39.1001 274.15 38.1001C273.45 37.2001 273.15 36.0001 273.15 34.5001V23.6001C273.15 23.1001 273.65 22.8001 273.95 22.8001H279.25C279.55 22.8001 280.05 23.1001 280.05 23.6001V27.5001H281.85C280.85 26.6001 280.55 25.3001 280.85 24.4001C281.15 23.5001 281.85 22.9001 283.15 22.9001H306.55C308.05 22.9001 309.25 23.5001 310.05 24.3001C310.95 25.2001 311.35 26.5001 311.35 28.0001V35.6001C311.35 36.7001 310.85 37.7001 310.15 38.4001C309.15 39.4001 307.55 40.0001 306.05 39.9001C307.85 41.6001 310.55 43.4001 312.85 44.9001C313.35 45.2001 313.05 45.8001 312.65 45.8001ZM307.55 9.0001C307.45 8.5001 307.15 8.2001 306.65 8.2001H280.25C279.45 8.2001 279.35 9.0001 279.65 9.5001H280.25C280.55 9.5001 280.95 9.9001 280.95 10.3001V13.8001H289.05V12.5001H283.75C283.35 12.5001 283.15 12.6001 283.05 12.8001C282.95 13.0001 282.95 13.3001 283.25 13.6001C282.35 13.5001 281.85 12.8001 281.75 12.1001C281.65 11.5001 281.75 10.9001 282.15 10.4001C282.45 9.9001 283.05 9.6001 283.75 9.6001H305.95C306.55 9.6001 307.15 9.7001 307.55 9.9001V9.0001ZM280.05 34.5001C279.85 35.2001 280.45 36.0001 281.05 36.2001H302.95C304.05 36.2001 304.55 35.5001 304.45 34.5001H280.05ZM304.45 30.2001H280.05V31.7001H304.45V30.2001ZM289.05 16.6001H280.95C280.95 17.4001 281.25 18.0001 281.95 18.1001H289.05V16.6001ZM303.35 26.0001H283.25C282.65 26.0001 282.35 26.8001 282.85 27.3001H304.55C304.55 26.7001 304.15 26.1001 303.35 26.0001ZM302.55 12.4001H295.55V13.7001H303.75C303.85 13.0001 303.45 12.5001 302.55 12.4001ZM295.65 16.6001V18.1001H302.65C303.55 17.9001 303.95 17.4001 303.85 16.6001H295.65Z" fill="#00C3BB"/>
<path d="M365.25 44.2001C364.05 45.1001 362.35 45.5001 360.85 45.5001H331.55C329.85 45.5001 328.35 44.8001 327.35 43.7001C326.15 42.4001 325.45 40.6001 325.45 38.6001V2.3001C325.55 1.8001 325.85 1.6001 326.15 1.6001H331.95C332.25 1.6001 332.55 2.0001 332.55 2.4001V38.6001C332.55 39.7001 333.55 40.7001 334.65 40.7001H358.65C359.65 40.7001 360.45 40.0001 360.45 39.0001V8.4001C360.45 7.0001 359.85 6.5001 358.65 6.5001H337.35C336.65 6.5001 336.25 7.0001 336.15 7.6001C336.05 8.3001 336.45 9.1001 337.35 9.8001C335.65 9.2001 334.45 8.0001 333.95 6.7001C333.45 5.4001 333.45 4.1001 334.15 3.1001C334.75 2.3001 335.75 1.7001 337.25 1.7001H361.95C363.55 1.7001 365.05 2.5001 366.15 3.7001C366.95 4.7001 367.55 5.9001 367.55 7.2001V40.0001C367.45 41.9001 366.55 43.3001 365.25 44.2001ZM355.75 34.1001C354.95 35.1001 353.75 35.6001 352.25 35.6001H340.45C338.85 35.6001 337.75 34.9001 337.05 33.9001C336.25 32.8001 335.95 31.4001 335.95 30.2001V12.4001C335.95 11.9001 336.35 11.7001 336.65 11.7001H341.95C342.25 11.7001 342.65 12.0001 342.65 12.5001V29.4001C342.65 30.4001 343.15 31.0001 343.95 31.0001H348.65C349.55 31.0001 350.05 30.4001 350.15 29.5001V17.6001C350.15 17.1001 349.55 16.6001 349.25 16.6001H346.15C345.65 16.6001 345.45 17.0001 345.45 17.4001C345.45 17.9001 345.75 18.5001 346.05 18.8001C345.05 18.7001 344.25 17.6001 343.85 16.7001C343.45 15.8001 343.25 14.6001 343.65 13.6001C344.05 12.4001 345.15 11.7001 346.45 11.7001H352.15C353.65 11.7001 354.95 12.2001 355.85 13.2001C356.55 14.0001 356.95 15.3001 356.95 16.9001V30.5001C356.95 32.0001 356.55 33.2001 355.75 34.1001Z" fill="#00C3BB"/>
<path d="M395.15 13.1001H390.55C390.15 13.1001 389.95 12.7001 389.85 12.3001C389.55 11.0001 389.05 8.70007 388.95 7.60007C388.85 6.80007 388.65 6.20007 387.75 6.10007H386.55C385.95 6.10007 385.55 6.60007 385.45 7.00007C385.25 7.70007 385.05 8.80007 384.85 9.60007C385.75 9.10007 386.65 9.00007 387.35 9.30007C388.05 9.60007 388.55 10.3001 388.85 11.3001C389.15 12.2001 389.45 14.0001 389.45 14.6001H390.45C391.45 14.6001 392.45 14.9001 393.25 15.5001C394.05 16.2001 394.55 17.1001 394.55 18.4001V29.0001C394.55 29.9001 394.05 30.8001 393.35 31.4001C392.65 32.0001 391.65 32.4001 390.55 32.4001H385.35V39.7001C385.35 40.5001 385.85 41.0001 386.85 41.0001H388.85C388.55 39.6001 388.05 36.4001 387.85 35.2001C387.75 34.7001 388.05 34.5001 388.35 34.5001H392.95C393.35 34.5001 393.45 34.9001 393.65 35.4001C394.15 38.8001 394.95 41.7001 395.85 45.0001C395.95 45.5001 395.65 45.6001 395.35 45.6001H390.55C390.15 45.6001 389.85 45.4001 389.75 45.0001C389.55 44.3001 389.15 43.0001 389.05 42.3001L387.95 45.2001C387.85 45.5001 387.55 45.7001 387.15 45.7001H383.75C382.35 45.7001 381.25 45.2001 380.55 44.5001C379.65 43.7001 379.25 42.5001 379.25 41.4001V15.1001C379.25 14.7001 379.55 14.6001 379.85 14.6001H384.85C384.75 13.6001 384.65 12.5001 384.25 11.7001C384.15 12.0001 383.95 12.4001 383.85 12.7001C383.75 13.0001 383.45 13.1001 383.05 13.2001H378.85C378.25 13.1001 378.05 12.8001 378.25 12.5001C379.15 9.80007 380.05 6.60007 380.65 4.30007C380.85 3.70007 381.25 3.10007 381.75 2.60007C382.35 2.10007 383.05 1.80007 383.75 1.80007H390.05C391.35 1.90007 392.25 2.20007 392.95 2.90007C393.65 3.60007 394.05 4.60007 394.25 5.80007C394.55 8.00007 395.05 10.3001 395.75 12.5001C395.85 12.9001 395.55 13.1001 395.15 13.1001ZM388.65 20.1001C388.65 19.6001 388.55 19.2001 388.15 19.2001H387.55C386.95 19.2001 386.75 19.8001 386.95 20.4001C386.05 19.6001 385.55 18.7001 385.55 17.5001C385.65 16.3001 386.35 15.2001 387.45 14.8001H385.15V21.2001H388.55V20.1001H388.65ZM388.65 25.5001H385.25V27.9001H388.05C388.55 27.9001 388.75 27.5001 388.75 27.0001V25.5001H388.65ZM421.95 18.7001H396.05C395.75 18.7001 395.45 18.4001 395.45 18.0001V15.5001C395.45 15.1001 395.75 14.9001 396.15 14.9001H406.05V13.0001H400.45C399.65 13.0001 398.55 12.5001 397.95 11.8001C397.35 11.2001 396.95 10.4001 396.95 9.50007V7.00007C396.95 6.00007 397.45 5.30007 398.05 4.70007C398.75 4.10007 399.65 3.80007 400.35 3.80007H406.05C406.05 3.10007 405.75 2.80007 405.25 2.60007C404.75 2.40007 404.05 2.50007 403.35 2.80007C403.95 2.10007 404.95 1.50007 405.95 1.20007C407.35 0.700071 408.95 0.500071 410.15 1.00007C411.25 1.40007 412.15 2.30007 412.15 3.90007H416.95C418.05 3.90007 419.15 4.20007 419.95 4.80007C420.65 5.40007 421.05 6.30007 421.05 7.40007V9.60007C421.05 10.5001 420.75 11.2001 420.35 11.8001C419.55 12.7001 418.55 13.1001 417.15 13.1001H412.15V15.0001H421.95C422.15 15.0001 422.45 15.2001 422.45 15.7001V18.3001C422.45 18.6001 422.25 18.7001 421.95 18.7001ZM404.35 45.2001C404.15 45.5001 403.85 45.6001 403.45 45.6001H397.15C396.75 45.5001 396.55 45.3001 396.85 44.9001C398.25 43.4001 399.45 42.0001 400.45 40.3001C400.65 40.0001 400.75 39.8001 401.05 39.9001H407.25C407.65 39.8001 407.85 40.3001 407.55 40.8001C406.45 42.4001 405.55 43.7001 404.35 45.2001ZM419.75 37.5001C418.75 38.5001 417.25 38.9001 415.85 38.9001H402.55C400.85 38.9001 399.45 38.4001 398.55 37.4001C397.75 36.5001 397.25 35.2001 397.25 33.5001V21.2001C397.25 20.9001 397.45 20.5001 397.65 20.5001H403.35C403.65 20.5001 403.95 21.0001 403.95 21.3001V25.8001H414.35V25.0001C414.35 24.5001 414.05 24.2001 413.65 24.2001H406.85C406.55 24.2001 406.25 24.3001 406.15 24.5001C405.95 24.8001 405.85 25.1001 406.05 25.4001C405.35 24.9001 404.95 24.2001 404.85 23.5001C404.75 22.8001 404.95 22.1001 405.35 21.5001C405.75 20.9001 406.45 20.5001 407.25 20.5001H416.35C417.85 20.5001 419.05 21.0001 419.75 21.9001C420.55 22.8001 421.05 24.0001 421.05 25.2001V34.3001C421.05 35.7001 420.45 36.8001 419.75 37.5001ZM406.05 7.40007H403.55C403.25 7.40007 402.85 7.60007 402.85 8.00007V8.90007C402.85 9.30007 403.15 9.50007 403.45 9.50007H406.05V7.40007ZM414.35 28.7001H403.95V30.4001H414.35V28.7001ZM414.35 33.6001H403.95V34.4001C403.95 35.0001 404.65 35.3001 405.05 35.3001H413.75C414.15 35.3001 414.45 34.8001 414.45 34.5001V33.6001H414.35ZM421.85 45.6001H415.25C414.95 45.7001 414.65 45.4001 414.45 45.2001C413.45 44.1001 411.95 41.8001 411.25 40.5001C411.05 40.1001 411.35 39.9001 411.75 39.9001H417.85C418.25 39.8001 418.45 39.9001 418.65 40.2001C419.65 41.9001 420.95 43.4001 422.25 45.0001C422.45 45.2001 422.25 45.6001 421.85 45.6001ZM415.25 8.10007C415.25 7.60007 414.65 7.50007 414.25 7.50007H412.25V9.60007H414.25C414.65 9.60007 415.35 9.50007 415.35 9.00007V8.10007H415.25Z" fill="#00C3BB"/>
</svg>
