<svg width="279" height="48" viewBox="0 0 279 48" fill="none" xmlns="http://www.w3.org/2000/svg">
<path d="M18.3498 5.7002C23.9498 5.7002 28.3498 7.3002 31.5498 10.6002C34.7498 13.9002 36.3498 18.7002 36.3498 25.0002C36.3498 29.7002 35.4498 33.5002 33.6498 36.7002C31.8498 39.8002 29.4498 42.1002 26.6498 43.6002C23.8498 45.1002 20.9498 45.8002 17.9498 45.8002H0.549805V5.7002H18.3498ZM9.7498 44.0002C15.2498 44.1002 19.5498 42.8002 22.6498 40.0002C25.7498 37.2002 27.2498 32.3002 27.2498 25.0002C27.2498 20.2002 26.5498 16.6002 25.1498 14.0002C23.7498 11.4002 21.7498 9.7002 19.2498 8.8002C16.7498 8.0002 13.5498 7.6002 9.7498 7.6002V44.0002Z" fill="#00C3BB"/>
<path d="M40.3496 45.9001V12.8001H49.5496V23.0001C51.3496 19.8001 53.3496 17.1001 55.7496 15.0001C58.1496 12.9001 60.8496 11.9001 63.9496 11.9001C65.5496 11.9001 67.1496 12.2001 68.7496 12.8001V22.0001C64.9496 20.0001 61.7496 19.0001 58.9496 19.0001C55.0496 19.0001 51.9496 21.2001 49.5496 25.7001V45.8001H40.3496V45.9001Z" fill="#00C3BB"/>
<path d="M81.3502 41.2001C83.3502 43.7001 85.9502 44.9001 89.1502 44.9001C91.2502 44.9001 93.3502 44.4001 95.6502 43.4001C97.9502 42.4001 100.35 40.7 103.05 38.3V45.7001C98.8502 46.6001 94.9502 47.1 91.1502 47.1C84.5502 47.1 79.0502 45.6 74.8502 42.6C70.6502 39.6 68.4502 34.8001 68.4502 28.2001C68.4502 22.7001 70.2502 18.6 73.9502 15.9C77.5502 13.2 82.3502 11.8 88.3502 11.8C91.4502 11.8 94.1502 12.2 96.3502 13.1C98.5502 14 100.25 15.2 101.35 16.7C102.45 18.2 103.05 19.9 103.05 21.8C103.05 23.7 102.35 25.5 100.85 27.1C99.3502 28.7 97.3502 30 94.6502 31C91.9502 32 88.9502 32.5 85.5502 32.5C83.0502 32.5 80.4502 32.2 77.6502 31.6C78.0502 35.6 79.2502 38.8001 81.3502 41.2001ZM82.1502 15.9C80.6502 17.3 79.4502 19.2 78.6502 21.5C77.8502 23.8 77.4502 26.3 77.4502 28.9V30.1C78.7502 30.2 79.6502 30.2001 80.2502 30.2001C83.3502 30.2001 86.0502 29.8 88.1502 28.9C90.3502 28 91.9502 26.9 92.9502 25.4C94.0502 23.9 94.5502 22.3 94.5502 20.6C94.5502 18.7 93.9502 17.1 92.8502 15.7C91.7502 14.4 89.9502 13.7 87.7502 13.7C85.5502 13.8 83.7502 14.5 82.1502 15.9Z" fill="#00C3BB"/>
<path d="M139.55 45.9001H130.35L128.15 40.7001L128.25 41.4001C127.05 43.1001 125.35 44.4001 123.35 45.4001C121.25 46.4001 118.85 46.9001 116.05 46.9001C113.95 46.9001 112.15 46.5 110.55 45.7001C108.95 44.9001 107.75 43.8001 106.85 42.4001C105.95 41.0001 105.55 39.5 105.55 37.7001C105.55 35.4001 106.35 33.1 107.95 30.8C109.55 28.5 112.05 26.6 115.45 25C118.85 23.4 123.15 22.4 128.25 22.1L128.15 17.8C128.15 15.5 127.15 14.4 125.25 14.4C123.55 14.4 121.55 15.1 119.05 16.5C116.55 17.9 113.95 19.6 111.15 21.5L110.05 22.2V13C115.45 12.2 119.75 11.8 123.15 11.8C127.45 11.8 130.95 12.5 133.45 13.9C135.95 15.3 137.25 17.8 137.35 21.2L137.45 23.4H130.55C127.35 23.4 124.55 24 122.15 25.1C119.65 26.2 117.75 27.8001 116.45 29.7001C115.05 31.6 114.45 33.8001 114.45 36.2001C114.45 38.4001 115.05 40.2001 116.25 41.7001C117.45 43.1 119.05 43.8 120.95 43.8C122.25 43.8 123.55 43.4001 124.75 42.7001C125.95 42 127.05 41 127.85 39.7001L123.95 30.4H133.15L139.55 45.9001Z" fill="#00C3BB"/>
<path d="M143.45 45.9002V12.8002H152.65V22.7002C154.65 19.2002 157.15 16.5002 159.95 14.6002C162.85 12.7002 165.55 11.7002 168.25 11.7002C170.85 11.7002 172.95 12.5002 174.45 14.2002C176.05 15.9002 176.75 18.4002 176.75 21.6002C178.65 18.4002 181.05 16.0002 183.85 14.3002C186.65 12.6002 189.35 11.7002 191.95 11.7002C194.45 11.7002 196.45 12.5002 198.05 14.1002C199.65 15.7002 200.45 17.9002 200.45 20.9002V45.8002H191.25V20.3002C191.25 18.8002 190.95 17.6002 190.25 16.8002C189.55 16.0002 188.65 15.6002 187.55 15.6002C185.85 15.6002 183.95 16.4002 181.95 18.1002C179.95 19.8002 178.15 22.0002 176.75 24.7002V45.8002H167.55V20.9002C167.55 19.2002 167.25 18.0002 166.55 17.1002C165.85 16.3002 164.95 15.8002 163.85 15.8002C162.15 15.8002 160.15 16.7002 158.05 18.5002C155.85 20.3002 154.05 22.7002 152.45 25.6002V45.8002H143.45V45.9002Z" fill="#00C3BB"/>
<path d="M204.35 45.9002V5.7002H234.15V14.9002C232.35 13.5002 230.15 12.3002 227.65 11.2002C225.05 10.1002 222.55 9.2002 219.95 8.6002C217.35 8.0002 215.25 7.6002 213.45 7.6002V22.4002H226.75V24.2002H213.55V45.9002H204.35Z" fill="#00C3BB"/>
<path d="M238.15 9C237.25 8.1 236.75 7 236.75 5.7C236.75 4.4 237.25 3.3 238.15 2.4C239.05 1.5 240.15 1 241.55 1C242.85 1 243.95 1.4 244.85 2.3C245.75 3.2 246.15 4.3 246.15 5.6C246.15 6.9 245.75 8 244.85 8.9C243.95 9.8 242.85 10.3 241.55 10.3C240.25 10.4 239.15 10 238.15 9ZM246.15 45.9H236.95V12.8H246.15V45.9Z" fill="#00C3BB"/>
<path d="M259.35 45.3001C257.35 44.3001 255.75 42.9001 254.65 41.0001C253.45 39.2001 252.95 36.9001 252.95 34.4001V17.3001C252.95 16.3001 252.65 15.6001 252.15 15.1001C251.65 14.6001 250.75 14.2001 249.55 14.0001V12.9001C251.95 12.9001 253.95 12.3001 255.65 11.0001C257.35 9.7001 258.65 8.1001 259.55 6.1001C260.45 4.1001 260.85 2.1001 260.85 0.100098H262.05V12.9001H270.05V14.7001H262.05V40.2001C262.05 41.7001 262.35 42.9001 262.95 43.7001C263.55 44.5001 264.45 45.0001 265.45 45.0001C266.45 45.0001 267.45 44.6001 268.55 43.7001C269.65 42.9001 270.85 41.6001 271.85 40.0001C272.95 38.4001 273.85 36.5001 274.65 34.3001L278.75 39.1001C277.75 41.5001 275.95 43.4001 273.55 44.8001C271.05 46.2001 268.55 46.8001 265.95 46.8001C263.55 46.8001 261.35 46.3001 259.35 45.3001Z" fill="#00C3BB"/>
</svg>
