<svg width="137" height="88" viewBox="0 0 137 88" fill="none" xmlns="http://www.w3.org/2000/svg">
<g opacity="0.5" clip-path="url(#clip0_568_4146)">
<path d="M7.24004 51.3098C7.10024 51.1755 6.98216 51.0204 6.89004 50.8498C5.68662 47.6359 5.11285 44.2205 5.20004 40.7898C5.22751 40.4514 5.28779 40.1165 5.38004 39.7898C5.38004 39.6898 5.57004 39.6298 5.67004 39.5498C6.06004 39.5498 5.93004 39.9198 5.95004 40.1398C6.23004 43.4798 6.54004 46.8198 7.15004 50.1398C7.20323 50.5308 7.22663 50.9253 7.22004 51.3198L7.24004 51.3098Z" fill="black"/>
<path d="M8.63967 52.0599C8.06008 51.0073 7.74118 49.8311 7.70967 48.6299C7.33031 47.3327 7.20468 45.9746 7.33967 44.6299C8.07539 47.044 8.51198 49.5394 8.63967 52.0599Z" fill="black"/>
<path d="M5.22988 32.6597L5.12988 32.9597C5.12988 32.9597 5.12988 32.8597 5.12988 32.8197C5.16808 32.7715 5.2117 32.7279 5.25988 32.6897L5.22988 32.6597Z" fill="black"/>
<path d="M7.20996 51.3396L7.31996 51.3896L7.23996 51.3096L7.20996 51.3396Z" fill="black"/>
<path d="M38.34 8.47977L44.28 8.69977C50.3707 8.91168 56.4355 7.80652 62.06 5.45977C64.25 4.54977 66.43 3.58977 68.63 2.69977C71.1866 1.58134 73.8747 0.791705 76.63 0.349767C84.39 -0.710233 91.63 0.569767 98.1 5.18977C100.508 6.85269 102.389 9.17087 103.52 11.8698C104.11 13.2698 104.62 14.7098 105.09 16.1498C105.971 18.8071 105.939 21.6824 105 24.3198C104.42 25.9998 103.74 27.6498 103.09 29.3198C102.497 30.7184 102.158 32.2119 102.09 33.7298C102.09 34.2598 102.09 34.7898 102.09 35.3198C102.105 35.9221 102.269 36.5113 102.568 37.0348C102.866 37.5582 103.289 37.9997 103.8 38.3198C104.747 38.9158 105.753 39.415 106.8 39.8098C108.599 40.4012 110.456 40.8001 112.34 40.9998C115.813 41.4201 119.252 42.0885 122.63 42.9998C124.924 43.6223 127.134 44.5223 129.21 45.6798C130.577 46.4828 131.89 47.3747 133.14 48.3498C134.493 49.3774 135.524 50.771 136.111 52.3659C136.697 53.9607 136.815 55.6901 136.45 57.3498C136.174 58.9117 135.776 60.4497 135.26 61.9498C134.427 64.2662 132.932 66.2867 130.96 67.7598C127.779 70.2446 124.239 72.2306 120.46 73.6498C116.62 75.0771 112.615 76.0113 108.54 76.4298C105.19 76.8098 101.83 76.9598 98.48 77.2898C92.5519 77.8046 86.7342 79.2034 81.22 81.4398C77.68 82.8998 74.1366 84.3531 70.59 85.7998C66.5381 87.4461 62.1625 88.1406 57.8 87.8298C55.8 87.6998 53.87 87.3598 51.91 87.0598C48.8928 86.6871 45.9124 86.0616 43 85.1898C39.3383 84.0101 35.9983 82.0013 33.24 79.3198C32.01 78.1198 30.84 76.8598 29.69 75.5798C27.3311 72.8096 24.5784 70.4006 21.52 68.4298C20.91 68.0498 20.36 67.5598 19.77 67.1398C18.86 66.4898 17.95 65.8098 17.01 65.2198C14.49 63.6398 12.01 61.9698 9.40998 60.5598C7.26554 59.3635 5.50676 57.5804 4.33998 55.4198C1.47998 50.4198 -0.400019 45.0898 0.0699805 39.1998C0.488534 32.8412 2.48167 26.6866 5.86998 21.2898C10.32 14.2898 16.87 10.3998 24.87 8.93977C26.6994 8.65261 28.5481 8.50551 30.4 8.49977C33 8.42977 35.56 8.47977 38.34 8.47977ZM38.34 10.6598V10.5298C34.84 10.5298 31.34 10.5298 27.83 10.5298C24.918 10.6021 22.0479 11.2406 19.38 12.4098C12.36 15.3598 7.75998 20.6498 4.99998 27.6498C3.9692 30.2309 3.20848 32.9119 2.72998 35.6498C2.06864 38.7606 2.02109 41.9707 2.58998 45.0998C3.37512 48.7091 4.54862 52.2229 6.08998 55.5798C6.49095 56.3787 7.06538 57.078 7.77128 57.6264C8.47719 58.1749 9.29672 58.5587 10.17 58.7498C11.8871 59.2062 13.5184 59.9391 15 60.9198C15.59 61.3398 16.29 61.6098 16.9 61.9898C18.46 62.9898 20 63.9898 21.54 64.9898C22.14 65.3998 22.68 65.8998 23.3 66.2798C26.1494 68.111 28.7393 70.3175 31 72.8398C32 73.9998 33 75.0698 34.1 76.1698C37.6276 79.8902 42.228 82.4176 47.26 83.3998C50.1 83.9698 52.96 84.5298 55.84 84.8798C58.9878 85.3422 62.1935 85.227 65.3 84.5398C67.156 84.0794 68.9799 83.4982 70.76 82.7998C73.96 81.5698 77.12 80.2098 80.3 78.9398C86.6451 76.4625 93.3401 74.9979 100.14 74.5998C104.426 74.3798 108.693 73.8686 112.91 73.0698C118.101 72.0134 123.042 69.977 127.47 67.0698C129.166 66.035 130.615 64.6425 131.717 62.9896C132.819 61.3366 133.547 59.4631 133.85 57.4998C134.37 54.4998 133.69 52.0298 131.25 50.0998C129.43 48.6585 127.409 47.4927 125.25 46.6398C122.349 45.5095 119.33 44.7078 116.25 44.2498C113.77 43.8598 111.25 43.4898 108.82 43.0598C106.524 42.7259 104.327 41.9004 102.38 40.6398C101.56 40.1333 100.864 39.4488 100.345 38.6369C99.8258 37.825 99.4959 36.9066 99.38 35.9498C99.2801 35.0366 99.26 34.1164 99.32 33.1998C99.4619 31.617 99.8569 30.0673 100.49 28.6098C101.06 27.1998 101.67 25.8098 102.22 24.3898C103.287 21.7975 103.383 18.9071 102.49 16.2498C102.18 15.3098 101.85 14.3798 101.49 13.4398C100.41 10.5006 98.3931 7.99854 95.75 6.31977C90 2.42977 83.65 1.55977 76.88 2.48977C74.208 2.93693 71.6015 3.71282 69.12 4.79977C66.55 5.79977 64.02 6.96977 61.42 7.93977C56.7835 9.71425 51.8644 10.6357 46.9 10.6598H38.34Z" fill="black"/>
<path d="M31.0995 26.8298C30.9495 27.0462 30.7823 27.2501 30.5995 27.4398C26.9295 30.6698 25.1695 35.0098 23.6695 39.4398C23.2813 40.6391 23.1352 41.9035 23.2395 43.1598C23.2704 44.3832 23.5526 45.5871 24.0687 46.6968C24.5849 47.8064 25.3238 48.798 26.2395 49.6098C28.3456 51.4149 30.6308 52.9998 33.0595 54.3398C35.6359 55.7309 38.5924 56.2535 41.4895 55.8298C43.9795 55.5398 46.4895 55.1898 48.9395 54.7298C54.6695 53.6798 58.7095 50.3698 61.3595 45.2398C63.2295 41.5898 62.5095 38.1598 60.3595 34.9598C59.136 33.051 57.4371 31.4933 55.4295 30.4398C53.0195 29.2298 50.5395 28.1398 48.0795 27.0098C47.173 26.6109 46.1992 26.387 45.2095 26.3498C43.6257 26.2818 42.0468 26.1282 40.4795 25.8898C38.3339 25.4923 36.1304 25.5297 33.9995 25.9998C33.7415 26.0451 33.4811 26.0752 33.2195 26.0898C33.1546 26.0758 33.0934 26.0486 33.0395 26.0098C32.8795 25.6798 33.1195 25.5598 33.3495 25.4398C35.9021 24.1756 38.7111 23.5153 41.5595 23.5098C43.3413 23.5098 45.1214 23.62 46.8895 23.8398C47.6795 23.9267 48.4497 24.1429 49.1695 24.4798C51.7495 25.6498 54.3895 26.7398 56.8495 28.1298C58.8167 29.2324 60.5326 30.7329 61.8876 32.5356C63.2426 34.3383 64.2071 36.4036 64.7195 38.5998C65.0546 39.9527 65.0546 41.3669 64.7195 42.7198C64.188 45.1101 63.1664 47.3642 61.7195 49.3398C58.7201 53.5414 54.1927 56.3993 49.1095 57.2998C46.9695 57.7098 44.8295 58.1698 42.6695 58.3898C40.8295 58.5448 38.9796 58.5448 37.1395 58.3898C35.623 58.2503 34.1519 57.7974 32.8195 57.0598C30.0798 55.5963 27.5249 53.8103 25.2095 51.7398C23.6281 50.4632 22.447 48.7589 21.8069 46.8299C21.1669 44.9009 21.0949 42.8285 21.5995 40.8598C22.7938 35.2525 25.9942 30.2742 30.5995 26.8598C30.7193 26.7986 30.8429 26.7452 30.9695 26.6998L31.0995 26.8298Z" fill="black"/>
<path d="M51.8601 33.0796C52.8091 33.5227 53.6316 34.1973 54.2519 35.0412C54.8722 35.8852 55.2704 36.8715 55.4101 37.9096C55.54 39.0541 55.3779 40.2128 54.939 41.2777C54.5001 42.3426 53.7987 43.279 52.9001 43.9996C52.6484 44.2765 52.3241 44.4772 51.9641 44.579C51.604 44.6808 51.2226 44.6795 50.8632 44.5753C50.5039 44.4712 50.1809 44.2683 49.9311 43.9897C49.6813 43.7112 49.5146 43.3681 49.4501 42.9996C49.2872 42.4313 49.2429 41.8357 49.3201 41.2496C49.5301 39.5496 49.7801 37.8596 50.0901 36.1796C50.1569 35.5691 50.3485 34.979 50.653 34.4457C50.9574 33.9124 51.3683 33.4474 51.8601 33.0796ZM52.0001 33.9996C51.7614 34.178 51.5688 34.4108 51.4384 34.6787C51.3079 34.9465 51.2433 35.2417 51.2501 35.5396C51.0201 37.2396 50.7701 38.9396 50.5701 40.6396C50.4979 41.3043 50.4979 41.9749 50.5701 42.6396C50.5954 42.7867 50.6569 42.9251 50.7491 43.0425C50.8413 43.1599 50.9612 43.2525 51.0981 43.312C51.235 43.3716 51.3845 43.3961 51.5332 43.3834C51.682 43.3708 51.8252 43.3214 51.9501 43.2396C52.1693 43.0898 52.3677 42.9116 52.5401 42.7096C53.228 41.9001 53.71 40.9362 53.9451 39.9002C54.1802 38.8642 54.1613 37.7867 53.8901 36.7596C53.7792 36.1952 53.5544 35.6594 53.2295 35.1848C52.9045 34.7103 52.4862 34.307 52.0001 33.9996Z" fill="black"/>
<path d="M43.47 33.49C42.7883 33.4665 42.1339 33.2167 41.61 32.78C41.1378 32.4583 40.8077 31.967 40.6885 31.4083C40.5693 30.8495 40.6701 30.2663 40.97 29.78C41.2375 29.3265 41.575 28.9181 41.97 28.57C42.0827 28.4572 42.2196 28.3715 42.3704 28.3196C42.5211 28.2676 42.6817 28.2506 42.84 28.27C43.6562 28.4967 44.5089 28.5613 45.35 28.46C45.615 28.4684 45.8761 28.5261 46.12 28.63C46.3945 28.6928 46.6496 28.8214 46.8635 29.0047C47.0773 29.1879 47.2435 29.4203 47.3478 29.6819C47.452 29.9435 47.4912 30.2265 47.462 30.5066C47.4328 30.7867 47.336 31.0555 47.18 31.29C46.7878 31.9314 46.2448 32.4672 45.5981 32.8506C44.9515 33.2341 44.2209 33.4536 43.47 33.49ZM42.76 29C42.5388 29.371 42.3546 29.7629 42.21 30.17C42.1498 30.3585 42.1372 30.5589 42.1733 30.7535C42.2094 30.948 42.293 31.1307 42.4167 31.2851C42.5405 31.4395 42.7005 31.5609 42.8825 31.6385C43.0645 31.7162 43.2629 31.7476 43.46 31.73C44.009 31.7341 44.5463 31.5707 45.0001 31.2616C45.4539 30.9525 45.8027 30.5124 46 30C45.2 29.37 45.2 29.37 42.76 29Z" fill="black"/>
<path d="M122.3 66.8197C122.051 67.1029 121.78 67.367 121.49 67.6097C120.002 68.7138 118.299 69.4939 116.49 69.8997C113.338 70.6423 110.151 71.2264 106.94 71.6497C107.207 71.4478 107.495 71.2767 107.8 71.1397C111.13 70.1397 114.48 69.1397 117.8 68.0697C119.24 67.6297 120.66 67.1297 122.08 66.6597L122.3 66.8197Z" fill="black"/>
<path d="M25.2902 42.9995C24.7102 38.1395 26.6902 34.1395 29.8102 30.5195C29.7995 30.7431 29.7626 30.9646 29.7002 31.1795C29.0902 32.5695 28.5002 33.9595 27.8602 35.3295C26.6333 37.7469 25.7675 40.331 25.2902 42.9995Z" fill="black"/>
<path d="M82.2002 75.93C82.3289 75.7006 82.5085 75.5038 82.7252 75.3547C82.9419 75.2056 83.19 75.1082 83.4502 75.07C84.8184 74.5898 86.2142 74.1924 87.6302 73.88C89.9612 73.4289 92.3198 73.1349 94.6902 73C94.3983 73.1796 94.0861 73.324 93.7602 73.43C90.1735 74.2633 86.5869 75.0867 83.0002 75.9C82.7375 75.925 82.4729 75.925 82.2102 75.9L82.2002 75.93Z" fill="black"/>
<path d="M75.3402 4.75977C71.6865 6.71363 67.8259 8.25318 63.8302 9.34977C63.7102 8.83977 64.0602 8.87977 64.2202 8.79977L70.0002 6.28977C71.6986 5.52896 73.4967 5.0138 75.3402 4.75977Z" fill="black"/>
<path d="M94.3896 28.67C94.6111 28.0555 94.8682 27.4545 95.1597 26.87C95.8897 25.56 96.6896 24.27 97.4496 22.97L99.3396 19.73C99.6296 19.73 99.7496 19.88 99.7696 20.18C99.7901 20.9773 99.5438 21.7586 99.0696 22.4C97.5896 24.55 96.0696 26.68 94.5396 28.81L94.3896 28.67Z" fill="black"/>
<path d="M10.5305 21.3096C10.1105 22.1996 9.67047 23.0696 9.27047 23.9696C8.14047 26.4796 7.00047 28.9996 5.90047 31.4996C5.71047 31.9096 5.45047 32.2796 5.23047 32.6596C5.27117 32.011 5.375 31.368 5.54047 30.7396C6.41047 28.4596 7.31047 26.1996 8.29047 23.9796C8.72114 22.8698 9.40616 21.8765 10.2905 21.0796C10.3764 21.1498 10.4567 21.2267 10.5305 21.3096Z" fill="black"/>
<path d="M58.2802 47.3999C55.9702 50.2799 51.3802 52.8199 49.1602 52.7299L58.2802 47.3999Z" fill="black"/>
<path d="M28.9198 68.3998C28.5998 68.0798 28.2898 67.7598 27.9798 67.3998C26.1798 65.4798 24.3798 63.5498 22.5998 61.6198C22.5298 61.5498 22.5998 61.3898 22.5098 61.0898C25.1155 63.0486 27.391 65.4119 29.2498 68.0898L28.9198 68.3998Z" fill="black"/>
<path d="M109.45 69.2998C110.58 68.5698 113.86 67.5198 117.79 66.5698C117.7 66.7798 117.68 67.0098 117.57 67.0598C115.268 68.1525 112.824 68.9198 110.31 69.3398C110.023 69.3476 109.735 69.3343 109.45 69.2998Z" fill="black"/>
<path d="M54.7803 47.0996C55.7803 46.2996 56.8803 45.5396 57.8503 44.6796C58.8203 43.8196 59.5603 42.9296 60.6303 41.8296C60.5326 42.7589 60.132 43.6303 59.4903 44.3096C58.2322 45.6868 56.5925 46.658 54.7803 47.0996Z" fill="black"/>
<path d="M29.8101 42.1099C30.0501 43.1899 29.5901 44.1799 29.5601 45.1999C29.5301 46.2199 29.5001 47.1399 29.4801 48.0799C29.0401 48.1899 28.9901 47.9099 28.9301 47.6799C28.5481 45.8872 28.7225 44.0207 29.4301 42.3299C29.4701 42.2499 29.6301 42.2099 29.8101 42.1099Z" fill="black"/>
<path d="M27.4498 46.6298C27.0491 45.3759 26.9212 44.0509 27.0747 42.7435C27.2282 41.4361 27.6596 40.1767 28.3398 39.0498C28.5798 39.6498 28.2798 40.1098 28.2198 40.5598C28.1598 41.0098 28.0298 41.4598 27.9398 41.9098C27.8498 42.3598 27.7598 42.9098 27.6798 43.4598C27.5998 44.0098 27.5698 44.3798 27.5298 44.8398C27.4898 45.2998 27.4898 45.8098 27.4498 46.6298Z" fill="black"/>
<path d="M112.31 44.9999C110.027 44.9059 107.758 44.6047 105.53 44.0999C105.115 43.9367 104.73 43.707 104.39 43.4199C106.787 43.5894 109.165 43.9608 111.5 44.5299C111.787 44.6555 112.058 44.8132 112.31 44.9999Z" fill="black"/>
<path d="M96.4604 28.7399C96.5104 27.9499 97.1404 27.4999 97.5504 26.9299C98.6661 25.5776 99.5575 24.0548 100.19 22.4199C100.64 22.4199 100.61 22.7099 100.54 22.9499C100.444 23.3964 100.286 23.8273 100.07 24.2299C99.2004 25.5399 98.3104 26.8199 97.3704 28.0799C97.0947 28.3392 96.7811 28.555 96.4404 28.7199L96.4604 28.7399Z" fill="black"/>
<path d="M52.8704 82.1795C51.5057 81.9654 50.1809 81.5474 48.9404 80.9395C48.5761 80.6835 48.2408 80.3884 47.9404 80.0595C48.1904 79.9595 48.3204 79.8495 48.4004 79.8795C49.8304 80.4795 51.2604 81.0995 52.6804 81.7195C52.7304 81.7495 52.7504 81.9195 52.8704 82.1795Z" fill="black"/>
<path d="M31.9301 44.3296C31.9301 46.1496 31.3601 47.6396 31.4101 49.1596C30.9601 49.3096 30.8101 49.0596 30.8201 48.8196C30.7861 47.5016 30.9858 46.1879 31.4101 44.9396C31.4701 44.7896 31.6301 44.6696 31.9301 44.3296Z" fill="black"/>
<path d="M59.7703 40.2798C59.4369 41.0967 58.935 41.8341 58.2975 42.444C57.66 43.054 56.9011 43.5227 56.0703 43.8198C56.1403 43.5498 56.1303 43.3998 56.2003 43.3398C57.3803 42.3098 58.5803 41.2998 59.7703 40.2798Z" fill="black"/>
<path d="M35.4698 51.9998C34.9398 49.8998 34.9398 49.8998 35.4698 48.5298C35.5998 48.7298 35.7498 48.8598 35.7598 48.9898C35.7598 49.9898 35.7598 50.9898 35.7598 51.9298C35.7598 51.9298 35.6898 52.0398 35.6398 52.0498C35.5898 52.0598 35.5298 51.9998 35.4698 51.9998Z" fill="black"/>
<path d="M33.4303 46.3096C33.7803 47.5296 33.3403 48.7996 33.6703 49.9696C33.1803 50.2096 33.0403 49.9696 33.0303 49.6896C33.0303 48.5896 33.0303 47.4796 33.0303 46.3796L33.4303 46.3096Z" fill="black"/>
<path d="M10.8102 52.8996C10.3808 52.2364 10.1018 51.4871 9.99298 50.7045C9.88414 49.9219 9.94805 49.1249 10.1802 48.3696C10.5727 49.8549 10.7776 51.3834 10.7902 52.9196L10.8102 52.8996Z" fill="black"/>
<path d="M44.75 52.6798C43.6688 53.2682 42.4103 53.4425 41.21 53.1698C42.3323 52.7201 43.5477 52.5519 44.75 52.6798Z" fill="black"/>
<path d="M73.0798 7.7399C74.2998 6.8799 74.4198 6.8399 76.4198 6.6499C75.3827 7.23453 74.2348 7.59561 73.0498 7.7099L73.0798 7.7399Z" fill="black"/>
<path d="M28.2898 13.6898C29.362 13.1585 30.5557 12.9204 31.7498 12.9998C30.6736 13.5494 29.4623 13.7785 28.2598 13.6598L28.2898 13.6898Z" fill="black"/>
<path d="M66.7297 81.8596C66.8197 81.7696 66.8997 81.6196 67.0097 81.5996L70.2797 81.0796C69.2797 82.0796 67.9997 82.0796 66.7197 81.8596H66.7297Z" fill="black"/>
<path d="M58.3799 83.0596H61.1499C60.7586 83.3564 60.281 83.5171 59.7899 83.5171C59.2988 83.5171 58.8211 83.3564 58.4299 83.0596H58.3799Z" fill="black"/>
<path d="M80.2197 76.7197C80.4843 76.4623 80.7972 76.2599 81.1406 76.1243C81.4839 75.9887 81.8507 75.9226 82.2197 75.9297C81.9557 76.1885 81.643 76.3924 81.2997 76.5297C80.9565 76.6671 80.5894 76.735 80.2197 76.7297V76.7197Z" fill="black"/>
<path d="M23.9404 14.4996C24.1883 14.3279 24.4616 14.1963 24.7504 14.1096C25.2491 14.0645 25.7497 14.0445 26.2504 14.0496C25.5704 14.6796 24.7204 14.4096 23.9404 14.4996Z" fill="black"/>
<path d="M23.9198 14.4798L22.5098 14.8898C22.9898 14.2398 23.5098 14.5498 23.9398 14.4998L23.9198 14.4798Z" fill="black"/>
<path d="M28.2598 13.6699C27.6698 14.2199 26.9298 14.0399 26.2598 14.0299C26.8598 13.4899 27.5998 13.6699 28.2598 13.6699Z" fill="black"/>
<path d="M71.8799 8.1298C72.0167 7.95065 72.2047 7.81738 72.4191 7.74771C72.6334 7.67805 72.8639 7.67529 73.0799 7.7398C72.9438 7.91702 72.7575 8.04906 72.5451 8.11864C72.3328 8.18822 72.1044 8.19211 71.8899 8.1298H71.8799Z" fill="black"/>
<path d="M10.3096 21.1097L10.7796 20.7197C10.6996 20.9097 10.6196 21.1097 10.5296 21.3097C10.4611 21.2379 10.3876 21.1711 10.3096 21.1097Z" fill="black"/>
<path d="M112.29 44.9997H113.14C112.7 45.4397 112.49 45.2497 112.31 44.9297L112.29 44.9997Z" fill="black"/>
<path d="M71.0898 8.52988C71.2198 8.12988 71.5498 8.12988 71.8798 8.12988C71.7498 8.52988 71.4198 8.52988 71.0898 8.52988Z" fill="black"/>
<path d="M70.3 8.91981C70.43 8.51981 70.77 8.52981 71.09 8.52981L70.29 8.91981H70.3Z" fill="black"/>
<path d="M31 26.65L31.43 26.48L31.15 26.83L31 26.65Z" fill="black"/>
<path d="M79.4199 77.1197L80.2199 76.7197C80.0799 77.0897 79.7499 77.0997 79.4199 77.1097V77.1197Z" fill="black"/>
<path d="M79.3898 77.0898C79.2598 77.4798 78.9298 77.4799 78.5898 77.4799L79.3898 77.0998V77.0898Z" fill="black"/>
<path d="M71.1003 80.69L71.3503 80.48L71.0703 80.66L71.1003 80.69Z" fill="black"/>
<path d="M70.2803 81.0799C70.4403 80.7199 70.7703 80.6999 71.1003 80.6899C70.9503 81.0699 70.6203 81.0799 70.2903 81.0799H70.2803Z" fill="black"/>
<path d="M58.41 82.9999L58 82.8699C58 82.8699 58.12 82.8099 58.13 82.8699C58.2164 82.9363 58.2937 83.0136 58.36 83.0999L58.41 82.9999Z" fill="black"/>
<path d="M61.1499 83.0499L61.3899 82.8398L61.1299 83.0198L61.1499 83.0499Z" fill="black"/>
<path d="M94.54 28.8099L94.29 28.9199L94.39 28.6699L94.54 28.8099Z" fill="black"/>
<path d="M96.4401 28.7197L96.3701 28.7997L96.4601 28.7397L96.4401 28.7197Z" fill="black"/>
<path d="M78.5898 77.48V77.61L78.6498 77.5L78.5898 77.48Z" fill="black"/>
</g>
<defs>
<clipPath id="clip0_568_4146">
<rect width="136.62" height="87.89" fill="white"/>
</clipPath>
</defs>
</svg>
