<svg width="408" height="313" viewBox="0 0 408 313" fill="none" xmlns="http://www.w3.org/2000/svg">
<path fill-rule="evenodd" clip-rule="evenodd" d="M216.769 104.781C218.877 103.972 222.168 102.195 224.548 100.58C227.397 98.6469 231.311 94.9608 233.26 92.3749C236.761 87.7304 238.592 83.0064 239.644 75.9056C240.352 71.1307 240.403 69.9184 240.468 56.0591C240.537 41.3194 240.601 42.2446 239.443 41.0768C238.327 39.9497 238.987 40.0004 225.388 40.0003C212.252 40.0003 212.712 39.9733 211.627 40.8088C211.35 41.0221 210.95 41.4941 210.738 41.8576L210.353 42.5188L210.314 55.0769L210.276 67.6351L210.584 68.358C210.945 69.2066 211.938 70.1524 212.688 70.3626C212.995 70.4487 215.557 70.5077 219.015 70.5081L224.825 70.509L224.825 71.4139C224.825 73.4742 224.243 76.9708 223.514 79.2874C222.546 82.3673 221.068 84.8506 218.927 86.9953C217.181 88.7451 215.158 90.1347 212.315 91.5386C210.237 92.5651 209.925 92.8199 209.354 93.9583C209.202 94.2598 209.102 94.7972 209.097 95.3283C209.089 96.0972 209.184 96.4095 209.887 97.9265C212.559 103.699 212.777 104.065 213.894 104.64C214.712 105.061 215.888 105.119 216.769 104.781ZM174.607 104.886C175.397 104.739 179.113 102.904 181.125 101.667C187.228 97.9151 191.993 92.8882 194.781 87.2589C196.82 83.1427 197.83 78.9846 198.541 71.7768C198.73 69.8614 198.784 66.9975 198.835 56.2042C198.906 41.3027 198.969 42.2463 197.811 41.0768C196.694 39.9498 197.354 40.0003 183.762 40.0003C170.514 40.0003 170.979 39.9713 169.901 40.8675C169.619 41.1027 169.221 41.6317 169.018 42.0431L168.649 42.7912L168.652 55.2469C168.655 67.4667 168.661 67.715 168.946 68.3503C169.279 69.0948 169.789 69.6746 170.502 70.1233C170.99 70.4298 171.143 70.4387 177.13 70.509L183.259 70.5809L183.216 71.7322C183.103 74.7058 182.392 78.2446 181.404 80.7446C180.389 83.3151 179.172 85.1901 177.327 87.0304C175.647 88.7052 173.932 89.8987 171.239 91.2658C168.659 92.5764 167.937 93.1803 167.645 94.2752C167.299 95.5711 167.482 96.224 169.183 99.7944C170.133 101.787 170.976 103.356 171.301 103.736C172.127 104.703 173.335 105.123 174.607 104.886Z" fill="#79E0E8"/>
<path d="M24.736 146.24C27.328 145.792 31.2 144.992 34.976 144.192L35.168 146.208C31.68 147.008 28.064 147.84 25.28 148.48L24.736 146.24ZM25.344 134.176H34.24V136.288H25.344V134.176ZM25.088 127.52H42.432V129.728H25.088V127.52ZM37.824 122.24L39.52 121.376C40.736 122.592 42.176 124.32 42.816 125.472L41.056 126.496C40.448 125.312 39.04 123.552 37.824 122.24ZM28.736 134.944H30.976V146.048L28.736 146.56V134.944ZM35.104 121.152H37.408C37.28 136.48 38.048 147.456 40.448 147.616C40.928 147.648 41.28 146.016 41.44 143.392C41.856 143.904 42.848 144.544 43.232 144.768C42.624 149.44 41.472 150.624 40.384 150.592C35.648 150.432 35.232 138.656 35.104 121.152ZM14.656 130.816H23.776V132.736H14.656V130.816ZM14.784 122.272H23.616V124.192H14.784V122.272ZM14.656 135.104H23.776V137.024H14.656V135.104ZM13.216 126.464H24.576V128.448H13.216V126.464ZM15.712 139.424H23.744V148.768H15.712V146.752H21.664V141.408H15.712V139.424ZM14.624 139.424H16.672V150.24H14.624V139.424ZM51.84 133.76V145.088H49.536V136H45.472V133.76H51.84ZM51.84 144.128C53.344 146.496 56.16 147.584 59.968 147.712C63.52 147.872 70.912 147.776 74.784 147.52C74.496 148.064 74.112 149.184 74.016 149.888C70.4 150.048 63.552 150.112 59.968 149.952C55.744 149.792 52.832 148.672 50.848 146.144C49.44 147.52 47.968 148.896 46.368 150.304L45.12 147.968C46.528 146.944 48.256 145.504 49.76 144.128H51.84ZM45.76 123.264L47.584 121.952C49.568 123.392 51.808 125.6 52.8 127.168L50.816 128.672C49.92 127.072 47.712 124.832 45.76 123.264ZM54.944 132.16H72.256V134.08H57.088V146.048H54.944V132.16ZM62.688 126.752H69.408V128.448H64.512V132.96H62.688V126.752ZM57.44 122.24H70.624V132.8H68.448V124.128H59.584V132.8H57.44V122.24ZM60.864 136.128H68.096V142.912H60.864V141.248H66.24V137.856H60.864V136.128ZM70.912 132.16H73.12V143.68C73.12 144.768 72.928 145.376 72.096 145.696C71.328 146.048 70.08 146.048 68.192 146.048C68.096 145.472 67.808 144.64 67.52 144.096C68.864 144.128 70.08 144.128 70.432 144.128C70.784 144.096 70.912 144 70.912 143.68V132.16ZM59.776 136.128H61.632V144.192H59.776V136.128ZM78.208 123.392H105.76V125.824H78.208V123.392ZM93.888 132.704L95.68 131.168C99.424 133.6 104.32 137.216 106.688 139.68L104.736 141.504C102.496 139.04 97.696 135.296 93.888 132.704ZM93.28 124.224L95.904 125.184C92.256 131.808 86.272 138.144 79.04 141.952C78.656 141.344 77.888 140.384 77.408 139.872C84.352 136.384 90.304 130.24 93.28 124.224ZM90.656 130.624L93.248 128.064V150.528H90.656V130.624ZM115.904 128.416H132.192V130.528H115.904V128.416ZM117.536 133.888H119.776V146.4H117.536V133.888ZM118.752 133.888H130.464V144.064H118.752V141.984H128.224V135.904H118.752V133.888ZM110.784 122.784H136.352V125.088H113.12V150.624H110.784V122.784ZM134.88 122.784H137.248V147.52C137.248 149.024 136.864 149.76 135.872 150.144C134.912 150.56 133.312 150.624 130.528 150.592C130.432 149.952 130.048 148.896 129.664 148.256C131.68 148.32 133.568 148.32 134.112 148.288C134.688 148.256 134.88 148.064 134.88 147.52V122.784ZM164.576 122.496L165.888 121.28C167.456 122.208 169.312 123.648 170.208 124.704L168.832 126.112C167.968 125.056 166.144 123.52 164.576 122.496ZM154.528 135.36H160.832V144H154.528V142.112H159.104V137.216H154.528V135.36ZM167.68 131.264L169.792 131.648C167.84 140.256 164.128 146.432 158.176 150.368C157.824 149.952 156.992 149.152 156.544 148.736C162.464 145.248 165.952 139.296 167.68 131.264ZM149.824 126.24H151.968V134.88C151.968 139.552 151.488 146.176 148.48 150.656C148.096 150.24 147.168 149.632 146.656 149.376C149.536 145.152 149.824 139.232 149.824 134.88V126.24ZM151.136 126.24H170.304V128.416H151.136V126.24ZM153.312 130.976H160.992V132.832H153.312V130.976ZM153.536 135.36H155.264V145.952H153.536V135.36ZM142.72 123.136L144.096 121.44C145.952 122.24 148.224 123.584 149.376 124.64L147.936 126.56C146.848 125.504 144.608 124.064 142.72 123.136ZM141.184 131.808L142.528 130.048C144.416 130.784 146.72 132.032 147.872 133.056L146.496 135.008C145.376 133.984 143.072 132.64 141.184 131.808ZM141.696 148.704C143.008 146.144 144.896 141.76 146.208 138.016L148.128 139.296C146.912 142.784 145.248 146.912 143.84 149.984L141.696 148.704ZM161.408 121.44H163.616C163.872 135.392 165.6 147.616 168.192 147.744C168.768 147.776 169.184 145.984 169.44 142.784C169.824 143.264 170.784 143.808 171.2 144C170.56 149.216 169.376 150.592 168.192 150.592C163.36 150.464 161.856 137.632 161.408 121.44ZM176.352 122.112H183.36V124.32H176.352V122.112ZM176.352 129.6H183.424V131.808H176.352V129.6ZM188.128 134.24H200.096V136.512H188.128V134.24ZM176.288 137.28H183.392V139.488H176.288V137.28ZM175.328 122.112H177.504V133.696C177.504 138.72 177.216 145.824 175.072 150.624C174.624 150.24 173.664 149.696 173.088 149.504C175.168 144.928 175.328 138.464 175.328 133.696V122.112ZM182.048 122.112H184.288V147.424C184.288 148.704 184.032 149.44 183.2 149.824C182.368 150.24 181.088 150.304 178.976 150.304C178.88 149.664 178.56 148.576 178.24 147.936C179.712 148 181.056 148 181.472 148C181.856 147.968 182.048 147.808 182.048 147.392V122.112ZM187.936 122.688H201.312V138.208H199.008V124.96H187.936V122.688ZM186.784 122.688H189.088V145.6C189.088 147.392 189.44 147.744 191.36 147.744C192.288 147.744 197.024 147.744 198.176 147.744C200.032 147.744 200.32 146.592 200.544 141.952C201.152 142.4 202.112 142.784 202.784 142.944C202.4 148.224 201.664 150.048 198.272 150.048C197.472 150.048 192 150.048 191.2 150.048C187.84 150.048 186.784 149.152 186.784 145.568V122.688ZM193.024 123.552H195.104V135.424H193.024V123.552ZM205.664 126.656H234.304V128.96H205.664V126.656ZM216.128 134.24H228.928V136.544H216.128V134.24ZM228.064 134.24H230.528C230.528 134.24 230.496 135.04 230.432 135.392C229.792 144.608 229.152 148.16 227.904 149.44C227.168 150.208 226.368 150.432 225.152 150.528C224.032 150.592 221.92 150.528 219.744 150.432C219.712 149.728 219.36 148.736 218.912 148.064C221.216 148.288 223.488 148.288 224.32 148.288C225.024 148.288 225.472 148.256 225.824 147.936C226.848 147.008 227.488 143.424 228.032 134.656L228.064 134.24ZM215.584 127.936H218.24C217.76 136.416 216.832 146.016 207.072 150.688C206.72 150.08 205.952 149.216 205.344 148.736C214.688 144.512 215.232 135.584 215.584 127.936ZM218.624 121.056H221.088V127.648H218.624V121.056ZM245.824 134.592H266.4V136.864H245.824V134.592ZM247.456 126.368H264.896V128.672H247.456V126.368ZM254.784 121.152H257.248V136.224H254.784V121.152ZM245.856 146.656C250.208 146.464 257.184 146.08 263.808 145.696V147.872C257.44 148.352 250.752 148.8 246.208 149.088L245.856 146.656ZM258.752 141.184L260.8 140.128C263.232 142.976 265.888 146.784 266.944 149.376L264.704 150.624C263.712 148.096 261.152 144.096 258.752 141.184ZM252.64 136.096L255.232 136.832C253.824 140.544 251.904 145.12 250.304 148.032L248.192 147.296C249.76 144.32 251.648 139.52 252.64 136.096ZM238.912 123.136L240.256 121.344C242.432 122.144 245.184 123.52 246.56 124.64L245.184 126.656C243.84 125.504 241.152 124 238.912 123.136ZM237.216 131.968L238.464 130.112C240.64 130.816 243.456 132.064 244.896 133.088L243.584 135.104C242.208 134.08 239.456 132.736 237.216 131.968ZM238.336 148.608C239.968 146.144 242.368 141.92 244.128 138.304L245.92 139.808C244.32 143.2 242.208 147.2 240.416 150.176L238.336 148.608ZM269.472 142.144H298.528V144.096H269.472V142.144ZM277.472 124.064H298.368V125.824H277.472V124.064ZM289.184 139.936H291.52V148C291.52 149.28 291.232 149.888 290.24 150.24C289.216 150.56 287.584 150.592 284.928 150.56C284.832 149.952 284.448 149.12 284.16 148.512C286.176 148.576 288 148.544 288.512 148.512C289.056 148.512 289.184 148.384 289.184 147.968V139.936ZM274.976 145.472L276.576 144.096C278.304 145.088 280.384 146.656 281.408 147.776L279.648 149.312C278.72 148.16 276.672 146.528 274.976 145.472ZM270.56 123.072L272.16 121.76C273.792 122.88 275.712 124.512 276.544 125.76L274.88 127.232C274.048 126.016 272.16 124.256 270.56 123.072ZM281.408 121.632L283.392 121.152C284.16 122.048 284.96 123.328 285.28 124.224L283.2 124.8C282.88 123.904 282.144 122.592 281.408 121.632ZM282.304 131.392V132.832H293.376V131.392H282.304ZM282.304 134.112V135.552H293.376V134.112H282.304ZM282.304 128.736V130.112H293.376V128.736H282.304ZM280.064 127.424H295.712V136.896H280.064V127.424ZM276.064 129.472V136.384H273.856V131.424H269.6V129.472H276.064ZM286.528 124.672L288.896 124.928C288.48 126.144 288.064 127.296 287.712 128.128L285.824 127.808C286.08 126.88 286.4 125.536 286.528 124.672ZM292.384 121.088L294.656 121.6C293.888 122.752 293.056 123.84 292.352 124.672L290.496 124.192C291.104 123.264 291.968 121.952 292.384 121.088ZM276.064 135.552C277.312 137.408 279.68 138.24 282.624 138.336C286.336 138.464 294.656 138.368 298.752 138.144C298.528 138.592 298.208 139.488 298.112 140.096C294.24 140.256 286.432 140.288 282.688 140.16C279.296 140.064 276.896 139.232 275.232 137.248C273.664 138.336 272.064 139.392 270.368 140.512L269.408 138.496C270.912 137.728 272.768 136.64 274.4 135.552H276.064ZM301.472 123.168H315.808V125.408H301.472V123.168ZM302.176 138.08H315.296V140.288H302.176V138.08ZM307.392 134.336H309.696V146.528H307.392V134.336ZM301.216 146.4C304.928 145.888 310.688 144.896 316.16 143.968L316.288 146.24C311.04 147.2 305.504 148.16 301.6 148.864L301.216 146.4ZM301.152 131.872C304.32 131.712 309.056 131.36 313.728 130.976L313.76 133.056C309.312 133.472 304.736 133.824 301.44 134.112L301.152 131.872ZM306.144 124.416L308.608 124.992C307.52 127.712 306.144 131.04 304.96 133.088L303.04 132.512C304.128 130.368 305.44 126.848 306.144 124.416ZM310.176 128.064L312.064 127.136C313.536 129.088 315.2 131.68 315.872 133.344L313.856 134.432C313.216 132.736 311.616 130.016 310.176 128.064ZM318.56 127.104H330.56V129.344H318.56V127.104ZM319.36 121.12L321.824 121.536C320.704 127.488 318.784 133.088 316.16 136.736C315.712 136.288 314.688 135.52 314.112 135.136C316.704 131.84 318.4 126.56 319.36 121.12ZM326.208 128.352L328.64 128.64C326.912 139.776 323.232 146.56 314.784 150.656C314.56 150.08 313.824 148.992 313.376 148.512C321.376 144.992 324.736 138.592 326.208 128.352ZM319.552 129.152C321.088 138.048 324.48 145.472 330.976 148.544C330.4 149.024 329.664 149.952 329.28 150.592C322.496 147.04 319.136 139.328 317.376 129.536L319.552 129.152ZM337.824 129.056H358.784V131.072H337.824V129.056ZM337.792 135.296H358.624V137.408H337.792V135.296ZM357.568 122.848H359.968V140.448C359.968 141.824 359.68 142.464 358.656 142.848C357.664 143.232 356 143.232 353.44 143.232C353.312 142.592 352.96 141.632 352.64 141.024C354.528 141.088 356.352 141.088 356.896 141.088C357.376 141.056 357.568 140.928 357.568 140.416V122.848ZM336.416 122.848H358.4V124.928H338.816V143.328H336.416V122.848ZM346.688 123.616H349.024V145.472C349.024 147.2 349.376 147.552 351.424 147.552C352.352 147.552 357.312 147.552 358.496 147.552C360.128 147.552 360.384 146.848 360.608 143.84C361.184 144.224 362.08 144.608 362.752 144.736C362.4 148.512 361.664 149.696 358.624 149.696C357.792 149.696 352.064 149.696 351.296 149.696C347.68 149.696 346.688 148.864 346.688 145.472V123.616ZM365.664 122.88H378.272V125.12H365.664V122.88ZM368.64 130.144V134.816H375.328V130.144H368.64ZM366.56 128.16H377.536V136.768H366.56V128.16ZM374.304 137.696L376.64 138.304C376.032 140.512 375.328 143.104 374.752 144.768L372.896 144.224C373.44 142.464 374.048 139.648 374.304 137.696ZM367.296 138.464L369.248 137.984C370.016 139.872 370.528 142.304 370.624 143.936L368.544 144.448C368.48 142.848 368 140.384 367.296 138.464ZM365.184 146.56C368.512 145.952 373.6 144.896 378.496 143.84L378.688 145.92C374.144 146.976 369.312 148.032 365.792 148.832L365.184 146.56ZM379.136 122.656H394.592V124.736H379.136V122.656ZM382.336 134.528V137.664H391.264V134.528H382.336ZM382.336 139.456V142.624H391.264V139.456H382.336ZM382.336 129.664V132.768H391.264V129.664H382.336ZM380.128 127.808H393.6V144.48H380.128V127.808ZM385.376 123.68L388.064 124.032C387.552 125.888 386.976 127.904 386.464 129.248L384.352 128.832C384.736 127.392 385.184 125.184 385.376 123.68ZM383.136 145.152L385.248 146.4C383.52 148.032 380.672 149.696 378.208 150.624C377.856 150.176 377.12 149.44 376.576 149.024C379.04 148.16 381.824 146.528 383.136 145.152ZM387.936 146.496L389.76 145.312C391.616 146.464 394.048 148.128 395.296 149.312L393.344 150.624C392.224 149.472 389.824 147.68 387.936 146.496ZM13.856 178.04H42.144V179.992H13.856V178.04ZM24.768 175.256L27.072 175.768C24.928 182.392 20.672 186.872 15.104 189.624C14.72 189.208 13.792 188.344 13.248 187.96C18.88 185.56 22.912 181.304 24.768 175.256ZM25.024 179.768C28.32 183.992 35.168 186.744 42.656 187.704C42.208 188.184 41.632 189.048 41.376 189.624C33.728 188.44 26.816 185.368 23.136 180.504L25.024 179.768ZM17.856 164.12H27.616V165.56H17.856V164.12ZM17.856 166.904H27.616V168.344H17.856V166.904ZM13.696 169.688H29.952V171.288H13.696V169.688ZM16.512 161.208H28.576V162.808H18.72V170.36H16.512V161.208ZM18.144 170.2L20.224 170.744C19.456 172.088 18.688 173.4 17.984 174.36L16.32 173.816C16.96 172.824 17.76 171.224 18.144 170.2ZM14.368 173.464C17.536 173.368 22.336 173.176 27.04 173.016V174.52C22.496 174.808 17.888 175.096 14.496 175.288L14.368 173.464ZM23.968 171.896L25.536 171.064C26.848 172.024 28.32 173.464 29.024 174.52L27.392 175.416C26.72 174.392 25.28 172.92 23.968 171.896ZM32.672 175.992L33.92 174.616C35.904 175.288 38.464 176.408 39.808 177.272L38.496 178.84C37.184 177.976 34.656 176.728 32.672 175.992ZM38.272 160.344L40.224 161.208C37.792 163.16 34.08 164.856 30.976 165.88C30.624 165.4 30.048 164.76 29.536 164.344C32.48 163.48 36.224 161.944 38.272 160.344ZM39.36 164.792L41.312 165.624C39.008 167.704 35.296 169.368 31.872 170.36C31.52 169.912 30.976 169.208 30.496 168.792C33.696 167.992 37.408 166.52 39.36 164.792ZM40.288 169.336L42.304 170.104C39.936 172.728 35.488 174.456 30.752 175.416C30.528 174.872 29.984 174.136 29.536 173.688C33.92 172.952 38.208 171.48 40.288 169.336ZM34.464 180.28L36.736 180.92C33.888 185.688 27.712 188.12 21.376 189.496C21.12 189.048 20.384 188.056 19.936 187.608C26.208 186.52 32.064 184.344 34.464 180.28ZM49.024 190.424L48.288 188.76C50.912 187.672 52.352 186.04 52.352 183.64L51.744 180.92L53.472 183.352C53.024 183.928 52.384 184.088 51.776 184.088C50.464 184.088 49.376 183.32 49.376 181.784C49.376 180.28 50.528 179.48 51.808 179.48C53.6 179.48 54.56 180.952 54.56 183.192C54.56 186.648 52.384 189.272 49.024 190.424ZM79.328 162.296H104.544V164.664H79.328V162.296ZM77.664 175.896H106.368V178.296H77.664V175.896ZM81.568 166.872L83.712 166.2C85.024 168.536 86.336 171.576 86.784 173.464L84.48 174.232C84.032 172.344 82.784 169.24 81.568 166.872ZM100.128 166.072L102.688 166.776C101.472 169.368 99.968 172.44 98.72 174.36L96.672 173.688C97.856 171.672 99.36 168.376 100.128 166.072ZM90.688 163.224H93.152V189.56H90.688V163.224ZM114.88 185.816H132.896V188.152H114.88V185.816ZM113.792 175.928H134.176V189.496H131.648V178.232H116.224V189.56H113.792V175.928ZM120.224 160.024L122.848 160.952C120.928 164.664 118.24 169.08 116.096 171.896L114.016 171C116.128 168.152 118.752 163.448 120.224 160.024ZM127.904 165.208L129.792 163.8C133.056 166.392 136.832 170.168 138.496 172.824L136.448 174.424C134.848 171.768 131.2 167.896 127.904 165.208ZM110.016 169.944C116.096 169.784 125.952 169.368 135.072 168.952L134.944 171.256C125.952 171.736 116.288 172.152 110.176 172.408L110.016 169.944ZM159.52 161.72H168.416V163.928H159.52V161.72ZM159.52 169.08H168.416V171.224H159.52V169.08ZM159.488 176.536H168.48V178.712H159.488V176.536ZM167.328 161.72H169.664V186.52C169.664 187.896 169.344 188.632 168.416 189.016C167.52 189.4 166.016 189.464 163.648 189.464C163.584 188.792 163.232 187.736 162.912 187.128C164.608 187.16 166.208 187.16 166.688 187.128C167.168 187.128 167.328 186.968 167.328 186.488V161.72ZM158.528 161.72H160.8V173.336C160.8 178.264 160.416 185.176 157.536 189.72C157.12 189.272 156.16 188.568 155.616 188.344C158.304 184.056 158.528 177.976 158.528 173.336V161.72ZM141.632 164.408H156.96V166.52H141.632V164.408ZM145.408 169.368H153.504V171.32H145.408V169.368ZM145.408 174.456H153.536V176.376H145.408V174.456ZM141.216 179.608H156.96V181.752H141.216V179.608ZM144.352 160.504H146.56V180.472H144.352V160.504ZM152.384 160.504H154.592V180.472H152.384V160.504ZM145.664 182.456L147.968 183.096C146.784 185.528 144.928 187.992 143.2 189.592C142.752 189.208 141.824 188.504 141.248 188.184C143.04 186.744 144.704 184.6 145.664 182.456ZM150.272 183.448L152.128 182.456C153.376 183.896 154.88 185.88 155.52 187.192L153.568 188.344C152.96 187.064 151.52 184.952 150.272 183.448ZM177.024 190.424L176.288 188.76C178.912 187.672 180.352 186.04 180.352 183.64L179.744 180.92L181.472 183.352C181.024 183.928 180.384 184.088 179.776 184.088C178.464 184.088 177.376 183.32 177.376 181.784C177.376 180.28 178.528 179.48 179.808 179.48C181.6 179.48 182.56 180.952 182.56 183.192C182.56 186.648 180.384 189.272 177.024 190.424ZM215.072 171.544H220.352V173.208H215.072V171.544ZM214.112 175.704H220.48V177.368H214.112V175.704ZM225.952 171.544H231.296V173.208H225.952V171.544ZM225.728 175.704H230.304V169.272H225.824V167.608H232.352V177.368H225.728V175.704ZM214.112 167.864L216.096 168.408V176.728H214.112V167.864ZM219.776 166.616L220.928 167.928C219.296 168.728 217.056 169.336 215.424 169.688L214.464 168.504C216.064 168.088 218.4 167.224 219.776 166.616ZM213.664 179.384H230.528V181.272H213.664V179.384ZM222.112 166.104H224.288V180.152H222.112V166.104ZM229.76 179.384H230.24L230.656 179.288L232.096 180.056C228.768 186.072 220.864 188.632 212.928 189.624C212.736 189.08 212.288 188.184 211.904 187.704C219.392 186.936 226.976 184.6 229.76 179.704V179.384ZM218.272 181.048C221.152 184.792 227.616 186.968 234.912 187.672C234.464 188.152 233.888 189.016 233.6 189.592C226.112 188.728 219.648 186.232 216.32 181.816L218.272 181.048ZM210.88 163.096H234.304V165.176H210.88V163.096ZM209.664 163.096H211.904V173.4C211.904 178.328 211.296 185.176 207.36 189.592C207.008 189.112 206.112 188.312 205.632 187.992C209.312 183.864 209.664 177.976 209.664 173.4V163.096ZM220.32 160.152H222.848V164.216H220.32V160.152ZM205.216 166.584L207.04 165.88C208.064 167.864 208.928 170.424 209.152 172.024L207.232 172.888C207.008 171.224 206.176 168.6 205.216 166.584ZM204.768 178.36C206.208 177.688 208.192 176.6 210.336 175.48L210.88 177.304C209.088 178.424 207.264 179.512 205.568 180.472L204.768 178.36ZM240.224 161.304H246.464V163.512H240.224V161.304ZM250.432 181.432H260.32V183.384H250.432V181.432ZM240.096 168.824H246.08V171.032H240.096V168.824ZM240.064 176.504H246.112V178.744H240.064V176.504ZM239.168 161.304H241.248V172.792C241.248 177.752 240.992 184.824 238.88 189.56C238.464 189.176 237.536 188.664 236.992 188.472C239.008 183.96 239.168 177.528 239.168 172.792V161.304ZM245.024 161.304H247.168V186.808C247.168 188.024 246.912 188.728 246.144 189.112C245.344 189.496 244.192 189.56 242.176 189.528C242.08 188.984 241.792 187.96 241.504 187.32C242.88 187.384 244.096 187.384 244.448 187.352C244.864 187.32 245.024 187.192 245.024 186.744V161.304ZM251.296 164.312H265.088V166.52H251.296V164.312ZM264.128 164.312H266.304C266.304 164.312 266.304 165.24 266.304 165.56C265.984 181.336 265.664 186.616 264.448 188.12C263.808 189.08 263.104 189.336 261.984 189.432C260.864 189.56 258.912 189.496 257.056 189.4C257.024 188.76 256.768 187.832 256.352 187.192C258.464 187.384 260.352 187.384 261.152 187.384C261.728 187.384 262.112 187.288 262.464 186.872C263.456 185.72 263.808 180.184 264.128 164.856V164.312ZM251.968 160.12L254.304 160.632C253.088 164.92 251.04 168.888 248.672 171.512C248.256 171.064 247.264 170.296 246.72 169.944C249.12 167.608 250.912 163.96 251.968 160.12ZM249.216 171.032H251.104V185.976H249.216V171.032ZM259.712 171.032H261.6V185.144H259.712V171.032ZM256.576 168.824L258.336 169.112C257.216 173.912 255.36 178.264 252.928 181.176C252.64 180.888 251.904 180.376 251.488 180.12C253.92 177.4 255.616 173.24 256.576 168.824ZM251.776 172.664L252.768 171.32C255.264 173.272 257.984 175.96 259.264 177.752L258.176 179.288C256.896 177.464 254.144 174.616 251.776 172.664ZM270.208 162.392H297.76V164.824H270.208V162.392ZM285.888 171.704L287.68 170.168C291.424 172.6 296.32 176.216 298.688 178.68L296.736 180.504C294.496 178.04 289.696 174.296 285.888 171.704ZM285.28 163.224L287.904 164.184C284.256 170.808 278.272 177.144 271.04 180.952C270.656 180.344 269.888 179.384 269.408 178.872C276.352 175.384 282.304 169.24 285.28 163.224ZM282.656 169.624L285.248 167.064V189.528H282.656V169.624ZM311.072 171.544H316.352V173.208H311.072V171.544ZM310.112 175.704H316.48V177.368H310.112V175.704ZM321.952 171.544H327.296V173.208H321.952V171.544ZM321.728 175.704H326.304V169.272H321.824V167.608H328.352V177.368H321.728V175.704ZM310.112 167.864L312.096 168.408V176.728H310.112V167.864ZM315.776 166.616L316.928 167.928C315.296 168.728 313.056 169.336 311.424 169.688L310.464 168.504C312.064 168.088 314.4 167.224 315.776 166.616ZM309.664 179.384H326.528V181.272H309.664V179.384ZM318.112 166.104H320.288V180.152H318.112V166.104ZM325.76 179.384H326.24L326.656 179.288L328.096 180.056C324.768 186.072 316.864 188.632 308.928 189.624C308.736 189.08 308.288 188.184 307.904 187.704C315.392 186.936 322.976 184.6 325.76 179.704V179.384ZM314.272 181.048C317.152 184.792 323.616 186.968 330.912 187.672C330.464 188.152 329.888 189.016 329.6 189.592C322.112 188.728 315.648 186.232 312.32 181.816L314.272 181.048ZM306.88 163.096H330.304V165.176H306.88V163.096ZM305.664 163.096H307.904V173.4C307.904 178.328 307.296 185.176 303.36 189.592C303.008 189.112 302.112 188.312 301.632 187.992C305.312 183.864 305.664 177.976 305.664 173.4V163.096ZM316.32 160.152H318.848V164.216H316.32V160.152ZM301.216 166.584L303.04 165.88C304.064 167.864 304.928 170.424 305.152 172.024L303.232 172.888C303.008 171.224 302.176 168.6 301.216 166.584ZM300.768 178.36C302.208 177.688 304.192 176.6 306.336 175.48L306.88 177.304C305.088 178.424 303.264 179.512 301.568 180.472L300.768 178.36ZM346.336 161.112H348.992C348.736 166.136 348.256 182.104 335.008 189.304C334.592 188.696 333.792 187.96 333.056 187.416C346.112 180.76 346.112 165.368 346.336 161.112ZM348.896 161.752C348.992 164.248 349.92 181.24 363.104 187.288C362.4 187.832 361.664 188.632 361.28 189.304C347.712 182.808 346.816 164.92 346.592 161.976L348.896 161.752ZM369.024 190.424L368.288 188.76C370.912 187.672 372.352 186.04 372.352 183.64L371.744 180.92L373.472 183.352C373.024 183.928 372.384 184.088 371.776 184.088C370.464 184.088 369.376 183.32 369.376 181.784C369.376 180.28 370.528 179.48 371.808 179.48C373.6 179.48 374.56 180.952 374.56 183.192C374.56 186.648 372.384 189.272 369.024 190.424ZM39.744 212.848C42.784 220.112 49.216 224.784 58.72 226.416C58.208 226.96 57.504 227.984 57.184 228.656C47.424 226.704 40.992 221.68 37.536 213.488L39.744 212.848ZM33.984 203.504H55.52V205.808H33.984V203.504ZM34.432 211.696H53.504V213.968H34.432V211.696ZM43.648 199.088H46.08V212.592H43.648V199.088ZM32.736 203.504H35.136V211.44C35.136 216.432 34.56 223.632 30.848 228.432C30.464 227.984 29.472 227.152 28.928 226.864C32.352 222.384 32.736 216.048 32.736 211.408V203.504ZM54.944 203.504H55.392L55.84 203.408L57.664 203.92C56.768 206.288 55.648 208.944 54.688 210.64L52.48 209.968C53.312 208.432 54.304 205.936 54.944 203.92V203.504ZM52.896 211.696H53.44L53.888 211.6L55.488 212.464C52.224 221.84 44.32 226.448 35.264 228.528C35.04 227.92 34.368 226.864 33.856 226.352C42.688 224.528 50.176 220.432 52.896 212.176V211.696ZM75.52 200.816H87.616V202.512H75.52V200.816ZM65.408 203.888H87.936V205.616H65.408V203.888ZM71.136 221.584H85.344V222.768H71.136V221.584ZM71.136 223.92H85.344V225.2H71.136V223.92ZM74.432 199.12H76.832V205.552H74.432V199.12ZM68.064 207.376L84.32 206.608L84.352 207.92L68.128 208.656L68.064 207.376ZM74.432 204.976H76.704V208.4C76.704 209.2 77.056 209.328 78.976 209.328C79.936 209.328 85.152 209.328 86.432 209.328C87.68 209.328 87.968 209.136 88.096 207.696C88.608 207.952 89.312 208.112 89.92 208.208C89.696 210.192 88.992 210.736 86.688 210.736C85.888 210.736 79.648 210.736 78.88 210.736C75.456 210.736 74.432 210.352 74.432 208.4V204.976ZM63.936 203.888H66.272V212.208C66.272 216.88 65.856 223.6 63.264 228.112C62.848 227.728 61.824 227.088 61.216 226.864C63.744 222.576 63.936 216.56 63.936 212.208V203.888ZM87.2 203.888H87.552L88 203.76L89.696 204.272C89.152 205.712 88.416 207.312 87.776 208.368L85.76 207.696C86.272 206.736 86.848 205.392 87.2 204.208V203.888ZM76.8 212.4H79.008V217.488H76.8V212.4ZM70.464 215.536V216.784H85.6V215.536H70.464ZM70.464 213.104V214.352H85.6V213.104H70.464ZM68.256 211.92H87.936V217.968H68.256V211.92ZM69.856 219.152H85.248V220.432H72.16V228.592H69.856V219.152ZM84.128 219.152H86.464V226.512C86.464 227.568 86.24 228.016 85.44 228.304C84.672 228.56 83.36 228.56 81.28 228.56C81.184 228.048 80.864 227.44 80.64 226.96C82.016 227.024 83.264 226.992 83.648 226.992C84 226.96 84.128 226.864 84.128 226.512V219.152ZM102.912 214.672H113.856V224.048H102.912V222.032H111.616V216.688H102.912V214.672ZM101.856 214.672H104.096V225.968H101.856V214.672ZM96.064 205.136H104.96V206.928H96.064V205.136ZM110.816 205.136H119.872V206.928H110.816V205.136ZM118.816 200.496H121.216V225.36C121.216 226.96 120.832 227.728 119.808 228.144C118.72 228.528 116.864 228.56 114.048 228.56C113.952 227.888 113.536 226.768 113.184 226.096C115.296 226.192 117.408 226.16 118.016 226.128C118.624 226.128 118.816 225.936 118.816 225.328V200.496ZM96.256 200.496H106.496V211.792H96.256V209.84H104.224V202.448H96.256V200.496ZM120.064 200.496V202.416H111.68V209.872H120.064V211.792H109.376V200.496H120.064ZM94.912 200.496H97.28V228.592H94.912V200.496ZM129.504 206.32V208.752H135.744V206.32H129.504ZM129.504 202.224V204.624H135.744V202.224H129.504ZM127.36 200.496H137.984V210.544H127.36V200.496ZM125.44 212.912H139.872V214.768H125.44V212.912ZM139.68 200.72H154.272V202.512H139.68V200.72ZM131.84 213.488H133.888V225.68L131.84 224.4V213.488ZM132.928 218.224H139.328V220.048H132.928V218.224ZM146.016 201.168L148.288 201.616C147.68 203.248 147.04 205.072 146.464 206.256L144.672 205.84C145.184 204.528 145.728 202.544 146.016 201.168ZM143.104 210.864V213.264H150.752V210.864H143.104ZM143.104 214.928V217.392H150.752V214.928H143.104ZM143.104 206.768V209.136H150.752V206.768H143.104ZM140.928 205.008H152.992V219.152H140.928V205.008ZM143.584 219.728L145.632 220.336C144.224 222.128 141.888 223.952 139.904 225.04C139.552 224.688 138.752 223.92 138.304 223.568C140.288 222.64 142.368 221.2 143.584 219.728ZM127.68 216.528H129.696C129.504 221.136 128.864 225.936 126.592 228.656C126.272 228.176 125.568 227.472 125.056 227.12C127.008 224.784 127.52 220.464 127.68 216.528ZM129.184 219.664C131.456 225.168 136.448 225.872 143.648 225.872C145.088 225.872 153.024 225.872 154.912 225.808C154.56 226.32 154.176 227.248 154.048 227.888H143.648C135.488 227.888 130.336 226.832 127.68 220.208L129.184 219.664ZM148.064 220.592L149.696 219.664C151.552 220.784 153.664 222.576 154.72 223.792L152.96 224.912C151.936 223.632 149.792 221.776 148.064 220.592ZM161.024 229.424L160.288 227.76C162.912 226.672 164.352 225.04 164.352 222.64L163.744 219.92L165.472 222.352C165.024 222.928 164.384 223.088 163.776 223.088C162.464 223.088 161.376 222.32 161.376 220.784C161.376 219.28 162.528 218.48 163.808 218.48C165.6 218.48 166.56 219.952 166.56 222.192C166.56 225.648 164.384 228.272 161.024 229.424ZM200.704 200.528H218.272V202.672H200.704V200.528ZM200.16 200.528H202.432V211.12C202.432 216.336 202.016 223.728 198.976 228.624C198.56 228.272 197.536 227.664 196.96 227.44C199.904 222.736 200.16 216.048 200.16 211.152V200.528ZM202.912 212.656H218.368V214.704H202.912V212.656ZM203.936 206.736H217.248V208.752H203.936V206.736ZM209.184 203.44H211.424V213.264H209.184V203.44ZM201.408 225.52H218.848V227.6H201.408V225.52ZM203.424 218.96H217.824V220.976H203.424V218.96ZM209.184 215.376H211.424V226.704H209.184V215.376ZM188.864 215.984C191.456 215.312 195.36 214.16 199.136 213.072L199.424 215.216C195.936 216.304 192.256 217.456 189.408 218.32L188.864 215.984ZM189.408 205.584H199.168V207.824H189.408V205.584ZM193.76 199.152H196.064V225.648C196.064 227.024 195.776 227.696 194.944 228.08C194.112 228.496 192.8 228.56 190.72 228.56C190.624 227.952 190.304 226.896 189.984 226.224C191.424 226.288 192.768 226.288 193.152 226.256C193.568 226.256 193.76 226.128 193.76 225.648V199.152ZM224.224 200.304H231.296V202.544H224.224V200.304ZM224.224 207.792H231.264V210.032H224.224V207.792ZM224.16 215.472H231.232V217.744H224.16V215.472ZM223.168 200.304H225.344V211.824C225.344 216.816 225.024 223.92 222.848 228.656C222.4 228.272 221.44 227.728 220.896 227.536C223.008 222.992 223.168 216.56 223.168 211.856V200.304ZM230.08 200.304H232.288V225.456C232.288 226.704 232.032 227.44 231.232 227.856C230.432 228.24 229.216 228.304 227.104 228.304C227.04 227.696 226.752 226.608 226.432 226C227.872 226.064 229.12 226.032 229.536 226.032C229.92 226 230.08 225.872 230.08 225.456V200.304ZM234.336 209.232H250.144V211.568H234.336V209.232ZM233.216 224.848H250.72V227.184H233.216V224.848ZM240.832 199.472H243.232V226.288H240.832V199.472ZM259.136 204.56H261.152V208.56H259.136V204.56ZM255.2 207.6H257.248V225.456H255.2V207.6ZM256.512 211.92H263.68V213.616H256.512V211.92ZM265.376 208.592H282.464V210.704H265.376V208.592ZM253.216 225.072C255.84 224.496 259.712 223.568 263.52 222.576L263.776 224.496C260.32 225.52 256.736 226.512 253.952 227.28L253.216 225.072ZM264.864 217.904C267.2 217.232 270.656 216.112 274.144 214.96L274.528 216.944C271.392 218.032 268.096 219.152 265.568 220.016L264.864 217.904ZM260.416 220.016L262.24 219.216C263.776 221.488 265.376 224.432 265.952 226.352L264 227.28C263.456 225.36 261.92 222.288 260.416 220.016ZM277.568 201.04L279.264 200.368C280.512 202.128 281.728 204.464 282.144 206L280.384 206.8C279.904 205.264 278.752 202.864 277.568 201.04ZM256.576 207.6H264.576V218.032H256.576V216.208H262.528V209.424H256.576V207.6ZM272.608 199.44L274.272 201.232C271.936 202.288 268.576 203.216 265.76 203.824C265.664 203.312 265.312 202.544 265.056 202.032C267.744 201.36 270.848 200.368 272.608 199.44ZM268.96 202.064H271.072V225.84C271.072 227.056 270.848 227.728 270.112 228.112C269.376 228.496 268.256 228.528 266.464 228.528C266.4 227.952 266.112 226.992 265.824 226.352C267.04 226.384 268.128 226.352 268.48 226.352C268.832 226.352 268.96 226.256 268.96 225.84V202.064ZM258.624 199.152H259.936V199.664H260.608V200.336C259.264 202.704 257.12 206.064 253.952 208.88C253.6 208.368 252.896 207.632 252.384 207.312C255.296 204.88 257.44 201.648 258.624 199.152ZM259.136 199.152H260.736C262.624 200.88 264.832 203.344 265.888 204.944L264.352 206.512C263.36 204.912 261.312 202.256 259.52 200.624H259.136V199.152ZM274.752 199.408H276.832C276.864 213.872 278.016 225.776 280.512 225.936C281.024 225.936 281.376 224.272 281.6 221.52C281.952 221.936 282.848 222.48 283.232 222.672C282.624 227.344 281.536 228.56 280.48 228.528C275.904 228.4 275.008 215.792 274.752 199.408ZM280.192 212.496L281.984 212.912C280.32 219.568 277.216 225.232 272.928 228.24C272.608 227.728 271.968 227.024 271.488 226.608C275.616 224.048 278.688 218.512 280.192 212.496ZM300.608 200.432H311.872V202.64H300.608V200.432ZM286.752 214.576H299.776V216.496H286.752V214.576ZM292.832 201.328H294.976V205.936H292.832V201.328ZM292.832 210.832H294.976V215.504H292.832V210.832ZM311.36 200.432H311.776L312.192 200.336L313.664 200.88C311.84 208.88 307.104 213.968 301.504 216.464C301.248 215.888 300.608 214.96 300.128 214.512C305.28 212.528 309.824 207.632 311.36 200.848V200.432ZM303.712 202.8C305.568 208.656 309.44 213.328 314.784 215.408C314.272 215.856 313.632 216.688 313.28 217.296C307.68 214.864 303.744 209.872 301.664 203.408L303.712 202.8ZM287.712 204.976H299.36V211.76H287.712V209.936H297.216V206.8H287.712V204.976ZM286.752 200.336H299.488V202.256H288.992V215.792H286.752V200.336ZM285.472 225.52H314.528V227.632H285.472V225.52ZM288.832 219.568H311.168V221.616H288.832V219.568ZM298.688 217.232H301.152V226.864H298.688V217.232ZM329.216 203.28H345.184V205.488H329.216V203.28ZM327.936 215.312H346.496V217.552H327.936V215.312ZM327.552 209.552H346.72V211.76H327.552V209.552ZM336.032 199.28H338.304V210.704H336.032V199.28ZM340.256 211.28H342.56V225.68C342.56 227.12 342.24 227.792 341.28 228.144C340.352 228.528 338.784 228.528 336.384 228.528C336.288 227.856 335.968 226.896 335.68 226.224C337.472 226.288 339.136 226.288 339.616 226.256C340.128 226.224 340.256 226.096 340.256 225.648V211.28ZM330.304 219.504L332.16 218.416C333.568 220.112 335.168 222.416 335.84 223.952L333.824 225.2C333.248 223.632 331.712 221.232 330.304 219.504ZM316.864 216.144C319.392 215.44 323.168 214.288 326.848 213.104L327.168 215.312C323.808 216.432 320.224 217.584 317.504 218.48L316.864 216.144ZM317.312 205.584H327.072V207.824H317.312V205.584ZM321.44 199.152H323.712V225.68C323.712 226.992 323.392 227.664 322.592 228.048C321.856 228.4 320.608 228.496 318.592 228.464C318.496 227.888 318.208 226.896 317.888 226.224C319.296 226.288 320.512 226.288 320.896 226.256C321.28 226.256 321.44 226.128 321.44 225.68V199.152ZM351.552 202.192H358.688V220.08H351.552V217.84H356.448V204.4H351.552V202.192ZM350.368 202.192H352.576V223.152H350.368V202.192ZM362.976 225.04H375.2V227.152H362.976V225.04ZM360.384 200.464H377.664V202.544H360.384V200.464ZM359.776 212.688H378.656V214.8H359.776V212.688ZM361.6 217.456H376.416V228.496H374.112V219.6H363.872V228.592H361.6V217.456ZM366.368 201.296L368.8 201.52C368.16 205.392 367.2 210.512 366.464 213.488H364.064C364.864 210.384 365.824 205.104 366.368 201.296ZM361.408 206H374.208V208.112H361.408V206ZM373.248 206H373.472L373.856 205.872L375.584 206.032C375.488 208.464 375.232 211.376 374.976 213.648L372.64 213.456C372.928 211.184 373.152 208.016 373.248 206.32V206ZM173.6 240.232H190.016V242.408H173.6V240.232ZM174.56 255.464H189.088V257.64H174.56V255.464ZM180.672 251.656H183.04V264.2L180.672 264.552V251.656ZM173.248 264.2C177.408 263.752 183.904 262.888 190.08 262.056L190.144 264.296C184.192 265.128 177.888 266.024 173.632 266.6L173.248 264.2ZM173.536 248.936C177.184 248.808 182.816 248.552 188.32 248.264L188.256 250.376C183.008 250.696 177.536 250.984 173.728 251.208L173.536 248.936ZM183.744 245.032L185.536 244.04C187.488 246.28 189.728 249.288 190.656 251.208L188.736 252.36C187.808 250.408 185.664 247.304 183.744 245.032ZM179.136 241.384L181.728 241.896C180.608 244.712 179.232 248.232 178.048 250.44L175.936 249.928C177.056 247.656 178.432 243.912 179.136 241.384ZM191.424 241.992H193.728V259.72H191.424V241.992ZM198.976 239.048H201.344V264.328C201.344 265.992 200.96 266.728 199.904 267.112C198.848 267.528 196.896 267.592 194.304 267.592C194.176 266.92 193.824 265.8 193.472 265.064C195.616 265.16 197.6 265.128 198.24 265.128C198.816 265.096 198.976 264.936 198.976 264.36V239.048ZM218.208 257.288C217.248 251.944 224.768 250.536 224.768 246.888C224.768 244.68 223.2 243.08 219.936 243.08C217.728 243.08 215.712 244.04 213.856 245.96L212.16 244.392C214.272 242.152 216.768 240.648 220.224 240.648C224.736 240.648 227.648 242.984 227.648 246.664C227.648 251.496 220 252.488 220.832 257.288H218.208ZM219.584 265.16C218.432 265.16 217.536 264.36 217.536 263.08C217.536 261.8 218.464 260.936 219.584 260.936C220.704 260.936 221.632 261.8 221.632 263.08C221.632 264.36 220.704 265.16 219.584 265.16Z" fill="black"/>
</svg>
