<svg width="33" height="32" viewBox="0 0 33 32" fill="none" xmlns="http://www.w3.org/2000/svg">
<path d="M26.4995 13.3332C26.4995 13.1564 26.4293 12.9868 26.3043 12.8618C26.1793 12.7368 26.0097 12.6666 25.8329 12.6666C25.6561 12.6666 25.4865 12.7368 25.3615 12.8618C25.2364 12.9868 25.1662 13.1564 25.1662 13.3332H26.4995ZM7.83287 13.3332C7.83287 13.1564 7.76263 12.9868 7.63761 12.8618C7.51259 12.7368 7.34302 12.6666 7.16621 12.6666C6.9894 12.6666 6.81983 12.7368 6.6948 12.8618C6.56978 12.9868 6.49954 13.1564 6.49954 13.3332H7.83287ZM28.0275 16.4719C28.1527 16.5971 28.3225 16.6674 28.4995 16.6674C28.6766 16.6674 28.8464 16.5971 28.9715 16.4719C29.0967 16.3467 29.167 16.1769 29.167 15.9999C29.167 15.8229 29.0967 15.6531 28.9715 15.5279L28.0275 16.4719ZM16.4995 3.99989L16.9715 3.52789C16.9096 3.46581 16.836 3.41655 16.755 3.38294C16.6741 3.34933 16.5872 3.33203 16.4995 3.33203C16.4118 3.33203 16.325 3.34933 16.244 3.38294C16.163 3.41655 16.0895 3.46581 16.0275 3.52789L16.4995 3.99989ZM4.02754 15.5279C3.90236 15.6531 3.83203 15.8229 3.83203 15.9999C3.83203 16.1769 3.90236 16.3467 4.02754 16.4719C4.15272 16.5971 4.32251 16.6674 4.49954 16.6674C4.67657 16.6674 4.84636 16.5971 4.97154 16.4719L4.02754 15.5279ZM9.83287 28.6666H23.1662V27.3332H9.83287V28.6666ZM26.4995 25.3332V13.3332H25.1662V25.3332H26.4995ZM7.83287 25.3332V13.3332H6.49954V25.3332H7.83287ZM28.9715 15.5279L16.9715 3.52789L16.0275 4.47189L28.0275 16.4719L28.9715 15.5279ZM16.0275 3.52789L4.02754 15.5279L4.97154 16.4719L16.9715 4.47189L16.0275 3.52789ZM23.1662 28.6666C24.0503 28.6666 24.8981 28.3154 25.5232 27.6902C26.1483 27.0651 26.4995 26.2173 26.4995 25.3332H25.1662C25.1662 25.8637 24.9555 26.3724 24.5804 26.7474C24.2053 27.1225 23.6966 27.3332 23.1662 27.3332V28.6666ZM9.83287 27.3332C9.30244 27.3332 8.79373 27.1225 8.41866 26.7474C8.04359 26.3724 7.83287 25.8637 7.83287 25.3332H6.49954C6.49954 26.2173 6.85073 27.0651 7.47585 27.6902C8.10097 28.3154 8.94882 28.6666 9.83287 28.6666V27.3332Z" fill="#FFFACA"/>
</svg>
