<svg width="64" height="62" viewBox="0 0 64 62" fill="none" xmlns="http://www.w3.org/2000/svg">
<g opacity="0.5" clip-path="url(#clip0_568_4142)">
<path d="M27.08 26.7799C27.5 26.4899 27.94 26.2099 28.36 25.9099C29.14 25.3399 29.91 24.7399 30.71 24.1799C31.0439 23.9644 31.297 23.6444 31.43 23.2699C31.69 22.5199 31.96 21.7699 32.23 21.0199C33.08 18.6499 33.89 16.2599 34.8 13.9099C35.3761 12.4232 36.0441 10.9738 36.8 9.56995C38.09 7.15995 39.47 4.78995 40.8 2.40995C41.098 1.96619 41.4325 1.54808 41.8 1.15995C41.8935 1.03772 42.0223 0.947209 42.169 0.900698C42.3157 0.854186 42.4732 0.853924 42.62 0.899946C42.7642 0.959107 42.8856 1.06285 42.9666 1.196C43.0476 1.32915 43.0838 1.48472 43.07 1.63995C43.085 1.85969 43.085 2.0802 43.07 2.29995C42.98 3.62995 42.91 4.94995 42.79 6.29995C42.4468 9.97086 41.2369 13.5078 39.26 16.6199C38.63 17.6199 37.86 18.5499 37.1 19.6199C37.3103 19.531 37.5141 19.4274 37.71 19.3099C38.12 19.0399 38.5 18.7399 38.91 18.4799C39.4283 18.1809 39.8169 17.6997 40 17.1299C40.497 16.0499 41.136 15.0409 41.9 14.1299C42.9 12.6999 44.02 11.2999 45.08 9.87995C46.9868 7.36997 49.5077 5.39319 52.4 4.13995C53.65 3.57995 54.96 3.13995 56.26 2.70995C58.1305 2.17242 59.9176 1.37819 61.57 0.349946C61.7867 0.19042 62.0307 0.0718078 62.29 -5.40689e-05C62.4215 -0.0426992 62.562 -0.0496212 62.6971 -0.0201112C62.8321 0.0093987 62.9569 0.0742801 63.0587 0.167888C63.1604 0.261496 63.2355 0.380466 63.2761 0.512614C63.3168 0.644762 63.3216 0.785338 63.29 0.919946C63.2222 1.17375 63.1178 1.4163 62.98 1.63995C61.8205 3.62172 60.4815 5.49289 58.98 7.22995C56.3327 10.2719 53.1963 12.8506 49.7 14.8599C49.08 15.2099 48.47 15.5699 47.89 15.9699C45.8543 17.3159 43.5748 18.2501 41.18 18.7199C40.1396 18.9348 39.1678 19.4018 38.35 20.0799C37.53 20.7499 36.67 21.3599 35.83 22.0099C36.03 22.2899 36.24 22.1199 36.42 22.0699C39.4196 21.283 42.5232 20.9659 45.62 21.1299C46.62 21.1299 47.57 21.2399 48.54 21.3099C51.7155 21.55 54.9045 21.55 58.08 21.3099C58.65 21.3099 59.23 21.2599 59.8 21.3099C60.0005 21.3024 60.198 21.3599 60.3631 21.4738C60.5282 21.5877 60.652 21.752 60.7162 21.9421C60.7803 22.1322 60.7812 22.3379 60.7188 22.5285C60.6564 22.7192 60.5341 22.8845 60.37 22.9999C60.0914 23.2837 59.7905 23.5445 59.47 23.7799C56.9514 25.5083 54.2141 26.8938 51.33 27.8999C46.8596 29.3741 42.107 29.785 37.45 29.0999C36.0007 28.8896 34.5788 28.5207 33.21 27.9999C32.0339 27.6201 30.8202 27.3686 29.59 27.2499C29.3936 27.2179 29.1925 27.229 29.0008 27.2826C28.8091 27.3361 28.6314 27.4307 28.48 27.5599C26.37 29.2399 24.24 30.8899 22.14 32.5599C21.38 33.1699 20.65 33.8199 19.91 34.4499C19.7497 34.6176 19.5994 34.7945 19.46 34.9799C19.6754 34.9619 19.8893 34.9284 20.1 34.8799C23.2041 33.7862 26.5362 33.5039 29.78 34.0599C31.31 34.2999 32.78 34.5999 34.35 34.8899C35.92 35.1799 37.47 35.4999 39.04 35.8099C40.9466 36.1901 42.8784 36.4307 44.82 36.5299C45.2194 36.531 45.6166 36.5882 46 36.6999C46.1166 36.7364 46.2219 36.8023 46.3056 36.8914C46.3893 36.9804 46.4485 37.0895 46.4777 37.2082C46.5069 37.3268 46.5049 37.451 46.472 37.5687C46.4392 37.6864 46.3764 37.7936 46.29 37.8799C46.0732 38.0994 45.8193 38.2788 45.54 38.4099C39.1201 41.5821 31.9743 42.9968 24.83 42.5099C22.8339 42.41 20.8932 41.8193 19.18 40.7899C18.13 40.1399 17 39.5999 15.93 38.9999C15.8301 38.927 15.7163 38.8752 15.5956 38.8477C15.475 38.8203 15.35 38.8177 15.2283 38.8401C15.1067 38.8626 14.9908 38.9096 14.888 38.9784C14.7851 39.0471 14.6973 39.1361 14.63 39.2399C13.36 40.5299 12.12 41.8499 10.88 43.1799C10.41 43.6899 9.99 44.2399 9.43 44.9299C9.78 44.9299 9.95 44.9299 10.09 44.9299C12.4706 44.3842 14.9306 44.2757 17.35 44.6099C19.8957 44.9197 22.4111 45.4416 24.87 46.1699L26.64 46.7199C28.2813 47.2676 30.0133 47.4918 31.74 47.3799C32.18 47.3799 32.63 47.3799 33.07 47.3799C33.2713 47.3685 33.4708 47.4228 33.6385 47.5346C33.8063 47.6465 33.9331 47.8098 34 47.9999C34.0701 48.178 34.0765 48.3748 34.0182 48.557C33.9599 48.7392 33.8404 48.8957 33.68 48.9999C33.3781 49.2724 33.0419 49.5044 32.68 49.6899C32.0976 50.0045 31.4926 50.2753 30.87 50.4999C28.9482 51.2265 26.9227 51.6418 24.87 51.7299C22.31 51.8299 19.75 51.8599 17.18 51.8499C15.1865 51.7946 13.2148 51.4198 11.34 50.7399C9.68 50.1699 7.97 49.7399 6.34 49.2699C5.91059 49.5663 5.56592 49.9696 5.34 50.4399C3.78075 52.9561 2.50943 55.6396 1.55 58.4399C1.21864 59.4719 0.803939 60.4752 0.31 61.4399C0 61.3999 0 61.1499 0 60.9399C0.14 60.1199 0.26 59.2799 0.46 58.4699C1.0877 56.0287 2.02178 53.6767 3.24 51.4699C3.54 50.9299 3.82 50.3799 4.11 49.8299C3.91 49.4799 3.75 49.1699 3.55 48.8299C2.78401 47.745 2.19971 46.5426 1.82 45.2699C0.99397 42.6802 0.536156 39.9872 0.46 37.2699C0.389818 33.5983 0.530048 29.9256 0.88 26.2699C0.907458 25.9916 0.947499 25.7147 1 25.4399C1.02219 25.3091 1.08392 25.1881 1.17688 25.0934C1.26984 24.9986 1.38958 24.9346 1.52 24.9099C1.67356 24.8815 1.83219 24.9031 1.97258 24.9715C2.11297 25.0399 2.22773 25.1515 2.3 25.2899C2.32396 25.3278 2.34407 25.368 2.36 25.4099C3.05 26.8899 3.79 28.3499 4.42 29.8599C5.81971 33.1692 6.50138 36.7378 6.42 40.3299C6.39254 41.677 6.22497 43.0176 5.92 44.3299C5.71 45.1899 5.52 46.0499 5.34 46.9099C5.32555 47.1164 5.32555 47.3235 5.34 47.5299C5.7 47.6499 5.79 47.3899 5.9 47.2399C6.98782 45.6802 8.17706 44.1936 9.46 42.7899C9.66654 42.5897 9.80836 42.3321 9.86718 42.0505C9.926 41.7689 9.89912 41.4761 9.79 41.2099C9.35307 39.7661 9.22697 38.2461 9.42 36.7499C9.57 35.2999 9.75 33.8499 10.03 32.4199C10.7676 28.8176 11.7704 25.2746 13.03 21.8199C13.833 19.6125 14.8372 17.4835 16.03 15.4599C16.2732 15.0393 16.5438 14.6351 16.84 14.2499C16.9338 14.083 17.0763 13.9487 17.2485 13.865C17.4208 13.7813 17.6144 13.7522 17.8036 13.7815C17.9928 13.8109 18.1686 13.8973 18.3073 14.0293C18.4461 14.1613 18.5412 14.3324 18.58 14.5199C18.7156 14.8955 18.8259 15.2797 18.91 15.6699C19.4475 18.0473 19.5827 20.4979 19.31 22.9199C19.0473 25.5634 18.4318 28.1598 17.48 30.6399C16.71 32.3199 16 33.9999 15.27 35.7399C15.13 36.0599 15.01 36.3799 14.84 36.7999C15.08 36.7399 15.22 36.7999 15.3 36.6799L21.17 31.4999L21.66 31.0499C21.7749 30.9489 21.8666 30.8242 21.9287 30.6844C21.9909 30.5446 22.022 30.3929 22.02 30.2399C22.2055 26.9252 22.7453 23.6398 23.63 20.4399C24.4783 17.1354 25.8453 13.9863 27.68 11.1099C28.33 10.0599 29 8.99995 29.63 7.99995C30.4213 6.72277 31.059 5.35665 31.53 3.92995C31.6058 3.60459 31.727 3.29152 31.89 2.99995C31.9454 2.93086 32.0167 2.87618 32.0977 2.84054C32.1788 2.80491 32.2673 2.78938 32.3556 2.79527C32.444 2.80116 32.5296 2.8283 32.6053 2.87438C32.6809 2.92046 32.7443 2.98412 32.79 3.05995C32.8964 3.24801 32.9644 3.45537 32.99 3.66995C33.71 10.1799 32.83 16.3799 29.46 22.0999C28.74 23.3199 28 24.5199 27.29 25.7399C27.1407 26.0086 27.0071 26.2858 26.89 26.5699L27.08 26.7799Z" fill="black"/>
</g>
<defs>
<clipPath id="clip0_568_4142">
<rect width="63.27" height="61.4" fill="white"/>
</clipPath>
</defs>
</svg>
