<svg width="56" height="47" viewBox="0 0 56 47" fill="none" xmlns="http://www.w3.org/2000/svg">
<g opacity="0.5" clip-path="url(#clip0_568_4284)">
<path d="M20.1202 28.6898C18.2929 27.8569 16.5104 26.929 14.7802 25.9098C13.8974 25.3918 12.986 24.9244 12.0502 24.5098C10.0502 23.5098 8.11015 22.5098 6.11015 21.5898C4.6132 20.8773 3.19539 20.0091 1.88015 18.9998C1.37778 18.6246 0.903204 18.2135 0.460154 17.7698C0.33265 17.6635 0.228188 17.5323 0.153164 17.3842C0.0781394 17.2361 0.0341313 17.0742 0.0238336 16.9085C0.013536 16.7428 0.0371656 16.5767 0.0932757 16.4205C0.149386 16.2643 0.236796 16.1211 0.350154 15.9998C1.09646 15.0353 1.794 14.0341 2.44015 12.9998C3.17638 12.0754 4.0076 11.2307 4.92015 10.4798C7.25429 8.29548 9.77376 6.31805 12.4502 4.56981C13.8646 3.64419 15.3943 2.90793 17.0002 2.37981C18.7602 1.81981 20.5202 1.22981 22.3002 0.749807C23.5402 0.419807 24.8002 0.259807 26.0002 -0.000193433C26.1159 -0.0207689 26.2344 -0.0207689 26.3502 -0.000193433C28.0402 0.239807 29.7402 -0.0801934 31.4202 0.179807C32.2287 0.34164 33.0269 0.552021 33.8102 0.809807C34.4102 0.979807 35.0102 1.15981 35.6102 1.35981C36.7168 1.64337 37.7657 2.11708 38.7102 2.75981C40.2302 3.88981 41.6902 4.99981 43.1602 6.13981C43.4228 6.3151 43.6673 6.51609 43.8902 6.73981C45.3502 8.44981 47.1502 9.84981 48.3702 11.7398C49.5902 13.6298 50.7902 15.6198 51.9802 17.5698C52.1657 17.8847 52.3134 18.2203 52.4202 18.5698C53.3125 20.8411 54.0149 23.1824 54.5202 25.5698C54.7854 26.9625 54.9459 28.3731 55.0002 29.7898C55.0802 31.6298 55.1002 33.4898 55.0502 35.3398C54.93 37.8239 54.4205 40.2738 53.5402 42.5998C53.1116 43.5361 52.596 44.43 52.0002 45.2698C51.8002 45.5998 51.5402 45.8998 51.3102 46.2198C51.1217 46.5618 50.8074 46.8168 50.434 46.9307C50.0605 47.0446 49.6573 47.0084 49.3102 46.8298C48.4402 46.4598 47.5902 46.0698 46.7602 45.6198C45.9301 45.1698 45.2102 44.6798 44.4502 44.1898C44.2108 44.059 44.0053 43.8741 43.8502 43.6498C43.747 43.4563 43.6049 43.2862 43.4328 43.1502C43.2607 43.0143 43.0623 42.9154 42.8502 42.8598C41.5373 42.3202 40.2922 41.6289 39.1402 40.7998C36.3202 38.9198 33.5302 37.0098 30.5502 35.3698C29.4902 34.7898 28.5502 34.0298 27.5502 33.3698L23.6402 30.7198L23.1602 30.3798L23.3102 30.1998C23.6282 30.3438 23.9386 30.504 24.2402 30.6798C25.2402 31.2898 26.1502 31.9198 27.1002 32.5398C28.5726 33.5729 30.1279 34.4827 31.7502 35.2598L31.5602 34.9698C31.3967 34.7957 31.2709 34.5898 31.1905 34.3649C31.1101 34.1401 31.0768 33.9011 31.0928 33.6628C31.1087 33.4246 31.1735 33.1921 31.2832 32.98C31.3928 32.7679 31.545 32.5806 31.7302 32.4298C32.0194 32.1251 32.3266 31.8379 32.6502 31.5698C32.1402 30.5698 32.1402 30.5698 32.5602 29.5698C32.6127 29.4226 32.6561 29.2723 32.6902 29.1198H32.7402L31.4502 29.2598C31.1554 29.2941 30.857 29.2425 30.5909 29.1112C30.3248 28.9799 30.1023 28.7746 29.9502 28.5198C29.7085 28.1557 29.583 27.7268 29.5902 27.2898V25.9298C28.7102 26.3198 28.2002 25.5598 27.4602 25.3598C27.2602 25.7298 27.0802 26.0698 26.8602 26.3598C26.3502 27.1298 25.9702 27.2098 25.1002 26.7798C25.0229 26.75 24.9423 26.7298 24.8602 26.7198C24.7918 27.0618 24.6914 27.3966 24.5602 27.7198C24.5327 27.8148 24.4846 27.9026 24.4192 27.9768C24.3538 28.0511 24.2728 28.1099 24.1819 28.1491C24.0911 28.1883 23.9928 28.2069 23.8939 28.2035C23.795 28.2002 23.6981 28.175 23.6102 28.1298C23.5302 27.3798 23.5402 27.3698 23.0902 26.9098C22.6402 26.4498 22.4002 26.2898 22.0002 25.9998C21.3202 25.3998 20.6102 24.8298 19.9402 24.2198C18.0505 22.5464 16.4757 20.5482 15.2902 18.3198C14.9867 17.8595 14.7918 17.3364 14.7202 16.7898C14.9331 17.0098 15.1271 17.2473 15.3002 17.4998C16.2869 19.1201 17.4915 20.5973 18.8802 21.8898C19.7702 22.7298 20.6802 23.5398 21.5802 24.3698C22.0318 24.753 22.4624 25.1603 22.8702 25.5898C23.2777 26.0867 23.655 26.6077 24.0002 27.1498C23.9302 26.6998 23.9202 26.3898 23.8402 26.1498C23.5273 24.9685 23.0635 23.8325 22.4602 22.7698C21.2778 20.6816 20.2742 18.4972 19.4602 16.2398C19.0002 14.9998 18.5202 13.9098 18.0002 12.7998C17.6502 11.9998 17.2602 11.2298 16.8502 10.4598C16.6642 10.0891 16.3785 9.77756 16.0251 9.56027C15.6718 9.34299 15.2649 9.22854 14.8502 9.22981C14.4602 9.22981 14.0602 9.22981 13.6702 9.22981C13.111 9.1904 12.5503 9.27889 12.0305 9.48855C11.5107 9.6982 11.0455 10.0235 10.6702 10.4398C9.80015 11.3398 8.99016 12.3098 8.18015 13.2798C7.72249 13.8673 7.40447 14.5512 7.25015 15.2798C7.18967 15.4901 7.17624 15.7111 7.21081 15.9271C7.24537 16.1431 7.32709 16.3489 7.45015 16.5298C8.06275 17.544 8.88015 18.4193 9.85015 19.0998C13.1202 21.1498 16.3702 23.2398 19.6202 25.3298C20.3502 25.7998 21.0402 26.3298 21.7302 26.8398C22.5736 27.5068 23.257 28.3542 23.7302 29.3198C23.8102 29.4698 23.9502 29.6698 23.7302 29.8098C23.7302 29.8098 23.6402 29.8098 23.6202 29.8098C23.4995 29.7076 23.3859 29.5973 23.2802 29.4798C21.8976 27.9653 20.3006 26.6615 18.5402 25.6098C17.0002 24.6098 15.4802 23.6598 13.9502 22.6798C12.4202 21.6998 10.7602 20.6798 9.18015 19.6098C8.25933 19.0747 7.27942 18.6485 6.26015 18.3398C6.00337 18.2268 5.71372 18.2133 5.44756 18.302C5.1814 18.3908 4.95776 18.5753 4.82015 18.8198C4.698 19.0163 4.5878 19.22 4.49015 19.4298C4.6917 19.5882 4.90204 19.7351 5.12015 19.8698C7.48015 21.2031 9.84349 22.5365 12.2102 23.8698C14.5702 25.1998 16.9602 26.5098 19.3202 27.8698C19.6649 28.0684 19.9987 28.2854 20.3202 28.5198L20.1202 28.6898ZM30.6102 23.1498L30.8202 22.6598C30.9558 22.6056 31.076 22.5189 31.1701 22.4073C31.2643 22.2957 31.3296 22.1626 31.3602 22.0198C32.1302 21.0698 32.8902 20.1198 33.6802 19.1898C35.184 17.31 36.494 15.2831 37.5902 13.1398C37.7455 12.8639 37.8792 12.5764 37.9902 12.2798C38.1902 11.7842 38.2691 11.2481 38.2204 10.7159C38.1717 10.1837 37.9968 9.67083 37.7102 9.21981C37.4502 8.82981 37.1801 8.43981 36.9202 8.03981C36.5763 7.45795 36.0268 7.02619 35.3802 6.82981C35.0402 6.72981 34.7402 6.50981 34.3802 6.37981C33.6502 6.09981 32.9202 5.78981 32.1702 5.56981C31.9139 5.45928 31.6359 5.40817 31.3571 5.42029C31.0783 5.43241 30.8059 5.50746 30.5602 5.63981C30.1242 5.87347 29.7649 6.22798 29.5254 6.66079C29.286 7.0936 29.1765 7.58631 29.2102 8.07981C29.3544 9.72029 29.3007 11.3722 29.0502 12.9998C28.8802 14.1298 28.6602 15.2498 28.5202 16.3898C28.2702 18.4998 28.0502 20.6198 27.8202 22.7298C27.7602 23.2398 27.6702 23.7298 27.6402 24.2598C27.6402 24.5198 27.7702 24.6998 28.1702 24.6398C28.4202 23.4098 28.6702 22.1398 28.9502 20.8798C29.2302 19.6198 29.5202 18.4198 29.7802 17.1898C30.0402 15.9598 30.2802 14.6398 30.5202 13.3598C30.6691 12.0117 30.9096 10.6753 31.2402 9.35981C31.2985 10.4709 31.2617 11.585 31.1302 12.6898C30.9962 13.7877 30.9528 14.8948 31.0002 15.9998C31.2802 15.3598 31.4502 14.9998 31.6302 14.5898C31.8102 14.1798 32.0202 13.7298 32.2402 13.3098C32.3843 12.9026 32.6285 12.5381 32.9502 12.2498C32.9652 12.3492 32.9652 12.4504 32.9502 12.5498C32.4402 13.9098 31.9502 15.3098 31.3902 16.6298C30.4856 18.7333 29.8149 20.9298 29.3902 23.1798C29.3902 23.3998 29.2902 23.6098 29.2302 23.8298C29.4648 23.6763 29.6491 23.4572 29.7602 23.1998C30.4602 21.8298 31.1302 20.4498 31.8502 19.0898C32.6902 17.4798 33.5602 15.8898 34.4302 14.2998C34.5522 14.106 34.6893 13.9221 34.8402 13.7498C34.825 14.3801 34.6495 14.9962 34.3302 15.5398C33.4902 17.3498 32.6102 19.1498 31.7502 20.9498C31.5802 21.2998 31.4302 21.6598 31.2602 22.0098C31.0902 22.3598 30.9702 22.4898 30.8202 22.7298C30.6702 22.9698 30.6802 23.0598 30.6002 23.2198L30.3502 23.4798L30.1102 23.9298L30.3402 23.4598L30.6102 23.1498ZM33.4402 29.7798C33.9402 29.7798 34.1602 29.3498 34.5102 29.1298C35.7602 28.3398 36.9701 27.4698 38.1902 26.6398C38.3214 26.5567 38.4584 26.4832 38.6002 26.4198C38.6393 26.4539 38.676 26.4907 38.7102 26.5298L36.4702 28.9998C36.9186 28.9309 37.3421 28.7485 37.7002 28.4698C39.0502 27.7398 40.4002 26.9998 41.7602 26.2998C41.9401 26.1553 42.1517 26.0554 42.3777 26.0085C42.6037 25.9615 42.8375 25.9689 43.0602 26.0298C42.7874 26.2749 42.4767 26.4742 42.1402 26.6198C41.8602 26.7698 41.5902 26.9298 41.3202 27.0898L40.4102 27.6398C40.1402 27.8098 39.8601 27.9498 39.6002 28.1398C39.3402 28.3298 38.9402 28.3798 38.7902 28.7698C39.8829 29.0367 41.0368 28.8605 42.0002 28.2798C42.4702 28.0698 42.9402 27.8698 43.4202 27.6898C43.5958 27.6363 43.777 27.6028 43.9602 27.5898C43.6433 27.8816 43.2821 28.1213 42.8902 28.2998C42.4654 28.4477 42.0744 28.6789 41.7402 28.9798C42.3802 29.0898 42.9302 29.1698 43.4602 29.2798C44.0096 29.3347 44.5412 29.5051 45.0202 29.7798C44.7474 29.8048 44.4729 29.8048 44.2002 29.7798C42.6401 29.5617 41.0614 29.508 39.4902 29.6198C39.4402 29.6198 39.3902 29.6798 39.3402 29.7198C39.6202 29.9198 40.0402 29.8298 40.2502 30.2098C39.6311 30.3572 38.98 30.2829 38.4102 29.9998C37.6844 29.8202 36.9259 29.8202 36.2002 29.9998C35.2817 30.2131 34.343 30.3271 33.4002 30.3398C33.4002 30.3398 33.2901 30.4298 33.1902 30.5198C33.351 30.7106 33.5539 30.8614 33.783 30.9603C34.0121 31.0593 34.261 31.1036 34.5102 31.0898C34.7793 31.0598 35.051 31.0598 35.3202 31.0898C36.9339 31.4586 38.5848 31.6398 40.2402 31.6298C42.8302 31.8098 45.4302 31.7998 48.0202 31.7298C48.3368 31.7599 48.6564 31.7263 48.9598 31.6308C49.2633 31.5353 49.5445 31.3799 49.7869 31.1739C50.0293 30.9679 50.2279 30.7154 50.371 30.4312C50.5141 30.1471 50.5989 29.8372 50.6202 29.5198C50.6202 29.3998 50.6202 29.2798 50.6202 29.1598C50.9963 27.1303 50.6421 25.0331 49.6202 23.2398C49.5569 23.1384 49.5034 23.0312 49.4602 22.9198C49.2542 22.4707 48.9593 22.0681 48.5931 21.7363C48.227 21.4046 47.7973 21.1506 47.3302 20.9898C47.1713 20.8999 46.9872 20.8649 46.8064 20.8902C46.6256 20.9156 46.4582 20.9998 46.3302 21.1298C44.5098 22.5736 42.5262 23.7987 40.4202 24.7798C38.7402 25.6398 37.0901 26.5698 35.4202 27.4898C34.4801 27.9918 33.7654 28.8316 33.4202 29.8398H33.3702L33.4402 29.7798ZM36.5202 20.7798L38.7202 19.9498C38.8602 19.8998 39.0202 19.8298 39.1302 20.1098C38.9702 20.1898 38.8202 20.2998 38.6502 20.3798C37.8302 20.7598 37.0102 21.1398 36.1702 21.4898C35.6634 21.6869 35.2302 22.0363 34.9302 22.4898C34.4802 23.1898 34.0002 23.8698 33.5502 24.5598C33.4802 24.6698 33.3102 24.7898 33.5502 24.9898C33.7802 24.8898 34.0302 24.7998 34.2802 24.6798C34.5302 24.5598 34.7701 24.4298 35.0102 24.2998C35.2502 24.1698 35.4302 24.0898 35.6402 23.9698C35.8502 23.8498 36.1202 23.6998 36.3502 23.5498C36.5802 23.3998 36.8102 23.2498 37.0602 23.1098C37.3102 22.9698 37.4402 22.7298 37.8902 22.8398C36.4553 24.1637 34.8752 25.3211 33.1802 26.2898C33.8602 26.5198 34.3002 25.9498 34.8402 26.0498C34.8402 26.1198 34.8402 26.2198 34.8402 26.2398C34.5291 26.4815 34.1708 26.6552 33.7884 26.75C33.4061 26.8447 33.0081 26.8583 32.6202 26.7898C32.3167 26.7099 31.995 26.7382 31.7102 26.8698L30.7702 27.2998C30.7702 28.0598 30.9602 28.2998 31.5102 28.2998C32.144 28.3177 32.7694 28.1509 33.3102 27.8198C34.0502 27.3598 34.7902 26.9098 35.4802 26.3898C36.6565 25.4932 37.904 24.6939 39.2102 23.9998C41.0002 23.0798 42.7702 22.1398 44.5602 21.2098C45.3338 20.7955 46.0144 20.2271 46.5602 19.5398C46.6784 19.4031 46.7684 19.2444 46.8251 19.0728C46.8817 18.9012 46.9038 18.72 46.8902 18.5398C46.8602 17.996 46.6989 17.4676 46.4202 16.9998C45.4404 15.2389 44.1496 13.6702 42.6102 12.3698C42.4901 12.2709 42.3631 12.1807 42.2302 12.0998C41.9681 11.9218 41.6693 11.8051 41.3559 11.7584C41.0426 11.7116 40.7228 11.736 40.4202 11.8298C39.9883 11.946 39.5863 12.1534 39.2413 12.438C38.8963 12.7226 38.6163 13.0779 38.4202 13.4798C37.1953 15.9579 35.6742 18.2782 33.8902 20.3898C33.2002 21.1898 32.6102 22.0898 31.8902 22.8898C31.1561 23.8685 30.7219 25.0392 30.6402 26.2598C30.6459 26.4456 30.6727 26.6301 30.7202 26.8098C30.9635 26.6222 31.1879 26.4112 31.3902 26.1798C31.8368 25.5131 32.2668 24.8465 32.6802 24.1798C33.3406 23.057 34.1402 22.0221 35.0602 21.0998C36.2533 19.9674 37.534 18.9308 38.8902 17.9998C38.834 18.3135 38.6584 18.5931 38.4002 18.7798C37.9602 19.2198 37.4902 19.6398 37.0602 20.0998C36.8708 20.3396 36.7003 20.5937 36.5502 20.8598H36.4702L36.5202 20.7798ZM41.2602 36.1598C40.9701 36.0498 40.6702 35.9598 40.3802 35.8298C39.4902 35.4198 38.6002 34.9898 37.7202 34.5698C37.5116 34.4443 37.2774 34.3675 37.035 34.345C36.7926 34.3225 36.5483 34.3549 36.3202 34.4398C36.5971 34.7675 36.9372 35.0362 37.3202 35.2298C37.6902 35.4798 38.1802 35.5698 38.5002 36.1498C37.9236 36.0298 37.3807 35.7839 36.9102 35.4298C36.4275 35.0416 35.9045 34.7063 35.3502 34.4298C34.6958 34.2632 34.0251 34.1693 33.3502 34.1498L32.2502 33.9998C32.3264 34.2887 32.4443 34.5649 32.6002 34.8198C33.3601 35.6498 33.9302 36.6698 35.0302 37.1498C35.3799 37.3402 35.7142 37.5575 36.0302 37.7998C36.7602 38.2498 37.4802 38.7398 38.2502 39.1298C39.4737 39.7665 40.653 40.4848 41.7802 41.2798L44.2202 42.9998C44.4696 43.1497 44.7266 43.2865 44.9902 43.4098C46.2656 42.8299 47.4758 42.1158 48.6002 41.2798C48.8702 41.0523 49.109 40.79 49.3102 40.4998C50.0885 39.446 50.5508 38.1923 50.6429 36.8854C50.7349 35.5785 50.4531 34.2724 49.8302 33.1198C49.7046 32.9076 49.5607 32.7069 49.4002 32.5198H47.0702C45.0702 32.5198 42.9802 32.5198 40.9302 32.4198C39.4002 32.3598 37.8702 32.1898 36.3402 32.0898C35.6361 32.0149 34.928 31.9848 34.2202 31.9998C33.7972 32.0697 33.3885 32.2082 33.0102 32.4098C32.8882 32.4563 32.786 32.5433 32.7205 32.6561C32.6549 32.769 32.6301 32.9009 32.6502 33.0298C33.1864 33.2214 33.7507 33.3228 34.3202 33.3298C35.5002 33.3998 36.6802 33.4498 37.8602 33.5698C39.4646 33.744 41.0507 34.0585 42.6002 34.5098C42.9872 34.5578 43.3431 34.7465 43.6002 35.0398C43.4436 35.05 43.2867 35.05 43.1302 35.0398C41.9702 34.8498 40.8102 34.6398 39.6402 34.4598C39.2671 34.4379 38.8932 34.4379 38.5202 34.4598C39.3302 34.9198 39.9102 35.2198 40.5202 35.5698C40.8102 35.7398 41.1801 35.8598 41.2602 36.2698V36.1598ZM18.5502 9.88981L18.7902 10.6298L19.0002 11.5698C18.5002 11.3598 18.4302 10.8498 18.2302 10.4398C18.0302 10.0298 17.8902 9.61981 17.7102 9.15981C17.6233 9.65598 17.7269 10.1667 18.0002 10.5898C18.8402 12.4998 19.7202 14.3898 20.4702 16.3398C21.2237 18.3703 22.1193 20.3451 23.1502 22.2498C23.6874 23.1678 24.1265 24.1398 24.4602 25.1498C24.4602 25.3098 24.4602 25.5498 24.8502 25.5798C24.8328 25.4308 24.8026 25.2836 24.7602 25.1398C23.938 22.2218 23.3132 19.2518 22.8902 16.2498C22.7827 15.8804 22.8185 15.4841 22.9902 15.1398C23.4086 17.2186 23.9564 19.2692 24.6302 21.2798C24.6883 20.8256 24.7117 20.3676 24.7002 19.9098C24.7002 19.4398 24.7002 18.9698 24.7002 18.4998C24.7002 18.0298 24.7002 17.5498 24.7802 17.0798C24.8602 16.6098 24.9302 16.1798 25.0102 15.7198C25.1487 15.9668 25.2178 16.2467 25.2102 16.5298C25.2102 16.8098 25.2102 17.0798 25.2102 17.3598C25.2102 17.6398 25.2102 17.9898 25.2102 18.2998C25.195 18.5763 25.195 18.8533 25.2102 19.1298C25.1648 19.4392 25.24 19.7542 25.4202 20.0098C25.4902 19.6098 25.5402 19.3498 25.5902 19.0898C25.6402 18.8298 25.7202 18.4798 25.7902 18.1698C25.8602 17.8598 25.9002 17.6298 25.9502 17.3598C26.0002 17.0898 26.0402 16.7398 26.0902 16.4198C26.1402 16.0998 26.1902 15.8798 26.2202 15.6098C26.2502 15.3398 26.2202 14.9798 26.2702 14.6598C26.3202 14.3398 26.2702 14.1098 26.2702 13.8398C26.2702 13.5698 26.2702 13.2098 26.2702 12.8898C26.2702 12.5698 26.1702 12.3998 26.3402 12.1298C26.4302 12.2598 26.5002 12.3198 26.5102 12.3798C26.858 14.1624 26.9121 15.9898 26.6702 17.7898C26.4102 19.3798 26.1002 20.9698 25.7602 22.5398C25.5651 23.5875 25.5651 24.6621 25.7602 25.7098C25.7602 25.8698 25.7602 26.1098 26.0802 26.1898C26.4529 25.7957 26.6849 25.2894 26.7402 24.7498C26.9102 23.6198 27.0702 22.4898 27.1902 21.3498C27.3402 20.0598 27.4202 18.7698 27.5802 17.4798C27.7802 15.8398 28.0702 14.2098 28.2502 12.5598C28.5245 10.6862 28.484 8.78 28.1302 6.91981C27.9102 5.91981 27.7802 5.69981 26.7602 5.64981C25.7402 5.59981 24.9502 5.64981 24.0502 5.64981C22.333 5.76528 20.6452 6.15348 19.0502 6.79981C18.7258 6.93594 18.4305 7.1328 18.1802 7.37981C18.058 7.48202 17.971 7.62003 17.9315 7.77435C17.8921 7.92867 17.9021 8.09149 17.9602 8.23981L18.5502 9.88981ZM7.89015 17.9998C7.59015 17.6798 7.30015 17.3698 7.01015 16.9998C6.81151 16.7814 6.66865 16.5182 6.59377 16.2326C6.5189 15.947 6.51422 15.6476 6.58015 15.3598C6.70267 14.4962 7.02075 13.6719 7.51015 12.9498C8.35015 11.8598 9.21015 10.7898 10.1402 9.76981C10.8769 8.94045 11.8969 8.41619 13.0002 8.29981C14.0114 8.17046 15.0389 8.28006 16.0002 8.61981C16.2036 8.67746 16.4107 8.7209 16.6202 8.74981C16.6665 8.65247 16.7066 8.55226 16.7402 8.44981C16.7884 7.82924 17.0337 7.24033 17.4403 6.76901C17.8469 6.29769 18.3934 5.96862 19.0002 5.82981C21.4154 4.96 23.9746 4.55949 26.5402 4.64981C27.0596 4.58373 27.5866 4.68723 28.0425 4.94491C28.4984 5.20259 28.8588 5.60066 29.0702 6.07981C29.2302 5.89981 29.4002 5.74981 29.5402 5.56981C29.7517 5.2582 30.044 5.00989 30.3856 4.85138C30.7273 4.69287 31.1056 4.63012 31.4802 4.66981C31.9512 4.67291 32.4193 4.74363 32.8702 4.87981C34.0502 5.30981 35.2002 5.80981 36.3602 6.28981C36.5449 6.36517 36.7143 6.47361 36.8602 6.60981C37.7672 7.49503 38.494 8.54781 39.0002 9.70981C39.0941 10.0094 39.1577 10.3176 39.1902 10.6298C39.1902 10.8598 39.1902 11.0898 39.2502 11.3098C39.3302 11.3098 39.3802 11.3098 39.4102 11.3098L39.9502 11.0998C40.4505 10.8563 41.0099 10.7608 41.5627 10.8246C42.1154 10.8884 42.6384 11.1088 43.0702 11.4598C44.7839 12.7348 46.2056 14.361 47.2402 16.2298C47.3529 16.4355 47.4498 16.6494 47.5302 16.8698C47.7207 17.3242 47.8189 17.812 47.8189 18.3048C47.8189 18.7976 47.7207 19.2854 47.5302 19.7398C47.4888 19.8845 47.4554 20.0314 47.4302 20.1798C47.6902 20.2298 47.8802 20.2598 48.0702 20.3098C48.5958 20.4064 49.0882 20.6352 49.5011 20.9746C49.9139 21.3139 50.2337 21.7528 50.4302 22.2498C50.6102 22.6898 50.8702 23.0898 51.0602 23.5198C52.3302 26.4198 52.4102 29.2298 50.4202 31.8798C50.4202 31.8798 50.4202 31.9498 50.4202 32.0298C51.2115 33.007 51.7292 34.1769 51.9202 35.4198C52.05 35.9588 52.05 36.5209 51.9202 37.0598C51.6224 38.2859 51.1186 39.4525 50.4302 40.5098C49.8684 41.4242 49.0418 42.1462 48.0602 42.5798C47.4102 42.8598 46.7502 43.1098 46.0602 43.3998C45.9102 43.4698 45.6502 43.4598 45.6502 43.7098L47.4402 45.0698C47.5272 45.1464 47.6352 45.1952 47.7502 45.2098C48.3017 45.2413 48.8388 45.3987 49.3202 45.6698C49.4691 45.7451 49.6318 45.7894 49.7983 45.7998C49.9649 45.8102 50.1318 45.7867 50.289 45.7306C50.4462 45.6744 50.5903 45.5869 50.7125 45.4733C50.8348 45.3597 50.9326 45.2224 51.0002 45.0698C51.2502 44.6698 51.4602 44.2498 51.7302 43.8598C52.7481 42.2586 53.3718 40.4388 53.5502 38.5498C53.8171 38.0293 53.915 37.4386 53.8302 36.8598L53.5702 38.5598C53.3802 38.9398 53.1702 39.3098 52.9902 39.6998C52.6302 40.4798 52.3002 41.2698 51.9102 42.0398C51.5202 42.8098 51.1301 43.4798 50.7102 44.1798C50.5134 44.4683 50.2961 44.7424 50.0602 44.9998C50.0194 44.954 49.976 44.9106 49.9302 44.8698C50.1061 43.5437 50.5666 42.2713 51.2802 41.1398C52.4012 39.3711 53.1056 37.3707 53.3402 35.2898C53.4402 34.1498 53.4902 33.0098 53.5602 31.8698C53.5602 31.6498 53.5602 31.4198 53.6402 31.1998H53.7402C53.8602 32.5998 53.9702 33.9898 54.0902 35.3798C54.2002 33.6798 54.2201 31.9798 54.1902 30.2898C54.263 28.1565 53.9583 26.0271 53.2902 23.9998C53.2408 23.8491 53.2008 23.6954 53.1702 23.5398C52.7502 22.1498 52.3602 20.7398 51.8902 19.3698C51.6063 18.5922 51.2515 17.8423 50.8302 17.1298C50.2702 16.1298 49.5802 15.2198 49.0502 14.2098C47.6202 11.5098 45.4402 9.44981 43.3902 7.26981C43.1973 7.07273 42.9825 6.89827 42.7502 6.74981C41.5102 5.84981 40.2602 4.99981 39.0002 3.99981C38.3302 3.47783 37.5979 3.04115 36.8202 2.69981C36.2234 2.40077 35.587 2.18862 34.9302 2.06981C34.6094 2.02222 34.2965 1.9314 34.0002 1.79981C33.0739 1.46702 32.1154 1.2324 31.1402 1.09981C29.8902 0.879807 28.6102 1.09981 27.3802 0.739807C27.2257 0.702467 27.0646 0.702467 26.9102 0.739807C25.6702 0.959807 24.4302 1.15981 23.2002 1.41981C21.1102 1.85981 19.1202 2.59981 17.0902 3.23981C15.6921 3.68845 14.35 4.29574 13.0902 5.04981C10.3592 6.79455 7.80682 8.80427 5.47015 11.0498C4.43238 11.947 3.49369 12.9527 2.67015 14.0498C2.37015 14.4598 2.02015 14.8398 1.67015 15.2198C1.17431 15.8473 0.868893 16.6039 0.790154 17.3998C1.28015 17.6498 1.72015 17.8998 2.18015 18.1098C2.64805 18.4053 3.1479 18.6468 3.67015 18.8298L4.39015 17.9998C4.556 17.7765 4.77956 17.6027 5.0368 17.497C5.29405 17.3913 5.57524 17.3577 5.85015 17.3998C6.16295 17.4446 6.47093 17.5182 6.77015 17.6198C7.14015 17.7098 7.52015 17.8398 7.89015 17.9998Z" fill="black"/>
<path d="M23.2001 30.3498L20.1201 28.6898L20.2701 28.5098L23.3501 30.1698L23.2001 30.3498Z" fill="black"/>
<path d="M24.0498 2.16982C23.8998 2.24982 23.7898 2.33982 23.6698 2.38982C22.4298 2.78982 21.1998 3.19982 19.9598 3.57982C16.4646 4.70695 13.1379 6.30138 10.0698 8.31982C8.04072 9.61866 6.23422 11.2361 4.71984 13.1098C4.31644 13.6916 3.9523 14.2996 3.62984 14.9298C3.22984 15.6098 2.83984 16.2898 2.41984 16.9298C2.24042 17.1585 2.0395 17.3695 1.81984 17.5598C1.79703 17.3805 1.79703 17.1991 1.81984 17.0198C1.89431 16.7955 1.98799 16.578 2.09984 16.3698C4.03413 12.7267 6.91533 9.67272 10.4398 7.52982C11.4398 6.92982 12.4398 6.27982 13.4398 5.65982C14.6502 4.9171 15.9336 4.30054 17.2698 3.81982C18.3498 3.43982 19.4098 3.01982 20.4598 2.56982C21.5361 2.16485 22.6803 1.97132 23.8298 1.99982C23.8798 1.99982 23.9298 2.05982 24.0498 2.16982Z" fill="black"/>
<path d="M44.17 9.83984C45.1063 10.4233 45.9435 11.1525 46.65 11.9998C47.5888 13.1109 48.4381 14.2946 49.19 15.5398C50.0386 16.8172 50.7619 18.1735 51.35 19.5898C51.4519 19.8117 51.4867 20.0585 51.45 20.2998C51.3437 20.2134 51.2465 20.1162 51.16 20.0098C50.8617 19.5499 50.5976 19.0686 50.37 18.5698C49.71 17.0134 48.8164 15.5667 47.72 14.2798C46.72 13.0098 45.61 11.8398 44.56 10.6298L44 9.99984L44.17 9.83984Z" fill="black"/>
<path d="M27.1602 1.80971C28.7902 1.41971 33.3302 2.28971 35.1602 3.36971C32.4202 3.12971 30.0002 2.30971 27.4502 1.99971C27.3502 1.99971 27.2702 1.88971 27.1602 1.80971Z" fill="black"/>
<path d="M51.6104 22.6899C53.0171 24.6066 53.6718 26.9728 53.4504 29.3399C53.1504 28.0699 52.9404 26.9999 52.6604 25.9599C52.3804 24.9199 52.0004 23.9999 51.6104 22.6899Z" fill="black"/>
<path d="M41.2601 6.57967C41.1111 6.55773 40.9662 6.51392 40.8301 6.44967L37.8301 4.54967L38.0001 4.40967C39.2717 4.80559 40.3986 5.56728 41.2401 6.59967L41.2601 6.57967Z" fill="black"/>
<path d="M47.8799 43.28C48.591 43.4195 49.2351 43.7925 49.7099 44.34C49.3491 44.2971 49.001 44.1798 48.6878 43.9957C48.3746 43.8115 48.1029 43.5644 47.8899 43.27L47.8799 43.28Z" fill="black"/>
<path d="M48.0498 44.5298C47.6382 44.4173 47.2824 44.1575 47.0498 43.7998C47.4698 43.8947 47.8545 44.1062 48.1598 44.4098L48.0498 44.5298Z" fill="black"/>
<path d="M37.87 4.54969L37 4.20969C37.25 3.96969 37.41 4.20969 37.57 4.20969C37.7117 4.25801 37.8463 4.32529 37.97 4.40969L37.87 4.54969Z" fill="black"/>
<path d="M48.1598 44.4097L48.8698 44.8897L48.7698 44.9997L48.0498 44.5297L48.1598 44.4097Z" fill="black"/>
<path d="M48.8705 44.8896L49.0505 45.0896L48.7705 44.9996L48.8705 44.8896Z" fill="black"/>
<path d="M47.8906 43.27L47.8506 43.25L47.8806 43.28L47.8906 43.27Z" fill="black"/>
<path d="M50.0698 44.9998H49.9098C49.9064 44.9466 49.9064 44.8931 49.9098 44.8398L50.0698 44.9998Z" fill="black"/>
<path d="M44.0003 9.9999L43.7803 9.7499L43.8803 9.6499L44.1503 9.8599L44.0003 9.9999Z" fill="black"/>
<path d="M43.7998 9.72976V9.50977L43.9498 9.62977L43.7998 9.72976Z" fill="black"/>
<path d="M41.2402 6.60004H41.3202L41.2602 6.54004L41.2402 6.60004Z" fill="black"/>
<path d="M25.9297 30.6099C27.6551 31.2302 29.2871 32.0849 30.7797 33.1499C30.6997 33.2499 30.6497 33.3599 30.6197 33.3499C28.8721 32.7965 27.2699 31.8605 25.9297 30.6099Z" fill="black"/>
<path d="M13.0005 23.4796C11.4406 22.6412 9.95519 21.671 8.56055 20.5796H8.61055C8.72442 20.593 8.83565 20.6233 8.94055 20.6696L13.1305 23.3796L13.0005 23.4796Z" fill="black"/>
<path d="M18.2905 19.8598C18.1053 19.6121 17.9382 19.3514 17.7905 19.0798C17.3705 18.1898 16.9805 17.2898 16.5805 16.3898C16.5483 16.2653 16.5283 16.1381 16.5205 16.0098C17.3697 17.1524 17.9786 18.4553 18.3105 19.8398L18.2905 19.8598Z" fill="black"/>
<path d="M28 30.6299C29.0565 30.9373 30.0102 31.5247 30.76 32.3299C29.7063 32.0162 28.7542 31.4298 28 30.6299Z" fill="black"/>
<path d="M18.7904 18.1799C18.7004 18.1299 18.6004 18.1199 18.5804 18.0599C18.1704 17.1799 17.7804 16.2999 17.3604 15.3599C17.9404 15.3599 17.9004 15.8799 18.0704 16.1599C18.2601 16.4561 18.4113 16.7754 18.5204 17.1099C18.6404 17.4499 19.0004 17.7499 18.7904 18.1799Z" fill="black"/>
<path d="M8.4298 16.6997C9.22788 17.2376 9.92234 17.9152 10.4798 18.6997C10.2685 18.6241 10.0671 18.5234 9.8798 18.3997C9.3398 17.8997 8.8298 17.3997 8.2998 16.8597L8.4298 16.6997Z" fill="black"/>
<path d="M10 17.2998C9.44127 16.9393 8.93628 16.5016 8.5 15.9998C8.64 15.7398 8.77 15.8598 8.88 15.9498C9.33977 16.3205 9.72061 16.7795 10 17.2998Z" fill="black"/>
<path d="M29.3105 30.5098C29.9863 30.7398 30.6016 31.1192 31.1105 31.6198C30.7497 31.5706 30.4031 31.4464 30.0931 31.2552C29.7831 31.0641 29.5165 30.8101 29.3105 30.5098Z" fill="black"/>
<path d="M9.8702 16C10.1793 16.1697 10.438 16.4181 10.6202 16.72C10.1302 16.65 10.1202 16.66 9.7002 16.17L9.8702 16Z" fill="black"/>
<path d="M13.1498 23.3296L13.7998 23.8696C13.6479 23.8704 13.4978 23.8366 13.3609 23.7708C13.224 23.7049 13.1039 23.6088 13.0098 23.4896L13.1498 23.3296Z" fill="black"/>
<path d="M9.25045 15.6496C9.11045 15.5796 8.97045 15.4396 9.10045 15.3296C9.23045 15.2196 9.32045 15.3996 9.38045 15.5196L9.25045 15.6496Z" fill="black"/>
<path d="M18.53 20.3299C18.31 20.2399 18.29 20.0599 18.29 19.8599C18.3755 19.9038 18.4443 19.9745 18.4858 20.0611C18.5274 20.1478 18.5394 20.2457 18.52 20.3399L18.53 20.3299Z" fill="black"/>
<path d="M18.7903 20.7796C18.5703 20.7096 18.5303 20.5296 18.5303 20.3296C18.6158 20.3735 18.6845 20.4442 18.7261 20.5309C18.7676 20.6175 18.7796 20.7154 18.7603 20.8096L18.7903 20.7796Z" fill="black"/>
<path d="M18.7705 20.7998L18.9305 20.9198C18.7305 21.0298 18.8205 20.8398 18.7905 20.7798L18.7705 20.7998Z" fill="black"/>
<path d="M10.4805 18.6696H10.5605L10.5005 18.6196L10.4805 18.6696Z" fill="black"/>
<path d="M8.58047 20.5799L8.48047 20.4399L8.63047 20.5299L8.58047 20.5799Z" fill="black"/>
<path d="M9.60973 15.7598L9.86973 15.9798L9.69973 16.1498L9.46973 15.8998L9.60973 15.7598Z" fill="black"/>
<path d="M9.47 15.9C9.4 15.82 9.32 15.74 9.25 15.65L9.38 15.52L9.61 15.76L9.47 15.9Z" fill="black"/>
<path d="M8.32035 16.81L8.11035 16.55L8.16035 16.5L8.43035 16.7L8.32035 16.81Z" fill="black"/>
<path d="M8.11 16.55L8 16.48H8.13L8.11 16.55Z" fill="black"/>
<path d="M26.4304 8.07959C26.7591 9.04371 26.8483 10.0733 26.6904 11.0796C26.3996 10.1079 26.3111 9.08685 26.4304 8.07959Z" fill="black"/>
<path d="M25.54 7.83984C25.7962 8.3248 25.8672 8.88636 25.74 9.41984C25.31 8.89984 25.31 8.89984 25.54 7.83984Z" fill="black"/>
<path d="M18.7706 10.6296L18.5306 9.90965C18.4802 9.39805 18.5311 8.88153 18.6806 8.38965C18.8106 9.10965 18.9306 9.61965 18.9906 10.1396C19.0006 10.2896 18.8506 10.4696 18.7706 10.6296Z" fill="black"/>
<path d="M19.4798 9.67994C18.9998 8.99994 18.9998 8.99994 19.1498 8.43994C19.4071 8.79586 19.5277 9.23243 19.4898 9.66994L19.4798 9.67994Z" fill="black"/>
<path d="M19.4902 9.66992L19.6102 9.91992H19.5202C19.5155 9.84667 19.5155 9.77318 19.5202 9.69992L19.4902 9.66992Z" fill="black"/>
<path d="M19 11.5696L19.06 11.6296L19.02 11.5596L19 11.5696Z" fill="black"/>
<path d="M45.29 42.34C45.29 42.34 45.29 42.25 45.29 42.23C45.871 41.8187 46.4754 41.4414 47.1 41.1C47.8376 40.721 48.4183 40.0943 48.74 39.33C48.9343 38.8554 49.1898 38.4083 49.5 38C49.5348 38.1648 49.5348 38.3352 49.5 38.5C49.24 39.11 48.93 39.71 48.65 40.31L48.58 40.41C47.6891 41.3333 46.5826 42.0205 45.36 42.41C45.36 42.41 45.32 42.37 45.29 42.34Z" fill="black"/>
<path d="M40.2498 39.3298C39.8532 39.1722 39.4659 38.9919 39.0898 38.7898C37.7298 37.9498 36.3898 37.0898 35.0898 36.2398L35.2198 36.0898L36.5698 36.6598L39.3598 38.5098L40.4298 39.1898C40.367 39.2327 40.3069 39.2795 40.2498 39.3298Z" fill="black"/>
<path d="M39.1398 37.5796L40.7198 38.3096C40.8098 38.3096 40.8698 38.4496 41.0598 38.6596C40.8587 38.62 40.6613 38.5631 40.4698 38.4896C40.0098 38.2196 39.5498 37.9196 39.0898 37.6396L39.1398 37.5796Z" fill="black"/>
<path d="M48.3906 33.1H47.3906C47.0906 33.1 46.7806 33.1 46.3906 33.05C47.0906 32.79 47.0906 32.79 48.3906 33.1Z" fill="black"/>
<path d="M44.7803 41.4199C45.0711 41.121 45.4638 40.9425 45.8803 40.9199C45.4803 41.3299 45.4803 41.3299 44.7803 41.4199Z" fill="black"/>
<path d="M46.5898 33.4298C47.156 33.274 47.7537 33.274 48.3198 33.4298C48.0499 33.5593 47.7543 33.6266 47.4548 33.6266C47.1554 33.6266 46.8598 33.5593 46.5898 33.4298Z" fill="black"/>
<path d="M35.0502 36.2399C34.9041 36.211 34.7711 36.1363 34.6704 36.0266C34.5697 35.9169 34.5066 35.7779 34.4902 35.6299L35.1802 36.0899L35.0502 36.2399Z" fill="black"/>
<path d="M37.2005 36.69H36.5205V36.25L37.2005 36.66V36.69Z" fill="black"/>
<path d="M49.5306 34.5298C49.8706 34.7698 49.7706 35.1298 49.7806 35.4598C49.6702 35.3346 49.591 35.1851 49.5493 35.0235C49.5075 34.8619 49.5046 34.6927 49.5406 34.5298H49.5306Z" fill="black"/>
<path d="M41.2602 39.7097L40.7402 39.5397L40.8202 39.4497L41.2402 39.7297L41.2602 39.7097Z" fill="black"/>
<path d="M40.74 39.5399L40.25 39.3299C40.2903 39.2742 40.3337 39.2208 40.38 39.1699C40.52 39.2699 40.67 39.3599 40.82 39.4499L40.74 39.5399Z" fill="black"/>
<path d="M39.0904 37.6396L38.6104 37.4196L38.6804 37.3296L39.1404 37.5796L39.0904 37.6396Z" fill="black"/>
<path d="M38.2099 37.0796L38.6799 37.3296L38.6099 37.4196L38.1299 37.1796L38.2099 37.0796Z" fill="black"/>
<path d="M38.1302 37.1799L37.6602 36.9999L37.7302 36.8999L38.2102 37.1299L38.1302 37.1799Z" fill="black"/>
<path d="M37.6602 36.9997L37.2002 36.7397V36.6797L37.6802 36.8997L37.6602 36.9997Z" fill="black"/>
<path d="M49.7803 35.4597L49.8503 35.6197C49.8503 35.6197 49.8003 35.6197 49.7903 35.5497C49.7853 35.5166 49.7853 35.4829 49.7903 35.4497L49.7803 35.4597Z" fill="black"/>
<path d="M44.0999 35.22L43.6299 35L44.0999 35.23V35.22Z" fill="black"/>
<path d="M49.5498 34.52L49.5098 34.48L49.5298 34.53L49.5498 34.52Z" fill="black"/>
<path d="M41.2402 39.73L41.2802 39.76L41.2602 39.71L41.2402 39.73Z" fill="black"/>
<path d="M42.1906 21L44.1106 20C44.3006 20.22 44.1106 20.33 43.9706 20.44C43.178 21.1202 42.3007 21.6949 41.3606 22.15C41.1606 21.94 41.3606 21.85 41.4406 21.76L41.9706 21.32L42.2206 21.06L42.1906 21Z" fill="black"/>
<path d="M43.2298 13.6099C43.5598 13.9399 43.9098 14.2499 44.2298 14.6099C44.4583 14.9312 44.6686 15.2651 44.8598 15.6099H44.8098L43.0898 13.7799L43.2298 13.6099Z" fill="black"/>
<path d="M42.0006 21.27L41.6006 21.13C41.9258 20.6668 42.3492 20.2809 42.8406 20L43.0006 20.17L42.1906 21.03L41.9406 21.29L42.0006 21.27Z" fill="black"/>
<path d="M42.8398 19.9996C43.0401 19.6832 43.3558 19.4572 43.7198 19.3696C43.6601 19.5447 43.5654 19.7058 43.4417 19.8433C43.318 19.9808 43.1676 20.0918 42.9998 20.1696L42.8398 19.9996Z" fill="black"/>
<path d="M45.75 18.1898V16.7798C45.9244 16.9652 46.0215 17.2102 46.0215 17.4648C46.0215 17.7193 45.9244 17.9643 45.75 18.1498V18.1898Z" fill="black"/>
<path d="M42.8303 13.5396C42.6203 13.4096 42.3503 13.3296 42.3203 12.8696L43.0003 13.3796L42.8303 13.5396Z" fill="black"/>
<path d="M40.6098 12.5897L40.0498 12.9397C40.0498 12.8197 40.0498 12.7197 40.0498 12.6997C40.0498 12.6797 40.3598 12.5297 40.5198 12.4497L40.6098 12.5897Z" fill="black"/>
<path d="M40.4902 12.45L40.9702 12.25C40.9702 12.59 40.7402 12.53 40.6102 12.59L40.4902 12.45Z" fill="black"/>
<path d="M45.7406 18.1699V18.5399H45.6006L45.7806 18.2299L45.7406 18.1699Z" fill="black"/>
<path d="M45.5098 16.3096C45.5898 16.4696 45.6598 16.6296 45.7298 16.7996C45.6498 16.6396 45.5798 16.4796 45.5098 16.3096Z" fill="black"/>
<path d="M45.2705 16.0698L45.5105 16.3098L45.2705 16.0798V16.0698Z" fill="black"/>
<path d="M45.2898 16.0598L45.0498 15.8198L45.2798 16.0598H45.2898Z" fill="black"/>
<path d="M45.05 15.8199L44.79 15.6099H44.84L45.04 15.8799L45.05 15.8199Z" fill="black"/>
<path d="M43.0701 13.7799L42.8301 13.5399L43.0001 13.3799L43.2301 13.6099L43.0701 13.7799Z" fill="black"/>
<path d="M45.0498 22.9297C45.5311 22.3548 46.1554 21.9167 46.8598 21.6597L47.0098 21.8297C46.4495 22.359 45.7597 22.7315 45.0098 22.9097L45.0498 22.9297Z" fill="black"/>
<path d="M45.5703 30.8397C46.0315 30.6856 46.5263 30.6614 47.0003 30.7697C46.4303 30.9997 46.4303 30.9997 45.5703 30.8397Z" fill="black"/>
<path d="M49.77 29.3096C49.77 29.7296 49.51 29.9796 48.96 30.3096C49.24 29.8096 49.41 29.5096 49.78 29.3696L49.77 29.3096Z" fill="black"/>
<path d="M46.7701 22.7696L46.0801 23.2096C46.0801 22.7196 46.3701 22.7096 46.6301 22.6196L46.7701 22.7696Z" fill="black"/>
<path d="M46.6299 22.6199L47.3499 22.1499L47.4899 22.2999L46.7699 22.7699L46.6299 22.6199Z" fill="black"/>
<path d="M47.3506 22.1496L47.7106 21.8496L47.8206 21.9796L47.4906 22.2996L47.3506 22.1496Z" fill="black"/>
<path d="M49.7802 29.3196L49.8802 29.0996C49.8802 29.0996 49.8802 29.1696 49.8802 29.1796C49.8385 29.228 49.7916 29.2716 49.7402 29.3096L49.7802 29.3196Z" fill="black"/>
<path d="M46.8604 21.6598C46.9704 21.5298 47.0904 21.4598 47.2204 21.6598L47.0103 21.8698L46.8604 21.6598Z" fill="black"/>
<path d="M45.0398 22.9097L45.0098 22.9597L45.0498 22.9297L45.0398 22.9097Z" fill="black"/>
<path d="M38.6006 26.4199H38.8206L38.7106 26.5699C38.6781 26.517 38.6413 26.4668 38.6006 26.4199Z" fill="black"/>
<path d="M30.3806 8.28986C30.325 7.96124 30.3399 7.62455 30.4244 7.30215C30.5089 6.97974 30.661 6.67899 30.8706 6.41986C30.9406 6.32986 31.2106 6.41986 31.4306 6.35986C31.484 6.76557 31.4216 7.1781 31.2506 7.54986L30.9106 7.12986L30.3806 8.28986Z" fill="black"/>
</g>
<defs>
<clipPath id="clip0_568_4284">
<rect width="55.06" height="46.97" fill="white"/>
</clipPath>
</defs>
</svg>
