<svg width="108" height="106" viewBox="0 0 108 106" fill="none" xmlns="http://www.w3.org/2000/svg">
<path d="M98.2004 77.3001C97.8004 67.1001 95.0004 52.4001 85.0004 34.3001C75.2004 16.2001 64.4004 5.9001 56.0004 0.100098C55.9004 1.0001 55.9004 1.9001 55.9004 2.8001C55.9004 34.5001 72.9004 62.2001 98.2004 77.3001Z" fill="#00C3BB"/>
<path d="M62.3008 0C70.3008 6.4 79.6008 16.5 88.4008 32.5C98.0008 50.1 101.301 64.5 102.001 75.1C105.301 68.2 107.101 60.5 107.101 52.4C107.001 25.9 87.6008 4 62.3008 0Z" fill="#00C3BB"/>
<path d="M92.9006 88.5C83.6006 92.1 70.9006 94.9 54.0006 94.9C37.1006 94.9 24.4006 92 15.1006 88.5C24.8006 99 38.6006 105.5 54.0006 105.5C69.3006 105.5 83.2006 98.9 92.9006 88.5Z" fill="#00C3BB"/>
<path d="M10 82.1C19.2 86.7 33.4 91.2 54 91.2C74.7 91.2 88.9 86.7 98 82.1C96.7 81.3 95.3 80.6 93.9 79.8C66.4 65.5 34.8 67.5 10 82.1Z" fill="#00C3BB"/>
<path d="M19.6004 32.5C28.3004 16.5 37.7004 6.4 45.7004 0C20.3004 4 0.900391 25.9 0.900391 52.4C0.900391 60.5 2.70039 68.2 6.00039 75.1C6.70039 64.6 9.90039 50.1 19.6004 32.5Z" fill="#00C3BB"/>
<path d="M52.0002 0.100098C43.6002 5.9001 32.8002 16.2001 22.9002 34.3001C12.9002 52.4001 10.1002 67.1001 9.7002 77.3001C34.5002 62.5001 51.3002 35.7001 52.0002 4.7001C52.0002 3.2001 52.0002 1.6001 52.0002 0.100098Z" fill="#00C3BB"/>
</svg>
