<svg width="80" height="80" viewBox="0 0 80 80" fill="none" xmlns="http://www.w3.org/2000/svg">
<g clip-path="url(#clip0_1043_2616)">
<path d="M1.70762 39.5211C1.70574 46.2427 3.47574 52.8058 6.84137 58.5906L1.38574 78.3556L21.7707 73.052C27.409 76.0976 33.7262 77.6935 40.1457 77.6939H40.1626C61.3548 77.6939 78.6057 60.5829 78.6148 39.5512C78.6189 29.3599 74.6226 19.7766 67.362 12.5667C60.1026 5.35743 50.4479 1.38502 40.1611 1.38037C18.9664 1.38037 1.71668 18.4904 1.70793 39.5211" fill="url(#paint0_linear_1043_2616)"/>
<path d="M0.334375 39.5088C0.332188 46.4722 2.16562 53.2701 5.65125 59.262L0 79.7355L21.1159 74.2419C26.9341 77.3895 33.4847 79.049 40.1503 79.0515H40.1675C62.12 79.0515 79.9906 61.325 80 39.5405C80.0038 28.9829 75.8637 19.0552 68.3438 11.587C60.8228 4.11969 50.8228 0.00434109 40.1675 0C18.2112 0 0.343125 17.724 0.334375 39.5088ZM12.9094 58.2301L12.1209 56.9882C8.80656 51.7591 7.05719 45.7163 7.05969 39.5113C7.06687 21.4043 21.9181 6.67287 40.18 6.67287C49.0238 6.67659 57.335 10.0974 63.5863 16.3039C69.8372 22.511 73.2769 30.7622 73.2747 39.538C73.2666 57.645 58.415 72.3783 40.1675 72.3783H40.1544C34.2128 72.3752 28.3856 70.7919 23.3037 67.8L22.0944 67.0884L9.56375 70.3482L12.9094 58.2298V58.2301Z" fill="url(#paint1_linear_1043_2616)"/>
<path d="M30.2121 22.9915C29.4665 21.3472 28.6818 21.314 27.9727 21.2852C27.3921 21.2604 26.7284 21.2622 26.0652 21.2622C25.4015 21.2622 24.323 21.51 23.4115 22.4976C22.499 23.4861 19.9277 25.875 19.9277 30.7336C19.9277 35.5925 23.4943 40.288 23.9915 40.9475C24.4893 41.6058 30.8768 51.8954 40.993 55.8539C49.4005 59.1435 51.1115 58.4892 52.9362 58.3243C54.7612 58.1599 58.8249 55.936 59.654 53.63C60.4837 51.3243 60.4837 49.3478 60.2349 48.9348C59.9862 48.5233 59.3224 48.2762 58.3271 47.7825C57.3315 47.2886 52.4384 44.8994 51.5262 44.5698C50.6137 44.2405 49.9502 44.0762 49.2865 45.065C48.6227 46.0523 46.7168 48.2762 46.1359 48.9348C45.5555 49.595 44.9746 49.6771 43.9796 49.1832C42.9837 48.6877 39.7784 47.6461 35.9755 44.2821C33.0168 41.6644 31.0193 38.4319 30.4387 37.443C29.858 36.4557 30.3765 35.9205 30.8755 35.4284C31.3227 34.986 31.8712 34.2753 32.3693 33.6988C32.8655 33.1221 33.0312 32.7106 33.363 32.052C33.6952 31.3928 33.529 30.816 33.2805 30.3221C33.0312 29.8281 31.0971 24.9441 30.2121 22.9915Z" fill="white"/>
</g>
<defs>
<linearGradient id="paint0_linear_1043_2616" x1="3862.84" y1="7698.9" x2="3862.84" y2="1.38037" gradientUnits="userSpaceOnUse">
<stop stop-color="#1FAF38"/>
<stop offset="1" stop-color="#60D669"/>
</linearGradient>
<linearGradient id="paint1_linear_1043_2616" x1="4000" y1="7973.55" x2="4000" y2="0" gradientUnits="userSpaceOnUse">
<stop stop-color="#F9F9F9"/>
<stop offset="1" stop-color="white"/>
</linearGradient>
<clipPath id="clip0_1043_2616">
<rect width="80" height="80" fill="white"/>
</clipPath>
</defs>
</svg>
