<svg width="164" height="120" viewBox="0 0 164 120" fill="none" xmlns="http://www.w3.org/2000/svg">
<g clip-path="url(#clip0_1080_1953)">
<path d="M103.509 40.3733C103.306 35.0343 101.831 27.4072 96.6449 17.8987C91.4584 8.4411 85.8144 3.05127 81.4415 0.0512695C81.4415 0.508897 81.3906 1.01737 81.3906 1.475C81.3906 18.0004 90.2889 32.4411 103.509 40.3733Z" fill="#00C3BB"/>
<path d="M84.7461 0C88.9156 3.35593 93.7969 8.64407 98.3732 16.9831C103.407 26.1864 105.136 33.7119 105.492 39.2034C107.17 35.5932 108.136 31.6271 108.136 27.3559C108.085 13.5254 97.9664 2.08475 84.7461 0Z" fill="#00C3BB"/>
<path d="M100.712 46.1694C95.8307 48.0508 89.2206 49.5254 80.3731 49.5254C71.5765 49.5254 64.9155 48.0508 60.085 46.1694C65.1189 51.6101 72.39 55.0677 80.3731 55.0677C88.407 55.0677 95.6782 51.6101 100.712 46.1694Z" fill="#00C3BB"/>
<path d="M57.4404 42.8644C62.2201 45.2543 69.6438 47.5932 80.4235 47.5932C91.2031 47.5932 98.6269 45.2543 103.407 42.8644C102.695 42.4576 101.983 42.0509 101.271 41.6949C86.8811 34.2204 70.4065 35.1865 57.4404 42.8644Z" fill="#00C3BB"/>
<path d="M62.4746 16.9831C67.0509 8.64407 71.9323 3.35593 76.1017 0C62.8306 2.08475 52.7119 13.5254 52.7119 27.3559C52.7119 31.5763 53.678 35.5932 55.356 39.2034C55.7119 33.7119 57.4407 26.1864 62.4746 16.9831Z" fill="#00C3BB"/>
<path d="M79.3549 0.0512695C74.982 3.10212 69.338 8.49195 64.1515 17.9496C58.9651 27.4072 57.4905 35.0343 57.2871 40.3733C70.2024 32.6445 78.999 18.6106 79.3549 2.4411C79.4058 1.62754 79.4058 0.864829 79.3549 0.0512695Z" fill="#00C3BB"/>
<path d="M10.5088 66.1523C13.763 66.1523 16.3562 67.1184 18.2884 69.0506C20.1698 70.9829 21.1359 73.8303 21.1359 77.5422C21.1359 80.2879 20.5765 82.5761 19.5088 84.4066C18.441 86.2371 17.0681 87.61 15.3901 88.4744C13.7121 89.3388 12.0342 89.7964 10.2545 89.7964H0.0341797V66.1523H10.5088ZM5.42401 88.6778C8.67825 88.7286 11.2206 87.9659 13.0003 86.3388C14.8308 84.7117 15.6952 81.7625 15.6952 77.5422C15.6952 74.7456 15.2884 72.5591 14.424 71.0845C13.6104 69.5591 12.441 68.5422 10.9664 68.0337C9.49181 67.5252 7.61045 67.271 5.37316 67.271V88.6778H5.42401Z" fill="#00C3BB"/>
<path d="M23.4746 89.7965V70.322H28.8644V76.322C29.8814 74.3897 31.1017 72.8643 32.5255 71.644C33.8983 70.4236 35.5255 69.8135 37.356 69.8135C38.3221 69.8135 39.2882 69.966 40.2034 70.322V75.7118C37.9661 74.5423 36.0848 73.983 34.4577 73.983C32.1695 73.983 30.339 75.305 28.9153 77.9491V89.7965H23.4746Z" fill="#00C3BB"/>
<path d="M47.6271 87.0509C48.8475 88.5255 50.3729 89.2373 52.2034 89.2373C53.4237 89.2373 54.6949 88.9323 56.017 88.3729C57.339 87.8136 58.8136 86.7967 60.3898 85.3729V89.7458C57.9492 90.3051 55.6102 90.5594 53.3729 90.5594C49.4576 90.5594 46.2542 89.6441 43.7627 87.8645C41.2712 86.0848 40 83.2373 40 79.3729C40 76.1695 41.0678 73.7289 43.2034 72.1526C45.339 70.5255 48.1864 69.7119 51.6949 69.7119C53.5254 69.7119 55.1017 69.9662 56.4237 70.4746C57.7458 70.9831 58.7119 71.695 59.3729 72.6102C60.0339 73.5255 60.3898 74.5424 60.3898 75.6611C60.3898 76.7797 59.9831 77.8475 59.1186 78.7628C58.2542 79.7289 57.0339 80.4916 55.4576 81.0509C53.8814 81.6102 52.1017 81.9153 50.0678 81.9153C48.5932 81.9153 47.0678 81.7628 45.4407 81.4068C45.6949 83.7458 46.4068 85.5763 47.6271 87.0509ZM48.1356 72.1526C47.2203 72.9661 46.5085 74.0848 46.0508 75.4577C45.5932 76.8306 45.339 78.3051 45.339 79.8306V80.5424C46.1017 80.5933 46.661 80.5933 46.9661 80.5933C48.7966 80.5933 50.3729 80.339 51.6441 79.8306C52.9153 79.3221 53.8814 78.6102 54.4915 77.7458C55.1017 76.8814 55.4576 75.9661 55.4576 74.9492C55.4576 73.8306 55.1017 72.8645 54.4407 72.1017C53.7797 71.339 52.7627 70.9323 51.3898 70.9323C50.1186 70.8814 49 71.2882 48.1356 72.1526Z" fill="#00C3BB"/>
<path d="M81.8991 89.7961H76.5093L75.1873 86.7453L75.2381 87.152C74.5262 88.1181 73.5601 88.9317 72.3398 89.491C71.1195 90.0503 69.6957 90.3554 68.0686 90.3554C66.8483 90.3554 65.7805 90.1012 64.8144 89.6436C63.8483 89.1859 63.1364 88.5249 62.6279 87.7114C62.1195 86.8978 61.8652 85.9826 61.8652 84.9656C61.8652 83.5927 62.3229 82.2198 63.289 80.8978C64.2551 79.5758 65.7296 78.4063 67.7127 77.491C69.7466 76.5249 72.2381 75.9656 75.2381 75.8131L75.1873 73.2707C75.1873 71.9487 74.6279 71.2368 73.4585 71.2368C72.4924 71.2368 71.272 71.6436 69.7974 72.4571C68.3737 73.2707 66.7974 74.2368 65.1195 75.4063L64.4585 75.8639V70.4741C67.611 70.0164 70.2042 69.7622 72.1873 69.7622C74.7296 69.7622 76.7635 70.169 78.289 70.9826C79.7635 71.7961 80.5262 73.2707 80.5771 75.3046L80.6279 76.6266H76.5602C74.6788 76.6266 73.0517 76.9825 71.5771 77.6436C70.1534 78.3046 68.9839 79.2198 68.2212 80.3385C67.4076 81.4571 67.0008 82.7283 67.0008 84.152C67.0008 85.4741 67.3568 86.5419 68.0686 87.3554C68.7805 88.2198 69.6957 88.6266 70.8652 88.6266C71.6279 88.6266 72.3907 88.4232 73.1025 87.9656C73.8144 87.5588 74.4246 86.9487 74.933 86.1859L72.594 80.6944H77.9839L81.8991 89.7961Z" fill="#00C3BB"/>
<path d="M84.1865 89.7966V70.322H89.5764V76.1695C90.7458 74.1356 92.2204 72.5593 93.8984 71.4407C95.5764 70.322 97.2035 69.7627 98.8306 69.7627C100.356 69.7627 101.576 70.2712 102.492 71.2373C103.407 72.2542 103.864 73.6779 103.864 75.6102C105.034 73.7288 106.407 72.3051 108.034 71.2881C109.661 70.2712 111.288 69.7627 112.814 69.7627C114.288 69.7627 115.458 70.2203 116.424 71.1356C117.339 72.0508 117.848 73.4237 117.848 75.1017V89.7966H112.407V74.7457C112.407 73.8305 112.203 73.1695 111.797 72.7118C111.39 72.2542 110.881 72 110.22 72C109.203 72 108.085 72.5085 106.915 73.4746C105.695 74.4407 104.678 75.7627 103.864 77.3898V89.7966H98.4747V75.1017C98.4747 74.1356 98.2713 73.3729 97.8645 72.8644C97.4577 72.3559 96.9492 72.1017 96.2882 72.1017C95.2713 72.1017 94.1526 72.6102 92.8814 73.6779C91.6103 74.7457 90.5425 76.1186 89.5764 77.8474V89.7457H84.1865V89.7966Z" fill="#00C3BB"/>
<path d="M120.085 89.7964V66.1523H137.627V71.5422C136.56 70.7286 135.288 70.0167 133.763 69.3557C132.238 68.6947 130.763 68.1862 129.238 67.8303C127.712 67.4744 126.441 67.271 125.424 67.2201V75.9659H133.254V77.0337H125.424V89.7964H120.085Z" fill="#00C3BB"/>
<path d="M139.966 68.0847C139.407 67.5254 139.152 66.9152 139.152 66.1525C139.152 65.3898 139.407 64.7288 139.966 64.2203C140.525 63.661 141.186 63.4067 141.949 63.4067C142.712 63.4067 143.373 63.661 143.932 64.2203C144.44 64.7288 144.746 65.3898 144.746 66.2033C144.746 66.9661 144.491 67.6271 143.932 68.1356C143.424 68.6949 142.763 68.9491 141.949 68.9491C141.186 68.8983 140.525 68.644 139.966 68.0847ZM144.644 89.7966H139.254V70.322H144.644V89.7966Z" fill="#00C3BB"/>
<path d="M152.426 89.4405C151.256 88.8812 150.341 88.0168 149.629 86.949C148.968 85.8812 148.612 84.5592 148.612 83.0337V72.9151C148.612 72.3558 148.459 71.8981 148.154 71.5931C147.849 71.288 147.341 71.0846 146.629 70.932V70.271C148.002 70.271 149.222 69.9151 150.239 69.1524C151.256 68.3897 152.019 67.4236 152.527 66.3049C153.036 65.1354 153.29 63.9659 153.29 62.7456H154.002V70.271H158.731V71.3388H154.002V86.3388C154.002 87.2541 154.205 87.9151 154.561 88.4236C154.917 88.932 155.426 89.1863 156.036 89.1863C156.595 89.1863 157.205 88.932 157.866 88.4236C158.527 87.9151 159.188 87.2032 159.849 86.2371C160.51 85.271 161.019 84.1524 161.476 82.8303L163.917 85.6778C163.307 87.1015 162.29 88.2202 160.815 89.0337C159.341 89.8473 157.866 90.2541 156.341 90.2541C154.917 90.3049 153.595 90.0507 152.426 89.4405Z" fill="#00C3BB"/>
<path d="M48.593 108.356C49.8642 109.678 51.7456 110.848 53.7286 111.458C53.271 111.814 52.7625 112.526 52.4574 112.983C51.3896 112.627 50.3727 112.017 49.4574 111.356V115.932H44.1693C45.2371 116.238 46.4574 116.593 47.7286 117C48.949 116.441 50.3218 115.627 51.1862 115.068L52.4574 116.085C51.5422 116.593 50.4744 117.102 49.4574 117.56C50.6269 117.966 51.6439 118.322 52.4574 118.627L51.6439 120C49.8134 119.238 46.2032 117.966 43.4574 117.153C43.4574 117.56 43.5083 118.119 43.5591 118.424C39.0337 119.492 38.3727 119.695 37.9659 119.949C37.8642 119.492 37.4574 118.678 37.1523 118.373C37.5083 118.17 38.0167 117.763 38.0167 116.848V111.814C37.2032 112.424 36.3388 112.882 35.4744 113.339C35.2201 112.983 34.5083 112.271 34.1523 111.916C36.1354 111.102 38.0167 109.882 39.2879 108.407H34.8134V107.034H42.949V106.068H36.949V104.848H42.8981V103.983H35.8812V102.661H39.5422C39.2371 102.153 38.8812 101.644 38.5761 101.238L40.3049 100.678C40.8134 101.288 41.3727 102.153 41.6269 102.712H46.2032C46.61 102.102 47.0676 101.238 47.271 100.678L49.4066 101.187C49.0506 101.746 48.6439 102.254 48.2371 102.763H51.8473V104.085H44.8812V104.949H50.8812V106.17H44.8812V107.136H53.1184V108.509H48.593V108.356ZM48.949 111C47.9829 110.238 47.1184 109.322 46.4574 108.356H41.4235C40.7117 109.322 39.8981 110.238 38.932 111H48.949ZM40.1015 112.983H47.4744V112.17H40.1015V112.983ZM47.4744 113.949H40.1015V114.814H47.4744V113.949ZM44.0676 115.983H40.1015V117.661L43.4066 116.949L44.0676 115.983ZM40.9151 109.17H46.9659V110.187H40.9151V109.17Z" fill="#00C3BB"/>
<path d="M76.8136 117.356V119.237H58.1526V117.356H66.4916V112.525H60.4916V110.644H66.4916V106.424H61.8136C61.1526 107.695 60.4916 108.813 59.7289 109.678C59.3221 109.322 58.4577 108.763 57.9492 108.508C59.6272 106.729 60.9492 103.83 61.7628 100.932L63.7967 101.39C63.4916 102.457 63.0848 103.525 62.7289 104.542H66.5424V100.627H68.5763V104.542H75.7967V106.474H68.4746V110.695H74.9831V112.576H68.4746V117.407H76.8136V117.356Z" fill="#00C3BB"/>
<path d="M86.1695 108.814C86.1695 112.22 85.7627 116.898 82.9153 119.898C82.6102 119.542 81.8983 119.034 81.4915 118.831C83.1695 117.102 83.9322 114.864 84.2373 112.678C83.4238 113.186 82.661 113.695 81.8475 114.153L81.2373 112.373C82.1017 112.017 83.2204 111.356 84.4407 110.695C84.4915 110.034 84.4915 109.424 84.4915 108.814V107.797L83.1187 108.407C82.7627 107.441 81.9492 105.915 81.2882 104.746L82.8136 104.136C83.3729 105.051 84.0848 106.271 84.4915 107.186V102.356H91.6102C91.4576 101.847 91.2543 101.339 91.0509 100.881L92.9831 100.475C93.2373 101.085 93.5424 101.797 93.7458 102.356H100.508V103.983H86.2712V108.814H86.1695ZM99.5424 113.593C98.6271 115.22 97.2543 116.441 95.5763 117.407C97.1526 117.814 98.9322 118.119 100.814 118.22C100.458 118.627 100 119.339 99.7458 119.797C97.4068 119.542 95.2204 119.085 93.339 118.373C91.3051 119.085 88.9661 119.593 86.6271 119.847C86.4746 119.39 86.1187 118.678 85.8136 118.271C87.6441 118.119 89.4746 117.864 91.1526 117.407C89.8814 116.695 88.8136 115.831 87.9492 114.814L88.7119 114.509H87.1356V113.034H92.4746V104.542H94.2543V113.034H98.017L98.3729 112.983L99.5424 113.593ZM91.7627 106.017C90.8475 106.271 89.7288 106.424 88.7627 106.525V108H91.356V109.271H88.7627V110.695H91.7119V111.966H87.2373V105.661C88.3051 105.559 89.8814 105.153 90.8475 104.949L91.7627 106.017ZM89.7797 114.509C90.6441 115.373 91.8644 116.085 93.2882 116.695C94.661 116.136 95.8305 115.424 96.6949 114.509H89.7797ZM97.9661 110.644V109.22H95.2712V107.949H97.9661V106.729H95.017V105.458H99.5424V111.915H94.9661V110.644H97.9661Z" fill="#00C3BB"/>
<path d="M123.796 108.051C122.779 109.525 121.61 110.898 120.338 112.118V117.356C120.338 118.576 120.084 119.186 119.271 119.542C118.406 119.847 117.084 119.898 114.999 119.898C114.898 119.339 114.593 118.424 114.288 117.864C115.762 117.915 117.288 117.915 117.745 117.915C118.152 117.915 118.305 117.763 118.305 117.356V113.847C114.847 116.491 110.728 118.424 106.254 119.746C105.999 119.288 105.338 118.424 104.932 117.966C108.593 117 111.949 115.678 114.847 113.847C111.338 114.152 107.982 114.407 105.44 114.559L105.135 112.627L108.338 112.474V102.712H112.66C112.966 102 113.271 101.237 113.423 100.627L115.813 100.932C115.508 101.542 115.152 102.152 114.847 102.712H120.389V109.271C120.949 108.61 121.457 107.898 121.966 107.186L123.796 108.051ZM110.321 105.966H118.305V104.339H110.321V105.966ZM118.305 107.39H110.321V109.068H118.305V107.39ZM110.321 112.322C112.61 112.22 115.101 112.068 117.542 111.915C117.796 111.712 118.05 111.508 118.305 111.254V110.491H110.321V112.322Z" fill="#00C3BB"/>
</g>
<defs>
<clipPath id="clip0_1080_1953">
<rect width="163.932" height="120" fill="white" transform="translate(0.0341797)"/>
</clipPath>
</defs>
</svg>
