<svg width="117" height="19" viewBox="0 0 117 19" fill="none" xmlns="http://www.w3.org/2000/svg">
<g clip-path="url(#clip0_850_1719)">
<path d="M9.8002 18.4C14.826 18.4 18.9002 14.3257 18.9002 9.29995C18.9002 4.27416 14.826 0.199951 9.8002 0.199951C4.7744 0.199951 0.700195 4.27416 0.700195 9.29995C0.700195 14.3257 4.7744 18.4 9.8002 18.4Z" fill="#6AE3E8"/>
<path d="M58.5004 18.4C63.5262 18.4 67.6004 14.3257 67.6004 9.29995C67.6004 4.27416 63.5262 0.199951 58.5004 0.199951C53.4746 0.199951 49.4004 4.27416 49.4004 9.29995C49.4004 14.3257 53.4746 18.4 58.5004 18.4Z" fill="#6AE3E8"/>
<path d="M107.201 18.4C112.226 18.4 116.301 14.3257 116.301 9.29995C116.301 4.27416 112.226 0.199951 107.201 0.199951C102.175 0.199951 98.1006 4.27416 98.1006 9.29995C98.1006 14.3257 102.175 18.4 107.201 18.4Z" fill="#6AE3E8"/>
</g>
<defs>
<clipPath id="clip0_850_1719">
<rect width="115.6" height="18.2" fill="white" transform="translate(0.700195 0.199951)"/>
</clipPath>
</defs>
</svg>
