<svg width="33" height="32" viewBox="0 0 33 32" fill="none" xmlns="http://www.w3.org/2000/svg">
<path d="M16.5003 2.66675C9.13633 2.66675 3.16699 8.63608 3.16699 16.0001C3.16699 23.3641 9.13633 29.3334 16.5003 29.3334C23.8643 29.3334 29.8337 23.3641 29.8337 16.0001C29.8337 8.63608 23.8643 2.66675 16.5003 2.66675Z" stroke="#9B9B9B" stroke-width="1.5" stroke-linecap="round" stroke-linejoin="round"/>
<path d="M6.19531 24.4613C6.19531 24.4613 9.16731 20.6667 16.5006 20.6667C23.834 20.6667 26.8073 24.4613 26.8073 24.4613M16.5006 16C17.5615 16 18.5789 15.5786 19.3291 14.8284C20.0792 14.0783 20.5006 13.0609 20.5006 12C20.5006 10.9391 20.0792 9.92172 19.3291 9.17157C18.5789 8.42143 17.5615 8 16.5006 8C15.4398 8 14.4224 8.42143 13.6722 9.17157C12.9221 9.92172 12.5006 10.9391 12.5006 12C12.5006 13.0609 12.9221 14.0783 13.6722 14.8284C14.4224 15.5786 15.4398 16 16.5006 16Z" stroke="#9B9B9B" stroke-width="1.5" stroke-linecap="round" stroke-linejoin="round"/>
</svg>
