<svg width="74" height="65" viewBox="0 0 74 65" fill="none" xmlns="http://www.w3.org/2000/svg">
<path id="left-quote 1 (Traced)" fill-rule="evenodd" clip-rule="evenodd" d="M49.769 64.7808C51.8773 63.9719 55.1675 62.1949 57.5484 60.5796C60.397 58.6469 64.3108 54.9608 66.2598 52.3749C69.7607 47.7304 71.5921 43.0064 72.6444 35.9056C73.3522 31.1307 73.4025 29.9184 73.4678 16.0591C73.5373 1.31941 73.6006 2.2446 72.4434 1.07678C71.3269 -0.0503084 71.9874 0.00035082 58.3875 0.000349631C45.2523 0.000348483 45.7121 -0.0267053 44.6269 0.808828C44.3497 1.0221 43.9498 1.49412 43.7379 1.85763L43.353 2.51875L43.3143 15.0769L43.2756 27.6351L43.5837 28.358C43.9454 29.2066 44.9382 30.1524 45.688 30.3626C45.9954 30.4487 48.5569 30.5077 52.0146 30.5081L57.8246 30.509L57.8246 31.4139C57.8246 33.4742 57.2426 36.9708 56.514 39.2874C55.5455 42.3673 54.0677 44.8506 51.927 46.9953C50.1806 48.7451 48.1583 50.1347 45.3154 51.5386C43.2366 52.5651 42.9248 52.8199 42.3536 53.9583C42.2024 54.2598 42.1016 54.7972 42.0966 55.3283C42.0894 56.0972 42.1844 56.4095 42.8866 57.9265C45.5588 63.6988 45.7774 64.065 46.8936 64.6398C47.7121 65.0613 48.8876 65.1189 49.769 64.7808ZM7.60701 64.8863C8.39717 64.7391 12.1126 62.904 14.1245 61.6672C20.2283 57.9151 24.9928 52.8882 27.7809 47.2589C29.8196 43.1427 30.8295 38.9846 31.5407 31.7768C31.7298 29.8614 31.7839 26.9975 31.835 16.2042C31.9055 1.30272 31.9694 2.24633 30.8107 1.07678C29.6942 -0.0501671 30.3539 0.00034718 16.7622 0.000345992C3.51432 0.000344834 3.9787 -0.0287307 2.90137 0.867532C2.61879 1.10268 2.22143 1.63169 2.01825 2.04312L1.64898 2.79116L1.6521 15.2469C1.65525 27.4667 1.66081 27.715 1.94568 28.3503C2.27945 29.0948 2.7886 29.6746 3.50248 30.1233C3.98996 30.4298 4.14308 30.4387 10.1304 30.509L16.2592 30.5809L16.2157 31.7322C16.1032 34.7058 15.392 38.2446 14.4043 40.7446C13.3887 43.3151 12.1724 45.1901 10.3265 47.0304C8.64669 48.7052 6.93162 49.8987 4.23947 51.2658C1.65866 52.5764 0.937356 53.1803 0.645219 54.2752C0.29947 55.5711 0.481545 56.224 2.18321 59.7944C3.13292 61.7869 3.97569 63.3558 4.30077 63.7363C5.12658 64.703 6.33508 65.1233 7.60701 64.8863Z" fill="#79E0E8"/>
</svg>
