<svg width="337" height="380" viewBox="0 0 337 380" fill="none" xmlns="http://www.w3.org/2000/svg">
<path d="M267.023 147.516C268.389 146.449 270.152 146.272 271.695 145.629C272.433 145.314 273.308 145.301 273.772 144.507C273.145 144.524 272.52 144.584 271.9 144.685C269.578 145.246 267.269 145.848 264.96 146.436L264.564 146.573L264.987 146.463L268.69 144.603C269.072 144.384 269.428 144.111 270.275 143.563C268.253 143.728 267.023 144.658 265.52 144.644L267.037 143.618L266.9 143.454L266.258 143.235C266.258 143.044 266.108 142.866 266.162 142.743C266.641 141.539 267.16 140.335 267.529 139.31C268.895 138.379 270.384 138.462 271.545 137.381C270.329 136.902 269.496 137.901 268.485 137.873C267.925 137.34 268.403 136.807 268.485 136.3C268.99 133.838 269.564 131.376 270.042 128.901C270.18 127.996 270.239 127.08 270.22 126.165C270.226 125.759 270.322 125.359 270.502 124.995C270.681 124.63 270.94 124.311 271.258 124.059C272.802 122.623 274.332 121.145 275.726 119.572C278.01 116.969 279.255 113.613 279.223 110.148C279.282 106.062 278.664 101.995 277.393 98.1117C276.042 93.833 274.328 89.678 272.269 85.6921C271.477 84.1739 270.807 82.6009 269.988 81.0964C268.744 78.4284 268.065 75.5319 267.993 72.5887C267.993 71.7817 267.993 70.9473 267.911 70.1403C267.707 67.6066 268.336 65.0755 269.701 62.9321C270.849 60.9249 272.224 59.0569 273.799 57.3652C275.236 57.261 276.68 57.3206 278.103 57.543C279.565 57.7208 281.013 57.926 282.461 58.1722C283.513 58.3434 284.593 58.1657 285.535 57.6661C285.977 57.4608 286.369 57.1609 286.683 56.7875C286.997 56.4141 287.225 55.9763 287.352 55.505C287.517 55.0625 287.636 54.6042 287.707 54.1372C287.789 52.236 289.073 50.9092 289.852 49.3226C289.896 49.2094 289.962 49.1063 290.047 49.0194C290.131 48.9324 290.232 48.8634 290.344 48.8165C291.56 48.4745 291.71 47.3666 292.134 46.4365C292.994 46.1903 293.787 45.9851 294.538 45.7253C294.822 45.6765 295.091 45.566 295.328 45.4016C295.564 45.2372 295.762 45.0229 295.906 44.7737C296.051 44.5246 296.139 44.2468 296.165 43.9598C296.19 43.6728 296.153 43.3837 296.055 43.1128C295.852 42.3231 295.601 41.5466 295.303 40.7875C294.989 39.9532 294.648 39.1188 294.32 38.2845C293.653 36.7969 293.318 35.1821 293.336 33.5519C293.308 33.3138 293.238 33.0824 293.131 32.868C292.489 32.7586 292.421 33.1689 292.462 33.5929C292.652 35.4729 293.112 37.3156 293.828 39.0641C294.306 40.2678 294.716 41.5125 295.071 42.7572C295.229 43.0935 295.28 43.4698 295.219 43.8362C295.158 44.2026 294.987 44.5418 294.73 44.8088C293.964 45.4243 293.213 45.0687 292.489 44.59C292.076 44.3121 291.612 44.1213 291.123 44.0292C290.971 44.0363 290.822 44.0768 290.688 44.1477C290.553 44.2186 290.436 44.3182 290.344 44.4395C290.139 44.7541 290.344 45.0414 290.658 45.2192C290.823 45.3445 290.978 45.4817 291.123 45.6295L290.153 47.2162C289.114 47.7496 287.789 47.2162 286.929 48.1599C286.833 49.09 288.035 48.7207 288.213 49.6508C288.223 49.888 288.171 50.1237 288.063 50.3347C287.142 51.5947 286.662 53.1235 286.696 54.6843C286.716 54.8432 286.716 55.0041 286.696 55.163C286.671 55.4498 286.584 55.7278 286.442 55.978C286.299 56.2283 286.105 56.4451 285.872 56.6137C285.639 56.7823 285.372 56.8988 285.09 56.9553C284.808 57.0118 284.517 57.0069 284.237 56.9412C282.147 56.6539 280.057 56.2846 277.98 55.9153C277.338 55.8059 276.709 55.6144 276.081 55.4639C274.857 55.0686 273.528 55.1556 272.365 55.707C271.202 56.2585 270.294 57.233 269.824 58.432C269.202 59.8508 268.673 61.3082 268.239 62.7953C267.856 63.9442 267.433 65.0932 267.146 66.2695C266.859 67.4458 266.668 68.8273 266.463 70.0993C266.403 70.585 266.371 71.0736 266.367 71.5629C265.903 70.9063 265.411 70.1951 265.001 69.5659C263.925 67.9243 262.455 66.5793 260.725 65.654C260.725 65.654 260.602 65.654 260.534 65.7361C260.465 65.8181 260.465 65.9139 260.534 65.9549C261.463 67.4732 262.392 69.0051 263.375 70.496C264.359 71.9869 265.684 73.8607 266.791 75.5705C267.223 76.1653 267.521 76.8465 267.665 77.5675C268.112 80.3067 269.037 82.9457 270.398 85.3639C272.42 89.2894 274.045 93.3791 275.767 97.4278C277.335 101.124 277.982 105.147 277.652 109.15C277.51 111.433 276.916 113.665 275.903 115.715C274.502 118.664 272.659 121.38 270.439 123.771C269.876 124.366 269.439 125.069 269.154 125.837C268.328 128.053 267.715 130.343 267.324 132.676C267.023 134.276 266.668 135.863 266.313 137.449C266.184 137.883 266.029 138.307 265.848 138.721C265.397 138.53 265.042 138.393 264.701 138.229C260.752 136.287 256.777 134.427 252.869 132.402C247.732 129.667 242.295 127.752 237.049 125.317C234.319 124.025 231.429 123.105 228.455 122.581C227.431 122.417 226.392 122.322 225.204 122.171C225.354 121.502 225.55 120.844 225.791 120.202C226.281 118.998 226.468 117.692 226.338 116.399C226.16 113.787 226.037 111.188 225.819 108.575C225.573 105.416 225.272 102.242 224.971 99.0828C224.876 98.0296 224.698 96.9901 224.534 95.7864C224.903 95.5391 225.303 95.3414 225.723 95.1983C227.089 94.87 228.455 94.6101 229.822 94.3639C231.652 94.022 233.497 93.6937 235.286 93.3791C235.681 93.2909 236.084 93.2496 236.489 93.256C239.877 93.4202 243.087 92.4627 246.366 91.8882C246.739 91.7851 247.104 91.6572 247.459 91.5053C247.241 90.753 246.68 90.8214 246.23 90.8487C244.19 90.8787 242.162 91.1589 240.191 91.6831C239.426 91.9499 238.593 91.9499 237.827 91.6831C236.674 91.2771 235.431 91.1967 234.234 91.4506C232.472 91.7651 230.669 91.8062 228.906 92.0797C226.816 92.4217 224.808 92.8867 222.676 93.2971C220.033 93.7574 217.439 94.4673 214.93 95.4171C213.994 95.7096 213.026 95.8841 212.047 95.9369C210.188 96.1806 208.38 96.7209 206.692 97.5372C206.05 97.8655 205.326 98.0433 204.656 98.3169C203.604 98.7682 202.566 99.2059 201.541 99.6847C201.269 99.8235 201.05 100.05 200.922 100.328C200.793 100.605 200.761 100.918 200.831 101.217C200.918 101.862 201.093 102.492 201.35 103.09C202.873 106.411 204.645 109.612 206.651 112.665C207.561 114.016 208.361 115.438 209.042 116.919C211.42 122.089 214.102 127.113 217.075 131.965C218.291 133.893 219.616 135.753 220.9 137.641C221.153 138.009 221.478 138.32 221.857 138.556C222.235 138.791 222.659 138.945 223.1 139.009C224.543 139.316 226.039 139.264 227.458 138.858C229.15 138.269 230.926 137.959 232.718 137.942C232.389 137.585 231.987 137.305 231.538 137.12C231.09 136.936 230.606 136.852 230.122 136.875C229.07 136.863 228.019 136.941 226.98 137.107C225.63 137.369 224.252 137.452 222.881 137.354L220.805 134.919L221.037 133.551C220.695 133.551 220.094 134.098 220.176 133.155L219.862 132.908C218.837 131.541 218.769 131.404 219.698 130.46C220.628 129.508 221.395 128.408 221.966 127.205C222.272 126.629 222.619 126.076 223.004 125.55C226.174 126.835 229.234 128.094 232.308 129.311C235.382 130.528 238.101 132.238 241.243 133.1C241.243 132.936 241.352 132.867 241.339 132.826C241.309 132.749 241.257 132.682 241.188 132.635C240.56 132.252 239.945 131.869 239.303 131.513C237.459 130.501 235.601 129.461 233.729 128.49C232.363 127.765 230.996 127.123 229.63 126.439C227.936 125.673 226.215 124.948 224.507 124.195C224.507 124.195 224.411 124.086 224.357 124.018C224.357 123.553 224.712 123.484 225.026 123.553C227.062 124.086 229.125 124.606 231.133 125.208C232.461 125.574 233.761 126.031 235.027 126.575C239.125 128.477 243.224 130.433 247.322 132.375C252.741 135.17 258.342 137.596 264.086 139.638C264.472 139.786 264.851 139.955 265.22 140.144C265.299 140.564 265.266 140.998 265.124 141.401C264.983 141.804 264.738 142.163 264.414 142.442C261.208 140.7 257.846 139.262 254.372 138.147C253.684 137.939 252.981 137.788 252.268 137.696C254.566 139.644 257.207 141.147 260.055 142.127C261.353 142.579 262.651 143.057 264.154 143.591C264.07 144.061 263.932 144.52 263.744 144.959C262.921 146.068 262.155 147.218 261.449 148.405C260.553 150.217 259.777 152.086 259.126 154C258.061 157.159 257.159 160.387 256.162 163.574C255.889 164.422 255.533 165.257 255.219 166.091C254.862 167.603 254.202 169.027 253.279 170.276C251.758 172.595 250.575 175.119 249.768 177.772C249.302 178.988 248.687 180.141 247.937 181.205C247.515 181.831 247.059 182.434 246.571 183.011C247.131 183.708 247.473 184.46 246.762 185.049C247.268 186.225 247.623 187.21 248.129 188.14C248.722 189.386 249.412 190.584 250.192 191.723C251.681 193.775 253.293 195.717 254.823 197.728C257.678 201.503 260.561 205.251 263.321 209.094C265.042 211.474 266.572 213.991 268.13 216.467C268.928 218.073 269.964 219.548 271.204 220.844C271.53 221.211 271.806 221.62 272.023 222.061C276.927 229.674 281.384 237.565 285.371 245.696C287.084 249.486 288.522 253.395 289.675 257.391C289.838 257.937 289.921 258.504 289.921 259.073C290.016 264.476 290.932 269.797 291.56 275.131C292.161 280.165 292.626 285.185 292.844 290.177C292.926 292.283 293.268 294.39 293.555 296.483C293.757 297.739 293.839 299.013 293.801 300.285C289.838 301.892 285.716 303.074 281.505 303.814C281.505 303.267 281.341 302.733 281.327 302.186C281.122 296.961 280.999 291.75 280.726 286.539C280.494 282.435 280.275 278.209 279.729 274.092C279.079 268.16 277.386 262.39 274.728 257.049C272.583 252.946 270.275 248.842 268.02 244.821C267.187 243.33 266.272 241.88 265.397 240.403C263.18 237.081 260.699 233.943 257.979 231.02L248.784 220.214C248.512 219.911 248.269 219.581 248.06 219.23C246.161 215.687 243.442 212.719 241.229 209.409C240.273 208.041 239.385 206.523 238.497 205.032C237.609 203.541 237.049 202.105 236.27 200.669C234.19 196.762 233.141 192.388 233.223 187.962C233.223 186.17 233.223 184.378 233.223 182.587C233.237 182.064 233.095 181.55 232.813 181.109C232.636 181.684 232.417 182.245 232.281 182.833C232.142 183.385 232.051 183.948 232.007 184.515C231.773 187.853 232.054 191.207 232.841 194.459C233.816 198.167 235.19 201.758 236.939 205.169C238.382 207.913 240.04 210.539 241.899 213.02C243.361 215.072 244.727 217.205 246.216 219.243C247.347 220.841 248.565 222.375 249.864 223.839C252.719 226.971 255.615 230.063 258.594 233.085C261.077 235.679 263.212 238.585 264.946 241.73C267.447 246.12 269.851 250.566 272.351 254.956C275.317 260.328 277.223 266.221 277.966 272.314C278.322 274.885 278.308 277.525 278.485 280.124C278.745 284.036 279.018 287.934 279.292 291.846C279.36 292.817 279.373 293.802 279.455 294.773C279.606 296.729 279.783 298.671 279.934 300.613C280.188 301.797 280.212 303.018 280.002 304.211C277.003 305.252 273.746 305.286 270.725 304.306C270.492 303.834 270.309 303.339 270.179 302.829C269.491 298.891 269.076 294.911 268.936 290.916C268.89 288.153 269.193 285.396 269.837 282.709C270.774 279.072 271.129 275.31 270.889 271.561C270.857 269.677 270.436 267.82 269.653 266.107C268.87 264.393 267.742 262.86 266.34 261.604C263.252 258.95 260.137 256.324 256.941 253.794C250.506 248.631 243.802 243.815 236.857 239.364C236.038 238.844 235.163 238.406 234.316 237.927L234.029 238.256C234.958 238.981 235.901 239.623 236.762 240.444C237.363 240.937 237.909 241.497 238.483 242.017L239.521 242.482V242.4L238.524 241.921C237.427 241.414 236.368 240.829 235.355 240.171C226.775 233.842 218.218 227.487 209.684 221.104C208.376 220.131 207.176 219.021 206.104 217.793C203.481 214.798 200.926 211.72 198.426 208.616C197.333 207.248 196.432 205.675 195.229 203.883C195.178 204.246 195.178 204.614 195.229 204.977C195.612 206.044 196.022 207.111 196.432 208.164C196.637 208.684 196.855 209.204 197.046 209.682C195.407 211.173 193.754 212.5 192.292 214.018C189.56 216.822 186.978 219.736 184.327 222.608C184.312 222.689 184.312 222.773 184.327 222.854C184.573 223.292 184.901 223.018 185.106 222.854C186.011 222.164 186.878 221.424 187.702 220.638C190.325 217.971 192.92 215.263 195.53 212.582C196.131 211.953 196.76 211.338 197.456 210.64C198.229 211.359 198.831 212.243 199.219 213.225C198.877 213.635 198.563 214.087 198.18 214.483C196.145 216.562 194.082 218.587 192.019 220.721C192.117 220.832 192.222 220.937 192.333 221.035C194.3 219.202 196.254 217.369 198.235 215.564C198.7 215.14 199.191 214.743 199.683 214.333C200.489 215.331 200.517 215.372 199.915 215.974C197.538 218.313 195.134 220.638 192.757 222.991C192.196 223.552 191.718 224.208 191.199 224.81C192.15 224.579 192.994 224.029 193.59 223.251C195.503 221.487 197.361 219.667 199.246 217.876L200.762 216.508C201.514 216.508 201.705 216.918 201.828 217.561L200.885 218.518L193.112 226.26C192.951 226.441 192.809 226.638 192.688 226.848C193.672 226.766 194.246 226.028 194.888 225.48C196.678 223.812 198.426 222.116 200.202 220.447C200.913 219.777 201.569 219.079 202.388 218.436C202.765 218.607 203.104 218.853 203.383 219.159C203.663 219.464 203.877 219.823 204.014 220.214C203.672 220.556 203.358 220.898 203.017 221.213C197.839 225.795 192.675 230.405 187.456 234.891C183.275 238.516 179.013 242.044 174.805 245.628L168.138 251.359C167.031 252.317 165.938 253.288 164.845 254.272C161.319 257.418 157.462 260.169 153.342 262.479C153.41 262.561 153.465 262.643 153.533 262.712C154.39 262.492 155.226 262.199 156.033 261.836C158.451 260.469 160.856 259.101 163.178 257.596C164.878 256.473 166.52 255.263 168.097 253.972C174.245 249.13 180.392 244.397 186.472 239.364C190.994 235.63 195.366 231.704 199.738 227.778C201.295 226.411 202.661 224.715 204.123 223.183L205.394 221.815C205.586 221.854 205.774 221.913 205.954 221.993C211.228 226.096 216.884 229.748 222.348 233.496C225.245 235.452 228.018 237.599 230.846 239.678C233.615 241.698 236.518 243.526 239.535 245.149C241.022 245.984 242.463 246.897 243.852 247.885C245.888 249.253 247.951 250.62 249.905 251.988C250.779 252.59 251.681 253.151 252.514 253.794C255.56 256.15 258.754 258.306 262.077 260.25C263.86 261.252 265.385 262.657 266.531 264.353C267.119 265.242 267.733 266.104 268.321 266.979C269.146 268.203 269.486 269.69 269.277 271.151C269.041 274.65 268.446 278.115 267.501 281.492C266.549 284.797 266.348 288.274 266.914 291.668C267.447 295.457 267.856 299.287 268.594 303.034C269.284 306.386 270.146 309.701 271.176 312.964C273.092 319.087 275.317 325.109 277.843 331.006C280.33 336.96 282.775 342.919 285.18 348.883C285.535 349.785 285.74 350.743 286.013 351.618L286.123 351.728L286.041 351.591C286.041 351.988 285.849 352.453 286.041 352.754C286.496 353.621 286.726 354.59 286.709 355.57C286.692 356.55 286.43 357.51 285.945 358.361C285.33 359.592 284.961 360.947 284.428 362.219C283.895 363.428 283.831 364.794 284.251 366.048C284.75 367.62 284.628 369.324 283.909 370.808C283.647 371.405 283.437 372.022 283.281 372.655C283.137 373.064 283.086 373.501 283.13 373.932C283.174 374.364 283.312 374.781 283.535 375.153C283.758 375.525 284.06 375.844 284.42 376.086C284.78 376.328 285.189 376.487 285.617 376.553C287.417 377.028 289.241 377.402 291.082 377.675C293.896 378.058 296.752 378.249 299.58 378.605C301.752 378.878 303.924 379.179 306.083 379.617C308.39 380.041 310.756 380.041 313.064 379.617C313.16 379.015 312.75 379.097 312.504 379.001L309.047 377.839C308.817 377.75 308.579 377.681 308.337 377.634C304.334 376.977 300.317 376.266 296.287 375.678C293.863 375.361 291.422 375.187 288.978 375.158C288.336 375.195 287.699 375.03 287.155 374.686C286.612 374.343 286.188 373.839 285.945 373.243C286.163 372.655 286.642 372.833 286.983 372.901C289.033 373.394 291.082 373.913 293.131 374.447C293.91 374.652 294.675 374.898 295.604 375.185C294.306 373.749 292.147 372.846 285.945 371.082C285.842 370.812 285.803 370.522 285.832 370.235C285.86 369.948 285.955 369.671 286.109 369.427C288.937 369.947 291.833 370.398 294.675 371.041C297.342 371.781 300.132 371.963 302.872 371.574C303.763 371.514 304.659 371.569 305.536 371.738C305.878 371.738 305.878 371.738 306.902 371.096C306.629 370.904 306.424 370.631 306.151 370.576C304.897 370.262 303.623 370.029 302.339 369.878C300.875 369.755 299.404 369.755 297.94 369.878C293.951 370.22 290.221 369.017 286.368 368.155C286.162 367.663 286.056 367.136 286.056 366.602C286.056 366.069 286.162 365.542 286.368 365.05C287.219 363.02 287.855 360.907 288.267 358.744C288.494 357.987 288.839 357.272 289.292 356.624C293.391 358.84 295.618 359.237 297.926 358.129L293.158 356.187L288.144 354.162C286.888 351.29 286.013 347.966 284.825 344.766C283.636 341.565 282.516 338.323 281.341 335.109C280.166 331.895 278.977 328.667 277.802 325.452L274.264 315.878C273.089 312.691 271.941 309.504 270.917 305.907C271.641 306.084 272.023 306.153 272.365 306.276C274.382 306.937 276.46 307.395 278.567 307.644C280.356 307.875 282.174 307.673 283.868 307.056C287.226 306.126 290.443 304.745 293.432 302.952C293.555 302.87 293.746 302.952 294.074 302.843C294.251 303.677 294.456 304.512 294.593 305.36C295.467 311.419 296.26 317.478 297.216 323.524C297.926 328.12 298.828 332.674 299.675 337.202C299.806 337.679 299.994 338.138 300.235 338.57C299.88 335.752 299.511 332.921 299.142 330.103C298.377 324.358 297.53 318.641 296.861 312.882C296.191 307.124 295.604 301.215 295.085 295.375C294.859 292.691 294.777 289.997 294.839 287.305C294.907 283.311 294.73 279.317 294.566 275.323C294.443 272.478 294.142 269.633 294.005 266.788C293.859 263.605 293.209 260.465 292.079 257.487C291.314 255.517 290.563 253.534 289.661 251.619C286.437 244.78 283.281 237.845 279.865 231.102C272.581 216.76 263.464 203.426 252.746 191.436C252.05 190.643 251.38 189.836 250.642 189.056C250.375 188.803 250.181 188.483 250.08 188.13C249.979 187.776 249.975 187.401 250.069 187.046C250.806 184.118 251.435 181.178 252.295 178.278C252.73 176.862 253.292 175.488 253.976 174.175C255.38 171.502 256.392 168.642 256.982 165.681C257.074 165.113 257.216 164.555 257.405 164.012C258.635 160.729 259.892 157.46 261.121 154.177C261.246 153.798 261.482 153.464 261.799 153.22C262.116 152.976 262.498 152.833 262.897 152.81C266.647 152.078 270.31 150.954 273.827 149.459C277.447 147.995 281.013 146.395 284.579 144.794C287.05 143.722 289.377 142.343 291.505 140.691C291.874 140.39 292.202 140.048 292.872 139.323C292.438 139.347 292.008 139.411 291.587 139.515C290.221 140.089 288.855 140.691 287.571 141.293C282.898 143.413 278.267 145.629 273.553 147.653C270.821 148.802 268.089 149.636 265.288 150.608C265.012 150.655 264.73 150.655 264.455 150.608C264.455 149.883 265.015 149.869 265.356 149.746C268.362 148.72 271.368 147.722 274.36 146.668C275.029 146.436 275.726 146.299 276.177 145.574C275.616 145.574 275.043 145.656 274.496 145.779L266.9 147.53L265.356 147.981C265.28 148.085 265.183 148.172 265.072 148.237C264.961 148.302 264.839 148.345 264.711 148.361C264.583 148.378 264.454 148.368 264.33 148.334C264.206 148.299 264.091 148.24 263.99 148.159L265.356 148.009L267.023 147.516ZM218.222 130.077C217.295 129.337 216.61 128.337 216.255 127.205C212.785 119.755 208.987 112.46 204.861 105.32C204.342 104.404 203.905 103.432 203.495 102.475C203.351 102.211 203.272 101.917 203.266 101.616C203.261 101.315 203.328 101.018 203.462 100.749C203.597 100.48 203.794 100.248 204.038 100.072C204.281 99.896 204.564 99.7819 204.861 99.7394C205.418 99.6177 205.985 99.5445 206.555 99.5205C209.475 99.2476 212.324 98.4604 214.971 97.1953C217.388 96.2586 219.962 95.7943 222.553 95.8275C222.626 96.105 222.672 96.389 222.69 96.6755C222.539 99.0345 222.732 101.403 223.264 103.706C224.015 107.618 224.63 111.557 225.354 115.483C225.485 116.243 225.35 117.026 224.971 117.698C223.605 120.557 222.061 123.306 220.75 126.192C220.094 127.6 219.243 128.908 218.222 130.077Z" fill="#79E0E8"/>
<path d="M25.3023 250.826C24.7055 250.686 24.0819 250.71 23.4975 250.895C22.9132 251.08 22.3897 251.42 21.9824 251.879C20.0966 253.572 18.6123 255.666 17.6379 258.007C17.1194 259.465 16.2293 260.761 15.0558 261.768C13.6339 263.009 12.5642 264.604 11.9546 266.391C10.2068 271.134 7.87054 275.637 5.00061 279.796C2.61246 283.226 1.13611 287.208 0.710754 291.367C0.698227 291.775 0.65712 292.182 0.587784 292.585C-0.778412 297.358 0.478485 301.954 1.53046 306.55C2.01753 308.275 2.60603 309.969 3.29286 311.624C3.63538 312.546 4.19582 313.371 4.92625 314.028C5.65669 314.686 6.53537 315.156 7.48708 315.399L9.12651 315.878C9.74808 316.106 10.427 316.126 11.0605 315.933C11.694 315.741 12.2477 315.347 12.6376 314.811C13.3289 313.909 13.9327 312.942 14.441 311.925C15.7463 309.664 16.7086 307.221 17.2964 304.676C17.5331 303.812 17.9682 303.016 18.5669 302.351C20.0615 300.414 21.7258 298.615 23.5399 296.975C25.07 295.512 26.4636 293.925 27.9527 292.421C28.4015 291.96 28.9118 291.564 29.4692 291.244C30.3299 290.765 31.2316 290.383 32.1196 289.972C31.86 290.56 31.6551 291.176 31.3409 291.737C28.3587 297.528 26.0177 303.628 24.3596 309.928C24.3242 310.191 24.3242 310.458 24.3596 310.722C25.0837 310.722 25.0291 310.065 25.1793 309.723C26.7231 306.222 28.0893 302.638 29.7698 299.205C31.5731 295.566 33.6498 292.051 35.6034 288.495C35.8095 288.204 36.0331 287.925 36.2729 287.661C36.3589 287.947 36.4228 288.24 36.4641 288.536C36.4641 289.835 36.4641 291.148 36.3412 292.448C36.0953 295.033 35.8084 297.632 35.4395 300.203C35.2346 301.571 34.811 302.939 34.4968 304.238C34.3602 304.867 34.2372 305.497 34.1006 306.126C35.9814 303.757 37.1812 300.92 37.5708 297.919C38.2455 294.313 38.534 290.644 38.4315 286.977C38.3704 286.486 38.4156 285.987 38.5641 285.515C38.7126 285.043 38.9609 284.609 39.2922 284.241C39.8269 283.628 40.2479 282.924 40.5354 282.162C40.9001 281.247 41.6126 280.514 42.5164 280.124C44.2169 279.33 45.7876 278.284 47.1751 277.019C47.6207 276.643 48.1583 276.393 48.7326 276.294C54.0061 274.926 59.2796 273.559 64.5942 272.3C71.9853 270.632 79.3901 269.045 86.8768 267.923C86.9587 267.93 87.0409 267.93 87.1228 267.923C90.5494 267.181 94.0597 266.9 97.5605 267.089C103.749 267.089 109.938 266.815 116.127 266.692C120.226 266.692 124.324 266.692 128.423 266.528C130.295 266.528 132.166 266.337 134.024 266.145C135.963 265.874 137.938 266.019 139.817 266.569C142.587 267.364 145.544 267.196 148.205 266.091C149.101 265.714 149.938 265.212 150.692 264.6C150.979 264.394 151.074 263.957 151.402 263.382C151.031 263.331 150.654 263.331 150.282 263.382C149.066 263.847 147.864 264.353 146.648 264.846C145.597 265.294 144.452 265.477 143.314 265.379L134.543 264.627C134.134 264.627 133.737 264.518 133.328 264.504C129.502 264.34 125.677 264.039 121.852 264.08C118.026 264.121 114.542 264.49 110.922 264.777C106.623 265.133 102.324 265.521 98.025 265.94C94.2102 266.289 90.3782 266.412 86.5489 266.309C82.9629 266.381 79.3931 266.812 75.8926 267.595C75.0001 267.853 74.0527 267.853 73.1602 267.595C72.853 265.933 72.6613 264.251 72.5864 262.562C72.4973 258.237 72.6753 253.911 73.1192 249.609C73.1174 249.201 73.2504 248.804 73.4975 248.48C73.7447 248.156 74.092 247.923 74.4854 247.817C79.1852 246.203 83.8302 244.411 88.5846 242.989C91.1845 242.318 93.8345 241.861 96.5085 241.621C100.218 241.047 103.976 240.854 107.725 241.046C108.64 241.075 109.553 241.162 110.457 241.306C115.657 242.367 120.99 242.611 126.264 242.031C130.497 241.57 134.554 240.082 138.082 237.695C138.649 237.237 139.179 236.734 139.667 236.191L139.284 235.849C135.519 237.809 131.449 239.118 127.248 239.719C124.891 239.932 122.522 239.987 120.157 239.884C117.473 239.833 114.797 239.577 112.151 239.118C108.299 238.398 104.359 238.278 100.47 238.762C97.8201 239.186 95.1423 239.501 92.4783 239.802C90.0423 240.051 87.6468 240.602 85.3467 241.443C80.7563 243.112 76.1658 244.794 71.6847 246.599C69.2665 247.571 66.9577 248.788 64.6215 249.964C62.7361 250.922 60.9054 252.002 59.0474 253.001C57.9885 253.615 56.8477 254.076 55.6592 254.369C54.3259 254.746 53.0349 255.259 51.8065 255.9C49.9796 256.806 48.0191 257.411 46.0002 257.692C45.132 257.844 44.2387 257.754 43.4181 257.432C40.6857 256.065 37.6254 255.764 34.7564 254.847C34.4925 254.704 34.189 254.652 33.8927 254.699C33.5964 254.746 33.3238 254.89 33.117 255.107C33.4449 255.955 34.3602 255.996 35.0296 256.352C35.6991 256.707 36.4915 257.077 37.2292 257.419C37.967 257.761 38.6637 258.062 39.4015 258.404C37.0665 261.49 34.28 264.206 31.136 266.46C30.5348 266.829 29.8654 267.089 29.2643 267.39C28.6085 266.679 29.0867 266.173 29.2643 265.708C30.2892 263.572 30.9891 261.294 31.3409 258.951C31.6143 257.957 31.6143 256.908 31.3409 255.914C30.7944 255.914 30.7398 256.311 30.6305 256.584C29.8108 258.622 28.9774 260.688 28.1986 262.726C27.2079 265.595 25.9068 268.347 24.3186 270.933C22.5173 273.849 21.0942 276.984 20.0834 280.261C19.782 281.099 19.4261 281.917 19.0178 282.709C17.6516 285.445 16.2034 288.044 14.9192 290.752C14.1469 292.378 13.7234 294.149 13.6759 295.949C14.5777 295.949 14.6323 295.197 14.8509 294.732C15.8482 292.503 16.7909 290.246 17.8019 288.016C18.2937 286.936 18.485 285.705 19.6053 284.925C20.0014 284.665 20.0971 283.927 20.2474 283.379C21.1544 279.726 22.7698 276.287 25.0017 273.258C26.1084 271.753 27.0784 270.139 28.0757 268.635C30.8318 268.166 33.4306 267.026 35.6438 265.316C37.8568 263.606 39.6164 261.378 40.7677 258.828C42.0574 258.527 43.3989 258.527 44.6886 258.828C47.2623 259.401 49.9575 258.976 52.2301 257.638L55.7549 255.463C56.0197 255.278 56.2983 255.113 56.5882 254.97C60.8234 253.293 65.0632 251.619 69.3075 249.951C70.0589 249.65 70.824 249.431 71.835 249.103C71.8171 249.561 71.7715 250.018 71.6984 250.47C71.2749 252.385 70.7557 254.273 70.3322 256.188C69.7972 259.501 69.9086 262.888 70.6601 266.159C70.7967 266.788 70.865 267.431 70.9743 268.183C70.4725 268.458 69.9407 268.674 69.3895 268.826C64.725 269.649 60.1752 271.027 55.8368 272.929C52.9815 274.106 50.0715 275.173 47.1341 276.13C45.3224 276.631 43.6615 277.571 42.2978 278.866C42.0939 279.029 41.8742 279.171 41.642 279.29C40.754 277.922 40.8223 276.171 40.1939 274.639C39.4015 275.939 39.3878 276.513 40.0572 280.11C38.937 281.601 37.803 283.174 36.5871 284.692C36.1945 285.097 35.7315 285.426 35.2209 285.664C33.3658 286.692 31.668 287.982 30.1796 289.493C29.5782 290.017 28.9233 290.475 28.226 290.861C27.2287 291.545 26.1493 292.147 25.2067 292.913C22.851 294.909 20.77 297.209 19.0178 299.752C18.6256 300.371 18.2015 300.969 17.7472 301.544C16.6763 302.794 15.9635 304.311 15.6843 305.934C15.0945 308.497 13.8357 310.857 12.0365 312.773C11.6302 313.295 11.0909 313.697 10.4754 313.938C9.85994 314.179 9.19101 314.249 8.53906 314.141C8.0473 314.143 7.56993 313.975 7.18692 313.666C6.80389 313.357 6.53847 312.926 6.4351 312.445C6.04099 311.277 5.58495 310.131 5.06891 309.012C3.97156 306.463 3.25349 303.767 2.93764 301.01C2.81642 300.038 2.6339 299.074 2.39117 298.124C2.01018 296.662 1.94347 295.135 2.19547 293.645C2.44746 292.155 3.01241 290.735 3.853 289.48C4.29646 288.795 4.65869 288.06 4.9323 287.291C6.38814 283.836 8.08173 280.486 10.0009 277.265C10.2866 276.77 10.6306 276.311 11.0255 275.898C12.3604 274.434 13.1516 272.555 13.2661 270.577C13.1992 269.003 13.6609 267.453 14.5777 266.173C14.8865 265.793 15.1437 265.375 15.3427 264.928C16.6345 262.287 18.1909 259.785 19.9878 257.46C20.5018 256.817 20.959 256.13 21.354 255.408C22.2659 253.579 23.595 251.991 25.234 250.771L25.3023 250.826Z" fill="#79E0E8"/>
<path d="M228.701 156.353C229.33 156.968 229.931 157.625 230.587 158.213C231.243 158.801 231.584 158.992 232.254 159.499C231.66 159.984 230.923 160.26 230.157 160.282C229.391 160.305 228.639 160.072 228.018 159.622C225.576 158.02 222.992 156.647 220.299 155.518C218.503 154.662 217.056 153.213 216.201 151.415C215.367 149.65 214.37 147.968 213.564 146.19C213.101 144.98 212.699 143.748 212.362 142.497C210.2 140.082 207.797 137.896 205.189 135.972C201.551 133.076 198.333 129.688 195.626 125.906C193.251 122.694 191.131 119.3 189.287 115.757C189.19 115.535 189.071 115.324 188.931 115.127C186.215 111.058 183.822 106.782 181.773 102.338C181.691 102.202 181.622 102.051 181.527 101.914C179.769 98.9586 178.826 95.5885 178.794 92.1484C177.879 92.1484 177.428 92.6819 177.305 93.5162C177.091 94.4835 177.206 95.4948 177.633 96.3886C179.805 100.943 181.417 105.758 183.986 110.067C186.939 115.421 190.249 120.571 193.891 125.482C194.642 126.453 195.257 127.492 195.995 128.491C198.123 131.278 200.516 133.852 203.14 136.178C204.93 137.846 206.829 139.378 208.605 140.979L209.438 141.758C209.17 142.145 208.873 142.511 208.55 142.852C207.154 144.097 205.629 145.188 204.001 146.108C198.404 149.13 193.059 152.597 188.016 156.476C187.497 156.866 186.938 157.201 186.349 157.474C183.622 158.943 181.281 161.038 179.518 163.588C176.603 167.821 174.136 172.345 172.155 177.088C171.056 179.456 170.222 181.937 169.668 184.488C169.395 185.856 169.163 187.224 168.958 188.591C168.642 190.448 167.877 192.2 166.731 193.693C165.365 195.526 163.998 197.386 162.741 199.247C162.277 199.917 161.894 200.614 161.375 201.298C155.91 208.807 151.142 216.809 145.883 224.551C144.967 225.918 144.161 227.286 143.314 228.654L138.929 235.999L139.311 236.341C140.24 235.315 141.21 234.33 142.044 233.264C146.632 227.646 150.919 221.788 154.886 215.715C156.853 212.733 158.984 209.847 161.006 206.879C162.646 204.458 164.244 201.982 165.843 199.534C166.908 197.892 167.933 196.224 169.012 194.596C170.27 192.886 171.095 190.896 171.417 188.797C171.688 187.358 172.119 185.954 172.701 184.611C173.753 181.616 174.873 178.648 175.912 175.638C178.089 169.633 181.869 164.339 186.841 160.333C188.513 159.029 190.393 158.016 192.402 157.337L192.087 158.254C193.795 157.734 195.284 156.749 200.285 152.701C202.867 150.608 205.394 148.433 207.963 146.286L212.854 148.146C213.371 149.185 213.827 150.254 214.22 151.346C214.646 152.712 215.366 153.967 216.329 155.023C217.292 156.079 218.475 156.911 219.794 157.461C222.827 158.828 225.805 160.347 228.797 161.824C229.476 162.216 230.27 162.359 231.042 162.23C231.815 162.1 232.519 161.705 233.032 161.113C233.265 160.789 233.56 160.516 233.9 160.309C234.241 160.102 234.619 159.966 235.013 159.909C235.341 159.902 235.654 159.77 235.888 159.54C236.849 158.48 238.083 157.704 239.453 157.296C240.063 156.983 240.58 156.518 240.956 155.945C241.332 155.372 241.553 154.711 241.598 154.027C241.79 153.85 241.885 153.685 242.022 153.631C242.596 153.371 243.388 153.398 243.566 152.632C243.718 152.003 243.689 151.344 243.484 150.731C242.945 149.551 242.305 148.421 241.571 147.353C240.984 146.681 240.65 145.824 240.628 144.932C240.642 144.124 240.454 143.326 240.082 142.609C239.71 141.893 239.165 141.281 238.497 140.828C237.35 139.794 235.925 139.119 234.399 138.886C233.92 139.365 234.194 139.72 234.494 139.966C235.123 140.486 235.86 140.938 236.434 141.444C237.268 142.1 238.115 142.729 238.893 143.441C239.245 143.905 239.539 144.41 239.768 144.945C238.292 144.425 237.609 143.181 236.175 143.14C236.319 144.056 236.808 144.883 237.541 145.451C238.456 146.491 239.44 147.476 240.369 148.501C241.246 149.469 241.899 150.617 242.281 151.866C242.313 152.26 242.29 152.655 242.213 153.043C241.434 152.249 240.915 151.675 240.328 151.128C239.74 150.581 239.044 150.129 238.388 149.65C237.732 149.172 237.022 148.72 236.461 148.283C235.956 148.584 236.12 148.898 236.311 149.131C237.5 150.498 238.716 151.976 239.932 153.398C238.852 155.272 238.074 155.6 236.27 154.862C235.232 154.438 234.207 153.932 233.21 153.494C232.677 153.945 233.032 154.287 233.21 154.547C233.961 155.395 234.74 156.216 235.56 157.119C235.56 157.652 234.986 157.775 234.521 157.693C233.565 157.556 232.622 157.296 231.68 157.064C230.737 156.831 229.794 156.558 228.865 156.298L228.701 156.353ZM196.008 154.328C195.476 154.821 195.093 155.546 194 155.696C194.2 155.323 194.487 155.004 194.837 154.765C195.186 154.527 195.588 154.377 196.008 154.328Z" fill="#79E0E8"/>
<path d="M246.34 59.8409C246.626 59.2801 246.9 58.692 247.214 58.1312C247.924 56.8591 248.58 55.5734 249.359 54.3287C249.851 53.4944 250.383 52.6737 250.944 51.8804C252.226 50.2809 253.128 48.4098 253.58 46.4092C253.701 45.8566 253.76 45.2924 253.758 44.7268C253.758 44.125 253.539 43.6189 252.747 43.6463C252.436 43.6872 252.122 43.6036 251.873 43.4137C250.313 41.8836 248.937 40.1759 247.774 38.3256C246.688 36.3076 246.213 34.0166 246.408 31.7328C246.503 30.8437 246.654 29.9683 246.777 29.093C247.24 26.184 246.861 23.2029 245.684 20.5032C245.302 19.7943 244.844 19.1293 244.318 18.5199C245.268 22.965 245.066 27.5797 243.73 31.9243C243.293 29.3255 242.883 27.2875 242.637 25.2221C242.562 24.2616 242.617 23.2954 242.801 22.3497C243.048 20.9911 243.579 19.7 244.359 18.561C244.359 18.219 244.359 17.8087 243.908 17.9455C243.065 18.282 242.365 18.9007 241.927 19.6962C241.56 20.2353 241.275 20.8251 241.08 21.447C240 25.6324 238.88 29.7905 239.235 34.2085C239.62 38.3037 239.533 42.4296 238.976 46.505C238.334 50.9366 236.995 55.081 233.675 58.3364C234.18 58.8014 234.454 58.3364 234.713 58.1585C236.153 56.9528 237.33 55.4629 238.17 53.7816C240.262 49.8479 241.43 45.4879 241.585 41.0338C241.667 39.324 241.585 37.6143 241.585 35.8909C241.585 35.0839 241.585 34.2769 241.585 33.4699C243.216 41.0051 243 48.8236 240.957 56.2573C240.093 59.4288 238.241 62.2416 235.67 64.2862C233.585 65.973 231.379 67.5044 229.071 68.8684C224.385 71.6969 219.223 73.6438 213.838 74.6131C211.339 74.9806 208.821 75.2044 206.296 75.2833C201.993 75.5295 197.676 75.6116 193.372 75.9398C190.039 76.186 186.732 76.7058 183.426 77.1025C182.681 77.2394 181.917 77.2394 181.172 77.1025C181.475 76.9063 181.79 76.7282 182.115 76.569C187.724 74.3454 193.598 72.8559 199.588 72.1374C202.006 71.8228 204.438 71.6997 206.87 71.4808C207.892 71.511 208.904 71.2603 209.794 70.7559C209.07 70.6738 208.728 70.6054 208.428 70.5918L203.537 70.496C197.315 70.3327 191.126 71.45 185.352 73.7787C182.251 74.9961 179.259 76.5143 176.213 77.8821L173.999 78.8669C176.368 76.2783 178.981 73.9239 181.8 71.8365L180.789 71.5492C177.843 73.3269 175.142 75.4836 172.756 77.9642C172.374 78.3608 171.964 78.7712 171.595 79.1952C170.229 80.6861 168.862 82.2043 167.606 83.7089L167.742 83.8457C168.352 83.6492 168.934 83.3782 169.477 83.0387C171.518 81.5698 173.713 80.327 176.021 79.332C176.75 78.9742 177.528 78.7297 178.33 78.607C179.778 78.3745 181.24 78.2377 182.702 78.1009C188.167 77.6268 193.632 77.417 199.096 77.4718L208.1 77.5538C207.744 77.8684 207.608 78.0873 207.417 78.1557C204.233 79.1952 201.05 80.1937 197.853 81.2469C196.692 81.6299 195.544 82.0539 194.424 82.6147C191.815 83.7636 189.205 84.8989 186.637 86.1299C183.839 87.4102 181.357 89.2923 179.369 91.6421C180.126 91.3865 180.861 91.0709 181.568 90.6983C185.936 88.1669 190.442 85.8836 195.066 83.8594C196.552 83.2 198.081 82.6425 199.643 82.1906C202.375 81.3426 205.108 80.6587 207.84 79.7697C209.534 79.2089 211.133 78.4019 212.772 77.6769C213.573 77.246 214.41 76.8845 215.272 76.5964C219.378 75.5471 223.349 74.0232 227.103 72.0553C228.048 71.5947 229.02 71.1927 230.013 70.8517C233.134 69.9042 236.161 68.6726 239.058 67.1723C240.069 66.6521 241.175 66.3404 242.309 66.2559C245.711 65.9413 249.14 65.7361 252.528 65.5173C252.851 65.5081 253.169 65.5937 253.444 65.7635C253.746 66.0168 254.017 66.3062 254.25 66.6252L254.783 67.1586C255.083 67.0492 255.548 66.8714 255.302 66.5294C254.831 65.8738 254.265 65.2928 253.621 64.806C251.47 63.2949 248.866 62.5661 246.244 62.7406L244.113 62.8911C244.113 62.6039 244.113 62.3987 244.113 62.3166C244.864 61.4686 245.643 60.6616 246.421 59.8409H246.34ZM239.509 65.654L239.14 65.8045L239.591 65.654L240.479 65.2574L240.547 65.5036L239.509 65.654ZM251.695 44.8636C251.012 46.8195 250.329 48.6661 249.714 50.4852C249.039 52.3267 247.906 53.9651 246.421 55.2451C245.417 56.0714 244.542 57.0443 243.826 58.1312C242.575 60.0311 241.153 61.8121 239.577 63.4519C238.801 64.1701 238.142 65.0054 237.623 65.9276C237.268 66.7072 237.118 66.6662 235.56 66.6936C236.318 65.6146 237.134 64.5781 238.006 63.5887C238.865 62.7224 239.568 61.7135 240.082 60.6069C243.56 53.8345 245.034 46.2088 244.331 38.6265C244.249 37.8742 244.208 37.1082 244.113 36.0277C247.555 43.1265 247.911 42.5384 251.695 44.8636ZM244.441 64.3546C245.066 64.0217 245.757 63.8286 246.464 63.7884C247.172 63.7483 247.88 63.8621 248.539 64.1221L244.577 64.4914C244.577 64.4914 244.495 64.3957 244.441 64.3546Z" fill="#79E0E8"/>
<path d="M255.178 166.091C255.174 165.782 255.113 165.476 255.001 165.189C254.787 164.942 254.507 164.762 254.195 164.669C250.934 163.392 247.664 162.138 244.385 160.907C243.238 160.483 242.076 160.128 240.902 159.8C240.307 159.69 239.703 159.64 239.098 159.649C239.382 160.022 239.697 160.37 240.041 160.689C241.28 161.389 242.435 162.228 243.484 163.192C243.371 163.567 243.211 163.925 243.005 164.258C239.927 168.208 238.032 172.951 237.541 177.936C237.254 179.961 237.063 182.04 236.83 184.009C236.751 185.233 236.61 186.452 236.407 187.661C235.785 190.478 236.147 193.423 237.431 196.005C239.135 199.888 241.207 203.598 243.62 207.084L244.672 208.452C246.735 211.187 248.866 213.923 250.834 216.659C253.88 221.008 257.2 225.139 260.629 229.188C261.203 229.871 261.709 230.555 262.214 231.349C263.949 233.92 265.548 236.587 267.392 239.063C272.102 245.542 276.26 252.405 279.825 259.58C280.868 261.708 281.564 263.989 281.887 266.337C282.653 271.261 283.254 276.185 283.95 281.123C284.757 287.182 285.522 293.255 286.314 299.314C286.342 299.743 286.533 300.144 286.847 300.436C286.937 300.018 286.987 299.592 286.997 299.164C286.792 294.281 286.615 289.384 286.341 284.501C286.177 281.574 285.972 278.633 285.59 275.72C285.058 271.115 284.246 266.547 283.158 262.042C282.935 261.105 282.629 260.189 282.243 259.306C279.415 252.781 275.936 246.558 271.86 240.732C269.277 237.258 266.395 234.016 263.662 230.665C263.272 230.238 262.916 229.78 262.597 229.297C259.429 224.236 255.953 219.376 252.186 214.744C249.263 210.928 246.216 207.18 243.046 203.569C240.451 200.601 239.481 197.044 238.661 193.379C238.237 191.296 238.293 189.144 238.825 187.087C239.686 183.353 240.369 179.578 241.106 175.816C241.636 173.094 242.408 170.426 243.415 167.842C243.894 166.638 244.29 165.394 244.782 164.026C245.519 164.436 246.23 164.806 246.913 165.216C248.454 166.158 250.195 166.725 251.995 166.871C253.138 167.022 254.295 166.734 255.233 166.064L255.178 166.091Z" fill="#79E0E8"/>
<path d="M231.216 52.414C231.793 51.5365 232.313 50.6227 232.773 49.6784C234.045 46.4964 234.85 43.1472 235.164 39.7345C235.601 36.3424 235.888 32.8956 236.216 29.5171C236.465 27.0842 236.922 24.6772 237.582 22.3225C238.428 19.3294 240.094 16.6333 242.391 14.5398C243.099 14.0334 243.877 13.6325 244.7 13.3498C244.591 12.8574 244.236 12.9805 243.962 13.0489C242.643 13.3688 241.403 13.9531 240.316 14.7666C239.228 15.58 238.317 16.6056 237.637 17.7815C236.503 19.6747 235.668 21.7326 235.164 23.8818C235.036 24.5047 234.825 25.1074 234.536 25.6736C233.191 28.1935 232.211 30.8924 231.626 33.6889C230.609 37.7193 229.336 41.6803 227.814 45.5477C224.795 53.1663 219.057 57.4885 211.228 59.2256C208.496 59.8274 205.613 60.2104 202.813 60.7028C197.175 61.552 191.652 63.0387 186.35 65.1344C182.853 66.4976 179.618 68.4549 176.787 70.9202L177.032 71.1938C177.606 70.8792 178.194 70.6056 178.74 70.2637C183.606 67.2315 189.026 65.1996 194.684 64.2864C198.372 63.6572 202.102 63.2742 205.818 62.8229C208.489 62.521 211.133 62.018 213.728 61.3183C216.64 60.4958 219.33 59.0279 221.598 57.0234C223.384 55.4752 224.955 53.695 226.27 51.7301C229.466 47.283 231.874 42.3184 233.388 37.0537C233.463 36.824 233.564 36.6037 233.689 36.3971C233.689 36.3287 233.798 36.3014 234.03 36.1372C234.03 36.5339 234.03 36.8211 234.03 37.0947C233.992 41.8344 233.152 46.5333 231.544 50.9915C231.408 51.4381 231.312 51.8958 231.257 52.3593L231.216 52.414Z" fill="#79E0E8"/>
<path d="M271.56 132.867C273.691 132.962 275.824 132.703 277.871 132.102C281.134 131.379 284.333 130.391 287.435 129.147C287.88 128.986 288.337 128.858 288.801 128.764C289.541 128.669 290.219 128.301 290.701 127.732C291.184 127.162 291.437 126.433 291.41 125.687C291.41 123.895 291.301 122.103 291.206 120.325C291.151 119.837 291.069 119.353 290.96 118.875C290.828 118.235 290.832 117.575 290.97 116.936C291.109 116.298 291.38 115.695 291.766 115.168C292.531 114.129 293.132 113.007 293.842 111.981L297.572 112.61C297.026 114.224 297.026 114.224 294.116 116.358L294.908 118.465L295.605 118.109L298.105 119.395C298.243 120.317 298.733 121.151 299.471 121.72C299.731 121.908 299.911 122.186 299.976 122.5C300.081 122.952 300.299 123.37 300.61 123.714C300.921 124.059 301.314 124.319 301.753 124.469C302.165 124.703 302.516 125.031 302.777 125.427C303.026 125.804 303.372 126.107 303.778 126.305C304.184 126.502 304.636 126.586 305.086 126.548C306.22 126.548 307.34 126.329 308.474 126.193C308.857 126.193 309.239 126.015 309.84 125.864C309.512 127.02 308.799 128.029 307.818 128.723C305.865 130.323 303.884 131.91 301.807 133.319C299.756 134.8 297.525 136.014 295.167 136.93C294.795 137.12 294.439 137.339 294.102 137.586C295.366 137.602 296.613 137.291 297.722 136.684C301.186 135.043 304.477 133.059 307.545 130.761C308.433 130.046 309.251 129.249 309.991 128.381C310.484 127.804 310.859 127.134 311.094 126.411C311.328 125.688 311.417 124.926 311.357 124.168C310.984 124.148 310.61 124.148 310.237 124.168C308.707 124.373 307.19 124.62 305.646 124.811C305.186 124.803 304.729 124.748 304.28 124.647C305.1 123.635 306.124 123.512 306.862 122.951C307.6 122.39 308.433 122.158 308.87 120.927C306.384 121.816 304.225 123.06 301.493 122.294C302.067 121.405 302.859 121.364 303.419 120.927C304.038 120.534 304.635 120.109 305.209 119.655C305.555 119.466 305.857 119.204 306.093 118.888C306.328 118.572 306.493 118.208 306.575 117.822C304.335 118.588 302.477 120.27 300.058 119.86C299.916 119.576 299.876 119.252 299.946 118.943C300.016 118.634 300.191 118.358 300.441 118.164C301.11 117.562 301.807 116.987 302.422 116.345C303.096 115.776 303.637 115.066 304.007 114.265C303.597 113.855 303.351 114.17 303.105 114.265C301.739 115.209 300.277 116.18 298.829 117.083C298.388 117.228 297.926 117.298 297.463 117.288C297.463 116.864 297.463 116.577 297.613 116.413C298.747 114.895 299.922 113.376 301.11 111.817C301.321 111.577 301.6 111.405 301.909 111.325C302.218 111.245 302.544 111.259 302.846 111.366C303.982 111.662 305.004 112.291 305.783 113.171L304.963 114.43C305.195 114.43 305.414 114.621 305.578 114.566C305.88 114.445 306.204 114.389 306.529 114.401C306.854 114.414 307.173 114.495 307.464 114.64C307.756 114.785 308.014 114.989 308.221 115.241C308.428 115.492 308.579 115.784 308.666 116.098L307.9 117.193C308.187 117.275 308.392 117.343 308.597 117.384C309.001 117.414 309.397 117.506 309.772 117.658C310.173 117.912 310.473 118.299 310.619 118.752C310.619 119.107 310.264 119.545 309.963 120.12C310.462 120.337 310.923 120.633 311.33 120.995C311.708 121.584 312.01 122.218 312.231 122.883C312.491 122.595 312.819 122.418 312.846 122.199C312.846 121.638 313.051 120.831 312.764 120.544C311.739 119.367 312.272 117.37 310.66 116.563C310.368 116.422 310.113 116.216 309.914 115.959C309.714 115.703 309.577 115.404 309.513 115.086C309.412 114.644 309.19 114.24 308.871 113.918C308.552 113.596 308.15 113.371 307.709 113.267C307.415 113.185 307.139 113.045 306.9 112.855C306.661 112.664 306.462 112.428 306.316 112.159C305.264 110.504 303.46 110.449 301.794 110.148C301.631 110.129 301.466 110.168 301.329 110.258C300.839 110.599 300.279 110.825 299.689 110.917C299.1 111.009 298.498 110.966 297.927 110.791C296.622 110.756 295.318 110.889 294.047 111.188C293.812 111.24 293.589 111.338 293.391 111.475C291.941 112.329 290.789 113.608 290.09 115.14C289.391 116.671 289.179 118.381 289.484 120.038C289.729 121.647 289.893 123.267 289.976 124.893C290.058 126.863 289.347 127.629 287.448 128.231L272.885 132.334C272.433 132.486 271.991 132.664 271.56 132.867Z" fill="#79E0E8"/>
<path d="M335.033 377.265C335.533 376.855 335.99 376.397 336.399 375.897C336.71 375.519 336.903 375.059 336.954 374.572C337.005 374.086 336.912 373.595 336.686 373.161C336.253 372.286 336.038 371.32 336.058 370.344C335.823 368.639 335.008 367.069 333.749 365.898C333.516 365.625 333.025 365.556 332.669 365.378C332.216 365.216 331.789 364.99 331.399 364.708C330.386 363.888 329.156 363.38 327.86 363.245C323.995 362.657 320.226 361.549 316.658 359.948C316.453 359.853 316.261 359.716 316.029 359.593C316.357 359.046 316.739 359.456 317.067 359.47C318.133 359.47 319.185 359.606 320.237 359.552C321.046 359.483 321.844 359.317 322.614 359.059C322.943 358.996 323.242 358.83 323.468 358.583C323.695 358.337 323.836 358.024 323.871 357.691C323.891 357.32 323.785 356.952 323.569 356.649C323.353 356.345 323.04 356.125 322.682 356.023C322.163 355.795 321.629 355.603 321.084 355.448C320.387 355.257 319.718 355.106 318.734 354.887C319.212 354.395 319.581 353.998 319.964 353.629C320.755 352.923 321.341 352.016 321.658 351.003C321.781 350.675 321.816 350.32 321.758 349.975C321.701 349.629 321.552 349.305 321.329 349.036C321.106 348.766 320.815 348.56 320.486 348.44C320.157 348.319 319.803 348.288 319.458 348.349C317.911 348.511 316.465 349.196 315.36 350.292C314.704 350.893 314.062 351.509 313.42 352.125C313.556 351.003 313.693 349.881 313.816 348.76C313.916 348.066 313.797 347.358 313.474 346.735C312.996 346.653 312.941 347.036 312.887 347.324C312.668 348.349 312.518 349.389 312.286 350.415C312.034 351.906 311.425 353.314 310.51 354.518C310.059 354.34 309.622 354.204 309.212 353.998C308.556 353.684 307.928 353.314 307.299 352.973L306.848 353.287C307.557 354.669 308.667 355.804 310.031 356.542C310.838 357.076 311.698 357.541 312.532 358.061C313.598 358.632 314.555 359.387 315.36 360.29C315.999 360.896 316.758 361.361 317.587 361.658C320.411 362.902 323.367 363.819 326.399 364.394C328.53 364.859 330.579 365.584 332.669 366.158C333.199 366.357 333.63 366.754 333.872 367.266C334.445 368.511 334.883 369.824 335.333 371.123C335.381 371.523 335.449 371.92 335.538 372.313C335.737 372.757 335.831 373.242 335.812 373.728C335.793 374.214 335.662 374.69 335.429 375.117C335.169 375.719 335.033 376.348 334.828 376.964C334.91 377.128 334.978 377.196 335.033 377.265ZM314.54 354.108C315.235 352.939 316.166 351.929 317.272 351.14C317.741 350.828 318.252 350.584 318.789 350.415C318.902 350.387 319.021 350.386 319.134 350.412C319.248 350.439 319.354 350.491 319.445 350.565C319.509 350.658 319.549 350.765 319.561 350.878C319.573 350.99 319.557 351.104 319.513 351.208C318.961 352.044 318.224 352.74 317.359 353.243C316.494 353.746 315.524 354.042 314.526 354.108H314.54ZM313.993 357.541C316.139 356.883 318.433 356.883 320.578 357.541C319.382 358.094 318.069 358.348 316.753 358.28C315.776 358.316 314.81 358.058 313.98 357.541H313.993Z" fill="#79E0E8"/>
<path d="M253.266 14.7176C254.455 13.7327 255.671 12.7753 256.832 11.7495C257.556 11.2422 258.108 10.5267 258.417 9.69776C257.406 9.88925 257.051 10.6689 256.381 11.0656C255.712 11.4622 255.206 11.9546 254.605 12.4333C254.004 12.9121 253.239 13.3087 252.528 13.7327C251.818 14.1568 251.258 14.4577 250.602 14.7996C249.946 15.1416 249.236 15.5793 248.444 15.9349C247.651 16.2905 247.077 16.4957 246.271 16.8513C246.47 17.1862 246.613 17.5511 246.695 17.9319C246.695 19.2997 247.487 19.8194 248.567 20.1477C250.288 20.6811 251.996 21.1872 253.731 21.6659C254.29 21.7806 254.856 21.8583 255.425 21.8985C254.714 20.8316 253.785 21.1051 253.13 20.7769C252.371 20.4721 251.596 20.2118 250.807 19.9972C250.042 19.7507 249.305 19.4252 248.607 19.0261C251.627 19.3544 254.564 20.0656 257.556 20.5307C255.889 19.2586 253.772 19.2723 251.968 18.3969C252.078 17.8361 252.528 17.9045 252.897 17.8635L258.963 17.2206C259.864 17.1523 260.745 16.9157 261.559 16.523C260.546 16.307 259.498 16.307 258.485 16.523C257.529 16.523 256.572 16.523 255.138 16.523C258.963 14.1568 262.392 12.0093 264.879 8.69927C264.346 8.15216 264.087 8.60353 263.841 8.82238C261.433 10.9125 258.719 12.6194 255.794 13.8832C254.963 14.1969 254.114 14.4618 253.253 14.6765L253.266 14.7176Z" fill="#79E0E8"/>
<path d="M228.264 96.5527C229.326 100.021 231.539 103.022 234.535 105.06C236.437 106.344 238.676 107.034 240.97 107.044C244.711 107.165 248.442 106.58 251.968 105.32C255.728 103.914 258.946 101.353 261.162 98.0026C261.285 97.7949 261.373 97.5685 261.422 97.3324C261.422 97.3324 261.422 97.2093 261.231 97.0178C260.916 97.2366 260.602 97.4281 260.315 97.6607C256.314 100.596 252.03 103.126 247.528 105.211C245.316 106.251 242.786 106.383 240.478 105.58C237.779 104.949 235.332 103.519 233.456 101.477C232.09 99.8218 230.382 98.3582 228.811 96.8263C228.77 96.6348 228.66 96.6485 228.264 96.5527Z" fill="#79E0E8"/>
<path d="M265.958 37.7239C265.889 37.7239 265.78 37.7239 265.739 37.6008C263.43 33.7983 260.862 30.1463 259.345 25.9062C259.212 25.1147 258.794 24.3994 258.17 23.8955C258.105 24.3812 258.105 24.8734 258.17 25.359C258.526 26.7268 258.99 27.9852 259.386 29.2983C259.646 30.1463 259.851 31.008 260.069 31.8697L260.575 32.8409L261.067 33.8257L260.616 32.7998L260.11 31.8424C259.332 30.4746 258.58 28.9974 257.788 27.5885C257.569 27.2192 257.269 26.891 256.859 26.3439C257.091 29.6949 260.643 36.9442 263.417 39.7893C263.492 39.4897 263.529 39.1817 263.526 38.8728C263.403 38.3257 263.212 37.7923 263.048 37.2588L262.556 36.2877L263.007 37.2725C263.512 37.6692 264.004 38.0795 264.523 38.4488C265.042 38.8181 265.889 39.3242 266.491 39.8166C266.82 40.0261 267.107 40.2952 267.338 40.6099C268.253 42.0735 269.51 42.0461 270.999 41.5811C270.903 41.2938 270.876 40.9519 270.739 40.8972C267.734 39.7072 267.064 37.0673 266.641 34.277C266.641 33.7983 266.641 33.3059 266.463 32.8409C266.366 32.5756 266.238 32.323 266.081 32.0886C265.466 32.0886 265.439 32.4852 265.452 32.7314C265.452 33.8667 265.575 34.9883 265.685 36.1099C265.685 36.657 265.889 37.2178 265.999 37.7649L266.135 38.1205L265.958 37.7239Z" fill="#79E0E8"/>
<path d="M180.803 71.5632C181.622 71.0475 182.475 70.5905 183.358 70.1954C186.81 68.9808 190.383 68.1416 194.014 67.6924C197.648 67.241 201.296 67.0222 204.944 66.6255C208.353 66.43 211.742 65.9728 215.081 65.2577C217.593 64.6298 220.003 63.6489 222.24 62.3443C223.254 61.8464 224.083 61.0363 224.604 60.0327C224.426 60.0327 224.33 59.9233 224.303 59.9507C221.372 62.3187 217.797 63.7485 214.043 64.0541C210.504 64.5328 206.925 64.7516 203.359 65.0525C196.382 65.5794 189.514 67.0945 182.962 69.5526C181.628 69.9294 180.399 70.6079 179.369 71.5359H180.844L180.803 71.5632Z" fill="#79E0E8"/>
<path d="M258.621 3.447C259.17 3.33929 259.713 3.20232 260.247 3.03666C262.778 2.13472 265.461 1.73968 268.143 1.87404C270.876 1.98346 273.704 1.87404 276.341 2.84517C278.691 3.74792 280.958 4.84215 283.254 5.85432L284.62 6.44247C285.139 6.05948 284.907 5.74489 284.756 5.48501C284.264 4.64242 283.518 3.97706 282.625 3.58378C279.551 2.12024 276.505 0.506249 273.062 0.260046C270.703 0.00383497 268.326 -0.0510745 265.958 0.0959109C263.185 0.293279 260.58 1.49988 258.635 3.48804L258.621 3.447Z" fill="#79E0E8"/>
<path d="M162.906 252.44C163.621 252.057 164.31 251.627 164.969 251.154C168.507 248.296 172.114 245.505 175.53 242.496C177.961 240.349 180.12 237.887 182.361 235.561C182.524 235.329 182.658 235.076 182.757 234.809C182.306 234.412 182.033 234.686 181.801 234.878C179.396 236.806 176.882 238.625 174.614 240.704C170.516 244.438 166.581 248.323 162.592 252.139L162.906 252.44Z" fill="#79E0E8"/>
<path d="M291.396 15.2647C291.939 16.0832 292.272 17.0226 292.366 18.0003C292.749 20.4076 293.159 22.815 293.651 25.2086C293.828 26.0795 293.828 26.9775 293.651 27.8484C293.418 29.0247 293.309 30.2284 293.145 31.5415C293.335 31.5705 293.528 31.5616 293.714 31.5153C293.9 31.4689 294.075 31.3861 294.228 31.2716C294.382 31.1571 294.512 31.0132 294.61 30.8482C294.707 30.6832 294.771 30.5004 294.798 30.3105C294.949 29.6718 294.949 29.0068 294.798 28.3682C294.528 27.1847 294.427 25.969 294.498 24.7572C294.457 23.4575 294.347 22.1609 294.17 20.8727C294.06 19.7374 293.924 18.6158 293.801 17.4806C293.648 15.5206 292.936 13.6456 291.752 12.0778C290.645 10.6564 289.316 9.42315 287.817 8.42578C287.82 9.1151 288.061 9.78212 288.5 10.3133L289.033 10.8468V10.7647L288.5 10.2449C288.412 10.294 288.336 10.3607 288.276 10.4408C288.215 10.521 288.172 10.6129 288.149 10.7106C288.126 10.8083 288.123 10.9098 288.141 11.0086C288.159 11.1074 288.198 11.2013 288.254 11.2845C288.992 12.8164 289.757 14.3346 290.467 15.7708C291.137 15.9623 291.246 15.5246 291.451 15.1964C291.409 15.1356 291.373 15.0715 291.342 15.0049L291.396 15.2647Z" fill="#79E0E8"/>
<path d="M279.21 13.76L276.888 12.488C275.904 11.784 274.803 11.2606 273.636 10.9424C273.226 11.3801 273.636 11.5579 273.882 11.6947C274.852 12.4333 275.877 13.0625 276.82 13.8558C277.472 14.4519 278.088 15.0867 278.664 15.757L279.169 16.2631L279.675 16.7692H279.757V16.6734L279.265 16.1673L278.76 15.6613C278.035 15.3193 277.298 15.0047 276.587 14.6354C275.367 13.8689 274.041 13.2837 272.653 12.8983C272.338 13.3497 272.653 13.5412 272.912 13.7053C274.714 14.7892 276.356 16.1197 277.79 17.6582L278.322 18.1917L278.842 18.7251L279.374 19.2586L279.907 19.792C281.204 20.4493 282.342 21.383 283.241 22.5276C284.019 21.365 283.241 20.64 282.872 19.792V19.8604L283.855 19.6279C283.379 18.3052 282.603 17.1112 281.588 16.14C281.041 15.5518 280.481 14.991 279.921 14.4166L279.388 13.8831L279.21 13.76Z" fill="#79E0E8"/>
<path d="M262.679 97.1133C262.898 96.8124 263.144 96.5115 263.349 96.1832C265.386 92.6281 266.134 88.4776 265.466 84.4339C264.849 79.9126 263.304 75.5679 260.93 71.6724C260.425 71.9322 260.698 72.3289 260.78 72.6572C261.327 74.6131 261.846 76.5691 262.461 78.5113C263.429 81.6104 263.922 84.8387 263.922 88.0859C263.951 90.6135 263.54 93.1268 262.706 95.513C262.543 95.9507 262.42 96.4157 262.283 96.8808L262.679 97.1133Z" fill="#79E0E8"/>
<path d="M192.307 203.651C192.088 203.062 191.91 202.461 191.665 201.9C190.018 198.177 188.825 194.269 188.112 190.26C187.511 186.973 187.511 183.603 188.112 180.316C188.147 179.797 188.147 179.276 188.112 178.757C187.893 178.979 187.697 179.222 187.525 179.482C186.234 182.58 185.877 185.99 186.5 189.289C187.287 193.369 188.581 197.335 190.353 201.093C190.804 202.023 191.35 202.912 191.842 203.828L192.307 203.651Z" fill="#79E0E8"/>
<path d="M39.9071 272.97C40.4707 272.648 41.0055 272.277 41.5056 271.862C42.5712 270.618 43.5958 269.359 44.5795 268.074C45.1748 267.397 45.6073 266.592 45.8441 265.722C46.081 264.852 46.1157 263.939 45.9457 263.054C45.8703 262.409 45.8292 261.761 45.8227 261.111C45.806 260.806 45.6982 260.512 45.5131 260.268C45.328 260.024 45.0742 259.842 44.7844 259.744C44.3199 260.551 44.962 261.111 45.0577 261.877C45.0249 262.089 44.9652 262.296 44.8801 262.493C44.3336 263.587 43.8008 264.681 43.2133 265.735C42.7351 266.583 42.1613 267.376 41.6832 268.224C41.205 269.072 40.6039 270.221 40.1257 271.26C39.9821 271.819 39.9087 272.393 39.9071 272.97Z" fill="#79E0E8"/>
<path d="M16.9551 278.236C15.9031 279.973 14.8375 281.697 13.8128 283.461C13.3349 284.219 12.9409 285.026 12.6379 285.869C11.4493 289.589 10.3017 293.309 9.16773 297.057C8.95324 297.755 8.82029 298.476 8.77155 299.205C8.8109 299.588 8.91242 299.962 9.07211 300.313C9.33169 300.203 9.55027 300.176 9.5776 300.094C10.6022 296.838 11.5996 293.569 12.6242 290.314C12.7609 289.849 12.9794 289.398 13.0751 288.946C13.6468 286.055 14.6998 283.281 16.19 280.739C16.6973 279.995 16.9557 279.109 16.9277 278.209L16.9551 278.236Z" fill="#79E0E8"/>
<path d="M239.372 161.126C235.765 165.229 234.084 170.208 234.754 174.188C234.945 173.983 235.15 173.846 235.177 173.696C235.581 171.521 236.382 169.439 237.541 167.555C238.425 166.178 239.041 164.646 239.358 163.041C239.4 162.403 239.405 161.764 239.372 161.126Z" fill="#79E0E8"/>
<path d="M254.277 27.5064C254.334 27.8889 254.411 28.2679 254.51 28.6417C255.445 31.6847 256.652 34.6374 258.116 37.4639C258.704 38.8312 259.721 39.9694 261.013 40.7056C260.958 40.2408 260.858 39.7825 260.712 39.3378C258.745 35.3439 256.736 31.3499 254.742 27.356L254.277 27.5064Z" fill="#79E0E8"/>
<path d="M288.008 14.2251C288.008 13.8011 288.199 13.5002 288.117 13.3771C287.844 12.9744 287.513 12.6148 287.134 12.3102C284.542 10.3539 281.609 8.8975 278.486 8.01533C277.511 7.68695 276.455 7.68695 275.48 8.01533C276.559 8.98646 277.789 8.90439 278.772 9.38312C279.756 9.86185 280.863 10.2448 281.887 10.7509C282.912 11.257 283.923 11.7357 284.92 12.3102C285.918 12.8847 286.806 13.4728 288.008 14.2251Z" fill="#79E0E8"/>
<path d="M103.571 262.616C100.655 262.333 97.7161 262.393 94.814 262.794C91.2892 263.327 87.7644 263.916 84.2259 264.463C83.5155 264.572 82.8597 264.6 81.4935 264.723C82.5438 265.076 83.663 265.174 84.7587 265.01C90.4011 264.394 96.0572 263.779 101.7 263.122C102.322 262.989 102.934 262.811 103.53 262.589L103.571 262.616Z" fill="#79E0E8"/>
<path d="M305.154 355.735C305.468 354.504 306.26 353.738 305.933 352.494C304.304 353.801 302.787 355.242 301.397 356.802C302.462 357.404 303.146 356.324 304.129 356.542C305.331 358.074 306.26 360.017 308.037 361.234C308.132 361.234 308.323 361.234 308.61 361.234C308.249 360.176 307.682 359.2 306.944 358.361C306.37 357.431 305.755 356.597 305.154 355.735Z" fill="#79E0E8"/>
<path d="M177.36 236.437C172.456 239.858 167.82 243.648 163.493 247.776C163.766 248.377 164.067 248.227 164.312 248.035C165.146 247.406 165.993 246.763 166.799 246.093L176.499 237.886C176.922 237.531 177.305 237.134 177.701 236.765L177.36 236.437Z" fill="#79E0E8"/>
<path d="M307.326 353C307.386 352.697 307.386 352.386 307.326 352.084C307.162 351.71 306.941 351.364 306.67 351.058C304.45 348.144 302.489 345.041 300.809 341.784C300.616 341.503 300.397 341.242 300.154 341.004C300.111 341.459 300.111 341.917 300.154 342.372C300.538 344.046 301.258 345.623 302.271 347.009C303.296 348.377 304.32 349.745 305.441 351.017C306.011 351.698 306.472 352.464 306.807 353.287L307.326 353Z" fill="#79E0E8"/>
<path d="M246.367 59.8139C247.186 60.6756 248.348 60.5251 249.345 60.6756C252.169 61.0077 254.889 61.9404 257.323 63.4112C257.524 63.5114 257.742 63.5718 257.966 63.589C258.036 63.5414 258.094 63.4772 258.134 63.4021C258.173 63.327 258.194 63.2432 258.194 63.1581C258.194 63.0731 258.173 62.9893 258.134 62.9142C258.094 62.839 258.036 62.7749 257.966 62.7273C257.153 62.0607 256.285 61.4658 255.37 60.9492C252.631 59.457 249.433 59.047 246.408 59.8002L246.367 59.8139Z" fill="#79E0E8"/>
<path d="M22.3374 266.446C22.8116 265.916 23.2369 265.343 23.608 264.736C25.2065 261.467 26.7639 258.171 28.3077 254.874C28.3916 254.655 28.4423 254.425 28.458 254.191C28.0891 253.808 27.8295 254.191 27.6793 254.355C26.9297 255.407 26.2584 256.514 25.671 257.665C24.5507 260.168 23.5534 262.739 22.5424 265.311C22.4335 265.694 22.3739 266.089 22.3648 266.487L22.3374 266.446Z" fill="#79E0E8"/>
<path d="M12.4326 299.725C10.3697 303.39 9.70022 308.424 10.6839 311.406C11.6743 307.584 12.2604 303.669 12.4326 299.725Z" fill="#79E0E8"/>
<path d="M269.729 16.4137C273.063 20.7769 276.041 23.4441 278.582 24.3332C278.582 24.1964 278.705 23.9776 278.582 23.9092C275.94 21.0665 273.04 18.4749 269.92 16.1675L269.729 16.4137Z" fill="#79E0E8"/>
<path d="M292.053 30.4062C288.815 27.356 287.134 26.7131 282.353 28.7238C283.413 29.2213 284.603 29.3744 285.755 29.1615C286.514 29.0036 287.299 29.0136 288.054 29.1908C288.809 29.368 289.516 29.7081 290.126 30.1873C290.459 30.4126 290.822 30.5877 291.206 30.7071C291.37 30.8028 291.616 30.5977 292.053 30.4062Z" fill="#79E0E8"/>
<path d="M289.989 33.1418C290.467 32.8135 291.041 32.6221 291.137 32.2938C291.328 31.6783 290.781 31.1996 290.276 31.0217C289.472 30.7683 288.65 30.5762 287.817 30.4473L286.451 31.7193C286.451 31.8698 286.451 32.0613 286.451 32.1707C287.099 33.0632 287.977 33.7628 288.992 34.195C289.333 34.3728 289.825 34.4549 290.057 34.0309C290.29 33.6069 290.016 33.4838 289.989 33.1418Z" fill="#79E0E8"/>
<path d="M298.747 122.431C298.419 125.864 297.244 128.299 294.334 132.443C294.662 132.443 294.908 132.443 295.031 132.293C296.998 130.582 298.49 128.391 299.362 125.933C299.604 125.458 299.724 124.931 299.712 124.399C299.7 123.867 299.556 123.345 299.293 122.883C299.138 122.702 298.953 122.549 298.747 122.431Z" fill="#79E0E8"/>
<path d="M277.516 25.9884C274.059 23.7316 271.778 20.5173 269.018 17.8774C268.471 18.151 268.704 18.4656 268.854 18.6981C270.717 21.4432 273.026 23.8565 275.685 25.838C275.792 25.9732 275.925 26.085 276.077 26.1664C276.229 26.2478 276.396 26.2971 276.568 26.3112C276.739 26.3253 276.912 26.3039 277.075 26.2484C277.238 26.1929 277.388 26.1044 277.516 25.9884Z" fill="#79E0E8"/>
<path d="M254.741 41.8683C254.003 40.4321 253.443 39.3515 252.897 38.271C252.35 37.1904 251.845 36.0552 251.312 34.9609C250.779 33.8667 250.588 32.6904 249.946 31.6646C249.112 31.9655 249.358 32.5126 249.454 32.9366C250.189 36.1264 251.69 39.0888 253.826 41.5674C253.935 41.6631 254.154 41.6631 254.741 41.8683Z" fill="#79E0E8"/>
<path d="M248.935 11.394C249.85 10.8879 250.82 10.4639 251.667 9.87574C253.925 8.16784 255.895 6.1082 257.501 3.77539C256.982 3.85746 256.722 3.77539 256.558 3.92585C256.017 4.27594 255.506 4.66933 255.028 5.10215C252.938 7.12648 250.93 9.20552 248.812 11.2572L248.935 11.394Z" fill="#79E0E8"/>
<path d="M272.311 29.4077L273.472 29.5445C273.688 29.3415 273.816 29.0632 273.831 28.7676C273.847 28.472 273.747 28.182 273.554 27.9578C273.39 27.5796 273.139 27.2459 272.82 26.9843C272.502 26.7227 272.126 26.5407 271.724 26.4533C270.65 26.0429 269.464 26.0429 268.39 26.4533C268.074 26.5821 267.808 26.8107 267.633 27.1044C267.458 27.3981 267.383 27.7409 267.42 28.0809C268.486 28.3545 269.142 27.3697 270.043 27.1508C270.369 27.2047 270.671 27.3525 270.914 27.576C271.157 27.7995 271.329 28.0891 271.409 28.4092L271.942 28.9426L272.475 29.4761L272.311 29.4077Z" fill="#79E0E8"/>
<path d="M257.419 40.3774C257.469 40.3169 257.514 40.2529 257.555 40.1859C257.574 40.1095 257.574 40.0297 257.555 39.9533C257.489 39.6351 257.393 39.3237 257.269 39.0232C255.775 35.932 254.281 32.8545 252.787 29.7906C252.787 29.6812 252.541 29.6265 252.378 29.5171C252.036 30.3104 252.514 30.9806 252.733 31.6235C254.01 34.6857 255.579 37.6173 257.419 40.3774Z" fill="#79E0E8"/>
<path d="M227.39 121.173C228.16 120.034 228.596 118.703 228.647 117.329C229.248 114.39 229.622 111.408 229.768 108.411C229.33 109.122 229.098 109.328 229.057 109.574C228.852 110.613 228.716 111.653 228.538 112.679C228.128 115.154 227.705 117.63 227.308 120.092C227.296 120.454 227.324 120.817 227.39 121.173Z" fill="#79E0E8"/>
<path d="M270.945 32.9366L273.145 32.4716L272.311 29.4077L271.778 28.8743L271.246 28.3408C269.155 27.8484 268.008 28.9427 267.297 30.7345C268.254 30.3241 269.005 29.4761 270.317 29.4624L271.833 31.1174L270.781 32.8272L270.945 32.9366Z" fill="#79E0E8"/>
<path d="M88.3525 261.248C85.6494 261.16 82.9438 261.302 80.2647 261.672C79.1507 261.825 78.0561 262.095 76.9994 262.479C76.9175 262.479 76.8901 262.698 76.7535 262.972C79.3741 262.361 82.0552 262.049 84.7458 262.042C85.9954 262.083 87.2355 261.811 88.3525 261.248Z" fill="#79E0E8"/>
<path d="M247.159 15.3606C250.164 13.7834 252.925 11.7793 255.356 9.41067C255.22 9.41067 255.015 9.28757 254.933 9.41067C252.542 11.0794 250.165 12.7754 247.801 14.4715C247.583 14.5125 247.514 14.7587 247.159 15.3606Z" fill="#79E0E8"/>
<path d="M254.25 66.6665L253.17 66.7623L256.764 71.8778C257.337 71.6727 257.187 71.2213 257.132 70.8793C257.035 70.1084 256.762 69.37 256.336 68.7205C255.91 68.071 255.341 67.5275 254.673 67.1316L254.14 66.5981L254.25 66.6665Z" fill="#79E0E8"/>
<path d="M280.029 23.3345C278.503 21.0867 276.548 19.1624 274.278 17.6719C274.209 17.795 274.073 18.0001 274.1 18.0412C275.77 20.1224 277.774 21.9112 280.029 23.3345Z" fill="#79E0E8"/>
<path d="M275.193 16.7692L281.204 22.3361C281.286 22.4045 281.491 22.3361 281.628 22.3361C281.327 21.2419 281.327 21.2419 279.633 19.6006L279.1 19.0671L278.568 18.5337L278.048 18.0002L277.516 17.4668L275.166 16.3452L275.193 16.7692Z" fill="#79E0E8"/>
<path d="M229.89 121.146C230.987 118.195 231.699 115.115 232.008 111.981C231.337 112.905 230.944 114.001 230.874 115.141C230.287 117.091 229.956 119.11 229.89 121.146Z" fill="#79E0E8"/>
<path d="M278.636 12.8164L279.21 13.7602L279.743 14.2937C281.293 15.0195 282.612 16.1603 283.554 17.59C283.891 17.9983 284.201 18.4278 284.483 18.8758C284.58 18.4614 284.559 18.0285 284.424 17.6252C284.289 17.2219 284.045 16.8641 283.718 16.5915C282.434 14.9015 280.735 13.5727 278.786 12.7344L278.636 12.8164Z" fill="#79E0E8"/>
<path d="M189.369 215.714C192.101 213.102 193.331 211.748 194.137 209.956C192.278 211.621 190.552 213.427 188.972 215.359L189.369 215.714Z" fill="#79E0E8"/>
<path d="M263.417 20.2297C265.412 21.5155 266.914 22.6781 268.718 23.6082C268.592 23.1474 268.368 22.7194 268.062 22.3534C267.755 21.9875 267.373 21.6923 266.942 21.4881C265.966 20.6411 264.708 20.1919 263.417 20.2297Z" fill="#79E0E8"/>
<path d="M28.5541 252.44C29.1448 253.263 29.9975 253.861 30.9722 254.136C31.1362 254.136 31.5324 254.136 31.587 253.972C31.6548 253.84 31.6957 253.695 31.7074 253.548C31.7192 253.4 31.7014 253.251 31.6553 253.11C31.5011 252.824 31.2691 252.587 30.9863 252.427C30.7034 252.268 30.3812 252.191 30.0569 252.207C29.5502 252.242 29.0475 252.319 28.5541 252.44Z" fill="#79E0E8"/>
<path d="M25.261 250.771L28.1573 251.059C28.1573 250.922 28.3349 250.676 28.2666 250.498C28.1541 250.202 27.943 249.955 27.669 249.798C27.395 249.641 27.0751 249.584 26.7638 249.636C26.0124 249.636 25.3976 249.855 25.3019 250.826L25.261 250.771Z" fill="#79E0E8"/>
<path d="M149.093 256.721C150.452 256.303 151.686 255.556 152.687 254.546C151.32 254.724 150.801 255.011 148.998 256.612L149.093 256.721Z" fill="#79E0E8"/>
<path d="M266.368 5.28004C266.903 5.48459 267.478 5.56383 268.049 5.51167C268.619 5.45952 269.171 5.27735 269.66 4.97912C268.431 4.50039 268.431 4.50039 266.368 5.28004Z" fill="#79E0E8"/>
<path d="M186.213 218.45C187.743 218.081 188.467 216.795 189.369 215.715L188.973 215.359C187.872 216.214 186.944 217.273 186.241 218.477L186.213 218.45Z" fill="#79E0E8"/>
<path d="M223.975 131.855C224.859 131.096 225.412 130.021 225.519 128.86C224.549 129.653 224.535 129.681 223.852 131.746L223.975 131.855Z" fill="#79E0E8"/>
<path d="M190.94 221.719C190 222.448 189.115 223.243 188.289 224.099C189.483 223.767 190.538 223.057 191.295 222.075L190.94 221.719Z" fill="#79E0E8"/>
<path d="M263.964 21.8848C264.069 22.4203 264.342 22.9086 264.742 23.2797C265.142 23.6507 265.649 23.8854 266.19 23.9501C265.664 23.0596 264.891 22.3418 263.964 21.8848Z" fill="#79E0E8"/>
<path d="M269.865 37.2724V34.1949C269.291 34.0855 268.909 34.4548 269.087 34.7967C269.469 35.6037 269.087 36.6296 269.906 37.2587L269.865 37.2724Z" fill="#79E0E8"/>
<path d="M289.853 42.5796C288.855 43.0446 289.005 43.5234 289.128 44.0294C289.73 43.7696 289.429 43.2225 289.853 42.5796Z" fill="#79E0E8"/>
<path d="M267.037 143.619C267.543 143.619 268.13 143.619 268.403 142.661L266.887 143.454L267.037 143.619Z" fill="#79E0E8"/>
<path d="M152.974 257.145C153.269 257.114 153.551 257.006 153.791 256.83C154.031 256.655 154.221 256.419 154.34 256.146C154.034 256.171 153.74 256.275 153.486 256.448C153.232 256.62 153.028 256.856 152.892 257.131L152.974 257.145Z" fill="#79E0E8"/>
<path d="M234.316 237.914C234.12 237.669 233.873 237.47 233.592 237.331C233.312 237.192 233.004 237.115 232.691 237.107C232.868 237.777 233.428 238.023 233.989 238.283L234.316 237.914Z" fill="#79E0E8"/>
<path d="M162.632 252.139C162.277 252.29 161.84 252.344 161.894 253.069C162.29 252.837 162.591 252.632 162.905 252.44L162.632 252.139Z" fill="#79E0E8"/>
<path d="M176.8 70.9067L175.857 71.618L176.049 71.8916L177.046 71.1803L176.8 70.9067Z" fill="#79E0E8"/>
<path d="M154.408 256.16C154.719 256.154 155.022 256.061 155.282 255.892C155.543 255.723 155.751 255.484 155.884 255.203C155.571 255.199 155.264 255.289 155.003 255.463C154.743 255.636 154.54 255.884 154.422 256.174L154.408 256.16Z" fill="#79E0E8"/>
<path d="M275.385 16.5642C275.207 16.3044 275.03 16.0445 274.688 16.3728L275.193 16.7694L275.385 16.5642Z" fill="#79E0E8"/>
<path d="M153.342 262.411L152.44 262.726C152.508 262.809 152.596 262.875 152.694 262.917C152.793 262.959 152.901 262.977 153.008 262.969C153.115 262.961 153.219 262.927 153.31 262.871C153.402 262.814 153.478 262.736 153.533 262.644C153.465 262.616 153.41 262.493 153.342 262.411Z" fill="#79E0E8"/>
<path d="M220.873 132.758C220.19 132.375 220.19 132.375 219.739 133.114L220.053 133.36L220.914 132.744L220.873 132.758Z" fill="#79E0E8"/>
<path d="M220.874 133.729C221.434 133.305 221.434 133.305 220.874 132.758V133.77V133.729Z" fill="#79E0E8"/>
<path d="M247.856 136.219C248.183 136.862 248.771 136.711 249.317 136.684C249.044 136.014 248.457 136.137 247.951 136.15L247.856 136.219Z" fill="#79E0E8"/>
<path d="M267.42 30.8574L267.092 31.514L267.324 31.596C267.324 31.3362 267.324 31.09 267.324 30.8301L267.42 30.8574Z" fill="#79E0E8"/>
<path d="M248.375 11.8179L248.006 11.9L248.348 11.7769L248.375 11.8179Z" fill="#79E0E8"/>
<path d="M252.296 137.682L252.05 137.368L252.337 137.641L252.296 137.682Z" fill="#79E0E8"/>
<path d="M249.318 136.684L249.563 136.779L249.29 136.697L249.318 136.684Z" fill="#79E0E8"/>
<path d="M148.998 256.612L148.096 257.186L149.121 256.762L148.998 256.612Z" fill="#79E0E8"/>
<path d="M153.001 257.145L152.017 257.637L153.015 257.159L153.001 257.145Z" fill="#79E0E8"/>
<path d="M148.096 257.145L147.098 257.61C147.495 257.61 147.918 257.61 148.096 257.145Z" fill="#79E0E8"/>
<path d="M152.017 257.679L151.634 257.774L151.798 257.98L151.976 257.638L152.017 257.679Z" fill="#79E0E8"/>
<path d="M247.883 136.177L246.885 135.726C246.995 136.26 247.405 136.246 247.815 136.26L247.883 136.177Z" fill="#79E0E8"/>
<path d="M22.3652 266.487L22.0647 266.72C22.1603 266.638 22.2423 266.542 22.3379 266.446L22.3652 266.487Z" fill="#79E0E8"/>
<path d="M178.398 72.042L177.989 72.2335C178.316 72.5071 178.316 72.2335 178.371 72.001L178.398 72.042Z" fill="#79E0E8"/>
<path d="M179.396 71.563L178.398 72.0417C178.808 72.0417 179.245 72.0417 179.396 71.563Z" fill="#79E0E8"/>
<path d="M34.0596 306.112L33.759 306.399L33.9913 306.577L34.1143 306.167L34.0596 306.112Z" fill="#79E0E8"/>
<path d="M223.852 131.746L223.619 132.197L223.975 131.856L223.852 131.746Z" fill="#79E0E8"/>
<path d="M300.263 338.406V338.625C300.268 338.561 300.268 338.497 300.263 338.433V338.406Z" fill="#79E0E8"/>
<path d="M231.257 52.4551L230.929 52.7013C231.325 52.9201 231.134 52.5235 231.216 52.4141L231.257 52.4551Z" fill="#79E0E8"/>
<path d="M269.906 37.2314L269.961 37.3409L269.865 37.2725L269.906 37.2314Z" fill="#79E0E8"/>
<path d="M186.254 218.491L186.186 218.546L186.213 218.45L186.254 218.491Z" fill="#79E0E8"/>
<path d="M191.965 220.775L191.473 221.268L191.787 221.582L192.279 221.09C192.168 220.992 192.063 220.887 191.965 220.775Z" fill="#79E0E8"/>
<path d="M191.473 221.268L190.94 221.719L191.295 222.075L191.787 221.583L191.473 221.268Z" fill="#79E0E8"/>
<path d="M191.145 224.852H190.994L191.117 224.77L191.145 224.852Z" fill="#79E0E8"/>
<path d="M192.087 227.273L192.579 226.78L192.101 227.273H192.087Z" fill="#79E0E8"/>
<path d="M192.184 227.3L191.705 227.806L192.17 227.3H192.184Z" fill="#79E0E8"/>
<path d="M232.691 237.107L232.623 236.929L232.732 237.066L232.691 237.107Z" fill="#79E0E8"/>
<path d="M167.592 83.7637L167.155 84.2971L167.756 83.9415L167.592 83.7637Z" fill="#79E0E8"/>
<path d="M167.168 84.2974H166.977L167.141 84.188L167.168 84.2974Z" fill="#79E0E8"/>
<path d="M270.78 32.8271L270.63 33.0186H270.944L270.78 32.8271Z" fill="#79E0E8"/>
<path d="M178.89 92.1071L179.396 91.6284L178.917 92.1345L178.89 92.1071Z" fill="#79E0E8"/>
<path d="M156.402 254.724L156.621 254.492C156.621 254.492 156.484 254.492 156.457 254.492C156.444 254.555 156.444 254.62 156.457 254.683L156.402 254.724Z" fill="#79E0E8"/>
<path d="M156.389 254.71L155.911 255.23L156.43 254.751L156.389 254.71Z" fill="#79E0E8"/>
<path d="M147.099 257.651L147.017 257.775L147.071 257.61L147.099 257.651Z" fill="#79E0E8"/>
<path d="M103.53 262.548L103.64 262.466L103.558 262.575L103.53 262.548Z" fill="#79E0E8"/>
<path d="M246.886 135.726L246.831 135.658L246.927 135.685L246.886 135.726Z" fill="#79E0E8"/>
<path d="M269.975 16.0992L269.606 15.9487L269.729 16.3454L269.975 16.0992Z" fill="#79E0E8"/>
<path d="M278.731 12.7345L278.472 12.5566L278.636 12.8165L278.731 12.7345Z" fill="#79E0E8"/>
<path d="M248.799 11.2573L248.375 11.8181L248.963 11.4351L248.799 11.2573Z" fill="#79E0E8"/>
<path d="M258.662 3.48784H258.498L258.621 3.39209L258.662 3.48784Z" fill="#79E0E8"/>
<path d="M211.679 114.129L211.583 114.061L211.706 114.102L211.679 114.129Z" fill="#79E0E8"/>
</svg>
