<svg width="40" height="47" viewBox="0 0 40 47" fill="none" xmlns="http://www.w3.org/2000/svg">
<g opacity="0.5" clip-path="url(#clip0_568_4374)">
<path d="M11.6896 16.6398C11.0296 16.5498 10.4496 16.5098 9.89959 16.3798C7.30381 15.8071 4.9574 14.4238 3.19959 12.4298C2.02539 11.0742 1.04903 9.55912 0.299594 7.92977C0.227886 7.79028 0.164443 7.6467 0.109594 7.49977C0.0274004 7.36308 -0.0109145 7.20448 -0.000186189 7.04534C0.0105421 6.88621 0.0697977 6.73418 0.169594 6.60977C0.282703 6.4938 0.433498 6.42202 0.594829 6.40735C0.75616 6.39268 0.917427 6.43609 1.04959 6.52977C2.04959 7.07977 3.04959 7.62977 4.04959 8.23977C5.04959 8.84977 5.87959 9.46977 6.80959 10.0798C7.05959 10.2498 7.33959 10.3698 7.80959 10.5998C7.69959 9.75977 7.60959 9.09977 7.51959 8.43977C7.22959 6.66977 6.99959 4.89977 6.72959 3.11977C6.65959 2.59977 6.64959 2.11977 6.61959 1.54977C6.61959 1.33977 6.61959 1.12977 6.61959 0.919766C6.61959 0.479766 6.75959 0.0597663 7.21959 -0.0802338C7.39727 -0.134671 7.58709 -0.135226 7.76507 -0.08183C7.94306 -0.0284339 8.10123 0.0765181 8.21959 0.219766C8.68111 0.650952 9.10281 1.12286 9.47959 1.62977C10.1296 2.62977 10.6996 3.71977 11.2996 4.76977L12.0996 6.19977C12.4196 4.40977 12.6996 2.76977 13.0196 1.13977C13.1396 0.357677 13.1396 -0.438144 13.0196 -1.22023C13.0196 -1.54023 13.0196 -1.92023 13.4296 -1.98023C13.7288 -2.03643 14.0381 -1.9717 14.2896 -1.80023C14.7341 -1.42701 15.1156 -0.984689 15.4196 -0.490234C17.3312 2.58727 18.0098 6.27325 17.3196 9.82977C17.2817 9.98052 17.2582 10.1346 17.2496 10.2898C17.2496 10.2898 17.2996 10.3798 17.3796 10.4998C17.6564 10.4035 17.927 10.2899 18.1896 10.1598C19.4217 9.55855 20.7538 9.18907 22.1196 9.06977C24.475 8.77691 26.8632 8.89192 29.1796 9.40977C30.0019 9.594 30.8132 9.82436 31.6096 10.0998C33.4262 10.6913 35.0427 11.776 36.2788 13.2328C37.5148 14.6895 38.3218 16.4611 38.6096 18.3498C38.8651 19.5335 39.0421 20.7327 39.1396 21.9398C39.5172 26.1462 39.2713 30.3853 38.4096 34.5198C37.8996 36.7798 37.4896 39.0598 37.0696 41.3398C36.8825 42.5449 36.3271 43.6627 35.4796 44.5398C34.8264 45.2323 34.0177 45.7594 33.1205 46.0776C32.2233 46.3958 31.2632 46.496 30.3196 46.3698C29.1113 46.2523 27.9278 45.9523 26.8096 45.4798C21.7729 43.4095 17.1824 40.3877 13.2896 36.5798C12.6596 35.9498 12.0696 35.2698 11.4996 34.5798C9.61209 32.2163 8.44556 29.359 8.13959 26.3498C8.13959 26.1998 8.13959 26.0398 8.13959 25.8798C7.9129 24.4684 8.02301 23.0234 8.46095 21.6627C8.89889 20.3019 9.65225 19.064 10.6596 18.0498C10.9796 17.6898 11.2896 17.3398 11.5896 16.9798C11.6396 16.9398 11.6296 16.8798 11.6896 16.6398ZM11.4196 11.3798H11.3696L11.0496 10.7398C10.9096 10.3998 10.7496 10.0798 10.6296 9.73977C10.5509 9.44658 10.4875 9.14952 10.4396 8.84977C10.7596 9.16977 11.0896 9.46977 11.3896 9.84977C12.0296 10.5698 12.6596 11.3098 13.2896 12.0398C13.2196 11.7798 13.1796 11.5198 13.0896 11.2798C11.996 8.47911 10.713 5.75615 9.24959 3.12977C8.98763 2.67512 8.69704 2.23757 8.37959 1.81977C8.18001 1.60248 7.9662 1.3987 7.73959 1.20977C7.71125 1.5425 7.71125 1.87704 7.73959 2.20977C8.17959 4.47977 8.60959 6.74977 9.07959 9.00977C9.25674 10.0577 9.73642 11.031 10.4596 11.8098C10.8696 12.2198 11.2996 12.6098 11.7096 12.9998H11.6496C11.4396 12.4598 11.2396 11.9298 11.0296 11.3998L11.4196 11.3798ZM6.71959 12.5898L8.88959 13.2598C8.72775 13.0564 8.54694 12.8689 8.34959 12.6998C6.52293 11.3664 4.68293 10.0664 2.82959 8.79977C2.56114 8.65879 2.2839 8.5352 1.99959 8.42977C3.32831 11.0317 5.52512 13.087 8.20959 14.2398H8.43959H8.18959C7.98959 14.0298 7.78959 13.8098 7.57959 13.6098C7.36959 13.4098 6.89959 13.0098 6.57959 12.7098L6.71959 12.5898ZM38.0596 25.7698C38.0596 25.1098 38.0596 23.9498 37.9196 22.7698C37.7901 21.195 37.5698 19.6291 37.2596 18.0798C36.9017 16.0297 35.7929 14.1866 34.1496 12.9098C33.4737 12.4323 32.7538 12.0204 31.9996 11.6798C30.1567 10.8875 28.184 10.4401 26.1796 10.3598C24.3934 10.2332 22.5983 10.3646 20.8496 10.7498C20.1815 10.8974 19.5359 11.1328 18.9296 11.4498C17.7917 11.9957 16.7723 12.7602 15.9296 13.6998C15.2796 14.4898 14.3196 15.0098 14.1396 16.1598C14.1396 16.2698 13.9196 16.3598 13.7996 16.4598C13.5833 16.6018 13.3852 16.7697 13.2096 16.9598C12.2896 18.1798 11.3496 19.3898 10.4896 20.6498C9.70023 21.7859 9.30025 23.1472 9.34959 24.5298C9.33547 27.8817 10.4445 31.1418 12.4996 33.7898C12.9896 34.3998 13.4996 34.9898 14.0696 35.5598C17.8688 39.3066 22.3583 42.2814 27.2896 44.3198C28.0643 44.6538 28.8721 44.9052 29.6996 45.0698C30.9393 45.3753 32.2472 45.23 33.3896 44.6598C34.131 44.2662 34.763 43.6946 35.2291 42.9965C35.6951 42.2983 35.9805 41.4954 36.0596 40.6598C36.2796 39.2098 36.5496 37.7498 36.8996 36.3198C37.7417 32.8682 38.1317 29.3218 38.0596 25.7698ZM15.9996 9.22977C16.2729 8.63258 16.38 7.97273 16.3096 7.31977C16.2116 5.15889 15.699 3.03703 14.7996 1.06977C14.7096 0.879766 14.6196 0.689766 14.3596 0.809766C14.2496 1.47977 14.1096 2.14977 14.0296 2.80977C13.8996 3.90977 13.7696 4.99977 13.6996 6.09977C13.6432 6.75545 13.7824 7.41313 14.0996 7.98977C14.3896 7.40977 14.0296 6.72977 14.7496 6.26977L15.0196 7.73977H15.7296L15.9996 9.22977Z" fill="black"/>
<path d="M30.3697 24.3496C30.5497 24.3496 30.6697 24.3496 30.7397 24.3496C31.8531 25.0514 32.6603 26.148 32.9997 27.4196C33.2497 28.2396 32.9997 28.8296 32.4697 29.0296C32.1896 29.1103 31.8895 29.0845 31.6273 28.9571C31.3651 28.8297 31.1594 28.6097 31.0497 28.3396C30.742 27.7445 30.5006 27.1174 30.3297 26.4696C30.2593 26.1649 30.2391 25.8508 30.2697 25.5396C30.2897 25.1396 30.3397 24.7396 30.3697 24.3496Z" fill="black"/>
<path d="M19.8194 32.4399C21.1366 33.2386 22.0961 34.5132 22.4994 35.9999C22.5591 36.2565 22.5591 36.5234 22.4994 36.7799C22.4726 36.8953 22.4182 37.0025 22.3408 37.0922C22.2634 37.1818 22.1654 37.2513 22.0551 37.2946C21.9449 37.3379 21.8258 37.3538 21.708 37.3408C21.5903 37.3277 21.4775 37.2863 21.3794 37.2199C21.2454 37.1377 21.1212 37.0404 21.0094 36.9299C20.4919 36.3158 20.1168 35.5947 19.911 34.8183C19.7053 34.042 19.674 33.2298 19.8194 32.4399Z" fill="black"/>
<path d="M26.3595 29C27.2495 29.81 28.1795 30.59 29.0095 31.46C29.3374 31.8628 29.5699 32.3346 29.6895 32.84C29.7359 33.0218 29.7162 33.2142 29.6337 33.3828C29.5513 33.5514 29.4115 33.6851 29.2395 33.76C29.1041 33.843 28.9449 33.8782 28.7872 33.8601C28.6295 33.842 28.4824 33.7715 28.3695 33.66C27.5195 32.8 26.6895 31.96 26.7695 30.58C26.7695 30.12 26.3895 29.65 26.1895 29.18L26.3595 29ZM27.5495 31.62H27.5995H27.5395C27.5395 31.56 27.4795 31.5 27.5395 31.57C27.5995 31.64 27.5095 31.58 27.5495 31.64V31.62Z" fill="black"/>
<path d="M13.0494 22.5298C13.7932 23.1745 14.4163 23.9466 14.8894 24.8098C15.0733 25.1864 15.1884 25.5927 15.2294 26.0098C15.2595 26.1954 15.2241 26.3858 15.1292 26.5482C15.0344 26.7106 14.8859 26.8349 14.7094 26.8998C14.5406 26.972 14.3534 26.9896 14.1741 26.9502C13.9948 26.9107 13.8323 26.8162 13.7094 26.6798C13.6342 26.6045 13.564 26.5243 13.4994 26.4398C12.85 25.4182 12.5875 24.198 12.7594 22.9998C12.7894 22.8298 12.9294 22.7098 13.0494 22.5298Z" fill="black"/>
<path d="M23.74 31.4399C24.8228 31.9743 25.7366 32.7981 26.38 33.8199C26.5313 34.1357 26.6325 34.473 26.68 34.8199C26.7167 34.9763 26.6914 35.1407 26.6093 35.2788C26.5273 35.4168 26.3949 35.5176 26.24 35.5599C25.9922 35.6091 25.7349 35.5627 25.52 35.4299C25.2991 35.3071 25.1186 35.1231 25 34.8999C24.53 33.8999 24.1 32.8999 23.68 31.8999C23.63 31.7699 23.72 31.5999 23.74 31.4399Z" fill="black"/>
<path d="M25.9395 17.7798C26.8358 18.0788 27.6388 18.6061 28.2695 19.3098C28.5575 19.6779 28.7777 20.0944 28.9195 20.5398C28.9966 20.7398 28.9964 20.9614 28.9187 21.1611C28.841 21.3609 28.6915 21.5245 28.4995 21.6198C28.3275 21.6754 28.1438 21.6833 27.9677 21.6428C27.7916 21.6023 27.6298 21.5149 27.4995 21.3898C27.4603 21.3557 27.4236 21.3189 27.3895 21.2798C26.604 20.2625 26.1036 19.0545 25.9395 17.7798Z" fill="black"/>
<path d="M17.2793 21.8096C18.0693 22.5096 18.5893 22.9496 19.0693 23.4096C19.4551 23.755 19.8067 24.1368 20.1193 24.5496C20.3009 24.8534 20.4072 25.1963 20.4293 25.5496C20.4315 25.6672 20.4018 25.7832 20.3433 25.8853C20.2848 25.9873 20.1996 26.0716 20.097 26.1291C19.9944 26.1865 19.878 26.2151 19.7605 26.2116C19.6429 26.2082 19.5284 26.1729 19.4293 26.1096C19.3375 26.0611 19.2505 26.0042 19.1693 25.9396C18.1363 24.7856 17.4773 23.3457 17.2793 21.8096Z" fill="black"/>
<path d="M23.9998 17.2796C23.9998 17.9396 23.4998 18.2796 22.9998 18.1696C22.7551 18.0849 22.5281 17.9561 22.3298 17.7896C21.691 17.2384 21.2285 16.5116 20.9998 15.6996C20.9533 15.4529 20.9958 15.1978 21.1198 14.9796C21.2798 14.7296 21.5898 14.8096 21.8198 14.9196C22.5293 15.2595 23.1339 15.7846 23.5698 16.4396C23.7458 16.7016 23.8901 16.9836 23.9998 17.2796ZM21.8698 16.1296H21.8098L21.7598 15.9996L21.8698 16.1296Z" fill="black"/>
<path d="M21.7998 20.6396C22.9234 21.0073 23.8825 21.7575 24.5098 22.7596C24.6851 23.065 24.7845 23.4079 24.7998 23.7596C24.7954 23.8743 24.7612 23.9858 24.7005 24.0832C24.6398 24.1806 24.5548 24.2605 24.4539 24.315C24.3529 24.3695 24.2395 24.3968 24.1248 24.3941C24.0101 24.3914 23.8981 24.3588 23.7998 24.2996C23.7062 24.2511 23.6216 24.1868 23.5498 24.1096C22.6389 23.1496 22.0303 21.9429 21.7998 20.6396Z" fill="black"/>
<path d="M37.0593 30.6796C37.0593 28.3196 37.0593 25.9596 37.0593 23.5996C37.0904 21.5933 36.5493 19.6196 35.4993 17.9096C35.2193 17.4696 34.9893 16.9996 34.7393 16.5396L34.9193 16.3696C36.4712 17.984 37.3476 20.1304 37.3693 22.3696C37.5277 24.7848 37.5009 27.2085 37.2893 29.6196C37.2123 29.9715 37.1154 30.3187 36.9993 30.6596L37.0593 30.6796Z" fill="black"/>
<path d="M18.0793 37.9398C17.827 37.8976 17.5835 37.8131 17.3593 37.6898C15.4964 36.2236 13.9113 34.4353 12.6793 32.4098C12.3592 31.925 12.1508 31.375 12.0693 30.7998C12.2093 30.7998 12.3393 30.7998 12.3693 30.8598C13.8007 33.2515 15.5537 35.4352 17.5793 37.3498C17.7549 37.5404 17.9154 37.7443 18.0593 37.9598L18.0793 37.9398Z" fill="black"/>
<path d="M27.2496 43.3198C25.6821 42.8692 24.2453 42.0497 23.0596 40.9298C22.7996 40.7198 22.4096 40.5298 22.5696 40.0098C22.7038 40.0651 22.8313 40.1356 22.9496 40.2198C23.9174 41.1114 24.9963 41.8744 26.1596 42.4898C26.5596 42.7198 27.0496 42.8398 27.2296 43.3498L27.2496 43.3198Z" fill="black"/>
<path d="M30.2996 43.4497C28.8829 42.5844 27.7095 41.3732 26.8896 39.9297C28.2624 40.833 29.4784 41.9544 30.4896 43.2497L30.2996 43.4497Z" fill="black"/>
<path d="M26.6895 11.6396C28.0693 11.7869 29.3796 12.3207 30.4695 13.1796C29.1299 12.8886 27.851 12.3676 26.6895 11.6396Z" fill="black"/>
<path d="M10.7396 25.9196C10.3446 24.5985 10.3446 23.1907 10.7396 21.8696C10.8108 21.8851 10.8809 21.9051 10.9496 21.9296C10.986 21.9645 11.0105 22.01 11.0196 22.0596C10.9296 23.3396 10.8296 24.6296 10.7396 25.9196Z" fill="black"/>
<path d="M15 16.6C15.6483 15.659 16.3922 14.7877 17.22 14C17.0928 14.5827 16.8236 15.125 16.4363 15.5786C16.049 16.0322 15.5556 16.3831 15 16.6Z" fill="black"/>
<path d="M34.6599 42.5696C34.6315 41.3338 34.9577 40.1158 35.5999 39.0596C35.538 40.2828 35.2177 41.4791 34.6599 42.5696Z" fill="black"/>
<path d="M29.5594 41C30.5875 41.628 31.4297 42.5185 31.9994 43.58C30.9845 42.9463 30.0906 42.137 29.3594 41.19L29.5594 41Z" fill="black"/>
<path d="M14.8994 33.5195C15.0727 33.6291 15.2366 33.7528 15.3894 33.8895C15.8594 34.3595 16.3094 34.8895 16.8194 35.3895C15.9094 35.1795 15.4894 34.7495 14.8994 33.5295V33.5195Z" fill="black"/>
<path d="M31.4297 40.2197C32.1697 40.3797 32.4297 40.9897 32.7497 41.5297C31.9997 41.4097 31.6697 40.8597 31.4297 40.2197Z" fill="black"/>
<path d="M31.2793 41.8296C31.0313 41.6969 30.814 41.5135 30.6417 41.2912C30.4694 41.0689 30.3459 40.8128 30.2793 40.5396C30.5325 40.6435 30.7616 40.7983 30.9525 40.9944C31.1435 41.1905 31.2921 41.4237 31.3893 41.6796L31.2793 41.8296Z" fill="black"/>
<path d="M34.7294 16.5399C34.3105 16.1862 34.019 15.705 33.8994 15.1699C34.3688 15.4241 34.7257 15.8452 34.8994 16.3499L34.7294 16.5399Z" fill="black"/>
<path d="M16.4995 17.3999C16.519 17.1207 16.6178 16.8528 16.7843 16.6279C16.9508 16.4029 17.1781 16.2301 17.4395 16.1299C17.3923 16.4071 17.276 16.668 17.1012 16.8882C16.9263 17.1085 16.6987 17.281 16.4395 17.3899L16.4995 17.3999Z" fill="black"/>
<path d="M36.4096 34.7698L36.4996 33.5898C36.6162 33.7668 36.6688 33.9783 36.6488 34.1892C36.6288 34.4002 36.5374 34.5979 36.3896 34.7498L36.4096 34.7698Z" fill="black"/>
<path d="M30.8095 43.5698L31.6895 44.2598C31.4887 44.2828 31.2858 44.2445 31.1073 44.1499C30.9288 44.0553 30.7831 43.9088 30.6895 43.7298L30.8095 43.5698Z" fill="black"/>
<path d="M13.9395 32.2697C14.115 32.3605 14.2659 32.4925 14.3791 32.6545C14.4924 32.8165 14.5645 33.0036 14.5895 33.1997C14.3863 33.1315 14.2138 32.9938 14.1022 32.8109C13.9906 32.628 13.9471 32.4115 13.9795 32.1997L13.9395 32.2697Z" fill="black"/>
<path d="M36.3893 34.75V35.75C36.272 35.6196 36.207 35.4504 36.207 35.275C36.207 35.0996 36.272 34.9304 36.3893 34.8V34.75Z" fill="black"/>
<path d="M28.8301 13.5898C28.9233 13.5845 29.0168 13.5845 29.1101 13.5898C29.1996 13.6271 29.2865 13.6705 29.3701 13.7198C29.1001 13.9298 28.9501 13.8298 28.8501 13.5498L28.8301 13.5898Z" fill="black"/>
<path d="M28.8498 13.5698H28.5898L28.8298 13.6298L28.8498 13.5698Z" fill="black"/>
<path d="M13.9995 32.2498L13.7695 32.1198L13.9095 32.0098L13.9695 32.2698L13.9995 32.2498Z" fill="black"/>
<path d="M16.4699 17.3696L16.4199 17.4496L16.4999 17.3996L16.4699 17.3696Z" fill="black"/>
<path d="M17.4395 16.1298L17.7595 15.8198L17.4495 16.1398L17.4395 16.1298Z" fill="black"/>
<path d="M17.7595 15.82L17.8195 15.71L17.7295 15.79L17.7595 15.82Z" fill="black"/>
<path d="M33.8996 15.1696L33.8096 15.0996L33.8796 15.1896L33.8996 15.1696Z" fill="black"/>
<path d="M30.6498 43.73L30.2998 43.44L30.4898 43.25L30.8098 43.57L30.6498 43.73Z" fill="black"/>
<path d="M31.6991 42L31.8091 42.19L31.6191 42.09L31.6991 42Z" fill="black"/>
<path d="M31.4293 41.6797L31.6993 42.0397L31.6193 42.1297L31.2793 41.8297L31.4293 41.6797Z" fill="black"/>
<path d="M29.3797 41.19L29.2197 41H29.5597L29.3797 41.19Z" fill="black"/>
<path d="M14.5901 33.1997L14.9001 33.5197L14.5801 33.2097L14.5901 33.1997Z" fill="black"/>
<path d="M26.1895 29.1996V28.8896L26.3895 29.0196L26.1895 29.1996Z" fill="black"/>
<path d="M11.1093 10.73V11.39C10.6693 11.14 10.6693 11.05 11.1093 10.73Z" fill="black"/>
<path d="M10.4794 8.83955L10.3994 8.78955L10.4694 8.84955L10.4794 8.83955Z" fill="black"/>
<path d="M6.57953 12.7295L6.51953 12.5195L6.71953 12.5895L6.57953 12.7295Z" fill="black"/>
</g>
<defs>
<clipPath id="clip0_568_4374">
<rect width="39.35" height="48.42" fill="white" transform="translate(0 -2)"/>
</clipPath>
</defs>
</svg>
