<svg width="55" height="19" viewBox="0 0 55 19" fill="none" xmlns="http://www.w3.org/2000/svg">
<path d="M54.634 3.80613C54.634 3.1328 54.3665 2.48704 53.8904 2.01093C53.4143 1.53481 52.7686 1.26733 52.0952 1.26733H3.42551C2.75218 1.26733 2.10643 1.53481 1.63031 2.01093C1.1542 2.48704 0.886719 3.1328 0.886719 3.80613V15.7032C0.886719 16.3765 1.1542 17.0223 1.63031 17.4984C2.10643 17.9745 2.75218 18.242 3.42551 18.242H45.7198L54.634 8.32017V3.80613Z" fill="#00BB8C"/>
<path d="M45.8795 18.6061H3.42588C3.04198 18.6083 2.66143 18.5346 2.30617 18.389C1.95091 18.2435 1.62797 18.0291 1.35598 17.7582C1.08399 17.4872 0.868317 17.1651 0.721405 16.8105C0.574494 16.4558 0.499248 16.0755 0.500006 15.6916V3.80594C0.50151 3.03645 0.807855 2.29891 1.35197 1.75479C1.89608 1.21068 2.63362 0.904336 3.40311 0.902832H52.0728C52.8423 0.904336 53.5799 1.21068 54.124 1.75479C54.6681 2.29891 54.9744 3.03645 54.9759 3.80594V8.46798L45.8795 18.6061ZM3.42588 1.62007C3.13958 1.62082 2.85622 1.67795 2.592 1.7882C2.32777 1.89846 2.08785 2.05967 1.88593 2.26265C1.68401 2.46563 1.52405 2.70639 1.41517 2.97118C1.3063 3.23598 1.25065 3.51963 1.2514 3.80594V15.703C1.25589 16.2772 1.48679 16.8265 1.89394 17.2316C2.30109 17.6366 2.8516 17.8646 3.42588 17.8661H45.5494L54.2644 8.18906V3.80594C54.2629 3.22969 54.0333 2.67748 53.6258 2.27001C53.2184 1.86254 52.6661 1.63296 52.0899 1.63145L3.42588 1.62007Z" fill="#0E9E78"/>
<path d="M45.7207 18.2305H52.0961C52.7695 18.2305 53.4152 17.963 53.8913 17.4869C54.3675 17.0108 54.6349 16.365 54.6349 15.6917V8.32007L45.7207 18.2305Z" fill="#0E9E78"/>
<path d="M52.0955 18.6061H44.9004L54.9986 7.36938V15.6916C54.9994 16.0736 54.9249 16.452 54.7794 16.8052C54.6339 17.1584 54.4203 17.4795 54.1507 17.7501C53.8811 18.0208 53.5609 18.2356 53.2083 18.3825C52.8556 18.5294 52.4775 18.6054 52.0955 18.6061ZM46.5341 17.8661H52.0955C52.6718 17.8646 53.224 17.635 53.6315 17.2276C54.0389 16.8201 54.2685 16.2679 54.27 15.6916V9.27063L46.5341 17.8661Z" fill="#0E9E78"/>
<path d="M14.2924 9.3276C14.7293 9.29178 15.1658 9.40189 15.5334 9.64068C15.6697 9.75778 15.7763 9.90547 15.8446 10.0717C15.9128 10.2379 15.9408 10.4179 15.9261 10.597C15.9329 10.905 15.8434 11.2075 15.67 11.4622C15.4988 11.7155 15.2575 11.9133 14.9755 12.0315C14.6574 12.1603 14.3168 12.2241 13.9737 12.2193H10.7461V6.58388H13.9509C14.4107 6.567 14.8626 6.70757 15.2317 6.98235C15.3952 7.10981 15.5259 7.27441 15.613 7.46251C15.7001 7.65061 15.7411 7.85677 15.7326 8.06389C15.7383 8.22487 15.7098 8.38524 15.649 8.53439C15.5882 8.68354 15.4964 8.81809 15.3797 8.92913C15.0736 9.17655 14.685 9.29862 14.2924 9.27067V9.3276ZM13.4101 8.83806C13.5494 8.84702 13.6872 8.80448 13.7972 8.71852C13.8426 8.67888 13.8789 8.62984 13.9035 8.5748C13.928 8.51975 13.9403 8.46002 13.9395 8.39974C13.9417 8.33788 13.9295 8.27635 13.9038 8.22003C13.8781 8.16371 13.8397 8.11415 13.7915 8.07528C13.6803 7.99648 13.5463 7.95647 13.4101 7.96143H12.6246V8.83806H13.4101ZM13.4898 10.8076C13.5611 10.8125 13.6327 10.803 13.7002 10.7795C13.7677 10.756 13.8297 10.7191 13.8826 10.671C13.9755 10.5749 14.0266 10.446 14.0249 10.3124C14.0269 10.2508 14.014 10.1896 13.9873 10.1341C13.9605 10.0786 13.9207 10.0304 13.8712 9.99361C13.7597 9.91556 13.6259 9.87563 13.4898 9.87976H12.6246V10.8076H13.4898Z" fill="#E0FFE7"/>
<path d="M20.5026 12.2022L19.1137 10.54H19.0852V12.2022H17.2295V6.56676H20.3831C20.9286 6.54383 21.4609 6.73833 21.8631 7.10754C22.0509 7.29031 22.1986 7.51027 22.2966 7.75335C22.3946 7.99643 22.4408 8.25728 22.4323 8.51924C22.4372 8.92302 22.3223 9.31918 22.1022 9.65772C21.8834 9.98808 21.561 10.2364 21.1857 10.3636L22.6999 12.2022H20.5026ZM19.9334 9.13402C20.1116 9.14472 20.2877 9.09008 20.4286 8.98032C20.4869 8.93089 20.5331 8.86876 20.5637 8.79871C20.5943 8.72866 20.6084 8.65253 20.6051 8.57617C20.6085 8.50391 20.5942 8.43191 20.5634 8.36643C20.5327 8.30095 20.4864 8.24398 20.4286 8.20047C20.2842 8.0987 20.1097 8.04857 19.9334 8.05816H19.0852V9.13402H19.9334Z" fill="#E0FFE7"/>
<path d="M28.9615 7.2898C29.2409 7.56188 29.4629 7.88717 29.6145 8.24646C29.7661 8.60575 29.8442 8.99177 29.8442 9.38174C29.8442 9.77171 29.7661 10.1577 29.6145 10.517C29.4629 10.8763 29.2409 11.2016 28.9615 11.4737C28.3657 12.0221 27.5855 12.3266 26.7756 12.3266C25.9658 12.3266 25.1856 12.0221 24.5898 11.4737C24.3024 11.2081 24.0747 10.8845 23.9216 10.5244C23.7686 10.1643 23.6936 9.7758 23.7018 9.38459C23.6953 8.99277 23.771 8.60395 23.924 8.24316C24.0769 7.88237 24.3037 7.55761 24.5898 7.2898C25.1753 6.72918 25.9595 6.42409 26.77 6.44163C27.5835 6.42542 28.3708 6.7301 28.9615 7.2898ZM27.6352 10.3124C27.8665 10.06 27.9892 9.72672 27.9767 9.38459C27.9834 9.21595 27.9566 9.04768 27.898 8.88942C27.8394 8.73116 27.7501 8.58605 27.6352 8.46242C27.5239 8.34883 27.391 8.25858 27.2444 8.19697C27.0978 8.13536 26.9404 8.10363 26.7813 8.10363C26.6223 8.10363 26.4649 8.13536 26.3183 8.19697C26.1716 8.25858 26.0388 8.34883 25.9275 8.46242C25.8065 8.58355 25.7105 8.72734 25.6451 8.88556C25.5796 9.04379 25.546 9.21336 25.5461 9.38459C25.5345 9.72555 25.6548 10.0579 25.8819 10.3124C25.9932 10.426 26.1261 10.5163 26.2727 10.5779C26.4193 10.6395 26.5768 10.6712 26.7358 10.6712C26.8948 10.6712 27.0523 10.6395 27.1989 10.5779C27.3455 10.5163 27.4784 10.426 27.5897 10.3124H27.6352Z" fill="#E0FFE7"/>
<path d="M37.1252 10.1358C37.0797 10.4525 36.9718 10.757 36.8076 11.0316C36.6435 11.3062 36.4263 11.5454 36.1689 11.7354C35.5813 12.1394 34.8774 12.3394 34.1651 12.3046C33.7632 12.3147 33.3632 12.2444 32.9888 12.0978C32.6144 11.9512 32.2731 11.7312 31.985 11.4507C31.6969 11.1854 31.4683 10.8621 31.3142 10.502C31.1602 10.1419 31.0842 9.75324 31.0913 9.36165C31.0859 8.96946 31.1626 8.58049 31.3166 8.21973C31.4705 7.85897 31.6982 7.53439 31.985 7.26686C32.5705 6.70625 33.3547 6.40116 34.1651 6.4187C34.8559 6.3999 35.535 6.59906 36.1062 6.98794C36.3717 7.16607 36.5983 7.39609 36.7724 7.66415C36.9465 7.9322 37.0646 8.23274 37.1195 8.54764L35.2524 8.96888C35.2278 8.70397 35.1 8.45936 34.8965 8.28789C34.6931 8.11642 34.4304 8.03183 34.1651 8.05241C34.0054 8.04868 33.8467 8.07985 33.7002 8.14375C33.5537 8.20766 33.4229 8.30276 33.317 8.42241C33.192 8.54839 33.0946 8.69895 33.0309 8.86455C32.9672 9.03016 32.9387 9.20719 32.947 9.38442C32.9413 9.55304 32.9697 9.72107 33.0303 9.87852C33.091 10.036 33.1826 10.1796 33.2999 10.3009C33.4464 10.4523 33.632 10.5602 33.8362 10.6123C34.0403 10.6645 34.2549 10.6591 34.4561 10.5965C34.6573 10.534 34.8372 10.4168 34.9758 10.2581C35.1144 10.0994 35.2062 9.9053 35.241 9.6975L37.1252 10.1358Z" fill="#E0FFE7"/>
<path d="M43.8705 9.64054C43.8901 9.99987 43.8361 10.3594 43.7118 10.6971C43.5875 11.0348 43.3955 11.3436 43.1475 11.6044C42.8956 11.8527 42.5953 12.0466 42.2653 12.1739C41.9353 12.3012 41.5826 12.3592 41.2292 12.3444C40.8685 12.3607 40.5081 12.3052 40.1691 12.1811C39.83 12.057 39.5189 11.8668 39.2539 11.6215C39.0004 11.3639 38.8036 11.0561 38.6761 10.7179C38.5487 10.3796 38.4934 10.0185 38.5139 9.65762V6.58374H40.381V9.65762C40.3599 9.93481 40.4409 10.2102 40.6087 10.4318C40.6855 10.52 40.7811 10.5899 40.8885 10.6362C40.9959 10.6826 41.1123 10.7041 41.2292 10.6993C41.3385 10.7031 41.4472 10.6808 41.5461 10.6343C41.6451 10.5878 41.7316 10.5184 41.7984 10.4318C41.9549 10.2053 42.0292 9.93214 42.0091 9.65762V6.58374H43.8761L43.8705 9.64054Z" fill="#E0FFE7"/>
</svg>
