<svg width="21" height="20" viewBox="0 0 21 20" fill="none" xmlns="http://www.w3.org/2000/svg">
<g clip-path="url(#clip0_236_1977)">
<path d="M19.25 1.87305L14.2456 1.87307V0.627441C14.2456 0.282129 13.9659 0.00244141 13.6206 0.00244141C13.2753 0.00244141 12.9956 0.282129 12.9956 0.627441V1.87275H7.99563V0.627441C7.99563 0.282129 7.71594 0.00244141 7.37063 0.00244141C7.02531 0.00244141 6.74563 0.282129 6.74563 0.627441V1.87275H1.75C1.05969 1.87275 0.5 2.43244 0.5 3.12275V18.7478C0.5 19.438 1.05969 19.9978 1.75 19.9978H19.25C19.9403 19.9978 20.5 19.438 20.5 18.7478V3.12275C20.5 2.43273 19.9403 1.87305 19.25 1.87305ZM19.25 18.7478H1.75V3.12275H6.74563V3.75244C6.74563 4.09773 7.02531 4.37744 7.37063 4.37744C7.71594 4.37744 7.99563 4.09773 7.99563 3.75244V3.12307H12.9956V3.75275C12.9956 4.09807 13.2753 4.37775 13.6206 4.37775C13.9659 4.37775 14.2456 4.09807 14.2456 3.75275V3.12307H19.25V18.7478ZM14.875 9.99805H16.125C16.47 9.99805 16.75 9.71805 16.75 9.37305V8.12305C16.75 7.77805 16.47 7.49805 16.125 7.49805H14.875C14.53 7.49805 14.25 7.77805 14.25 8.12305V9.37305C14.25 9.71805 14.53 9.99805 14.875 9.99805ZM14.875 14.9977H16.125C16.47 14.9977 16.75 14.718 16.75 14.3727V13.1227C16.75 12.7777 16.47 12.4977 16.125 12.4977H14.875C14.53 12.4977 14.25 12.7777 14.25 13.1227V14.3727C14.25 14.7184 14.53 14.9977 14.875 14.9977ZM11.125 12.4977H9.875C9.53 12.4977 9.25 12.7777 9.25 13.1227V14.3727C9.25 14.718 9.53 14.9977 9.875 14.9977H11.125C11.47 14.9977 11.75 14.718 11.75 14.3727V13.1227C11.75 12.778 11.47 12.4977 11.125 12.4977ZM11.125 7.49805H9.875C9.53 7.49805 9.25 7.77805 9.25 8.12305V9.37305C9.25 9.71805 9.53 9.99805 9.875 9.99805H11.125C11.47 9.99805 11.75 9.71805 11.75 9.37305V8.12305C11.75 7.77773 11.47 7.49805 11.125 7.49805ZM6.125 7.49805H4.875C4.53 7.49805 4.25 7.77805 4.25 8.12305V9.37305C4.25 9.71805 4.53 9.99805 4.875 9.99805H6.125C6.47 9.99805 6.75 9.71805 6.75 9.37305V8.12305C6.75 7.77773 6.47 7.49805 6.125 7.49805ZM6.125 12.4977H4.875C4.53 12.4977 4.25 12.7777 4.25 13.1227V14.3727C4.25 14.718 4.53 14.9977 4.875 14.9977H6.125C6.47 14.9977 6.75 14.718 6.75 14.3727V13.1227C6.75 12.778 6.47 12.4977 6.125 12.4977Z" fill="#616161"/>
</g>
<defs>
<clipPath id="clip0_236_1977">
<rect width="20" height="20" fill="white" transform="translate(0.5)"/>
</clipPath>
</defs>
</svg>
