<svg width="32" height="32" viewBox="0 0 32 32" fill="none" xmlns="http://www.w3.org/2000/svg">
<path d="M26 4H6C5.46957 4 4.96086 4.21071 4.58579 4.58579C4.21071 4.96086 4 5.46957 4 6V26C4 26.5304 4.21071 27.0391 4.58579 27.4142C4.96086 27.7893 5.46957 28 6 28H26C26.5304 28 27.0391 27.7893 27.4142 27.4142C27.7893 27.0391 28 26.5304 28 26V6C28 5.46957 27.7893 4.96086 27.4142 4.58579C27.0391 4.21071 26.5304 4 26 4Z" stroke="#9B9B9B" stroke-linejoin="round"/>
<path d="M8.95996 19.89L12.7313 16.1187L15.6566 19.0367L22.6666 12" stroke="#9B9B9B" stroke-linecap="round" stroke-linejoin="round"/>
<path d="M17.333 12H22.6663V17.3333" stroke="#9B9B9B" stroke-linecap="round" stroke-linejoin="round"/>
</svg>
