<svg width="84" height="101" viewBox="0 0 84 101" fill="none" xmlns="http://www.w3.org/2000/svg">
<g opacity="0.5" clip-path="url(#clip0_568_4201)">
<path d="M51.6297 94.23C51.4435 93.9811 51.3125 93.6955 51.2452 93.392C51.178 93.0886 51.1761 92.7743 51.2397 92.47C51.3297 90.73 51.4597 89 51.6197 87.27C51.7097 86.27 51.8697 85.18 52.0297 84.14C52.1097 83.67 52.2697 83.22 52.3897 82.77C52.8597 82.85 52.7597 83.15 52.7697 83.35C52.8252 85.3987 52.6845 87.4481 52.3497 89.47C52.1197 91.07 51.8597 92.66 51.6097 94.25L51.6297 94.23Z" fill="black"/>
<path d="M49.7705 94.0002C50.0905 91.7669 50.4238 89.5302 50.7705 87.2902C50.7705 87.2902 50.8805 87.2902 51.0805 87.2002C51.2159 89.5405 50.7657 91.8777 49.7705 94.0002Z" fill="black"/>
<path d="M48.3906 95.0001C48.8606 93.4601 48.7906 91.7701 49.3906 90.1201C49.5606 90.3201 49.7006 90.4101 49.6906 90.4801C49.4906 91.8301 49.2806 93.1701 49.0506 94.4801C48.9833 94.711 48.8749 94.9278 48.7306 95.1201C48.7306 95.1201 48.6206 95.1201 48.5706 95.1201C48.5206 95.1201 48.4606 95.1201 48.3906 95.0001Z" fill="black"/>
<path d="M36.0007 94.9202C35.7302 93.6949 35.7302 92.4255 36.0007 91.2002C36.5607 92.2202 36.5807 93.0902 36.0007 94.9202Z" fill="black"/>
<path d="M37.5506 92.48C37.7063 92.8258 37.7868 93.2007 37.7868 93.58C37.7868 93.9592 37.7063 94.3341 37.5506 94.68C36.8606 93.84 37.6106 93.17 37.5506 92.48Z" fill="black"/>
<path d="M38.7405 92.8704V94.2104H38.6305L38.5205 92.8604L38.7405 92.8704Z" fill="black"/>
<path d="M18.3602 45.6502C18.7835 46.2681 19.3403 46.783 19.9894 47.1569C20.6385 47.5307 21.3633 47.754 22.1102 47.8102C22.9102 47.9402 23.7002 48.0802 24.5002 48.2402C24.6994 48.305 24.8906 48.3922 25.0702 48.5001C25.1702 48.9501 24.8902 49.0401 24.6702 49.1101C23.5888 49.5161 22.4212 49.6374 21.2795 49.4623C20.1378 49.2871 19.0602 48.8216 18.1502 48.1101C17.4982 47.5444 16.714 47.1523 15.8702 46.9701C15.2491 46.861 14.6819 46.5481 14.2582 46.081C13.8346 45.6138 13.5784 45.019 13.5302 44.3901C13.4654 43.9599 13.4353 43.5252 13.4402 43.0901C13.4581 42.2718 13.3084 41.4585 13.0002 40.7001C12.8187 40.1098 12.7178 39.4976 12.7002 38.8801C12.7002 38.4501 12.7502 38.0101 12.7002 37.5901C12.5002 36.3701 12.1602 35.9501 10.9102 35.8302C9.55128 35.5931 8.27476 35.0151 7.2002 34.1502C6.0002 33.3302 4.7602 32.4201 3.5402 31.5601C2.61588 30.9033 1.98159 29.9142 1.7702 28.8001C1.5948 27.9542 1.23265 27.1582 0.710195 26.4701C0.365221 25.9849 0.134711 25.4277 0.0359868 24.8406C-0.0627376 24.2534 -0.0271089 23.6516 0.140195 23.0801C0.459857 21.3423 1.43778 19.7948 2.8702 18.7601C3.92279 17.9837 4.80156 16.996 5.4502 15.8601C5.6402 15.5301 5.8502 15.2201 6.0502 14.9101C6.7453 13.7808 7.80291 12.9206 9.0502 12.4701C11.6171 11.5116 14.0907 10.32 16.4402 8.91015C17.1901 8.46266 18.0381 8.2052 18.9102 8.16015C19.7702 8.10015 20.6302 7.91015 21.5402 7.78015C22.1613 6.27328 23.1151 4.92636 24.3302 3.84015C25.9269 2.16439 28.0396 1.0728 30.3302 0.740148C31.4145 0.485232 32.5266 0.367644 33.6402 0.390148C34.0145 0.425901 34.3922 0.385071 34.7502 0.270148C35.2724 0.0687536 35.8306 -0.022759 36.3898 0.00132975C36.949 0.0254184 37.4972 0.164591 38.0002 0.410148C38.2338 0.503821 38.4856 0.543482 38.7366 0.526166C38.9877 0.508849 39.2317 0.435003 39.4502 0.310148C39.9889 0.0479354 40.6032 -0.0145694 41.1838 0.133762C41.7643 0.282094 42.2733 0.631635 42.6202 1.12015C43.1135 1.68802 43.7821 2.07511 44.5202 2.22015C44.9997 2.34664 45.4707 2.50363 45.9302 2.69015C46.9641 3.15179 48.132 3.21588 49.2102 2.87015C50.3575 2.58804 51.5445 2.5035 52.7202 2.62015C53.0336 2.63514 53.3406 2.71381 53.6225 2.85135C53.9045 2.98889 54.1555 3.18243 54.3602 3.42015C54.6182 3.6815 54.9325 3.88043 55.2791 4.00175C55.6258 4.12307 55.9955 4.16356 56.3602 4.12015C57.7957 3.95992 59.2415 4.31428 60.4402 5.12015C60.6347 5.27504 60.8596 5.38746 61.1002 5.45015C62.4871 5.60034 63.8039 6.13744 64.9002 7.00015C65.1402 7.20015 65.6102 7.16015 65.9802 7.20015C66.9802 7.31015 67.9802 7.36015 68.9802 7.52015C69.9802 7.6331 70.9245 8.0388 71.6948 8.68635C72.4651 9.3339 73.0271 10.1945 73.3102 11.1601C73.3102 11.3401 73.4102 11.5201 73.4702 11.7001C73.5595 12.0959 73.7671 12.4552 74.0653 12.7303C74.3636 13.0053 74.7385 13.1831 75.1402 13.2401C76.47 13.5382 77.7126 14.1406 78.7702 15.0001C79.4779 15.4609 80.0633 16.0865 80.4761 16.8233C80.8889 17.56 81.1168 18.386 81.1402 19.2301C81.189 20.4123 81.4962 21.5694 82.0402 22.6201C82.8417 24.1812 83.2111 25.9282 83.1102 27.6801C82.97 28.9776 83.0717 30.2898 83.4102 31.5501C83.5342 32.0057 83.5444 32.4847 83.4398 32.945C83.3351 33.4054 83.1189 33.833 82.8102 34.1901C82.6732 34.3984 82.5045 34.584 82.3102 34.7402C81.7904 35.0347 81.3905 35.5024 81.1804 36.0616C80.9702 36.6209 80.9631 37.2362 81.1602 37.8001C81.2664 38.2878 81.2423 38.7948 81.0902 39.2701C80.8211 40.494 80.7268 41.7498 80.8102 43.0001C80.8358 43.6688 80.799 44.3384 80.7002 45.0001C80.6309 45.5281 80.4024 46.0224 80.0451 46.4173C79.6878 46.8121 79.2187 47.0887 78.7002 47.2101C78.1002 47.3701 77.5102 47.5501 76.9602 47.7101C76.8345 47.8803 76.7366 48.0693 76.6702 48.2701C76.2526 50.4834 75.1384 52.5052 73.4902 54.0401C73.1957 54.3575 72.9466 54.7143 72.7502 55.1001C72.2135 55.9774 71.4236 56.6714 70.4847 57.0909C69.5457 57.5104 68.5017 57.6357 67.4902 57.4501C66.8902 57.3401 66.2602 57.3301 65.6502 57.2801C65.2302 57.2801 64.8002 57.2301 64.3302 57.2001C64.6313 56.6917 65.0558 56.2674 65.5645 55.9668C66.0732 55.6661 66.6496 55.4987 67.2402 55.4801C67.4902 55.4801 67.7302 55.5502 67.9802 55.5602C68.5938 55.6418 69.2178 55.5366 69.7708 55.2583C70.3238 54.98 70.7801 54.5416 71.0802 54.0001C71.2905 53.5376 71.6055 53.1302 72.0002 52.8102C72.9444 51.9856 73.6926 50.9607 74.1902 49.8102C74.3968 49.3571 74.5123 48.8678 74.5302 48.3701C74.5695 47.6891 74.8332 47.0402 75.28 46.5246C75.7268 46.0091 76.3316 45.6559 77.0002 45.5201C78.8102 45.0201 78.7602 44.9701 78.8402 43.0901C78.8402 41.9202 79.0702 40.7501 79.1502 39.5701C79.2278 38.9057 79.2278 38.2346 79.1502 37.5701C78.9916 36.8987 79.0309 36.1957 79.2634 35.5462C79.4958 34.8967 79.9115 34.3284 80.4602 33.9101C80.6093 33.7976 80.7497 33.6739 80.8802 33.5401C81.125 33.3406 81.299 33.0675 81.3764 32.7613C81.4539 32.4551 81.4307 32.1321 81.3102 31.8401C80.8702 30.6107 80.743 29.291 80.9402 28.0001C81.0721 26.5009 80.8174 24.9928 80.2002 23.6201C79.5305 22.2788 79.2171 20.7876 79.2902 19.2901C79.3284 18.7837 79.2287 18.2763 79.0015 17.822C78.7744 17.3677 78.4283 16.9835 78.0002 16.7101C77.0369 15.9056 75.8775 15.3707 74.6402 15.1601C73.9253 15.0983 73.2488 14.8098 72.7092 14.3368C72.1696 13.8637 71.7951 13.2308 71.6402 12.5301C71.5502 12.2301 71.4502 11.9401 71.3502 11.6401C71.2179 11.1814 70.9608 10.7684 70.6077 10.4471C70.2546 10.1258 69.8193 9.90876 69.3502 9.82015C68.3641 9.60772 67.3589 9.49714 66.3502 9.49015C65.1626 9.59309 63.9809 9.23501 63.0502 8.49015C62.6082 8.14446 62.0781 7.92966 61.5202 7.87015C60.6552 7.73226 59.8357 7.38938 59.1302 6.87015C58.3865 6.28971 57.4497 6.01437 56.5102 6.10015C55.8889 6.16558 55.2608 6.08885 54.6735 5.87575C54.0862 5.66266 53.555 5.31879 53.1202 4.87015C52.949 4.68721 52.7386 4.5454 52.5048 4.45535C52.271 4.36529 52.0199 4.32933 51.7702 4.35015L49.7702 4.52015C49.2265 4.62187 48.6722 4.65546 48.1202 4.62015C46.5602 4.27015 45.0002 4.00015 43.3702 3.81015C42.337 3.56354 41.3317 3.2117 40.3702 2.76015L39.5602 3.00015C39.1853 3.15761 38.7803 3.2303 38.374 3.21302C37.9678 3.19573 37.5704 3.08889 37.2102 2.90015C36.9088 2.72847 36.573 2.62595 36.2271 2.60001C35.8812 2.57407 35.5338 2.62535 35.2102 2.75015C34.4371 2.95134 33.6382 3.03561 32.8402 3.00015C30.3331 2.91425 27.8759 3.71443 25.9002 5.26015C24.7102 6.26015 23.5302 7.26015 22.3202 8.26015C21.27 9.03964 20.1065 9.65344 18.8702 10.0801C17.8857 10.4415 16.9268 10.8691 16.0002 11.3601C14.0324 12.5545 11.9399 13.5302 9.7602 14.2701C8.73295 14.5759 7.8539 15.2486 7.2902 16.1601C7.0502 16.5201 6.8002 16.8801 6.5702 17.2501C5.92074 18.3159 5.043 19.2244 4.0002 19.9101C3.29771 20.3269 2.708 20.9093 2.28265 21.6066C1.8573 22.3039 1.60925 23.0948 1.5602 23.9101C1.48033 24.3087 1.50565 24.7211 1.63365 25.1069C1.76165 25.4926 1.98793 25.8384 2.2902 26.1101C2.76155 26.5289 3.05492 27.1121 3.1102 27.7401C3.20302 28.3884 3.44685 29.0058 3.82204 29.5425C4.19723 30.0792 4.69328 30.5203 5.2702 30.8301C6.5402 31.6101 7.7102 32.5501 8.9302 33.4101C9.66653 34.0015 10.5677 34.3508 11.5102 34.4101C12.046 34.4178 12.565 34.598 12.9901 34.9241C13.4153 35.2502 13.7239 35.7047 13.8702 36.2201C14.2832 37.0633 14.4129 38.0173 14.2402 38.9401C14.1333 39.4214 14.1896 39.9245 14.4002 40.3701C14.8366 41.267 15.0591 42.2528 15.0502 43.2501C15.0617 43.6237 15.1085 43.9954 15.1902 44.3601C15.2309 44.6106 15.3494 44.842 15.5289 45.0215C15.7084 45.2009 15.9397 45.3194 16.1902 45.3601C16.9202 45.5001 17.6602 45.6101 18.3902 45.7402L18.3602 45.6502Z" fill="black"/>
<path d="M27.7 51.2703L27.98 50.7703C28.5167 51.1127 28.9518 51.5927 29.24 52.1603C30.1883 53.5472 30.9704 55.0408 31.57 56.6103C32.33 58.6103 33.0967 60.5836 33.87 62.5303C34.2129 63.1918 34.3554 63.939 34.28 64.6803C34.2838 65.2399 34.4173 65.791 34.67 66.2903C34.96 67.1503 35.3 68.0003 35.67 69.0103L34.67 68.6003C34.67 68.7103 34.54 68.8203 34.56 68.9103C34.89 70.2303 35.21 71.5703 35.56 72.9103C35.9538 74.4205 36.0556 75.992 35.86 77.5403C35.52 81.0103 35.22 84.4803 34.86 87.9503C34.8132 88.6945 34.6892 89.4318 34.49 90.1503C34.0864 91.7843 33.9546 93.4735 34.1 95.1503C34.0831 95.6218 34.2218 96.0858 34.4947 96.4708C34.7675 96.8557 35.1595 97.1402 35.61 97.2803C36.8544 97.8503 38.1805 98.2215 39.54 98.3803C40.54 98.4403 41.54 98.6903 42.54 98.7303C43.3687 98.7442 44.1956 98.6501 45 98.4503C47.3 97.9203 49.58 97.3103 51.87 96.7503C52.3439 96.712 52.7845 96.4917 53.0996 96.1356C53.4146 95.7795 53.5796 95.3153 53.56 94.8403C53.6041 94.2278 53.6041 93.6129 53.56 93.0003C53.5 90.7603 53.41 88.5203 53.35 86.2803C53.2612 84.5979 53.4298 82.9118 53.85 81.2803C54.0851 80.3796 54.1961 79.451 54.18 78.5203C54.18 75.5203 54.18 72.5203 54.1 69.5203C54.0666 67.7096 54.5227 65.9234 55.42 64.3503C56.0646 63.4408 56.5452 62.4255 56.84 61.3503L57.23 61.0003L56.85 61.3503L55 63.1003C54.8807 63.2716 54.72 63.4099 54.533 63.5026C54.346 63.5952 54.1385 63.6392 53.93 63.6303C54.0718 63.3422 54.2287 63.0619 54.4 62.7903C56.2397 60.3234 58.2944 58.0244 60.54 55.9203C61.03 56.1903 60.54 56.5603 60.65 56.9203V56.8503C61.5393 56.5468 62.2865 55.9277 62.75 55.1103C63.13 54.6303 63.45 54.1103 63.92 53.4203C64.0162 53.6822 64.0833 53.9538 64.12 54.2303C64.1107 54.8277 63.9632 55.4149 63.6891 55.9457C63.415 56.4766 63.0217 56.9368 62.54 57.2903C60.14 59.0803 58.68 61.6603 56.8 63.8903C55.9409 64.9772 55.4787 66.3249 55.49 67.7103C55.42 69.7603 55.43 71.8203 55.43 73.8703C55.43 75.1203 55.43 76.3603 55.5 77.6103C55.572 79.2275 55.3967 80.8461 54.98 82.4103C54.7785 83.1937 54.6909 84.002 54.72 84.8103C54.72 86.6703 54.88 88.5403 54.96 90.4003C54.96 91.5203 55.07 92.6403 55.06 93.7603C55.0361 94.3819 54.9625 95.0005 54.84 95.6103C54.7463 96.2089 54.4657 96.7625 54.0381 97.1918C53.6106 97.6211 53.0582 97.9042 52.46 98.0003C49.83 98.7103 47.19 99.4203 44.53 100.08C43.9286 100.228 43.3063 100.272 42.69 100.21C41.3272 100.08 39.9721 99.8801 38.63 99.6103C37.424 99.3257 36.2353 98.9718 35.07 98.5503C34.3771 98.336 33.7676 97.9123 33.3253 97.3375C32.883 96.7627 32.6296 96.065 32.6 95.3403C32.3495 93.5608 32.4309 91.7502 32.84 90.0003C33.0673 89.0961 33.2047 88.1716 33.25 87.2403C33.49 84.2403 33.72 81.2403 33.88 78.3103C33.99 76.1303 34.04 73.9503 33.99 71.7803C33.8792 70.84 33.692 69.9102 33.43 69.0003C33.25 68.1003 32.74 67.2603 33.14 66.2803C33.23 66.0603 33.03 65.6803 32.89 65.4103C32.53 64.6903 32.1 64.0003 31.75 63.2803C30.11 59.8736 28.48 56.447 26.86 53.0003C26.3406 51.8716 26.0484 50.6518 26 49.4103C26 49.2603 26.11 49.1103 26.24 48.8203C26.77 49.7103 27.24 50.4803 27.7 51.2503C27.7461 51.6211 27.8718 51.9775 28.0686 52.2951C28.2653 52.6127 28.5285 52.884 28.84 53.0903C28.8303 53.1398 28.8303 53.1908 28.84 53.2403C28.8536 53.2823 28.8777 53.3202 28.91 53.3503L28.8 53.1103C28.57 52.4303 28.41 51.6803 27.7 51.2703Z" fill="black"/>
<path d="M32.8505 40.22C33.1905 40.06 33.4705 39.94 33.7305 39.8C33.9357 39.6563 34.1801 39.5792 34.4305 39.5792C34.681 39.5792 34.9254 39.6563 35.1305 39.8C35.3274 39.9571 35.4713 40.1707 35.5428 40.4121C35.6144 40.6536 35.6101 40.9111 35.5305 41.15C35.4065 41.6939 35.3164 42.245 35.2605 42.8C35.1905 43.98 35.4405 44.32 36.5205 44.8C37.2005 45.1 37.8805 45.4 38.5205 45.8C39.174 46.2375 39.9572 46.4386 40.7405 46.37L39.6805 47.67C40.1705 48.29 40.8205 47.85 41.4405 47.91C41.5396 48.1862 41.674 48.4484 41.8405 48.69C42.1169 49.1104 42.5464 49.4063 43.0377 49.5146C43.5289 49.6229 44.043 49.5352 44.4705 49.27C44.8623 49.0564 45.2428 48.8228 45.6105 48.57C45.9507 48.7329 46.2669 48.9415 46.5505 49.19C46.7394 49.3948 46.9704 49.5562 47.2276 49.6632C47.4848 49.7703 47.7622 49.8203 48.0405 49.81C48.4744 49.8439 48.9054 49.9074 49.3305 50C49.5568 50.0618 49.7775 50.1421 49.9905 50.24C50.2005 51.24 49.2006 51.44 48.8305 52.18C48.7006 54 49.0005 56 48.4705 57.88C48.0405 57.96 47.9405 57.73 47.9505 57.48C47.9505 56.36 48.0205 55.24 48.0605 54.12C48.0605 53.38 48.1305 52.64 48.1705 51.87L47.0005 51.5C46.3905 52.65 47.2305 54.05 46.1505 55.15C45.986 54.1893 45.9423 53.2117 46.0205 52.24C45.9305 51.43 46.5905 50.54 45.8605 49.84L43.0005 52C42.8205 53.62 42.5805 55.34 42.4605 57.06C42.3405 58.78 42.3405 60.54 42.2905 62.24C41.8705 62.41 41.7705 62.16 41.6905 61.94C41.2202 60.872 40.6225 59.8647 39.9105 58.94C39.3362 58.1281 38.8941 57.2303 38.6005 56.28C38.0179 54.5694 37.7107 52.7771 37.6905 50.97C37.6548 50.42 37.5881 49.8725 37.4905 49.33C37.2594 49.5356 37.0453 49.7597 36.8505 50C36.6025 50.3995 36.2541 50.727 35.84 50.9499C35.4259 51.1727 34.9606 51.2831 34.4905 51.27C34.3105 51.27 34.0605 51.2 33.9405 51.27C32.6705 52.27 31.4605 51.53 30.2405 51.16C29.8039 51.03 29.3868 50.8417 29.0005 50.6C28.7705 50.45 28.6405 50.16 28.3105 49.72C29.3105 49.85 30.1105 49.98 30.8805 50.04C31.6171 50.1843 32.38 50.1041 33.0705 49.81C33.4225 49.6834 33.7996 49.6423 34.1705 49.69C34.4191 49.7106 34.6689 49.6725 34.9 49.5787C35.131 49.4849 35.3367 49.338 35.5005 49.15C35.9805 48.61 36.6005 48.15 36.5005 47.29C33.2105 45.66 33.1105 45.53 32.7305 42.59C32.6505 42.5 32.5805 42.38 32.4805 42.33C31.6968 41.9993 31.048 41.4132 30.6395 40.667C30.231 39.9209 30.0869 39.0585 30.2305 38.22C30.2978 36.7354 30.7196 35.2884 31.4605 34C31.7516 33.3805 32.2264 32.8657 32.8205 32.5258C33.4146 32.1858 34.099 32.0371 34.7805 32.1C35.0105 32.42 34.7805 32.54 34.5705 32.68C32.3005 34.08 31.7805 37.68 32.2705 39.52C32.3405 39.73 32.6205 39.93 32.8505 40.22ZM40.4805 49.22C40.0436 49.1418 39.6296 48.9675 39.2681 48.7098C38.9067 48.4522 38.607 48.1175 38.3905 47.73C38.2505 47.49 37.9305 47.31 37.4805 47.61C38.2782 48.6275 38.8015 49.8326 39.0005 51.11C39.1405 51.84 39.2105 52.58 39.3805 53.31C39.6905 54.63 40.0405 55.95 40.3805 57.26C40.4605 57.53 40.5405 57.88 41.0905 57.78C41.1905 56.08 41.2505 54.35 41.4005 52.62C41.4871 52.0174 41.4501 51.4034 41.292 50.8155C41.1338 50.2276 40.8578 49.6779 40.4805 49.2V49.22Z" fill="black"/>
<path d="M50.4303 51.5299C50.6904 51.2856 50.9311 51.0215 51.1503 50.7399C51.2459 50.5429 51.38 50.367 51.5447 50.2227C51.7094 50.0783 51.9013 49.9684 52.1092 49.8995C52.317 49.8305 52.5366 49.8038 52.7549 49.8211C52.9732 49.8383 53.1859 49.8992 53.3803 49.9999C53.6156 50.0822 53.8691 50.0977 54.1127 50.0448C54.3562 49.9918 54.5804 49.8724 54.7603 49.6999C55.1441 49.3845 55.5857 49.1467 56.0603 48.9999C56.5531 48.9241 57.015 48.7128 57.3947 48.3897C57.7743 48.0665 58.0567 47.6442 58.2103 47.1699C58.3503 46.7999 58.5303 46.4799 58.9803 46.4999C59.4303 46.5199 59.5403 47.0399 59.3603 47.5699C59.0503 48.4999 59.2003 49.5699 58.6103 50.4199C58.3803 50.7699 58.4603 50.8299 58.9403 51.7599C60.2403 51.8299 61.6303 51.3999 62.8103 52.4899L62.2403 54.0899C60.5203 54.3499 58.7603 54.9299 57.1903 53.4999C56.9485 53.6178 56.7204 53.762 56.5103 53.9299C54.9328 55.4275 53.5669 57.1332 52.4503 58.9999C52.3092 59.2754 52.1523 59.5426 51.9803 59.7999C51.8943 59.932 51.7732 60.0377 51.6306 60.1049C51.488 60.1722 51.3295 60.1985 51.1728 60.1809C51.0162 60.1632 50.8675 60.1023 50.7434 60.005C50.6194 59.9078 50.5248 59.7779 50.4703 59.6299C50.3217 59.3563 50.2235 59.0582 50.1803 58.7499C49.9803 57.2064 49.9803 55.6435 50.1803 54.0999C50.3003 53.3199 50.3403 52.5199 50.4303 51.5299ZM57.0003 51.3499C56.6603 51.3499 56.3503 51.3499 56.1903 51.4399C55.6547 51.9336 54.9675 52.231 54.241 52.2837C53.5145 52.3364 52.7915 52.1411 52.1903 51.7299C52.0901 51.6857 51.9806 51.6668 51.8713 51.6747C51.7621 51.6826 51.6565 51.7172 51.5637 51.7754C51.471 51.8337 51.3939 51.9137 51.3392 52.0087C51.2846 52.1036 51.2541 52.2105 51.2503 52.3199C51.2203 52.6292 51.2203 52.9406 51.2503 53.2499C51.3303 54.1699 51.4303 55.0999 51.5403 56.0199C51.5056 56.5452 51.6018 57.071 51.8203 57.5499C53.1564 55.5411 54.9573 53.8843 57.0703 52.7199L57.0003 51.3499Z" fill="black"/>
<path d="M42.4004 15.5102C41.7105 15.3542 41.0129 15.2341 40.3104 15.1502C39.8089 15.1949 39.309 15.0489 38.9104 14.7412C38.5119 14.4334 38.244 13.9867 38.1604 13.4902C38.1459 13.3636 38.1156 13.2393 38.0704 13.1202C38.0127 12.9412 37.8966 12.7867 37.7407 12.6816C37.5847 12.5764 37.398 12.5266 37.2104 12.5402C36.7815 12.5548 36.3569 12.6323 35.9504 12.7702C35.4922 12.9703 35.0479 13.2008 34.6204 13.4602C34.5532 13.1916 34.5424 12.912 34.5889 12.639C34.6353 12.366 34.7379 12.1057 34.8902 11.8744C35.0425 11.6432 35.2411 11.4461 35.4736 11.2956C35.706 11.1451 35.9671 11.0445 36.2404 11.0002C38.1204 10.5402 39.2404 10.5002 40.4304 13.1102C40.9604 13.2302 41.5704 13.3502 42.1704 13.5002C42.6073 13.5541 43.0187 13.7356 43.353 14.0219C43.6874 14.3083 43.9299 14.6868 44.0504 15.1102C44.1468 15.505 44.3223 15.8761 44.5664 16.201C44.8105 16.5258 45.1181 16.7978 45.4704 17.0002C46.1739 17.4283 46.6831 18.1133 46.8904 18.9102C47.0069 19.4959 47.0439 20.0946 47.0004 20.6902C46.9292 21.6844 46.5117 22.6221 45.8204 23.3402C45.4304 23.3402 45.5404 22.9902 45.5404 22.7702C45.5404 22.5502 45.5404 22.1502 45.6304 21.8502C45.7897 21.0875 45.7099 20.2943 45.4022 19.5785C45.0944 18.8628 44.5735 18.2593 43.9104 17.8502C43.4883 17.6113 43.1305 17.2736 42.8675 16.866C42.6045 16.4585 42.4442 15.9932 42.4004 15.5102Z" fill="black"/>
<path d="M17.8898 27.8804L18.1198 30.4104C19.1198 30.9004 20.1698 30.4104 21.1198 30.6404C22.0698 30.8704 22.9098 30.9104 23.8298 31.0404C24.4298 33.6004 24.4298 33.6004 25.4098 34.7204C25.8609 34.5293 26.3558 34.4656 26.8407 34.5361C27.3255 34.6066 27.7817 34.8087 28.1598 35.1204L29.7498 34.1204C30.0998 34.3604 29.9898 34.6704 29.8598 34.9304C29.5637 35.4765 29.2295 36.0011 28.8598 36.5004C28.6849 36.722 28.4613 36.9004 28.2064 37.0218C27.9515 37.1432 27.6721 37.2043 27.3898 37.2004H25.5398C25.1954 37.2178 24.8524 37.146 24.544 36.9918C24.2357 36.8376 23.9724 36.6063 23.7798 36.3204C23.2561 35.6353 22.9811 34.7925 22.9998 33.9304V32.0004C22.3698 32.0804 21.8298 32.1604 21.2898 32.2104C20.7498 32.2604 20.1798 32.2704 19.6198 32.3004C19.3098 32.3004 18.9998 32.3004 18.6898 32.3004C17.4098 32.3004 16.6898 31.5504 16.8298 30.3004C16.8596 29.3876 17.2391 28.5212 17.8898 27.8804Z" fill="black"/>
<path d="M37.5704 73.5903C38.2304 76.7603 37.7804 84.8103 36.8004 88.2503C36.7418 87.7559 36.7151 87.2582 36.7204 86.7603C37.0904 82.3803 36.6404 78.0003 37.5704 73.5903Z" fill="black"/>
<path d="M45.4697 6.63C47.2257 6.30658 49.0228 6.2728 50.7897 6.53C51.3429 6.61178 51.9007 6.65854 52.4597 6.67C53.8456 6.7033 55.1788 7.20766 56.2397 8.1C55.9488 8.05782 55.6614 7.99431 55.3797 7.91C54.2161 7.48379 52.9888 7.25727 51.7497 7.24C50.4497 7.24 49.1597 7 47.8597 6.87L45.4697 6.63Z" fill="black"/>
<path d="M42.9997 65.0703C44.4297 67.0703 45.9997 66.7403 47.5497 65.9603C47.9097 66.3603 47.6297 66.6003 47.4497 66.8003C47.2023 67.0839 46.8937 67.3078 46.5473 67.455C46.2009 67.6022 45.8256 67.669 45.4497 67.6503C44.8394 67.56 44.2559 67.3383 43.7397 67.0003C43.4297 66.7967 43.1915 66.5009 43.0587 66.1546C42.9259 65.8083 42.9053 65.429 42.9997 65.0703Z" fill="black"/>
<path d="M77.0605 21.6699C77.8609 22.7563 78.4248 23.9983 78.7159 25.3159C79.007 26.6335 79.0188 27.9975 78.7505 29.3199C78.2805 27.8799 78.2405 26.5999 77.9505 25.3899C77.5517 24.1766 77.254 22.9324 77.0605 21.6699Z" fill="black"/>
<path d="M24.0005 8.66016C24.8005 7.27521 26.06 6.21387 27.5605 5.66016C28.4658 5.32601 29.3996 5.07497 30.3505 4.91016C30.3505 4.97016 30.3505 5.05016 30.2705 5.07016C28.2527 6.05043 26.3223 7.20128 24.5005 8.51016C24.3357 8.59037 24.1608 8.64758 23.9805 8.68016L24.0005 8.66016Z" fill="black"/>
<path d="M11.7503 32.0903C13.1247 32.502 14.3061 33.3924 15.0803 34.6003C15.3252 34.8689 15.512 35.1852 15.629 35.5294C15.746 35.8735 15.7907 36.2381 15.7603 36.6003C15.6003 36.5203 15.4503 36.5003 15.4103 36.4203C14.7237 35.1005 13.7373 33.9601 12.5303 33.0903C12.1903 32.8303 11.8903 32.5303 11.5303 32.2403L11.7503 32.0903Z" fill="black"/>
<path d="M9.33984 18.71C10.8098 17.0402 12.598 15.6803 14.5998 14.71C14.5998 14.81 14.6898 14.97 14.6498 15.01C13.0239 16.4381 11.2427 17.6792 9.33984 18.71Z" fill="black"/>
<path d="M18.3902 45.68C17.9902 45.24 17.3902 45 17.2402 44.29C19.0114 44.9095 20.7138 45.7104 22.3202 46.68C20.9422 46.5616 19.5919 46.224 18.3202 45.68H18.3902Z" fill="black"/>
<path d="M38.7702 78.8203C39.0861 81.3931 38.9575 84.001 38.3902 86.5303C37.9502 84.8803 38.4802 83.6703 38.4902 82.4403C38.4072 81.2265 38.5015 80.007 38.7702 78.8203Z" fill="black"/>
<path d="M8.16016 17.5001C9.70419 16.0037 11.5386 14.8397 13.5502 14.0801C11.9985 15.5289 10.2597 16.7632 8.38016 17.7501C8.31016 17.6701 8.23016 17.5901 8.16016 17.5001Z" fill="black"/>
<path d="M52.6104 78.3802C52.8204 76.5102 53.0204 74.6402 53.2404 72.7702C53.2404 72.7702 53.3304 72.7702 53.3804 72.7002C53.8804 73.7902 53.5804 76.7402 52.6104 78.3802Z" fill="black"/>
<path d="M35.2005 61.7101C35.1505 61.7101 35.0705 61.6601 35.0505 61.6201C34.2005 59.5501 33.3605 57.4901 32.5205 55.4201L32.6505 55.3101C33.831 57.3038 34.682 59.4751 35.1705 61.7401L35.2005 61.7101Z" fill="black"/>
<path d="M77.64 28.3403C76.8648 27.041 76.4026 25.5791 76.29 24.0703C77.1876 25.3114 77.661 26.8088 77.64 28.3403Z" fill="black"/>
<path d="M68.5205 44.4802L68.0605 43.0702C68.1341 42.9604 68.2323 42.8692 68.3473 42.804C68.4623 42.7388 68.591 42.7013 68.723 42.6945C68.855 42.6877 68.9869 42.7118 69.1079 42.7649C69.229 42.8179 69.3361 42.8985 69.4205 43.0002C69.5225 43.1069 69.5997 43.2349 69.6463 43.375C69.693 43.515 69.7081 43.6637 69.6906 43.8102C69.673 43.9394 69.6261 44.0627 69.5532 44.1708C69.4804 44.2789 69.3837 44.3688 69.2707 44.4336C69.1576 44.4983 69.0311 44.5362 68.901 44.5443C68.771 44.5524 68.6408 44.5305 68.5205 44.4802Z" fill="black"/>
<path d="M26.3105 46.7803L30.3105 47.9703C29.4205 48.3203 29.4205 48.3403 28.1805 47.9703C27.4605 47.7403 26.6905 47.6603 26.3105 46.7803Z" fill="black"/>
<path d="M76.76 37.0903C77.0482 37.8205 77.1334 38.615 77.0066 39.3896C76.8799 40.1642 76.5459 40.8901 76.04 41.4903L76.76 37.0903Z" fill="black"/>
<path d="M75.0001 40.33C74.8203 39.1153 74.9866 37.8745 75.4801 36.75C75.6834 37.5519 75.7039 38.3892 75.5401 39.2C75.5574 39.4192 75.5166 39.6391 75.4218 39.8375C75.327 40.0359 75.1815 40.2058 75.0001 40.33Z" fill="black"/>
<path d="M56.6704 45.0002C56.5648 44.9824 56.4638 44.9433 56.3738 44.8853C56.2837 44.8272 56.2064 44.7515 56.1465 44.6626C56.0867 44.5737 56.0455 44.4736 56.0255 44.3683C56.0056 44.2631 56.0073 44.1548 56.0304 44.0502C56.0623 43.8656 56.162 43.6997 56.3101 43.5849C56.4581 43.4702 56.6438 43.415 56.8304 43.4302C56.9218 43.4275 57.0127 43.4451 57.0965 43.4817C57.1803 43.5182 57.255 43.5729 57.3152 43.6417C57.3754 43.7105 57.4197 43.7918 57.4448 43.8797C57.4699 43.9676 57.4752 44.06 57.4604 44.1502C57.3904 44.7402 57.0604 45.0802 56.6704 45.0002Z" fill="black"/>
<path d="M63.8301 43.7C63.7377 43.6988 63.6466 43.679 63.562 43.6419C63.4774 43.6047 63.4012 43.551 63.3378 43.4839C63.2744 43.4167 63.2251 43.3375 63.1928 43.251C63.1606 43.1644 63.146 43.0723 63.1501 42.98C63.158 42.8238 63.2204 42.6753 63.3263 42.5603C63.4322 42.4452 63.5751 42.3708 63.7301 42.35C63.9143 42.3333 64.0976 42.3902 64.24 42.5083C64.3824 42.6263 64.4723 42.7959 64.4901 42.98C64.4984 43.0716 64.4876 43.1639 64.4582 43.2511C64.4287 43.3382 64.3815 43.4182 64.3193 43.486C64.2572 43.5538 64.1816 43.6079 64.0973 43.6447C64.0131 43.6816 63.922 43.7004 63.8301 43.7Z" fill="black"/>
<path d="M49.6405 57.0004C49.2683 55.5675 49.2683 54.0633 49.6405 52.6304C49.9411 54.0715 49.9411 55.5592 49.6405 57.0004Z" fill="black"/>
<path d="M33.0007 45.4899C32.9207 46.0899 32.4607 46.4199 32.0507 46.3199C31.8738 46.2726 31.7183 46.1667 31.6093 46.0196C31.5004 45.8725 31.4444 45.6929 31.4507 45.5099C31.4593 45.4037 31.4917 45.3008 31.5455 45.2088C31.5994 45.1169 31.6732 45.0382 31.7615 44.9786C31.8499 44.9191 31.9505 44.8802 32.056 44.8648C32.1614 44.8495 32.269 44.858 32.3707 44.8899C32.6307 44.9999 32.8207 45.3299 33.0007 45.4899Z" fill="black"/>
<path d="M54.4001 32.4199C54.6701 32.8199 54.9401 33.0599 55.0001 33.3499C55.0601 33.6399 54.6401 33.9799 54.2801 33.9599C53.9201 33.9399 53.5201 33.5599 53.6501 33.2599C53.8626 32.9486 54.1147 32.6662 54.4001 32.4199Z" fill="black"/>
<path d="M43.5801 57.9199C43.8449 59.0952 43.8449 60.3147 43.5801 61.4899C43.3301 60.3131 43.3301 59.0968 43.5801 57.9199Z" fill="black"/>
<path d="M10.0899 26.5903C10.7199 27.9903 10.6999 28.1303 9.81986 29.0203C9.69174 28.619 9.64956 28.1953 9.69608 27.7766C9.7426 27.3579 9.87678 26.9537 10.0899 26.5903Z" fill="black"/>
<path d="M29.6104 22.8804L31.3004 23.3804C30.9404 24.0804 30.6504 24.2304 30.0604 24.1004C29.7104 24.0004 29.6404 23.8704 29.6104 22.8804Z" fill="black"/>
<path d="M62.1299 46.7401C62.1299 46.4601 62.0199 46.1101 62.1299 45.9301C62.3823 45.6808 62.6814 45.4837 63.0099 45.3501C63.0699 45.3501 63.2699 45.4201 63.3099 45.5001C63.3499 45.5801 63.4599 45.8701 63.3899 46.0001C63.2805 46.2373 63.1011 46.4353 62.8759 46.5676C62.6507 46.6998 62.3904 46.76 62.1299 46.7401Z" fill="black"/>
<path d="M42.2403 45.54C40.8403 45.09 40.6803 44.73 41.3103 43.73L42.2403 45.54Z" fill="black"/>
<path d="M28.5 27.36C28.5 27.66 28.55 27.83 28.5 27.9C28.3252 28.1284 28.112 28.3246 27.87 28.48C27.7819 28.4861 27.6937 28.47 27.6133 28.4334C27.533 28.3967 27.4631 28.3405 27.41 28.27C27.3646 28.0355 27.3646 27.7945 27.41 27.56C27.4351 27.4378 27.5069 27.3302 27.61 27.26C27.8 27.13 28.04 26.94 28.23 26.97C28.42 27 28.46 27.3 28.5 27.36Z" fill="black"/>
<path d="M56.3404 9.43033C55.3046 9.38991 54.2947 9.09451 53.4004 8.57033C53.9229 8.51349 54.4515 8.56019 54.956 8.70775C55.4604 8.85532 55.9309 9.10086 56.3404 9.43033Z" fill="black"/>
<path d="M30.2204 47.0001C29.2204 47.5101 28.4404 46.9201 27.3604 46.6301C28.4604 46.4201 28.4604 46.4201 30.2204 47.0001Z" fill="black"/>
<path d="M19.3203 44.0601C20.2503 44.0101 20.9303 44.5201 22.0503 44.6801C20.6003 45.0001 20.5503 45.0001 19.3203 44.0601Z" fill="black"/>
<path d="M12.4502 27C12.6302 27.1 12.9202 27.18 12.9602 27.32C13.002 27.652 13.002 27.988 12.9602 28.32C12.1202 28.27 12.4802 27.57 12.1602 27.32L12.4502 27Z" fill="black"/>
<path d="M39.7805 64.9404C39.6674 65.2177 39.4979 65.4685 39.2827 65.6768C39.0675 65.8851 38.8114 66.0464 38.5305 66.1504C38.4005 65.6804 38.8005 65.6204 38.9405 65.4004L39.4405 64.6504L39.7805 64.9404Z" fill="black"/>
<path d="M65.6098 28.51C65.5398 28.99 65.1098 29.33 64.8098 29.18C64.7205 29.1179 64.6469 29.0359 64.5948 28.9404C64.5427 28.8449 64.5136 28.7386 64.5098 28.63C64.5168 28.5537 64.5397 28.4796 64.577 28.4127C64.6143 28.3457 64.6652 28.2873 64.7264 28.2412C64.7876 28.195 64.8577 28.1622 64.9324 28.1448C65.007 28.1274 65.0845 28.1257 65.1598 28.14C65.3498 28.18 65.4898 28.41 65.6098 28.51Z" fill="black"/>
<path d="M32.52 55.4199L31.46 53.4199C32.28 54.0099 32.28 54.0099 32.65 55.2599L32.52 55.4199Z" fill="black"/>
<path d="M31.9997 29.0903C31.8097 29.1603 31.6997 29.2503 31.5997 29.2303C31.1597 29.1603 30.8597 28.8503 30.9097 28.5603C30.9275 28.5043 30.9625 28.4553 31.0097 28.4203C31.4497 28.2203 31.6497 28.5603 31.8897 28.8103C31.9097 28.8503 31.9197 28.9103 31.9997 29.0903Z" fill="black"/>
<path d="M34.0005 26.9301C33.7929 27.0889 33.5595 27.2107 33.3105 27.2901C33.1405 27.2901 32.9505 27.0301 32.7705 26.8901C32.8805 26.7601 32.9605 26.5701 33.0905 26.5101C33.2191 26.4207 33.3765 26.3825 33.5318 26.4028C33.6871 26.4231 33.8292 26.5006 33.9305 26.6201C33.9305 26.6201 34.0005 26.7401 34.0005 26.9301Z" fill="black"/>
<path d="M16.47 40.2401C16.2054 40.1175 15.9944 39.9027 15.8766 39.6358C15.7588 39.3689 15.7423 39.0683 15.83 38.7901C15.88 38.7901 15.94 38.6801 15.95 38.6901C16.37 39.0001 16.35 39.5001 16.47 40.2401Z" fill="black"/>
<path d="M38.4902 5.94018H37.2402V5.74018L38.4302 5.68018L38.4902 5.94018Z" fill="black"/>
<path d="M39.7603 42.4302C40.1503 42.8802 40.2403 43.2302 39.9103 43.6502C39.5003 43.3302 39.4003 43.0002 39.7603 42.4302Z" fill="black"/>
<path d="M69.8005 15.5404L68.2305 14.8304C69.0705 14.6604 69.0705 14.6604 70.0705 15.2404L69.8005 15.5404Z" fill="black"/>
<path d="M8.1602 24.7802C7.9202 24.9702 7.7802 25.1502 7.5902 25.2102C7.4002 25.2702 7.2502 24.9202 7.2802 24.8702C7.37963 24.681 7.52817 24.5221 7.7102 24.4102C7.7102 24.4102 7.9402 24.5902 8.1602 24.7802Z" fill="black"/>
<path d="M70.0698 15.2402C70.2839 15.3432 70.4852 15.4707 70.6698 15.6202C70.7798 15.7202 70.7998 15.9102 70.8698 16.0802C70.2998 16.2402 70.0998 15.7902 69.7998 15.5402L70.0698 15.2402Z" fill="black"/>
<path d="M57.8601 27.8404C57.6801 27.6904 57.4601 27.5704 57.4701 27.4804C57.4887 27.3985 57.5266 27.3223 57.5805 27.258C57.6344 27.1937 57.7028 27.1431 57.7801 27.1104C57.8801 27.1104 58.1101 27.2704 58.1301 27.3904C58.1501 27.5104 58.0001 27.6604 57.8601 27.8404Z" fill="black"/>
<path d="M54.9999 36.0004C54.7999 36.1304 54.5899 36.3204 54.5399 36.2804C54.3827 36.1354 54.2449 35.9707 54.1299 35.7904C54.2799 35.7204 54.4499 35.6004 54.5899 35.6204C54.7299 35.6404 54.8399 35.8104 54.9999 36.0004Z" fill="black"/>
<path d="M38.1201 40.2202V41.1002C37.6201 40.7502 37.6201 40.7502 38.1201 40.2202Z" fill="black"/>
<path d="M48.3904 47.1304C48.2304 47.2104 48.0704 47.3504 47.9404 47.3304C47.8104 47.3104 47.7804 47.1004 47.6904 46.9704C47.8537 46.9195 48.0209 46.8827 48.1904 46.8604C48.2404 46.8604 48.3004 47.0004 48.3904 47.1304Z" fill="black"/>
<path d="M50.3502 47.2002C50.4802 47.4002 50.6302 47.5302 50.6402 47.6702C50.6502 47.8102 50.3902 47.9402 50.3102 47.9102C50.2396 47.8777 50.1774 47.8291 50.1288 47.7683C50.0802 47.7076 50.0465 47.6363 50.0302 47.5602C50.0002 47.4602 50.2102 47.3502 50.3502 47.2002Z" fill="black"/>
<path d="M27.6504 8.23033C27.8151 8.08919 27.9888 7.95892 28.1704 7.84033C28.1704 7.84033 28.3404 7.92033 28.4204 7.97033C28.5004 8.02033 28.4204 8.11033 28.3604 8.12033C28.1604 8.20033 27.9504 8.26033 27.7404 8.33033L27.6504 8.23033Z" fill="black"/>
<path d="M58.7698 34.2103C58.6575 34.306 58.5288 34.3805 58.3898 34.4303C58.3336 34.4243 58.2797 34.4048 58.2327 34.3734C58.1857 34.3421 58.147 34.2998 58.1198 34.2503C58.0398 34.0703 58.3998 33.7403 58.5698 33.8403C58.7398 33.9403 58.6798 34.0003 58.7698 34.2103Z" fill="black"/>
<path d="M59.4602 31.61C59.3377 31.4579 59.2368 31.2896 59.1602 31.11C59.1602 31.03 59.3102 30.84 59.3402 30.85C59.3702 30.86 59.6702 30.98 59.7302 31.11C59.7902 31.24 59.6002 31.36 59.4602 31.61Z" fill="black"/>
<path d="M30.31 4.93039L30.79 4.65039L30.86 4.86039H30.29L30.31 4.93039Z" fill="black"/>
<path d="M28.3604 8.94021C28.4604 8.72021 28.6804 8.50021 28.8604 8.71021C29.0404 8.92021 28.7604 9.06021 28.5504 9.14021L28.3604 8.94021Z" fill="black"/>
<path d="M26.5902 9.05L26.3102 9.4L26.1602 9.21L26.5902 9V9.05Z" fill="black"/>
<path d="M55.1699 14.0001L54.8799 13.8201C54.9885 13.7242 55.1096 13.6435 55.2399 13.5801C55.2399 13.5801 55.3899 13.7201 55.4699 13.8001L55.1699 14.0001Z" fill="black"/>
<path d="M8.37989 17.75C8.2653 17.8791 8.13799 17.9964 7.99989 18.1C7.99989 18.1 7.80989 18.05 7.72989 18C7.64989 17.95 7.72989 17.87 7.72989 17.84C7.72989 17.81 7.99989 17.62 8.13989 17.5C8.22989 17.59 8.30989 17.67 8.37989 17.75Z" fill="black"/>
<path d="M14.36 24.0001L14.09 24.1601L14 23.7501C14.1 23.7501 14.22 23.6701 14.29 23.7001C14.36 23.7301 14.32 23.8701 14.36 24.0001Z" fill="black"/>
<path d="M11.57 32.2901L11.21 32.0001C11.45 31.7501 11.6 31.9401 11.75 32.1301L11.57 32.2901Z" fill="black"/>
<path d="M27 8.65998L27.69 8.22998L27.78 8.32998L27 8.66998V8.65998Z" fill="black"/>
<path d="M28.34 42.8102L28.2 43.0002L28 42.8502C28 42.8502 28.08 42.7402 28.12 42.7402C28.1943 42.7604 28.2677 42.7838 28.34 42.8102Z" fill="black"/>
<path d="M30.7999 43.76L30.6699 43.53C30.7651 43.5008 30.8619 43.4774 30.9599 43.46C30.9599 43.46 31.0199 43.55 31.0599 43.6L30.7999 43.76Z" fill="black"/>
<path d="M35.1699 61.74C35.2545 61.8046 35.3346 61.8747 35.4099 61.95C35.4099 61.95 35.4099 62.03 35.4099 62.08C35.3499 61.96 35.2999 61.84 35.2399 61.71L35.1699 61.74Z" fill="black"/>
<path d="M23.9999 8.68016L23.9199 8.82016L23.9999 8.66016V8.68016Z" fill="black"/>
<path d="M26.5898 9.00016L26.9998 8.66016L26.6198 9.04016L26.5898 9.00016Z" fill="black"/>
<path d="M28.55 9.13994L28.14 9.46994L28 9.34994L28.35 8.93994L28.55 9.13994Z" fill="black"/>
<path d="M27.71 9.7901L28.01 9.3501L28.14 9.4701L27.72 9.7901H27.71Z" fill="black"/>
<path d="M27.3503 10.17L27.7103 9.79004L27.3203 10.15L27.3503 10.17Z" fill="black"/>
<path d="M27.3298 10.1504L27.2598 10.3104L27.3498 10.1704L27.3298 10.1504Z" fill="black"/>
</g>
<defs>
<clipPath id="clip0_568_4201">
<rect width="83.53" height="100.25" fill="white"/>
</clipPath>
</defs>
</svg>
