<svg width="100" height="135" viewBox="0 0 100 135" fill="none" xmlns="http://www.w3.org/2000/svg">
<g opacity="0.5" clip-path="url(#clip0_568_4534)">
<path d="M45.1095 112.2C46.1095 110.74 46.1095 110.74 45.2395 109.38C46.0495 108.38 47.1195 108.48 48.1895 108.61C48.4895 109.02 48.1895 109.25 48.0095 109.46C47.8878 109.609 47.8071 109.787 47.7756 109.976C47.744 110.166 47.7626 110.36 47.8295 110.54C47.9922 111.266 47.9401 112.023 47.6795 112.72C47.0132 112.821 46.3891 113.109 45.8795 113.55C45.7661 113.665 45.6298 113.755 45.4794 113.814C45.329 113.873 45.1679 113.899 45.0066 113.892C44.8453 113.884 44.6874 113.843 44.5431 113.77C44.3989 113.697 44.2716 113.595 44.1695 113.47C43.9289 113.257 43.7231 113.007 43.5595 112.73C42.6851 111.219 42.4069 109.436 42.7795 107.73C42.9262 106.957 43.3233 106.254 43.9095 105.73C44.1084 105.502 44.3757 105.345 44.6713 105.282C44.9669 105.219 45.275 105.253 45.5495 105.38C43.7195 107.48 43.9395 109.69 45.1095 112.2Z" fill="black"/>
<path d="M80.1696 124.9C79.9314 125.269 79.6457 125.605 79.3196 125.9C74.9269 128.94 69.8684 130.881 64.5696 131.56C63.825 131.648 63.0703 131.587 62.3496 131.38C62.6421 131.226 62.9464 131.095 63.2596 130.99C66.2194 130.429 69.1167 129.579 71.9096 128.45C74.5822 127.553 77.172 126.425 79.6496 125.08C79.8256 125.01 80.0109 124.966 80.1996 124.95L80.1696 124.9Z" fill="black"/>
<path d="M85.6699 121C85.856 120.526 86.0732 120.065 86.3199 119.62C88.1036 116.873 89.5886 113.943 90.7499 110.88C90.9046 110.533 91.0851 110.199 91.2899 109.88C91.3799 110.26 91.4799 110.45 91.4399 110.6C90.6491 114.247 88.9264 117.627 86.4399 120.41C86.2 120.616 85.9423 120.8 85.6699 120.96V121Z" fill="black"/>
<path d="M61.7496 120.46C61.8085 120.729 61.8354 121.004 61.8297 121.28C61.3077 123.524 60.4693 125.682 59.3396 127.69C58.8436 128.587 58.1617 129.368 57.3396 129.98C57.1496 130.12 56.9596 130.34 56.6396 130.16C56.6888 129.983 56.7702 129.817 56.8797 129.67C58.0893 128.433 59.0172 126.949 59.5996 125.32C60.1096 124.08 60.5996 122.82 61.0896 121.58C61.2858 121.193 61.5063 120.819 61.7496 120.46Z" fill="black"/>
<path d="M91.2402 105.4C91.3602 104.84 91.4802 104.27 91.6102 103.71C92.0415 102.03 92.2698 100.304 92.2902 98.57C92.2902 98.15 92.1102 97.66 92.5602 97.27C93.0302 97.63 92.9702 98.17 92.9602 98.63C92.9866 101.012 92.481 103.369 91.4802 105.53L91.2402 105.4Z" fill="black"/>
<path d="M69.5596 127.61L75.9996 125.07C75.1834 125.921 74.1435 126.524 72.9996 126.81C71.9196 127.26 70.8596 127.91 69.5596 127.61Z" fill="black"/>
<path d="M75.9 123.46C74.659 124.631 73.0945 125.401 71.41 125.67C71.41 125.67 71.35 125.58 71.32 125.54C71.29 125.5 71.32 125.38 71.32 125.37C72.9 124.89 74.24 123.81 75.89 123.49L75.9 123.46Z" fill="black"/>
<path d="M91.4797 105.53L91.1797 105.85L91.2397 105.4L91.4797 105.53Z" fill="black"/>
<path d="M75.9294 123.49L76.0994 123.2C76.3094 123.5 75.9694 123.38 75.8994 123.46L75.9294 123.49Z" fill="black"/>
<path d="M80.1999 124.93C80.1999 124.83 80.2899 124.73 80.3399 124.65C80.3899 124.57 80.4299 124.65 80.4799 124.65L80.1699 124.89L80.1999 124.93Z" fill="black"/>
<path d="M85.6298 120.93L85.5498 121.13C85.5498 121.13 85.5498 121.05 85.5498 121.03C85.5861 121.001 85.6266 120.977 85.6698 120.96L85.6298 120.93Z" fill="black"/>
<path d="M89.3698 76.2598C90.5382 77.853 91.5212 79.5741 92.2998 81.3898C93.2998 83.8198 94.4198 86.2198 95.4198 88.6599C95.9383 89.9054 96.3596 91.1892 96.6798 92.4998C96.9303 93.6285 97.0378 94.7843 96.9998 95.9398C96.8896 100.25 96.2583 104.531 95.1198 108.69C94.152 112.231 92.716 115.628 90.8498 118.79C89.9569 120.341 88.8493 121.758 87.5598 123C87.1273 123.381 86.7261 123.795 86.3598 124.24C84.5244 126.411 82.1623 128.074 79.4998 129.07C79.0845 129.231 78.6992 129.461 78.3598 129.75C77.3439 130.647 76.1844 131.367 74.9298 131.88C72.3101 133.128 69.4759 133.865 66.5798 134.05C65.4909 134.133 64.4126 134.32 63.3598 134.61C61.7998 135.016 60.1668 135.054 58.5898 134.72C57.8319 134.578 57.0593 134.531 56.2898 134.58C53.4563 134.686 50.6255 134.308 47.9198 133.46C44.8598 132.46 41.7098 131.76 38.7198 130.55C35.4602 129.324 32.4661 127.484 29.8998 125.13C28.2706 123.671 26.7624 122.082 25.3898 120.38C24.7798 119.57 23.9698 118.9 23.9198 117.75C23.9198 117.42 23.5398 117.1 23.3098 116.75C19.4898 111.75 17.7598 105.92 16.9298 99.7498C16.8032 98.5341 16.7764 97.31 16.8498 96.0898C16.9919 91.7216 17.5004 87.373 18.3698 83.0898C18.7974 80.9592 19.546 78.9059 20.5898 76.9998C20.7698 76.6698 20.8998 76.2999 21.0698 75.9099C20.8083 75.6184 20.5312 75.3413 20.2398 75.0798C17.6336 72.7951 15.2127 70.3073 12.9998 67.6398C11.6443 66.0931 10.442 64.4186 9.40977 62.6399C6.92718 58.5762 4.78327 54.3152 2.99977 49.8999C1.6731 46.8198 0.742346 43.584 0.22977 40.2699C-0.452026 34.1571 0.630637 27.9769 3.34977 22.4599C4.45863 20.0684 5.79832 17.7909 7.34977 15.6599C8.41356 14.3519 9.57704 13.1282 10.8298 11.9999C11.2798 11.5499 11.8298 11.2199 12.3198 10.7799C15.1176 8.29797 18.3573 6.36437 21.8698 5.07985C23.1198 4.56985 24.3598 4.07985 25.5698 3.42985C27.7646 2.36417 30.0725 1.54903 32.4498 0.999851C34.2123 0.629587 35.9955 0.365776 37.7898 0.209851C39.9614 -0.0601847 42.1581 -0.0601847 44.3298 0.209851C44.9625 0.309812 45.607 0.309812 46.2398 0.209851C47.3209 0.0549102 48.4186 0.0549102 49.4998 0.209851C52.1898 0.509851 54.8798 0.709851 57.5598 1.00985C58.8998 1.14985 60.2298 1.38985 61.5598 1.65985C63.6398 2.09985 65.6998 2.58985 67.7698 3.07985C70.3534 3.6238 72.8593 4.4871 75.2298 5.64985C75.9098 6.00985 76.5998 6.36985 77.3098 6.64985C79.3254 7.51641 81.1682 8.73931 82.7498 10.2599C83.2021 10.7192 83.6795 11.1532 84.1798 11.5599C86.9474 13.6692 89.4254 16.1337 91.5498 18.8899C94.6992 22.564 97.046 26.8557 98.4398 31.4899C98.8799 33.295 99.1246 35.1423 99.1698 36.9999C99.255 40.28 99.0644 43.5616 98.5998 46.8099C98.2098 50.1999 97.7098 53.5699 97.1498 56.9299C96.1208 62.3147 94.237 67.5002 91.5698 72.2898C90.8798 73.5798 90.1398 74.8598 89.3698 76.2598ZM16.1398 67.4099L15.5998 66.7098C15.6798 66.2798 15.9398 66.1199 16.2398 66.4598C17.4598 67.8398 18.6398 69.2398 19.8298 70.6398C19.8298 70.6398 19.8298 70.8398 19.7598 70.9498L18.8598 70.7598L18.3298 70.0598H18.3898L18.9298 70.7299C19.5198 71.6399 20.0798 72.5698 20.7198 73.4598C21.2064 74.0975 21.5383 74.8396 21.6893 75.6274C21.8403 76.4153 21.8062 77.2274 21.5898 77.9998C21.5398 78.1798 21.5098 78.3698 21.4498 78.5598C19.9998 83.3998 19.5798 88.3998 19.0798 93.3898C18.6498 98.0847 19.198 102.818 20.6898 107.29C21.274 109.127 22.0237 110.908 22.9298 112.61C24.2598 115.11 25.7898 117.5 27.2398 119.92C27.5066 120.361 27.8183 120.773 28.1698 121.15C30.9233 124.041 34.055 126.547 37.4798 128.6C37.9861 128.878 38.5231 129.096 39.0798 129.25C41.8598 130.06 44.6398 130.84 47.4198 131.66C50.3208 132.514 53.3257 132.965 56.3498 133C57.2486 133.02 58.143 133.131 59.0198 133.33C60.5771 133.764 62.2349 133.666 63.7298 133.05C64.6327 132.711 65.5784 132.499 66.5398 132.42C69.3642 132.148 72.1299 131.443 74.7398 130.33C76.4242 129.534 78.0634 128.646 79.6498 127.67C81.1306 126.765 82.5263 125.727 83.8198 124.57C85.2798 123.22 86.5498 121.66 87.8698 120.17C88.3375 119.638 88.7528 119.062 89.1098 118.45C90.9098 115.33 92.6498 112.17 93.3098 108.56C93.3798 108.18 93.5198 107.81 93.6098 107.44C94.5255 104.485 94.9643 101.403 94.9098 98.3098C94.9098 97.6098 94.9998 96.8998 95.0098 96.1898C95.0878 94.5826 94.85 92.9756 94.3098 91.4598C93.3698 88.9898 92.5598 86.4598 91.6598 83.9998C91.3069 82.9699 90.8791 81.9673 90.3798 80.9998C89.8298 79.9998 89.1098 79.1398 88.4598 78.2098C87.7898 78.3699 87.6298 78.9799 87.3098 79.4398C87.0213 79.9511 86.581 80.36 86.0498 80.6098C86.2098 80.1498 86.3198 79.7898 86.4698 79.4498C88.3898 75.0298 90.2898 70.5899 92.2598 66.1898C93.7621 62.7749 94.8239 59.1827 95.4198 55.4999C96.1998 50.9398 96.7898 46.3399 97.1998 41.7299C97.3498 39.934 97.3999 38.1312 97.3498 36.3299C97.3308 34.5921 97.0854 32.8642 96.6198 31.1899C95.288 27.0809 93.1533 23.2773 90.3398 19.9999C88.2012 17.1745 85.6766 14.6633 82.8398 12.5399C82.1402 11.9739 81.4725 11.3696 80.8398 10.7299C79.6536 9.6423 78.3038 8.74804 76.8398 8.07985C76.1898 7.79985 75.5598 7.46985 74.9398 7.07985C72.5848 5.87957 70.0789 5.00169 67.4898 4.46985C65.2998 3.99985 63.0998 3.47985 60.8998 2.99985C59.8334 2.77245 58.755 2.60552 57.6698 2.49985C55.2498 2.25985 52.8098 2.07985 50.3798 1.82985C49.0584 1.59156 47.7067 1.57466 46.3798 1.77985C45.8142 1.89912 45.2323 1.91942 44.6598 1.83985C42.097 1.59108 39.5131 1.66837 36.9698 2.06985C33.3198 2.44065 29.7647 3.45641 26.4698 5.06985L26.5698 5.66985L25.6698 5.91985C25.5957 5.85594 25.5081 5.80958 25.4136 5.78424C25.3191 5.7589 25.22 5.75522 25.1239 5.77349C25.0278 5.79175 24.937 5.83149 24.8584 5.88973C24.7797 5.94797 24.7153 6.02322 24.6698 6.10985L25.6698 5.88985C25.3892 6.13686 25.0918 6.36407 24.7798 6.56985C22.2658 7.85111 19.8669 9.34664 17.6098 11.0399C16.1698 12.2099 14.7398 13.4099 13.2798 14.5699C11.3592 16.0853 9.7439 17.9517 8.51977 20.0699C8.08068 20.765 7.59979 21.4329 7.07977 22.0699C6.98977 22.1899 6.79977 22.2399 6.52977 22.3799C6.54047 21.7726 6.74354 21.1844 7.10977 20.6999C8.40761 18.5636 9.90425 16.5547 11.5798 14.6999C13.3947 12.7862 15.4801 11.1488 17.7698 9.83985C18.8293 9.41093 19.7645 8.72332 20.4898 7.83985L20.9998 7.67985L20.8898 7.48985L20.4698 7.88985C18.632 8.45353 16.93 9.38964 15.4698 10.6399C14.6098 11.3099 13.7998 12.0599 12.9498 12.7399C11.0076 14.3101 9.32085 16.1723 7.94977 18.2599C5.01669 22.5966 3.04275 27.5093 2.15977 32.6698C1.59294 36.114 1.79096 39.6408 2.73977 42.9999C4.55791 49.1756 7.25198 55.0587 10.7398 60.4699C10.9298 60.7799 11.2198 61.2198 11.5098 61.2598C12.3398 61.3899 12.5098 61.9899 12.6798 62.5899L12.2798 62.7399L12.0298 62.4999L12.2998 62.7199C13.0631 64.287 14.1789 65.6561 15.5598 66.7198L16.0998 67.4198C16.0998 67.4198 16.3198 67.5299 16.1398 67.4099ZM23.3698 6.68985C23.2298 6.63985 23.1498 6.59985 23.1198 6.61985C23.0147 6.68526 22.9174 6.76242 22.8298 6.84985L23.3698 6.68985Z" fill="black"/>
<path d="M33.4402 63.19C33.679 62.9828 33.906 62.7625 34.1202 62.53C34.2653 62.3107 34.3924 62.0799 34.5002 61.84C34.3625 61.6176 34.1942 61.4156 34.0002 61.24C31.4902 59.6 29.7102 57.24 27.8702 54.96C27.0702 53.96 26.3102 52.96 25.5502 51.96C23.7402 52.17 22.7602 53.96 20.8402 54.11C21.3002 53.11 22.1402 52.95 22.7502 52.5C23.3602 52.05 24.1402 51.62 24.9502 51.12L24.2602 50.17L23.7102 49.17C22.2002 49.55 21.2902 50.97 19.4602 51.27C20.6102 49.85 22.0502 49.4 23.2402 48.52C23.1099 47.9048 22.8241 47.3333 22.4102 46.86C20.6544 43.9279 19.4544 40.6973 18.8702 37.33C18.2102 33.33 19.7402 30.24 22.8202 27.89C25.2145 26.0332 27.8742 24.5466 30.7102 23.48C31.1329 23.3379 31.5636 23.221 32.0002 23.13C33.8202 22.71 35.6502 22.37 37.4602 21.9C40.7752 21.1076 44.1562 20.6222 47.5602 20.45C48.3302 20.39 49.1002 20.45 49.8702 20.45C51.0902 20.45 52.3102 20.4 53.5302 20.45C54.7502 20.5 55.9702 20.51 57.1802 20.63C58.8502 20.78 60.5002 21 62.1802 21.23C63.8602 21.46 65.6102 21.75 67.3202 22.03C68.5906 22.278 69.7856 22.819 70.8102 23.61C73.3362 25.3053 75.3492 27.6607 76.6302 30.42C76.8085 30.7897 77.0054 31.1502 77.2202 31.5C78.0602 31.73 79.1202 31.5 79.8402 32.24C79.3702 33.09 78.5902 32.36 77.9602 32.82C77.9791 33.1555 78.0192 33.4895 78.0802 33.82C78.5102 35.7 78.9602 37.58 79.3902 39.46C79.9012 41.5864 80.06 43.7822 79.8602 45.96C79.7206 46.2497 79.5971 46.5468 79.4902 46.85C78.2469 51.2434 76.5442 55.4935 74.4102 59.53C73.5902 61.13 72.8702 62.78 72.1302 64.34L75.0102 71.34C73.7802 70.64 73.3602 69.91 71.7302 65.78C71.1702 65.85 71.0502 66.26 71.0202 66.72C71.0187 66.9122 71.0423 67.1038 71.0902 67.29C72.1602 72.47 74.0202 77.29 77.6902 81.23C77.8887 81.4738 78.0597 81.7387 78.2002 82.02C78.2002 82.02 78.2002 82.14 78.0902 82.3C77.8008 82.2736 77.519 82.1922 77.2602 82.06C76.3771 81.4255 75.5446 80.7234 74.7702 79.96C72.6571 77.6067 71.0595 74.8374 70.0802 71.83C69.5635 70.2997 69.4061 68.6709 69.6202 67.07C69.6863 66.369 69.8938 65.6886 70.2302 65.07C70.7602 64.13 71.1602 63.07 71.6302 62.07C71.4102 61.41 71.2002 60.74 70.9602 60.07C70.8366 59.6341 70.5748 59.2502 70.214 58.976C69.8533 58.7019 69.4133 58.5523 68.9602 58.55C65.6302 58.31 62.3002 58 58.9602 57.73C58.5155 57.6699 58.0648 57.6699 57.6202 57.73C56.3484 57.9079 55.0633 57.9715 53.7802 57.92C52.4994 58.0082 51.2264 58.1853 49.9702 58.45C48.5702 58.66 47.1702 58.84 45.7802 59.11C44.3902 59.38 43.1402 59.67 41.8502 60.06C39.7002 60.71 37.5702 61.45 35.5102 62.13C34.1702 64.03 32.9202 65.9 31.5702 67.69C30.8613 68.6057 30.075 69.4588 29.2202 70.24C28.4485 71.033 27.4053 71.5046 26.3002 71.56C26.0602 71.56 25.8202 71.3 25.4702 71.1C28.3366 69.2836 30.8282 66.9346 32.8102 64.18L33.1102 63.7L33.4202 63.22L33.4402 63.19ZM73.1402 58C73.323 57.5822 73.4832 57.1549 73.6202 56.72C74.2753 54.3779 75.0701 52.0771 76.0002 49.83C76.5469 48.3881 76.9848 46.9073 77.3102 45.4C77.4917 44.5224 77.549 43.6236 77.4802 42.73C77.3072 40.2892 76.9123 37.8692 76.3002 35.5C75.738 33.045 74.6796 30.7309 73.1902 28.7C71.1902 26.07 68.8002 24.05 65.3202 23.64C62.1402 23.26 58.9602 22.75 55.7902 22.3C55.5993 22.2608 55.405 22.2407 55.2102 22.24C51.6802 22.43 48.1402 22.04 44.6202 22.54C42.3186 22.7667 40.0361 23.1577 37.7902 23.71C36.0959 24.3278 34.3205 24.6951 32.5202 24.8C32.1992 24.8219 31.8844 24.8997 31.5902 25.03C28.7388 26.052 26.0762 27.5388 23.7102 29.43C21.2702 31.43 19.9402 34.02 20.5802 37.25C20.9172 39.0176 21.4125 40.7512 22.0602 42.43C23.3773 45.5064 25.1065 48.3894 27.2002 51C29.4702 54 31.8802 57 34.2002 60C34.4302 60.28 34.7102 60.53 35.0302 60.85C37.6139 59.5021 40.3366 58.4392 43.1502 57.68C43.8054 57.4654 44.4734 57.2917 45.1502 57.16C46.4802 56.92 47.8102 56.71 49.1502 56.53C50.6906 56.2312 52.252 56.0539 53.8202 56C55.2185 56.0901 56.6226 56.0061 58.0002 55.75C58.3273 55.6713 58.6643 55.6409 59.0002 55.66C61.5602 55.81 64.1402 55.66 66.6202 56.6C67.6006 56.9277 68.6031 57.1851 69.6202 57.37C70.7202 57.62 71.8502 57.79 73.1402 58Z" fill="black"/>
<path d="M37.7499 113.67C37.3126 112.766 37.1196 111.762 37.1899 110.76C37.3899 108.76 37.7599 106.7 38.0799 104.68C38.0799 104.57 38.2199 104.48 38.3299 104.33C39.1199 104.93 38.9599 105.95 39.3799 106.85L40.3799 106.21C40.6899 106.01 40.9499 105.65 41.4399 105.9C41.3399 106.9 40.4399 107.48 39.9999 108.34C40.5337 108.945 41.0154 109.594 41.4399 110.28C41.9222 110.921 42.1372 111.724 42.0399 112.52C40.7899 112.34 40.2499 111.28 39.2899 110.58C38.6599 111.48 38.6899 112.73 37.7499 113.67Z" fill="black"/>
<path d="M35.4002 108C35.6502 108.48 35.8902 108.87 36.0602 109.28C36.1923 109.607 36.2544 109.959 36.2423 110.312C36.2303 110.665 36.1444 111.012 35.9902 111.33C35.9109 111.613 35.7427 111.863 35.5104 112.043C35.2781 112.223 34.9941 112.324 34.7002 112.33C34.4106 112.334 34.1255 112.257 33.8779 112.106C33.6302 111.956 33.43 111.739 33.3002 111.48C32.9498 110.876 32.8291 110.166 32.9602 109.48C33.0504 109.141 33.0458 108.783 32.9471 108.447C32.8483 108.11 32.6592 107.807 32.4002 107.57C31.6302 106.81 31.8202 105.72 32.8602 104.94C33.2714 104.628 33.7871 104.487 34.2996 104.547C34.812 104.607 35.2816 104.862 35.6102 105.26C35.8296 105.567 35.9292 105.944 35.8902 106.32C35.7749 106.893 35.611 107.455 35.4002 108ZM34.2802 105.78C34.2269 105.744 34.1646 105.723 34.1002 105.72C33.7802 105.79 33.4902 105.91 33.5002 106.31C33.5081 106.369 33.5293 106.426 33.5622 106.476C33.5951 106.527 33.6388 106.569 33.6902 106.6C34.1202 106.76 34.2002 106.4 34.3102 106.13C34.3502 106.07 34.2902 105.93 34.2802 105.82V105.78ZM34.4902 110.4C34.4902 110.4 34.6002 110.33 34.5902 110.31C34.5553 110.21 34.5118 110.113 34.4602 110.02C34.4602 110.02 34.3502 110.09 34.3602 110.11C34.3905 110.225 34.4341 110.335 34.4902 110.44V110.4Z" fill="black"/>
<path d="M44.9296 18.5597C43.2496 18.8997 41.5596 19.2197 39.9296 19.5597C38.2996 19.8997 36.3996 20.2897 34.6696 20.7597C33.0047 21.3185 31.3125 21.7924 29.5996 22.1797C30.267 21.5093 31.0923 21.0176 31.9996 20.7497C37.0696 18.9297 42.8296 17.7597 44.9296 18.5597Z" fill="black"/>
<path d="M75.7094 9.31007C74.4694 8.79007 73.2294 8.31007 71.9994 7.73007C68.8836 6.5169 65.6897 5.51463 62.4394 4.73007C62.1394 4.65007 61.7794 4.73007 61.6494 4.27007C62.0594 3.82007 62.6494 3.98007 63.0594 4.07007C67.3594 5.00007 71.5994 6.00007 75.2494 8.63007C75.4517 8.7825 75.6453 8.94609 75.8294 9.12007L75.7094 9.31007Z" fill="black"/>
<path d="M31 73.41C31 71.6 31.44 70.01 32.78 67.26C33.4232 65.679 34.4551 64.286 35.78 63.21C36.07 63.42 35.92 63.68 35.78 63.89C35.17 65.22 34.57 66.56 33.92 67.89C33.08 69.6 32.21 71.31 31.35 73.01C31.2468 73.1545 31.1296 73.2885 31 73.41Z" fill="black"/>
<path d="M3.87025 29.3398C3.92017 29.778 3.94021 30.219 3.93025 30.6598C3.74861 33.7267 3.73192 36.8011 3.88025 39.8698C3.91267 40.7007 3.88593 41.5328 3.80025 42.3598C3.57502 41.9845 3.38424 41.5896 3.23025 41.1798C2.97788 39.9275 2.79428 38.6622 2.68025 37.3898C2.59618 35.149 2.8046 32.9068 3.30025 30.7198C3.43665 30.2389 3.61396 29.7705 3.83025 29.3198L3.87025 29.3398Z" fill="black"/>
<path d="M5.86984 31.1997C5.92984 33.4197 5.86984 35.6497 6.07984 37.8597C6.28984 40.0697 6.68984 42.2997 6.98984 44.4297C6.22984 43.6797 6.11984 43.4297 5.58984 40.8097C4.77661 37.6439 4.87366 34.3128 5.86984 31.1997Z" fill="black"/>
<path d="M54.4102 19.5099C55.6402 18.7799 57.0002 18.9999 58.2802 18.9999C62.4602 18.8599 65.5902 19.3499 67.4902 20.2999C67.4902 20.2999 67.4902 20.4199 67.4002 20.4499C67.3781 20.4719 67.3513 20.4887 67.3219 20.499C67.2925 20.5094 67.2612 20.5131 67.2302 20.5099C65.5802 20.3399 63.9302 20.0899 62.2302 19.9999C59.6702 19.8599 57.1102 19.8399 54.5502 19.7599C54.5502 19.7399 54.5102 19.6399 54.4102 19.5099Z" fill="black"/>
<path d="M95.3596 34.5298C96.0253 35.6374 96.3714 36.9076 96.3596 38.1998C96.3846 38.9709 96.3545 39.7429 96.2696 40.5098C95.9896 42.9198 95.6796 45.3398 95.3696 47.7498C95.3246 48.1159 95.1379 48.4497 94.8496 48.6798C94.9296 47.4198 94.9896 46.1598 95.0796 44.8998C95.2796 41.4598 95.7996 37.9998 95.3596 34.5298Z" fill="black"/>
<path d="M32.85 64.0898C32.5275 64.2868 32.22 64.5074 31.93 64.7498C30.0599 66.3974 28.0786 67.9144 26 69.2898C25.6112 69.5064 25.2068 69.6936 24.79 69.8498C25.0689 69.4151 25.3869 69.0067 25.74 68.6298C27.6867 66.9831 29.6467 65.3498 31.62 63.7298C31.9603 63.4423 32.3411 63.2064 32.75 63.0298C32.92 62.9598 33.2 63.1298 33.43 63.1898L33.12 63.6698L32.82 64.1498L32.85 64.0898Z" fill="black"/>
<path d="M28.3902 118.61C27.0669 117.224 26.0034 115.612 25.2502 113.85C23.6702 110.74 23.2002 109.24 23.1602 107.59L28.5502 118.31L28.3902 118.61Z" fill="black"/>
<path d="M22.7199 78.5C22.8399 78.74 22.9499 78.87 22.9299 78.96C22.2633 82.0333 21.5633 85.1 20.8299 88.16C20.7103 88.4261 20.5664 88.6805 20.3999 88.92C20.3158 87.0424 20.5422 85.1638 21.0699 83.36C21.3422 81.6586 21.9 80.0155 22.7199 78.5Z" fill="black"/>
<path d="M17.82 33.4397C17.67 31.8197 17.9 31.0397 19.09 29.2497C20.172 27.2902 21.8351 25.7145 23.85 24.7397C23.3387 25.5116 22.7453 26.2258 22.08 26.8697C21.57 27.5197 21.02 28.1497 20.52 28.8197C20.0114 29.4827 19.5407 30.1738 19.11 30.8897C18.69 31.5997 18.36 32.3597 17.82 33.4397Z" fill="black"/>
<path d="M24.4098 79C24.6198 79.28 24.7698 79.4 24.7498 79.46C23.5398 83.37 22.3098 87.27 21.0898 91.17C20.5998 91.17 20.7398 90.82 20.7798 90.63C21.0798 89.32 21.3298 87.99 21.7798 86.71C22.5498 84.33 23.4198 81.98 24.2498 79.62C24.2798 79.47 24.3298 79.29 24.4098 79Z" fill="black"/>
<path d="M28.9995 4.84963C29.3595 4.29963 29.9995 4.26963 30.5095 4.11963C33.6631 3.2794 36.8807 2.70077 40.1295 2.38963C40.9041 2.31604 41.6856 2.37694 42.4395 2.56963C42.1855 2.66269 41.9247 2.73624 41.6595 2.78963C37.4195 3.37963 33.1595 3.87963 28.9795 4.78963L28.9995 4.84963Z" fill="black"/>
<path d="M88.6299 80.2598C89.2025 80.567 89.6303 81.0882 89.8199 81.7098C90.8815 84.4804 91.5545 87.3846 91.8199 90.3398C91.316 89.2755 90.9433 88.1539 90.7099 86.9998C90.3399 85.8998 90.0199 84.7998 89.7099 83.6998L88.6299 80.2598Z" fill="black"/>
<path d="M53.2801 95.5298C54.2849 96.2161 55.1084 97.1357 55.6801 98.2098C57.0258 100.458 58.0746 102.872 58.8001 105.39C58.8344 105.57 58.8062 105.757 58.7201 105.92C57.2301 102.32 55.7201 98.7498 53.1201 95.7598L53.2801 95.5298Z" fill="black"/>
<path d="M26.0002 92.3497C23.9808 94.2229 22.1272 96.2671 20.4602 98.4597C20.0402 98.2497 20.2402 97.9197 20.3402 97.6697C20.8184 96.4435 21.5437 95.3287 22.4709 94.3946C23.3981 93.4605 24.5075 92.727 25.7302 92.2397C25.7302 92.2397 25.8502 92.2897 26.0002 92.3497Z" fill="black"/>
<path d="M42 62.14C42.2671 61.8966 42.5666 61.6914 42.89 61.53C44.9743 60.7352 47.1312 60.1457 49.33 59.77C49.04 60.07 48.95 60.25 48.8 60.32C48.1584 60.6298 47.4887 60.8776 46.8 61.06C45.26 61.41 43.78 62.19 42 62.14Z" fill="black"/>
<path d="M8.19935 54.4497C7.90935 54.1297 7.49935 53.8597 7.34935 53.4497C6.2705 50.9966 5.42023 48.4491 4.80935 45.8397C4.79402 45.64 4.79402 45.4395 4.80935 45.2397C5.40161 45.9807 5.79102 46.8629 5.93935 47.7997C6.29801 49.4844 6.85873 51.1195 7.60935 52.6697C7.84935 53.2497 7.98935 53.8797 8.17935 54.4797L8.19935 54.4497Z" fill="black"/>
<path d="M68.6397 69.3398C69.2497 71.0998 69.6997 72.6298 70.3297 74.0898C70.9597 75.5498 71.7197 76.8099 72.4297 78.1599C72.0897 78.4799 71.9697 78.1598 71.8397 77.9998C69.9977 75.6735 68.8318 72.885 68.4697 69.9398C68.5007 69.7334 68.5578 69.5318 68.6397 69.3398Z" fill="black"/>
<path d="M69.14 60.71L62.5 59.35C62.7309 59.1603 62.9982 59.0198 63.2854 58.9373C63.5726 58.8547 63.8736 58.8318 64.17 58.87C65.993 58.8716 67.7555 59.5241 69.14 60.71Z" fill="black"/>
<path d="M27.4697 65.22C29.0797 63.22 31.0497 61.84 32.4097 61.77C31.1882 63.3814 29.534 64.6126 27.6397 65.32L27.4697 65.22Z" fill="black"/>
<path d="M34.21 70.1798C34.2275 69.8172 34.288 69.4581 34.39 69.1098C35.0033 67.7031 35.64 66.3331 36.3 64.9998C36.4668 64.7361 36.6576 64.4884 36.87 64.2598C36.99 64.4798 37.11 64.5998 37.09 64.6798C36.4428 66.6606 35.4694 68.5195 34.21 70.1798Z" fill="black"/>
<path d="M43.4102 66C43.5441 65.1252 43.8427 64.2836 44.2902 63.52L45.2902 63.57C45.4365 64.9609 45.1353 66.3622 44.4302 67.57C44.0502 67.38 44.1602 67.05 44.2102 66.76C44.4519 66.1019 44.5275 65.3943 44.4302 64.7H44.5202L44.4502 64.76L43.7402 66.22L43.4102 66Z" fill="black"/>
<path d="M51.4395 2.82997C52.3804 2.56432 53.366 2.49559 54.3347 2.62808C55.3034 2.76057 56.2344 3.09142 57.0695 3.59997C56.9595 3.65997 56.8595 3.77997 56.7595 3.76997C55.2295 3.61997 53.7595 3.46997 52.1895 3.28997C51.9473 3.23469 51.717 3.13647 51.5095 2.99997C51.5095 2.99997 51.4595 2.88997 51.4395 2.82997Z" fill="black"/>
<path d="M32.1196 60.3799C30.935 61.4927 29.6717 62.5187 28.3396 63.4499C28.0096 63.6999 27.6696 64.0599 27.1496 63.8999C26.9496 63.2899 27.5096 63.1299 27.8196 62.8999C29.1096 62.0599 30.1496 60.7699 32.1196 60.3799Z" fill="black"/>
<path d="M23 58.94C24.0731 57.5115 25.5884 56.4778 27.31 56C26.64 57.31 25.2 58.29 23 58.94Z" fill="black"/>
<path d="M25.5693 61.7299C26.5233 60.3008 27.7668 59.0879 29.2193 58.1699C29.6193 58.6299 29.3293 58.9599 29.1293 59.2299C28.2849 60.4517 27.0454 61.3451 25.6193 61.7599L25.5693 61.7299Z" fill="black"/>
<path d="M76.1301 69.5096C74.832 68.3163 73.8905 66.7862 73.4102 65.0896C73.8802 64.7996 74.0702 65.0896 74.2102 65.3496C75.0453 66.6376 75.6919 68.0385 76.1301 69.5096Z" fill="black"/>
<path d="M7.63007 41.8898C6.71699 39.5227 6.3744 36.9739 6.63007 34.4498C6.63007 34.4498 6.73007 34.3698 6.75007 34.3798C6.78136 34.3901 6.81006 34.4071 6.83421 34.4295C6.85837 34.452 6.87742 34.4793 6.89007 34.5098C7.15007 36.9198 7.38007 39.3298 7.63007 41.8898Z" fill="black"/>
<path d="M41.2997 67.6498C41.0653 66.9036 41.0811 66.1012 41.3447 65.3647C41.6082 64.6282 42.1051 63.998 42.7597 63.5698C42.7597 63.7898 42.8597 63.9698 42.8097 64.0998C42.4306 65.3322 41.9245 66.5219 41.2997 67.6498Z" fill="black"/>
<path d="M28.56 57C27.8915 58.0822 26.959 58.9768 25.85 59.6C25.5282 59.7839 25.1601 59.8707 24.79 59.85C25.8118 58.6238 27.1017 57.6487 28.56 57Z" fill="black"/>
<path d="M69.2401 76.6597C69.0601 76.4897 68.8101 76.3597 68.7101 76.1597C68.0034 74.8263 67.3134 73.463 66.6401 72.0697C66.516 71.6917 66.4257 71.3036 66.3701 70.9097C67.516 72.7334 68.471 74.6703 69.2201 76.6897L69.2401 76.6597Z" fill="black"/>
<path d="M25.77 53C25.3168 53.5954 24.7505 54.0953 24.1035 54.4711C23.4565 54.847 22.7417 55.0913 22 55.19C22.659 54.3933 23.499 53.7658 24.45 53.36C24.8731 53.185 25.3166 53.0641 25.77 53Z" fill="black"/>
<path d="M79.9102 48.0801C80.9802 48.6301 82.0602 49.1801 83.1202 49.7501C83.2102 49.7501 83.2302 49.9601 83.2902 50.0701C82.1102 50.4001 80.7502 49.7401 79.9102 48.0801Z" fill="black"/>
<path d="M67.8302 61.66L63.1502 60.72C63.0602 60.72 62.9902 60.55 62.9102 60.47C64.6432 60.1698 66.4259 60.5263 67.9102 61.47C67.8808 61.5321 67.8541 61.5955 67.8302 61.66Z" fill="black"/>
<path d="M67.9295 63.5097C67.6842 63.5454 67.4349 63.5454 67.1895 63.5097C65.9195 63.0897 64.6695 62.6397 63.4195 62.1797C63.185 62.0455 62.9668 61.8844 62.7695 61.6997C64.2724 61.7295 65.7438 62.1351 67.0495 62.8797C67.3575 63.0853 67.6424 63.3233 67.8995 63.5897L67.9295 63.5097Z" fill="black"/>
<path d="M24.2593 50.1699C23.1871 51.3378 21.8292 52.2063 20.3193 52.6899C20.6093 51.6899 21.3193 51.4999 21.8393 51.1199C22.1632 50.8103 22.5463 50.5692 22.9655 50.4112C23.3848 50.2531 23.8317 50.1812 24.2793 50.1999L24.2593 50.1699Z" fill="black"/>
<path d="M38.33 64.77C38.2993 66.4029 37.6276 67.9582 36.46 69.1C36.8306 67.5602 37.4631 66.0955 38.33 64.77Z" fill="black"/>
<path d="M26.6196 54.4497C25.724 55.6939 24.392 56.5545 22.8896 56.8597C22.8896 56.1997 23.4896 56.0697 23.8896 55.8597C24.6779 55.1843 25.6126 54.7015 26.6196 54.4497Z" fill="black"/>
<path d="M19 49.3901C19.3613 48.8932 19.8196 48.4748 20.3473 48.1602C20.875 47.8457 21.4611 47.6415 22.07 47.5601C21.7285 48.076 21.2752 48.5085 20.7438 48.8253C20.2123 49.1421 19.6163 49.3351 19 49.3901Z" fill="black"/>
<path d="M76.6202 67.1596C75.5298 66.037 74.7778 64.6299 74.4502 63.0996C74.683 63.2835 74.8855 63.5028 75.0502 63.7496C75.7696 64.7866 76.3042 65.9403 76.6302 67.1596H76.6202Z" fill="black"/>
<path d="M35.3597 90.8096C33.9179 91.1647 32.4115 91.1647 30.9697 90.8096C32.4297 90.2696 33.8997 90.6296 35.3597 90.8096Z" fill="black"/>
<path d="M77.4695 65.3396C76.3567 64.3619 75.5626 63.0731 75.1895 61.6396C76.2646 62.6486 77.0516 63.9257 77.4695 65.3396Z" fill="black"/>
<path d="M78.06 63.2C76.9917 62.2643 76.1824 61.0692 75.71 59.73C76.51 60.06 77.11 60.89 78.06 63.2Z" fill="black"/>
<path d="M91.4194 63.3898C91.2444 62.0897 91.4603 60.7669 92.0394 59.5898C92.2455 60.8902 92.0282 62.2224 91.4194 63.3898Z" fill="black"/>
<path d="M58.9102 100.89C59.7 102.085 60.1716 103.461 60.2802 104.89C59.4783 103.701 59.0056 102.321 58.9102 100.89Z" fill="black"/>
<path d="M79.8594 45.8899C81.0286 46.2649 82.1007 46.8931 82.9994 47.7299C82.3562 47.7642 81.7175 47.6042 81.1664 47.2707C80.6153 46.9372 80.1774 46.4456 79.9094 45.8599L79.8594 45.8899Z" fill="black"/>
<path d="M47.2993 63.27C47.6193 64.66 47.5693 64.96 46.8393 65.91C46.6584 65.0034 46.8224 64.062 47.2993 63.27Z" fill="black"/>
<path d="M79.1097 60.6297C78.2488 60.1259 77.5056 59.444 76.9297 58.6297C77.1097 58.2097 77.3497 58.1997 77.5497 58.4097C78.2438 59.0106 78.7795 59.773 79.1097 60.6297Z" fill="black"/>
<path d="M81.0595 36.77C80.0595 36.87 80.0595 36.87 79.4795 36.05C80.2695 36 80.2695 36 81.0595 36.77Z" fill="black"/>
<path d="M82.7394 41C82.3006 41.0712 81.8504 41.0149 81.4427 40.8376C81.0349 40.6603 80.6867 40.3696 80.4395 40C81.5295 40.13 81.5294 40.12 82.7394 41Z" fill="black"/>
<path d="M18.8994 47.6899C19.113 47.3596 19.4111 47.0927 19.7629 46.9168C20.1146 46.741 20.5071 46.6626 20.8994 46.6899C20.6821 47.0164 20.3833 47.2805 20.0324 47.4559C19.6816 47.6313 19.291 47.712 18.8994 47.6899Z" fill="black"/>
<path d="M48.5693 65.29C48.2593 64.07 48.2693 64.07 49.0093 63.29C49.0387 63.9836 48.887 64.6728 48.5693 65.29Z" fill="black"/>
<path d="M78.5801 53.4097C79.1724 53.82 79.659 54.3649 80.0001 54.9997C79.0001 54.7797 78.8501 54.6097 78.5801 53.4097Z" fill="black"/>
<path d="M87.9996 19.46L89.6296 21.2C88.8825 20.8973 88.2566 20.3558 87.8496 19.66L87.9996 19.46Z" fill="black"/>
<path d="M18 45.11C18.41 44.21 19.05 44.11 20 44.02C19.7871 44.357 19.4916 44.634 19.1416 44.8248C18.7916 45.0155 18.3986 45.1137 18 45.11Z" fill="black"/>
<path d="M18.46 45.9998L20.39 45.2598C20.32 45.5298 20.34 45.7498 20.25 45.8098C19.9968 46.0006 19.6965 46.1191 19.3813 46.1526C19.066 46.186 18.7476 46.1332 18.46 45.9998Z" fill="black"/>
<path d="M81.63 38.7098C80.84 38.7098 80.35 38.7098 80 37.9898C80.73 37.7998 81.1 38.1098 81.63 38.7098Z" fill="black"/>
<path d="M81.9996 45.1798C81.3469 45.0842 80.7486 44.7621 80.3096 44.2698C81.0996 44.1298 81.1096 44.1098 82.1796 44.8698L81.9996 45.1798Z" fill="black"/>
<path d="M91.76 26.29C92.1292 26.4996 92.4376 26.8015 92.6549 27.1661C92.8723 27.5308 92.9912 27.9456 93 28.37C92.6608 28.1269 92.375 27.8169 92.16 27.4592C91.945 27.1015 91.8055 26.7037 91.75 26.29H91.76Z" fill="black"/>
<path d="M81.9 42.7196C81.6031 42.7342 81.3085 42.6615 81.0526 42.5104C80.7966 42.3594 80.5906 42.1366 80.46 41.8696C80.7482 41.8708 81.033 41.9318 81.2964 42.0489C81.5598 42.1659 81.796 42.3365 81.99 42.5496L81.9 42.7196Z" fill="black"/>
<path d="M79.3496 34.48C79.4196 34.39 79.4796 34.24 79.5496 34.23C79.9896 34.16 80.4596 34.5 80.3296 34.76C80.3002 34.811 80.2579 34.8535 80.2071 34.8833C80.1563 34.9131 80.0985 34.9292 80.0396 34.93C79.7196 34.93 79.4096 34.88 79.3496 34.48Z" fill="black"/>
<path d="M87.8193 73.3598C87.8278 73.0264 87.903 72.698 88.0404 72.394C88.1778 72.09 88.3746 71.8166 88.6193 71.5898L88.7293 71.6599C88.7013 72.3202 88.4431 72.95 87.9993 73.4398L87.8193 73.3598Z" fill="black"/>
<path d="M80.0996 52.3599C79.9996 52.5299 79.9596 52.6199 79.9396 52.6199C79.9196 52.6199 79.5696 52.5599 79.4696 52.4399C79.3764 52.2924 79.3214 52.124 79.3096 51.9499C79.3096 51.9499 79.4196 51.8299 79.4296 51.8399C79.6596 51.9999 79.8796 52.1999 80.0996 52.3599Z" fill="black"/>
<path d="M53.1201 95.76L52.1201 95.07C52.3201 94.99 52.4601 94.89 52.5101 94.92C52.7648 95.1094 53.0085 95.3131 53.2401 95.53L53.1201 95.76Z" fill="black"/>
<path d="M88 73.4399L87.74 74.4399C87.6722 74.3651 87.621 74.2768 87.59 74.1807C87.559 74.0846 87.5488 73.9831 87.5602 73.8827C87.5715 73.7824 87.6041 73.6857 87.6559 73.599C87.7076 73.5122 87.7772 73.4376 87.86 73.3799L88 73.4399Z" fill="black"/>
<path d="M43.7094 66.19L43.2894 67.27C42.9094 66.68 43.1994 66.36 43.4094 66.02L43.7094 66.19Z" fill="black"/>
<path d="M86.9996 18.5L87.9996 19.5L87.8496 19.7L86.8496 18.77L86.9996 18.5Z" fill="black"/>
<path d="M93 28.3698L93.68 29.1798C92.96 29.0698 93.12 28.6298 93.02 28.3398L93 28.3698Z" fill="black"/>
<path d="M69.2197 76.6899C69.3934 76.7973 69.5397 76.9435 69.6473 77.117C69.7549 77.2906 69.8208 77.4867 69.8397 77.6899C69.3397 77.5199 69.2897 77.0699 69.2197 76.6899Z" fill="black"/>
<path d="M82.1302 44.8696C82.2471 44.8842 82.3614 44.9145 82.4702 44.9596C82.5536 45.0372 82.6275 45.1245 82.6902 45.2196C82.5482 45.2888 82.3964 45.336 82.2402 45.3596C82.1402 45.3596 82.0402 45.2396 81.9502 45.1796L82.1302 44.8696Z" fill="black"/>
<path d="M3.83008 29.32L3.89008 29C3.89008 29.12 3.89008 29.24 3.89008 29.36L3.83008 29.32Z" fill="black"/>
<path d="M70.3799 78.4499L70.5599 78.6299C70.5228 78.6125 70.489 78.5888 70.4599 78.5599C70.4339 78.516 70.4138 78.469 70.3999 78.4199L70.3799 78.4499Z" fill="black"/>
<path d="M76.6301 67.1597L76.9001 67.3097L76.7501 67.4597L76.6201 67.1597H76.6301Z" fill="black"/>
<path d="M12.7197 62.5801L13.2597 63.2801L12.7197 62.5901V62.5801Z" fill="black"/>
<path d="M82.0002 42.5498L82.3502 42.7998L81.9102 42.7198L82.0002 42.5498Z" fill="black"/>
<path d="M8.17969 54.4797L8.42969 54.6797L8.19969 54.4497L8.17969 54.4797Z" fill="black"/>
<path d="M91.79 26.2596L91.54 26.0996L91.76 26.2896L91.79 26.2596Z" fill="black"/>
<path d="M75.8295 9.11963L76.2195 9.50963L75.6895 9.33963L75.8295 9.11963Z" fill="black"/>
<path d="M86.8595 18.7296L86.7295 18.3896L87.0095 18.4996L86.8595 18.7296Z" fill="black"/>
<path d="M88.6201 71.5897L88.8001 71.4297C88.8001 71.4997 88.8001 71.5797 88.7301 71.6597L88.6201 71.5897Z" fill="black"/>
<path d="M68.0001 61.4497L68.1701 61.7097L67.8701 61.6597C67.9098 61.5875 67.9532 61.5174 68.0001 61.4497Z" fill="black"/>
<path d="M27.6402 65.3197L27.4902 65.3697V65.2197L27.6402 65.3197Z" fill="black"/>
<path d="M25.62 61.76L25.54 61.82L25.57 61.73L25.62 61.76Z" fill="black"/>
<path d="M13.2598 63.2797L13.4598 63.3597C13.4598 63.3597 13.3798 63.3597 13.3598 63.3597C13.3243 63.3264 13.297 63.2853 13.2798 63.2397L13.2598 63.2797Z" fill="black"/>
</g>
<defs>
<clipPath id="clip0_568_4534">
<rect width="99.21" height="134.98" fill="white"/>
</clipPath>
</defs>
</svg>
